<svg width="2800" height="2800" viewBox="0 0 2800 2800" fill="none" xmlns="http://www.w3.org/2000/svg">
<g clip-path="url(#clip0)">
<path d="M2800 0H0V2800H2800V0Z" fill="white"/>
<path d="M1240 1170.5C1186.2 1170.5 1132.5 1150 1091.5 1109.1C1033 1050.6 937.9 1050.6 879.4 1109.1C797.5 1191 664.3 1191 582.5 1109.1C524 1050.6 428.9 1050.6 370.4 1109.1L328 1066.7C409.9 984.8 543.1 984.8 624.9 1066.7C683.4 1125.2 778.5 1125.2 837 1066.7C918.9 984.8 1052.1 984.8 1133.9 1066.7C1192.4 1125.2 1287.5 1125.2 1346 1066.7C1427.9 984.8 1561.1 984.8 1642.9 1066.7L1600.5 1109.1C1542 1050.6 1446.9 1050.6 1388.4 1109.1C1347.5 1150 1293.8 1170.5 1240 1170.5Z" fill="#00A0B6"/>
<path d="M1240 1378.5C1186.2 1378.5 1132.5 1358 1091.5 1317.1C1033 1258.6 937.9 1258.6 879.4 1317.1C797.5 1399 664.3 1399 582.5 1317.1C524 1258.6 428.9 1258.6 370.4 1317.1L328 1274.7C409.9 1192.8 543.1 1192.8 624.9 1274.7C683.4 1333.2 778.5 1333.2 837 1274.7C918.9 1192.8 1052.1 1192.8 1133.9 1274.7C1192.4 1333.2 1287.5 1333.2 1346 1274.7C1427.9 1192.8 1561.1 1192.8 1642.9 1274.7L1600.5 1317.1C1542 1258.6 1446.9 1258.6 1388.4 1317.1C1347.5 1358 1293.8 1378.5 1240 1378.5Z" fill="#00A0B6"/>
<path d="M1240 1586.5C1186.2 1586.5 1132.5 1566 1091.5 1525.1C1033 1466.6 937.9 1466.6 879.4 1525.1C797.5 1607 664.3 1607 582.5 1525.1C524 1466.6 428.9 1466.6 370.4 1525.1L328 1482.7C409.9 1400.8 543.1 1400.8 624.9 1482.7C683.4 1541.2 778.5 1541.2 837 1482.7C918.9 1400.8 1052.1 1400.8 1133.9 1482.7C1192.4 1541.2 1287.5 1541.2 1346 1482.7C1427.9 1400.8 1561.1 1400.8 1642.9 1482.7L1600.5 1525.1C1542 1466.6 1446.9 1466.6 1388.4 1525.1C1347.5 1566 1293.8 1586.5 1240 1586.5Z" fill="#00A0B6"/>
<path d="M1240 1794.5C1186.2 1794.5 1132.5 1774 1091.5 1733.1C1033 1674.6 937.9 1674.6 879.4 1733.1C797.5 1815 664.3 1815 582.5 1733.1C524 1674.6 428.9 1674.6 370.4 1733.1L328 1690.7C409.9 1608.8 543.1 1608.8 624.9 1690.7C683.4 1749.2 778.5 1749.2 837 1690.7C918.9 1608.8 1052.1 1608.8 1133.9 1690.7C1192.4 1749.2 1287.5 1749.2 1346 1690.7C1427.9 1608.8 1561.1 1608.8 1642.9 1690.7L1600.5 1733.1C1542 1674.6 1446.9 1674.6 1388.4 1733.1C1347.5 1774 1293.8 1794.5 1240 1794.5Z" fill="#00A0B6"/>
<path d="M1223.3 2008.7C1228.9 2014.3 1238.1 2014.3 1243.7 2008.7C1249.3 2003.1 1249.3 1994 1243.7 1988.3C1238.1 1982.7 1229 1982.7 1223.3 1988.3C1217.7 1993.9 1217.7 2003.1 1223.3 2008.7Z" fill="#832CFF"/>
<path d="M1321 1997.1C1320.8 1998.9 1321 2000.8 1321.5 2002.6C1322 2004.4 1322.9 2006.1 1324.1 2007.6C1324.4 2008 1324.7 2008.3 1325.1 2008.7C1326.9 2010.5 1329 2011.7 1331.2 2012.3C1333 2012.8 1334.8 2013 1336.7 2012.8C1339.5 2012.5 1342.1 2011.5 1344.4 2009.6C1344.8 2009.3 1345.1 2009 1345.5 2008.6C1351.1 2003 1351.1 1993.9 1345.5 1988.2C1345.1 1987.8 1344.8 1987.5 1344.4 1987.2C1338.7 1982.6 1330.4 1982.9 1325.1 1988.2C1324.7 1988.6 1324.4 1988.9 1324.1 1989.3C1322.3 1991.7 1321.2 1994.4 1321 1997.1Z" fill="#832CFF"/>
<path d="M1422.8 2098.9C1422.6 2100.7 1422.8 2102.6 1423.3 2104.4C1424 2106.6 1425.2 2108.7 1426.9 2110.5C1428.7 2112.3 1430.8 2113.5 1433 2114.1C1434.8 2114.6 1436.6 2114.8 1438.5 2114.6C1441.3 2114.3 1443.9 2113.3 1446.2 2111.4C1446.6 2111.1 1446.9 2110.8 1447.3 2110.4C1452.9 2104.8 1452.9 2095.7 1447.3 2090C1441.7 2084.4 1432.6 2084.4 1426.9 2090C1426.5 2090.4 1426.2 2090.7 1425.9 2091.1C1424.1 2093.5 1423.1 2096.2 1422.8 2098.9Z" fill="#832CFF"/>
<path d="M1325.1 2110.5C1330.7 2116.1 1339.8 2116.1 1345.5 2110.5C1351.1 2104.9 1351.1 2095.8 1345.5 2090.1C1339.9 2084.5 1330.8 2084.5 1325.1 2090.1C1319.5 2095.8 1319.5 2104.9 1325.1 2110.5Z" fill="#832CFF"/>
<path d="M1426.9 2212.3C1432.5 2217.9 1441.7 2217.9 1447.3 2212.3C1452.9 2206.7 1452.9 2197.6 1447.3 2191.9C1441.7 2186.3 1432.6 2186.3 1426.9 2191.9C1421.3 2197.6 1421.3 2206.7 1426.9 2212.3Z" fill="#832CFF"/>
<path d="M1524.6 2200.8C1524.4 2202.6 1524.6 2204.5 1525.1 2206.3C1525.6 2208.1 1526.5 2209.8 1527.7 2211.3C1528 2211.7 1528.3 2212 1528.7 2212.4C1530.5 2214.2 1532.6 2215.4 1534.8 2216C1536.6 2216.5 1538.4 2216.7 1540.3 2216.5C1543.1 2216.2 1545.7 2215.2 1548 2213.3C1548.4 2213 1548.7 2212.7 1549.1 2212.3C1554.7 2206.7 1554.7 2197.6 1549.1 2191.9C1548.7 2191.5 1548.4 2191.2 1548 2190.9C1542.3 2186.3 1534 2186.6 1528.7 2191.9C1528.3 2192.3 1528 2192.6 1527.7 2193C1525.9 2195.3 1524.9 2198 1524.6 2200.8Z" fill="#832CFF"/>
<path d="M1528.8 2008.7C1534.4 2014.3 1543.6 2014.3 1549.2 2008.7C1554.8 2003.1 1554.8 1994 1549.2 1988.3C1543.6 1982.7 1534.5 1982.7 1528.8 1988.3C1523.1 1993.9 1523.1 2003.1 1528.8 2008.7Z" fill="#832CFF"/>
<path d="M1630.6 2008.7C1636.2 2014.3 1645.4 2014.3 1651 2008.7C1656.6 2003.1 1656.6 1994 1651 1988.3C1645.4 1982.7 1636.3 1982.7 1630.6 1988.3C1625 1993.9 1625 2003.1 1630.6 2008.7Z" fill="#832CFF"/>
<path d="M1426.9 2008.7C1432.5 2014.3 1441.7 2014.3 1447.3 2008.7C1452.9 2003.1 1452.9 1994 1447.3 1988.3C1441.7 1982.7 1432.6 1982.7 1426.9 1988.3C1421.3 1993.9 1421.3 2003.1 1426.9 2008.7Z" fill="#832CFF"/>
<path d="M1528.8 2110.5C1534.4 2116.1 1543.5 2116.1 1549.2 2110.5C1554.8 2104.9 1554.8 2095.8 1549.2 2090.1C1543.6 2084.5 1534.5 2084.5 1528.8 2090.1C1523.1 2095.8 1523.1 2104.9 1528.8 2110.5Z" fill="#832CFF"/>
<path d="M1728.3 1997.1C1728.1 1998.9 1728.3 2000.8 1728.8 2002.6C1729.3 2004.4 1730.2 2006.1 1731.4 2007.6C1731.7 2008 1732 2008.3 1732.4 2008.7C1734.2 2010.5 1736.3 2011.7 1738.5 2012.3C1740.3 2012.8 1742.1 2013 1744 2012.8C1746.8 2012.5 1749.4 2011.5 1751.7 2009.6C1752.1 2009.3 1752.4 2009 1752.8 2008.6C1758.4 2003 1758.4 1993.9 1752.8 1988.2C1752.4 1987.8 1752.1 1987.5 1751.7 1987.2C1746 1982.6 1737.7 1982.9 1732.4 1988.2C1732 1988.6 1731.7 1988.9 1731.4 1989.3C1729.6 1991.7 1728.5 1994.4 1728.3 1997.1Z" fill="#832CFF"/>
<path d="M1629.6 2109.4C1629.9 2109.8 1630.2 2110.1 1630.6 2110.5C1636.2 2116.1 1645.4 2116.1 1651 2110.5C1656.6 2104.9 1656.6 2095.8 1651 2090.1C1650.6 2089.7 1650.3 2089.4 1649.9 2089.1C1644.2 2084.5 1635.9 2084.8 1630.6 2090.1C1625.3 2095.4 1625 2103.8 1629.6 2109.4Z" fill="#832CFF"/>
<path d="M1626.4 2302.6C1626.2 2304.4 1626.4 2306.3 1626.9 2308.1C1627.6 2310.3 1628.8 2312.4 1630.5 2314.2C1632.3 2316 1634.4 2317.2 1636.6 2317.8C1638.4 2318.3 1640.2 2318.5 1642.1 2318.3C1644.9 2318 1647.5 2317 1649.8 2315.1C1650.2 2314.8 1650.5 2314.5 1650.9 2314.1C1656.5 2308.5 1656.5 2299.4 1650.9 2293.7C1645.3 2288.1 1636.2 2288.1 1630.5 2293.7C1630.1 2294.1 1629.8 2294.4 1629.5 2294.8C1627.8 2297.1 1626.7 2299.8 1626.4 2302.6Z" fill="#832CFF"/>
<path d="M1528.8 2314.2C1534.4 2319.8 1543.5 2319.8 1549.2 2314.2C1554.8 2308.6 1554.8 2299.5 1549.2 2293.8C1543.6 2288.2 1534.5 2288.2 1528.8 2293.8C1523.1 2299.4 1523.1 2308.5 1528.8 2314.2Z" fill="#832CFF"/>
<path d="M1630.6 2416C1636.2 2421.6 1645.4 2421.6 1651 2416C1656.6 2410.4 1656.6 2401.3 1651 2395.6C1645.4 2390 1636.3 2390 1630.6 2395.6C1625 2401.2 1625 2410.4 1630.6 2416Z" fill="#832CFF"/>
<path d="M1728.3 2404.4C1728.1 2406.2 1728.3 2408.1 1728.8 2409.9C1729.3 2411.7 1730.2 2413.4 1731.4 2414.9C1731.7 2415.3 1732 2415.6 1732.4 2416C1734.2 2417.8 1736.3 2419 1738.5 2419.6C1740.3 2420.1 1742.1 2420.3 1744 2420.1C1746.8 2419.8 1749.4 2418.8 1751.7 2416.9C1752.1 2416.6 1752.4 2416.3 1752.8 2415.9C1758.4 2410.3 1758.4 2401.2 1752.8 2395.5C1752.4 2395.1 1752.1 2394.8 1751.7 2394.5C1746 2389.9 1737.7 2390.2 1732.4 2395.5C1732 2395.9 1731.7 2396.2 1731.4 2396.6C1729.6 2399 1728.5 2401.7 1728.3 2404.4Z" fill="#832CFF"/>
<path d="M1830.1 2098.9C1829.9 2100.7 1830.1 2102.6 1830.6 2104.4C1831.3 2106.6 1832.5 2108.7 1834.2 2110.5C1836 2112.3 1838.1 2113.5 1840.3 2114.1C1842.1 2114.6 1843.9 2114.8 1845.8 2114.6C1848.6 2114.3 1851.2 2113.3 1853.5 2111.4C1853.9 2111.1 1854.2 2110.8 1854.6 2110.4C1860.2 2104.8 1860.2 2095.7 1854.6 2090C1849 2084.4 1839.9 2084.4 1834.2 2090C1833.8 2090.4 1833.5 2090.7 1833.2 2091.1C1831.4 2093.5 1830.3 2096.2 1830.1 2098.9Z" fill="#832CFF"/>
<path d="M1732.4 2212.3C1738 2217.9 1747.2 2217.9 1752.8 2212.3C1758.4 2206.7 1758.4 2197.6 1752.8 2191.9C1747.2 2186.3 1738.1 2186.3 1732.4 2191.9C1726.8 2197.6 1726.8 2206.7 1732.4 2212.3Z" fill="#832CFF"/>
<path d="M1732.4 2110.5C1738 2116.1 1747.2 2116.1 1752.8 2110.5C1758.4 2104.9 1758.4 2095.8 1752.8 2090.1C1747.2 2084.5 1738.1 2084.5 1732.4 2090.1C1726.8 2095.8 1726.8 2104.9 1732.4 2110.5Z" fill="#832CFF"/>
<path d="M1834.2 2212.3C1839.8 2217.9 1849 2217.9 1854.6 2212.3C1860.2 2206.7 1860.2 2197.6 1854.6 2191.9C1849 2186.3 1839.9 2186.3 1834.2 2191.9C1828.6 2197.6 1828.6 2206.7 1834.2 2212.3Z" fill="#832CFF"/>
<path d="M1630.6 2212.3C1636.2 2217.9 1645.3 2217.9 1651 2212.3C1656.6 2206.7 1656.6 2197.6 1651 2191.9C1645.4 2186.3 1636.3 2186.3 1630.6 2191.9C1625 2197.6 1625 2206.7 1630.6 2212.3Z" fill="#832CFF"/>
<path d="M1732.4 2314.2C1738 2319.8 1747.2 2319.8 1752.8 2314.2C1758.4 2308.6 1758.4 2299.5 1752.8 2293.8C1747.2 2288.2 1738.1 2288.2 1732.4 2293.8C1726.8 2299.4 1726.8 2308.5 1732.4 2314.2Z" fill="#832CFF"/>
<path d="M1931.9 2200.8C1931.7 2202.6 1931.9 2204.5 1932.4 2206.3C1932.9 2208.1 1933.8 2209.8 1935 2211.3C1935.3 2211.7 1935.6 2212 1936 2212.4C1937.8 2214.2 1939.9 2215.4 1942.1 2216C1943.9 2216.5 1945.7 2216.7 1947.6 2216.5C1950.4 2216.2 1953 2215.2 1955.3 2213.3C1955.7 2213 1956 2212.7 1956.4 2212.3C1962 2206.7 1962 2197.6 1956.4 2191.9C1956 2191.5 1955.7 2191.2 1955.3 2190.9C1949.6 2186.3 1941.3 2186.6 1936 2191.9C1935.6 2192.3 1935.3 2192.6 1935 2193C1933.2 2195.3 1932.2 2198 1931.9 2200.8Z" fill="#832CFF"/>
<path d="M1833.2 2313.1C1833.5 2313.5 1833.8 2313.8 1834.2 2314.2C1839.8 2319.8 1849 2319.8 1854.6 2314.2C1860.2 2308.6 1860.2 2299.5 1854.6 2293.8C1854.2 2293.4 1853.9 2293.1 1853.5 2292.8C1847.8 2288.2 1839.5 2288.5 1834.2 2293.8C1829 2299.1 1828.6 2307.4 1833.2 2313.1Z" fill="#832CFF"/>
<path d="M1936 2008.7C1941.6 2014.3 1950.8 2014.3 1956.4 2008.7C1962 2003.1 1962 1994 1956.4 1988.3C1950.8 1982.7 1941.7 1982.7 1936 1988.3C1930.4 1993.9 1930.4 2003.1 1936 2008.7Z" fill="#832CFF"/>
<path d="M2037.9 2008.7C2043.5 2014.3 2052.7 2014.3 2058.3 2008.7C2063.9 2003.1 2063.9 1994 2058.3 1988.3C2052.7 1982.7 2043.6 1982.7 2037.9 1988.3C2032.3 1993.9 2032.3 2003.1 2037.9 2008.7Z" fill="#832CFF"/>
<path d="M1834.2 2008.7C1839.8 2014.3 1849 2014.3 1854.6 2008.7C1860.2 2003.1 1860.2 1994 1854.6 1988.3C1849 1982.7 1839.9 1982.7 1834.2 1988.3C1828.6 1993.9 1828.6 2003.1 1834.2 2008.7Z" fill="#832CFF"/>
<path d="M1936 2110.5C1941.6 2116.1 1950.8 2116.1 1956.4 2110.5C1962 2104.9 1962 2095.8 1956.4 2090.1C1950.8 2084.5 1941.7 2084.5 1936 2090.1C1930.4 2095.8 1930.4 2104.9 1936 2110.5Z" fill="#832CFF"/>
<path d="M2135.6 1997.1C2135.4 1998.9 2135.6 2000.8 2136.1 2002.6C2136.6 2004.4 2137.5 2006.1 2138.7 2007.6C2139 2008 2139.3 2008.3 2139.7 2008.7C2141.5 2010.5 2143.6 2011.7 2145.8 2012.3C2147.6 2012.8 2149.4 2013 2151.3 2012.8C2154.1 2012.5 2156.7 2011.5 2159 2009.6C2159.4 2009.3 2159.7 2009 2160.1 2008.6C2165.7 2003 2165.7 1993.9 2160.1 1988.2C2159.7 1987.8 2159.4 1987.5 2159 1987.2C2153.3 1982.6 2145 1982.9 2139.7 1988.2C2139.3 1988.6 2139 1988.9 2138.7 1989.3C2136.9 1991.7 2135.8 1994.4 2135.6 1997.1Z" fill="#832CFF"/>
<path d="M2036.9 2109.4C2037.2 2109.8 2037.5 2110.1 2037.9 2110.5C2043.5 2116.1 2052.7 2116.1 2058.3 2110.5C2063.9 2104.9 2063.9 2095.8 2058.3 2090.1C2057.9 2089.7 2057.6 2089.4 2057.2 2089.1C2051.5 2084.5 2043.2 2084.8 2037.9 2090.1C2032.6 2095.4 2032.3 2103.8 2036.9 2109.4Z" fill="#832CFF"/>
<path d="M1830.1 2506.2C1829.9 2508 1830.1 2509.9 1830.6 2511.7C1831.3 2513.9 1832.5 2516 1834.2 2517.8C1836 2519.6 1838.1 2520.8 1840.3 2521.4C1842.1 2521.9 1843.9 2522.1 1845.8 2521.9C1848.6 2521.6 1851.2 2520.6 1853.5 2518.7C1853.9 2518.4 1854.2 2518.1 1854.6 2517.7C1860.2 2512.1 1860.2 2503 1854.6 2497.3C1849 2491.7 1839.9 2491.7 1834.2 2497.3C1833.8 2497.7 1833.5 2498 1833.2 2498.4C1831.4 2500.8 1830.3 2503.5 1830.1 2506.2Z" fill="#832CFF"/>
<path d="M1732.4 2517.8C1738 2523.4 1747.2 2523.4 1752.8 2517.8C1758.4 2512.2 1758.4 2503.1 1752.8 2497.4C1747.2 2491.8 1738.1 2491.8 1732.4 2497.4C1726.8 2503.1 1726.8 2512.2 1732.4 2517.8Z" fill="#832CFF"/>
<path d="M2033.7 2302.6C2033.5 2304.4 2033.7 2306.3 2034.2 2308.1C2034.9 2310.3 2036.1 2312.4 2037.8 2314.2C2039.6 2316 2041.7 2317.2 2043.9 2317.8C2045.7 2318.3 2047.5 2318.5 2049.4 2318.3C2052.2 2318 2054.8 2317 2057.1 2315.1C2057.5 2314.8 2057.8 2314.5 2058.2 2314.1C2063.8 2308.5 2063.8 2299.4 2058.2 2293.7C2052.6 2288.1 2043.5 2288.1 2037.8 2293.7C2037.4 2294.1 2037.1 2294.4 2036.8 2294.8C2035 2297.1 2034 2299.8 2033.7 2302.6Z" fill="#832CFF"/>
<path d="M1936 2416C1941.6 2421.6 1950.8 2421.6 1956.4 2416C1962 2410.4 1962 2401.3 1956.4 2395.6C1950.8 2390 1941.7 2390 1936 2395.6C1930.4 2401.2 1930.4 2410.4 1936 2416Z" fill="#832CFF"/>
<path d="M1936 2314.2C1941.6 2319.8 1950.8 2319.8 1956.4 2314.2C1962 2308.6 1962 2299.5 1956.4 2293.8C1950.8 2288.2 1941.7 2288.2 1936 2293.8C1930.4 2299.4 1930.4 2308.5 1936 2314.2Z" fill="#832CFF"/>
<path d="M1834.2 2416C1839.8 2421.6 1849 2421.6 1854.6 2416C1860.2 2410.4 1860.2 2401.3 1854.6 2395.6C1849 2390 1839.9 2390 1834.2 2395.6C1828.6 2401.2 1828.6 2410.4 1834.2 2416Z" fill="#832CFF"/>
<path d="M2237.4 2098.9C2237.2 2100.7 2237.4 2102.6 2237.9 2104.4C2238.6 2106.6 2239.8 2108.7 2241.5 2110.5C2243.3 2112.3 2245.4 2113.5 2247.6 2114.1C2249.4 2114.6 2251.2 2114.8 2253.1 2114.6C2255.9 2114.3 2258.5 2113.3 2260.8 2111.4C2261.2 2111.1 2261.5 2110.8 2261.9 2110.4C2267.5 2104.8 2267.5 2095.7 2261.9 2090C2256.3 2084.4 2247.2 2084.4 2241.5 2090C2241.1 2090.4 2240.8 2090.7 2240.5 2091.1C2238.7 2093.5 2237.6 2096.2 2237.4 2098.9Z" fill="#832CFF"/>
<path d="M2139.7 2212.3C2145.3 2217.9 2154.5 2217.9 2160.1 2212.3C2165.7 2206.7 2165.7 2197.6 2160.1 2191.9C2154.5 2186.3 2145.4 2186.3 2139.7 2191.9C2134.1 2197.6 2134.1 2206.7 2139.7 2212.3Z" fill="#832CFF"/>
<path d="M2139.7 2110.5C2145.3 2116.1 2154.5 2116.1 2160.1 2110.5C2165.7 2104.9 2165.7 2095.8 2160.1 2090.1C2154.5 2084.5 2145.4 2084.5 2139.7 2090.1C2134.1 2095.8 2134.1 2104.9 2139.7 2110.5Z" fill="#832CFF"/>
<path d="M2037.9 2212.3C2043.5 2217.9 2052.7 2217.9 2058.3 2212.3C2063.9 2206.7 2063.9 2197.6 2058.3 2191.9C2052.7 2186.3 2043.6 2186.3 2037.9 2191.9C2032.3 2197.6 2032.3 2206.7 2037.9 2212.3Z" fill="#832CFF"/>
<path d="M2343.3 2008.7C2348.9 2014.3 2358.1 2014.3 2363.7 2008.7C2369.3 2003.1 2369.3 1994 2363.7 1988.3C2358.1 1982.7 2349 1982.7 2343.3 1988.3C2337.7 1993.9 2337.7 2003.1 2343.3 2008.7Z" fill="#832CFF"/>
<path d="M2241.5 2008.7C2247.1 2014.3 2256.3 2014.3 2261.9 2008.7C2267.5 2003.1 2267.5 1994 2261.9 1988.3C2256.3 1982.7 2247.2 1982.7 2241.5 1988.3C2235.9 1993.9 2235.9 2003.1 2241.5 2008.7Z" fill="#832CFF"/>
<path d="M1866.4 43.6C1866.2 45.4 1866.4 47.3 1866.9 49.1C1867.6 51.3 1868.8 53.4 1870.5 55.2C1872.3 57 1874.4 58.2 1876.6 58.8C1878.4 59.3 1880.2 59.5 1882.1 59.3C1884.9 59 1887.5 58 1889.8 56.1C1890.2 55.8 1890.5 55.5 1890.9 55.1C1896.5 49.5 1896.5 40.4 1890.9 34.7C1885.3 29.1 1876.2 29.1 1870.5 34.7C1870.1 35.1 1869.8 35.4 1869.5 35.8C1867.8 38.1 1866.7 40.8 1866.4 43.6Z" fill="#832CFF"/>
<path d="M1768.8 55.2001C1774.4 60.8001 1783.5 60.8001 1789.2 55.2001C1794.8 49.6001 1794.8 40.5001 1789.2 34.8001C1783.6 29.2001 1774.5 29.2001 1768.8 34.8001C1763.1 40.4001 1763.1 49.5001 1768.8 55.2001Z" fill="#832CFF"/>
<path d="M1870.6 157C1876.2 162.6 1885.4 162.6 1891 157C1896.6 151.4 1896.6 142.3 1891 136.6C1885.4 131 1876.3 131 1870.6 136.6C1865 142.2 1865 151.4 1870.6 157Z" fill="#832CFF"/>
<path d="M1968.3 145.4C1968.1 147.2 1968.3 149.1 1968.8 150.9C1969.3 152.7 1970.2 154.4 1971.4 155.9C1971.7 156.3 1972 156.6 1972.4 157C1974.2 158.8 1976.3 160 1978.5 160.6C1980.3 161.1 1982.1 161.3 1984 161.1C1986.8 160.8 1989.4 159.8 1991.7 157.9C1992.1 157.6 1992.4 157.3 1992.8 156.9C1998.4 151.3 1998.4 142.2 1992.8 136.5C1992.4 136.1 1992.1 135.8 1991.7 135.5C1986 130.9 1977.7 131.2 1972.4 136.5C1972 136.9 1971.7 137.2 1971.4 137.6C1969.6 140 1968.5 142.7 1968.3 145.4Z" fill="#832CFF"/>
<path d="M1972.4 55.2001C1978 60.8001 1987.2 60.8001 1992.8 55.2001C1998.4 49.6001 1998.4 40.5001 1992.8 34.8001C1987.2 29.2001 1978.1 29.2001 1972.4 34.8001C1966.8 40.4001 1966.8 49.5001 1972.4 55.2001Z" fill="#832CFF"/>
<path d="M2073.2 54.1003C2073.5 54.5003 2073.8 54.8003 2074.2 55.2003C2079.8 60.8003 2089 60.8003 2094.6 55.2003C2100.2 49.6003 2100.2 40.5003 2094.6 34.8003C2094.2 34.4003 2093.9 34.1003 2093.5 33.8003C2087.8 29.2003 2079.5 29.5003 2074.2 34.8003C2069 40.1003 2068.6 48.4003 2073.2 54.1003Z" fill="#832CFF"/>
<path d="M2070.1 247.2C2069.9 249 2070.1 250.9 2070.6 252.7C2071.3 254.9 2072.5 257 2074.2 258.8C2076 260.6 2078.1 261.8 2080.3 262.4C2082.1 262.9 2083.9 263.1 2085.8 262.9C2088.6 262.6 2091.2 261.6 2093.5 259.7C2093.9 259.4 2094.2 259.1 2094.6 258.7C2100.2 253.1 2100.2 244 2094.6 238.3C2089 232.7 2079.9 232.7 2074.2 238.3C2073.8 238.7 2073.5 239 2073.2 239.4C2071.4 241.8 2070.3 244.5 2070.1 247.2Z" fill="#832CFF"/>
<path d="M1972.4 258.8C1978 264.4 1987.2 264.4 1992.8 258.8C1998.4 253.2 1998.4 244.1 1992.8 238.4C1987.2 232.8 1978.1 232.8 1972.4 238.4C1966.8 244.1 1966.8 253.2 1972.4 258.8Z" fill="#832CFF"/>
<path d="M2273.7 43.6C2273.5 45.4 2273.7 47.3 2274.2 49.1C2274.9 51.3 2276.1 53.4 2277.8 55.2C2279.6 57 2281.7 58.2 2283.9 58.8C2285.7 59.3 2287.5 59.5 2289.4 59.3C2292.2 59 2294.8 58 2297.1 56.1C2297.5 55.8 2297.8 55.5 2298.2 55.1C2303.8 49.5 2303.8 40.4 2298.2 34.7C2292.6 29.1 2283.5 29.1 2277.8 34.7C2277.4 35.1 2277.1 35.4 2276.8 35.8C2275 38.1 2274 40.8 2273.7 43.6Z" fill="#832CFF"/>
<path d="M2176 157C2181.6 162.6 2190.8 162.6 2196.4 157C2202 151.4 2202 142.3 2196.4 136.6C2190.8 131 2181.7 131 2176 136.6C2170.4 142.2 2170.4 151.4 2176 157Z" fill="#832CFF"/>
<path d="M2176 55.2001C2181.6 60.8001 2190.8 60.8001 2196.4 55.2001C2202 49.6001 2202 40.5001 2196.4 34.8001C2190.8 29.2001 2181.7 29.2001 2176 34.8001C2170.4 40.4001 2170.4 49.5001 2176 55.2001Z" fill="#832CFF"/>
<path d="M2074.2 157C2079.8 162.6 2089 162.6 2094.6 157C2100.2 151.4 2100.2 142.3 2094.6 136.6C2089 131 2079.9 131 2074.2 136.6C2068.6 142.2 2068.6 151.4 2074.2 157Z" fill="#832CFF"/>
<path d="M350.3 581.7C355.9 587.3 365.1 587.3 370.7 581.7C376.3 576.1 376.3 567 370.7 561.3C365.1 555.7 356 555.7 350.3 561.3C344.7 566.9 344.7 576.1 350.3 581.7Z" fill="#FF70A9"/>
<path d="M448 570.1C447.8 571.9 448 573.8 448.5 575.6C449 577.4 449.9 579.1 451.1 580.6C451.4 581 451.7 581.3 452.1 581.7C453.9 583.5 456 584.7 458.2 585.3C460 585.8 461.8 586 463.7 585.8C466.5 585.5 469.1 584.5 471.4 582.6C471.8 582.3 472.1 582 472.5 581.6C478.1 576 478.1 566.9 472.5 561.2C472.1 560.8 471.8 560.5 471.4 560.2C465.7 555.6 457.4 555.9 452.1 561.2C451.7 561.6 451.4 561.9 451.1 562.3C449.3 564.7 448.2 567.4 448 570.1Z" fill="#FF70A9"/>
<path d="M549.8 671.9C549.6 673.7 549.8 675.6 550.3 677.4C551 679.6 552.2 681.7 553.9 683.5C555.7 685.3 557.8 686.5 560 687.1C561.8 687.6 563.6 687.8 565.5 687.6C568.3 687.3 570.9 686.3 573.2 684.4C573.6 684.1 573.9 683.8 574.3 683.4C579.9 677.8 579.9 668.7 574.3 663C568.7 657.4 559.6 657.4 553.9 663C553.5 663.4 553.2 663.7 552.9 664.1C551.1 666.5 550.1 669.2 549.8 671.9Z" fill="#FF70A9"/>
<path d="M452.1 683.5C457.7 689.1 466.8 689.1 472.5 683.5C478.1 677.9 478.1 668.8 472.5 663.1C466.9 657.5 457.8 657.5 452.1 663.1C446.5 668.8 446.5 677.9 452.1 683.5Z" fill="#FF70A9"/>
<path d="M553.9 785.3C559.5 790.9 568.6 790.9 574.3 785.3C579.9 779.7 579.9 770.6 574.3 764.9C568.7 759.3 559.6 759.3 553.9 764.9C548.3 770.6 548.3 779.7 553.9 785.3Z" fill="#FF70A9"/>
<path d="M651.6 773.8C651.4 775.6 651.6 777.5 652.1 779.3C652.6 781.1 653.5 782.8 654.7 784.3C655 784.7 655.3 785 655.7 785.4C657.5 787.2 659.6 788.4 661.8 789C663.6 789.5 665.4 789.7 667.3 789.5C670.1 789.2 672.7 788.2 675 786.3C675.4 786 675.7 785.7 676.1 785.3C681.7 779.7 681.7 770.6 676.1 764.9C675.7 764.5 675.4 764.2 675 763.9C669.3 759.3 661 759.6 655.7 764.9C655.3 765.3 655 765.6 654.7 766C652.9 768.3 651.9 771 651.6 773.8Z" fill="#FF70A9"/>
<path d="M655.8 581.7C661.4 587.3 670.6 587.3 676.2 581.7C681.8 576.1 681.8 567 676.2 561.3C670.6 555.7 661.5 555.7 655.8 561.3C650.1 566.9 650.1 576.1 655.8 581.7Z" fill="#FF70A9"/>
<path d="M757.6 581.7C763.2 587.3 772.4 587.3 778 581.7C783.6 576.1 783.6 567 778 561.3C772.4 555.7 763.3 555.7 757.6 561.3C752 566.9 752 576.1 757.6 581.7Z" fill="#FF70A9"/>
<path d="M553.9 581.7C559.5 587.3 568.7 587.3 574.3 581.7C579.9 576.1 579.9 567 574.3 561.3C568.7 555.7 559.6 555.7 553.9 561.3C548.3 566.9 548.3 576.1 553.9 581.7Z" fill="#FF70A9"/>
<path d="M655.8 683.5C661.4 689.1 670.5 689.1 676.2 683.5C681.8 677.9 681.8 668.8 676.2 663.1C670.6 657.5 661.5 657.5 655.8 663.1C650.1 668.8 650.1 677.9 655.8 683.5Z" fill="#FF70A9"/>
<path d="M855.3 570.1C855.1 571.9 855.3 573.8 855.8 575.6C856.3 577.4 857.2 579.1 858.4 580.6C858.7 581 859 581.3 859.4 581.7C861.2 583.5 863.3 584.7 865.5 585.3C867.3 585.8 869.1 586 871 585.8C873.8 585.5 876.4 584.5 878.7 582.6C879.1 582.3 879.4 582 879.8 581.6C885.4 576 885.4 566.9 879.8 561.2C879.4 560.8 879.1 560.5 878.7 560.2C873 555.6 864.7 555.9 859.4 561.2C859 561.6 858.7 561.9 858.4 562.3C856.6 564.7 855.5 567.4 855.3 570.1Z" fill="#FF70A9"/>
<path d="M756.6 682.4C756.9 682.8 757.2 683.1 757.6 683.5C763.2 689.1 772.4 689.1 778 683.5C783.6 677.9 783.6 668.8 778 663.1C777.6 662.7 777.3 662.4 776.9 662.1C771.2 657.5 762.9 657.8 757.6 663.1C752.3 668.4 752 676.8 756.6 682.4Z" fill="#FF70A9"/>
<path d="M753.4 875.6C753.2 877.4 753.4 879.3 753.9 881.1C754.6 883.3 755.8 885.4 757.5 887.2C759.3 889 761.4 890.2 763.6 890.8C765.4 891.3 767.2 891.5 769.1 891.3C771.9 891 774.5 890 776.8 888.1C777.2 887.8 777.5 887.5 777.9 887.1C783.5 881.5 783.5 872.4 777.9 866.7C772.3 861.1 763.2 861.1 757.5 866.7C757.1 867.1 756.8 867.4 756.5 867.8C754.8 870.1 753.7 872.8 753.4 875.6Z" fill="#FF70A9"/>
<path d="M655.8 887.2C661.4 892.8 670.5 892.8 676.2 887.2C681.8 881.6 681.8 872.5 676.2 866.8C670.6 861.2 661.5 861.2 655.8 866.8C650.1 872.4 650.1 881.5 655.8 887.2Z" fill="#FF70A9"/>
<path d="M757.6 989C763.2 994.6 772.4 994.6 778 989C783.6 983.4 783.6 974.3 778 968.6C772.4 963 763.3 963 757.6 968.6C752 974.2 752 983.4 757.6 989Z" fill="#FF70A9"/>
<path d="M855.3 977.4C855.1 979.2 855.3 981.1 855.8 982.9C856.3 984.7 857.2 986.4 858.4 987.9C858.7 988.3 859 988.6 859.4 989C861.2 990.8 863.3 992 865.5 992.6C867.3 993.1 869.1 993.3 871 993.1C873.8 992.8 876.4 991.8 878.7 989.9C879.1 989.6 879.4 989.3 879.8 988.9C885.4 983.3 885.4 974.2 879.8 968.5C879.4 968.1 879.1 967.8 878.7 967.5C873 962.9 864.7 963.2 859.4 968.5C859 968.9 858.7 969.2 858.4 969.6C856.6 972 855.5 974.7 855.3 977.4Z" fill="#FF70A9"/>
<path d="M957.1 671.9C956.9 673.7 957.1 675.6 957.6 677.4C958.3 679.6 959.5 681.7 961.2 683.5C963 685.3 965.1 686.5 967.3 687.1C969.1 687.6 970.9 687.8 972.8 687.6C975.6 687.3 978.2 686.3 980.5 684.4C980.9 684.1 981.2 683.8 981.6 683.4C987.2 677.8 987.2 668.7 981.6 663C976 657.4 966.9 657.4 961.2 663C960.8 663.4 960.5 663.7 960.2 664.1C958.4 666.5 957.3 669.2 957.1 671.9Z" fill="#FF70A9"/>
<path d="M859.4 785.3C865 790.9 874.1 790.9 879.8 785.3C885.4 779.7 885.4 770.6 879.8 764.9C874.2 759.3 865.1 759.3 859.4 764.9C853.8 770.6 853.8 779.7 859.4 785.3Z" fill="#FF70A9"/>
<path d="M859.4 683.5C865 689.1 874.1 689.1 879.8 683.5C885.4 677.9 885.4 668.8 879.8 663.1C874.2 657.5 865.1 657.5 859.4 663.1C853.8 668.8 853.8 677.9 859.4 683.5Z" fill="#FF70A9"/>
<path d="M961.2 785.3C966.8 790.9 976 790.9 981.6 785.3C987.2 779.7 987.2 770.6 981.6 764.9C976 759.3 966.9 759.3 961.2 764.9C955.6 770.6 955.6 779.7 961.2 785.3Z" fill="#FF70A9"/>
<path d="M757.6 785.3C763.2 790.9 772.3 790.9 778 785.3C783.6 779.7 783.6 770.6 778 764.9C772.4 759.3 763.3 759.3 757.6 764.9C752 770.6 752 779.7 757.6 785.3Z" fill="#FF70A9"/>
<path d="M859.4 887.2C865 892.8 874.1 892.8 879.8 887.2C885.4 881.6 885.4 872.5 879.8 866.8C874.2 861.2 865.1 861.2 859.4 866.8C853.8 872.4 853.8 881.5 859.4 887.2Z" fill="#FF70A9"/>
<path d="M1058.9 773.8C1058.7 775.6 1058.9 777.5 1059.4 779.3C1059.9 781.1 1060.8 782.8 1062 784.3C1062.3 784.7 1062.6 785 1063 785.4C1064.8 787.2 1066.9 788.4 1069.1 789C1070.9 789.5 1072.7 789.7 1074.6 789.5C1077.4 789.2 1080 788.2 1082.3 786.3C1082.7 786 1083 785.7 1083.4 785.3C1089 779.7 1089 770.6 1083.4 764.9C1083 764.5 1082.7 764.2 1082.3 763.9C1076.6 759.3 1068.3 759.6 1063 764.9C1062.6 765.3 1062.3 765.6 1062 766C1060.2 768.3 1059.2 771 1058.9 773.8Z" fill="#FF70A9"/>
<path d="M960.2 886.1C960.5 886.5 960.8 886.8 961.2 887.2C966.8 892.8 976 892.8 981.6 887.2C987.2 881.6 987.2 872.5 981.6 866.8C981.2 866.4 980.9 866.1 980.5 865.8C974.8 861.2 966.5 861.5 961.2 866.8C956 872.1 955.6 880.4 960.2 886.1Z" fill="#FF70A9"/>
<path d="M1063 581.7C1068.6 587.3 1077.8 587.3 1083.4 581.7C1089 576.1 1089 567 1083.4 561.3C1077.8 555.7 1068.7 555.7 1063 561.3C1057.4 566.9 1057.4 576.1 1063 581.7Z" fill="#FF70A9"/>
<path d="M1164.9 581.7C1170.5 587.3 1179.7 587.3 1185.3 581.7C1190.9 576.1 1190.9 567 1185.3 561.3C1179.7 555.7 1170.6 555.7 1164.9 561.3C1159.3 566.9 1159.3 576.1 1164.9 581.7Z" fill="#FF70A9"/>
<path d="M961.2 581.7C966.8 587.3 976 587.3 981.6 581.7C987.2 576.1 987.2 567 981.6 561.3C976 555.7 966.9 555.7 961.2 561.3C955.6 566.9 955.6 576.1 961.2 581.7Z" fill="#FF70A9"/>
<path d="M1063 683.5C1068.6 689.1 1077.8 689.1 1083.4 683.5C1089 677.9 1089 668.8 1083.4 663.1C1077.8 657.5 1068.7 657.5 1063 663.1C1057.4 668.8 1057.4 677.9 1063 683.5Z" fill="#FF70A9"/>
<path d="M1262.6 570.1C1262.4 571.9 1262.6 573.8 1263.1 575.6C1263.6 577.4 1264.5 579.1 1265.7 580.6C1266 581 1266.3 581.3 1266.7 581.7C1268.5 583.5 1270.6 584.7 1272.8 585.3C1274.6 585.8 1276.4 586 1278.3 585.8C1281.1 585.5 1283.7 584.5 1286 582.6C1286.4 582.3 1286.7 582 1287.1 581.6C1292.7 576 1292.7 566.9 1287.1 561.2C1286.7 560.8 1286.4 560.5 1286 560.2C1280.3 555.6 1272 555.9 1266.7 561.2C1266.3 561.6 1266 561.9 1265.7 562.3C1263.9 564.7 1262.8 567.4 1262.6 570.1Z" fill="#FF70A9"/>
<path d="M1163.9 682.4C1164.2 682.8 1164.5 683.1 1164.9 683.5C1170.5 689.1 1179.7 689.1 1185.3 683.5C1190.9 677.9 1190.9 668.8 1185.3 663.1C1184.9 662.7 1184.6 662.4 1184.2 662.1C1178.5 657.5 1170.2 657.8 1164.9 663.1C1159.6 668.4 1159.3 676.8 1163.9 682.4Z" fill="#FF70A9"/>
<path d="M957.1 1079.2C956.9 1081 957.1 1082.9 957.6 1084.7C958.3 1086.9 959.5 1089 961.2 1090.8C963 1092.6 965.1 1093.8 967.3 1094.4C969.1 1094.9 970.9 1095.1 972.8 1094.9C975.6 1094.6 978.2 1093.6 980.5 1091.7C980.9 1091.4 981.2 1091.1 981.6 1090.7C987.2 1085.1 987.2 1076 981.6 1070.3C976 1064.7 966.9 1064.7 961.2 1070.3C960.8 1070.7 960.5 1071 960.2 1071.4C958.4 1073.8 957.3 1076.5 957.1 1079.2Z" fill="#FF70A9"/>
<path d="M859.4 1090.8C865 1096.4 874.2 1096.4 879.8 1090.8C885.4 1085.2 885.4 1076.1 879.8 1070.4C874.2 1064.8 865.1 1064.8 859.4 1070.4C853.8 1076.1 853.8 1085.2 859.4 1090.8Z" fill="#FF70A9"/>
<path d="M1160.7 875.6C1160.5 877.4 1160.7 879.3 1161.2 881.1C1161.9 883.3 1163.1 885.4 1164.8 887.2C1166.6 889 1168.7 890.2 1170.9 890.8C1172.7 891.3 1174.5 891.5 1176.4 891.3C1179.2 891 1181.8 890 1184.1 888.1C1184.5 887.8 1184.8 887.5 1185.2 887.1C1190.8 881.5 1190.8 872.4 1185.2 866.7C1179.6 861.1 1170.5 861.1 1164.8 866.7C1164.4 867.1 1164.1 867.4 1163.8 867.8C1162 870.1 1161 872.8 1160.7 875.6Z" fill="#FF70A9"/>
<path d="M1063 989C1068.6 994.6 1077.8 994.6 1083.4 989C1089 983.4 1089 974.3 1083.4 968.6C1077.8 963 1068.7 963 1063 968.6C1057.4 974.2 1057.4 983.4 1063 989Z" fill="#FF70A9"/>
<path d="M1063 887.2C1068.6 892.8 1077.8 892.8 1083.4 887.2C1089 881.6 1089 872.5 1083.4 866.8C1077.8 861.2 1068.7 861.2 1063 866.8C1057.4 872.4 1057.4 881.5 1063 887.2Z" fill="#FF70A9"/>
<path d="M961.2 989C966.8 994.6 976 994.6 981.6 989C987.2 983.4 987.2 974.3 981.6 968.6C976 963 966.9 963 961.2 968.6C955.6 974.2 955.6 983.4 961.2 989Z" fill="#FF70A9"/>
<path d="M1364.4 671.9C1364.2 673.7 1364.4 675.6 1364.9 677.4C1365.6 679.6 1366.8 681.7 1368.5 683.5C1370.3 685.3 1372.4 686.5 1374.6 687.1C1376.4 687.6 1378.2 687.8 1380.1 687.6C1382.9 687.3 1385.5 686.3 1387.8 684.4C1388.2 684.1 1388.5 683.8 1388.9 683.4C1394.5 677.8 1394.5 668.7 1388.9 663C1383.3 657.4 1374.2 657.4 1368.5 663C1368.1 663.4 1367.8 663.7 1367.5 664.1C1365.7 666.5 1364.6 669.2 1364.4 671.9Z" fill="#FF70A9"/>
<path d="M1266.7 785.3C1272.3 790.9 1281.5 790.9 1287.1 785.3C1292.7 779.7 1292.7 770.6 1287.1 764.9C1281.5 759.3 1272.4 759.3 1266.7 764.9C1261.1 770.6 1261.1 779.7 1266.7 785.3Z" fill="#FF70A9"/>
<path d="M1266.7 683.5C1272.3 689.1 1281.5 689.1 1287.1 683.5C1292.7 677.9 1292.7 668.8 1287.1 663.1C1281.5 657.5 1272.4 657.5 1266.7 663.1C1261.1 668.8 1261.1 677.9 1266.7 683.5Z" fill="#FF70A9"/>
<path d="M1164.9 785.3C1170.5 790.9 1179.7 790.9 1185.3 785.3C1190.9 779.7 1190.9 770.6 1185.3 764.9C1179.7 759.3 1170.6 759.3 1164.9 764.9C1159.3 770.6 1159.3 779.7 1164.9 785.3Z" fill="#FF70A9"/>
<path d="M1470.3 581.7C1475.9 587.3 1485.1 587.3 1490.7 581.7C1496.3 576.1 1496.3 567 1490.7 561.3C1485.1 555.7 1476 555.7 1470.3 561.3C1464.7 566.9 1464.7 576.1 1470.3 581.7Z" fill="#FF70A9"/>
<path d="M1368.5 581.7C1374.1 587.3 1383.3 587.3 1388.9 581.7C1394.5 576.1 1394.5 567 1388.9 561.3C1383.3 555.7 1374.2 555.7 1368.5 561.3C1362.9 566.9 1362.9 576.1 1368.5 581.7Z" fill="#FF70A9"/>
<path d="M528 2511H349V2332H528V2511ZM393.9 2466.1H483V2377H393.9V2466.1Z" fill="#00B0FF"/>
<path d="M1476.1 248.5L1349.5 375.1L1222.9 248.5L1349.5 121.9L1476.1 248.5ZM1349.5 311.5L1412.5 248.5L1349.5 185.5L1286.5 248.5L1349.5 311.5Z" fill="#00B0FF"/>
<path d="M126.1 978.5L-0.5 1105.1L-127.1 978.5L-0.5 851.9L126.1 978.5ZM-0.5 1041.5L62.5 978.5L-0.5 915.5L-63.5 978.5L-0.5 1041.5Z" fill="#FF70A9"/>
<path d="M2927.1 2800.5L2800.5 2927.1L2673.9 2800.5L2800.5 2673.9L2927.1 2800.5ZM2800.5 2863.5L2863.5 2800.5L2800.5 2737.5L2737.5 2800.5L2800.5 2863.5Z" fill="#FF70A9"/>
<path d="M2546.5 1451C2589.3 1451 2624 1416.3 2624 1373.5C2624 1330.7 2589.3 1296 2546.5 1296C2503.7 1296 2469 1330.7 2469 1373.5C2469 1416.3 2503.7 1451 2546.5 1451Z" fill="#00A0B6"/>
<path d="M2300.5 2544C2321.76 2544 2339 2526.76 2339 2505.5C2339 2484.24 2321.76 2467 2300.5 2467C2279.24 2467 2262 2484.24 2262 2505.5C2262 2526.76 2279.24 2544 2300.5 2544Z" fill="#FFBB4D"/>
<path d="M1219.5 2544C1240.76 2544 1258 2526.76 1258 2505.5C1258 2484.24 1240.76 2467 1219.5 2467C1198.24 2467 1181 2484.24 1181 2505.5C1181 2526.76 1198.24 2544 1219.5 2544Z" fill="#FFBB4D"/>
<path d="M1764.5 596C1785.76 596 1803 578.763 1803 557.5C1803 536.237 1785.76 519 1764.5 519C1743.24 519 1726 536.237 1726 557.5C1726 578.763 1743.24 596 1764.5 596Z" fill="#FFBB4D"/>
<path d="M229 180.7C170.5 239.2 75.4 239.2 16.9 180.7C11.5 175.3 5.79999 170.2 -0.100006 165.5V244.8C36.5 271.3 79.7 284.5 122.9 284.5C176.7 284.5 230.4 264 271.4 223.1C329.9 164.6 425 164.6 483.5 223.1L525.9 180.7C444.1 98.7999 310.9 98.7999 229 180.7Z" fill="#FFBF8A"/>
<path d="M483.5 15.1L498.6 0H465.9C472.1 4.5 478 9.5 483.5 15.1Z" fill="#FFBF8A"/>
<path d="M271.5 15.1C277 9.5 282.9 4.5 289.1 0H191.6C148.7 22 97.3 22 54.5 0H0V36.8C36.6 63.3 79.8 76.5 123 76.5C176.8 76.5 230.5 56 271.5 15.1Z" fill="#FFBF8A"/>
<path d="M2800 1008.7C2744.6 1034.3 2676.6 1024.3 2631 978.6C2549.1 896.7 2415.9 896.7 2334.1 978.6L2376.5 1021C2435 962.5 2530.1 962.5 2588.6 1021C2645.7 1078.1 2727.8 1095.4 2800.1 1072.8V1008.7H2800Z" fill="#FF70A9"/>
<path d="M2631 562.7C2549.1 480.8 2415.9 480.8 2334.1 562.7L2376.5 605.1C2435 546.6 2530.1 546.6 2588.6 605.1C2645.7 662.2 2727.8 679.5 2800.1 656.9V592.7C2744.6 618.3 2676.6 608.3 2631 562.7Z" fill="#FF70A9"/>
<path d="M2631 354.7C2549.1 272.8 2415.9 272.8 2334.1 354.7L2376.5 397.1C2435 338.6 2530.1 338.6 2588.6 397.1C2645.7 454.2 2727.8 471.5 2800.1 448.9V384.7C2744.6 410.3 2676.6 400.3 2631 354.7Z" fill="#FF70A9"/>
<path d="M2376.5 813.1C2435 754.6 2530.1 754.6 2588.6 813.1C2645.7 870.2 2727.8 887.5 2800.1 864.9V800.7C2744.7 826.3 2676.7 816.3 2631.1 770.6C2549.2 688.7 2416 688.7 2334.2 770.6L2376.5 813.1Z" fill="#FF70A9"/>
</g>
<defs>
<clipPath id="clip0">
<rect width="2800" height="2800" fill="white"/>
</clipPath>
</defs>
</svg>
