<svg width="1900" height="1240" viewBox="0 0 1900 1240" fill="none" xmlns="http://www.w3.org/2000/svg">
<path d="M1900 0H0V1240H1900V0Z" fill="#7ACEBE"/>
<path d="M0 1030.87V1240H227.937L1607.02 0H514.52L0 1030.87Z" fill="#F05567"/>
<path d="M700.593 815.052L822.573 1240H1900V752.246L950 590.798L700.593 815.052Z" fill="#FFF6A9"/>
<path d="M198.93 77.2519C202.218 77.2519 204.883 74.6427 204.883 71.4239C204.883 68.2052 202.218 65.5959 198.93 65.5959C195.642 65.5959 192.977 68.2052 192.977 71.4239C192.977 74.6427 195.642 77.2519 198.93 77.2519Z" fill="#FEF2DA"/>
<path d="M230.217 77.2519C233.505 77.2519 236.17 74.6427 236.17 71.4239C236.17 68.2052 233.505 65.5959 230.217 65.5959C226.929 65.5959 224.263 68.2052 224.263 71.4239C224.263 74.6427 226.929 77.2519 230.217 77.2519Z" fill="#FEF2DA"/>
<path d="M261.503 77.2519C264.791 77.2519 267.457 74.6427 267.457 71.4239C267.457 68.2052 264.791 65.5959 261.503 65.5959C258.215 65.5959 255.55 68.2052 255.55 71.4239C255.55 74.6427 258.215 77.2519 261.503 77.2519Z" fill="#FEF2DA"/>
<path d="M292.79 77.2519C296.078 77.2519 298.743 74.6427 298.743 71.4239C298.743 68.2052 296.078 65.5959 292.79 65.5959C289.502 65.5959 286.837 68.2052 286.837 71.4239C286.837 74.6427 289.502 77.2519 292.79 77.2519Z" fill="#FEF2DA"/>
<path d="M324.077 77.2519C327.365 77.2519 330.03 74.6427 330.03 71.4239C330.03 68.2052 327.365 65.5959 324.077 65.5959C320.789 65.5959 318.123 68.2052 318.123 71.4239C318.123 74.6427 320.789 77.2519 324.077 77.2519Z" fill="#FEF2DA"/>
<path d="M355.3 77.2519C358.588 77.2519 361.253 74.6427 361.253 71.4239C361.253 68.2052 358.588 65.5959 355.3 65.5959C352.012 65.5959 349.347 68.2052 349.347 71.4239C349.347 74.6427 352.012 77.2519 355.3 77.2519Z" fill="#FEF2DA"/>
<path d="M386.587 77.2519C389.875 77.2519 392.54 74.6427 392.54 71.4239C392.54 68.2052 389.875 65.5959 386.587 65.5959C383.299 65.5959 380.633 68.2052 380.633 71.4239C380.633 74.6427 383.299 77.2519 386.587 77.2519Z" fill="#FEF2DA"/>
<path d="M417.873 77.2519C421.161 77.2519 423.827 74.6427 423.827 71.4239C423.827 68.2052 421.161 65.5959 417.873 65.5959C414.585 65.5959 411.92 68.2052 411.92 71.4239C411.92 74.6427 414.585 77.2519 417.873 77.2519Z" fill="#FEF2DA"/>
<path d="M449.16 77.2519C452.448 77.2519 455.113 74.6427 455.113 71.4239C455.113 68.2052 452.448 65.5959 449.16 65.5959C445.872 65.5959 443.207 68.2052 443.207 71.4239C443.207 74.6427 445.872 77.2519 449.16 77.2519Z" fill="#FEF2DA"/>
<path d="M480.447 77.2519C483.735 77.2519 486.4 74.6427 486.4 71.4239C486.4 68.2052 483.735 65.5959 480.447 65.5959C477.159 65.5959 474.493 68.2052 474.493 71.4239C474.493 74.6427 477.159 77.2519 480.447 77.2519Z" fill="#FEF2DA"/>
<path d="M511.733 77.2519C515.021 77.2519 517.687 74.6427 517.687 71.4239C517.687 68.2052 515.021 65.5959 511.733 65.5959C508.445 65.5959 505.78 68.2052 505.78 71.4239C505.78 74.6427 508.445 77.2519 511.733 77.2519Z" fill="#FEF2DA"/>
<path d="M198.93 127.286C202.218 127.286 204.883 124.677 204.883 121.458C204.883 118.239 202.218 115.63 198.93 115.63C195.642 115.63 192.977 118.239 192.977 121.458C192.977 124.677 195.642 127.286 198.93 127.286Z" fill="#FEF2DA"/>
<path d="M230.217 127.286C233.505 127.286 236.17 124.677 236.17 121.458C236.17 118.239 233.505 115.63 230.217 115.63C226.929 115.63 224.263 118.239 224.263 121.458C224.263 124.677 226.929 127.286 230.217 127.286Z" fill="#FEF2DA"/>
<path d="M261.503 127.286C264.791 127.286 267.457 124.677 267.457 121.458C267.457 118.239 264.791 115.63 261.503 115.63C258.215 115.63 255.55 118.239 255.55 121.458C255.55 124.677 258.215 127.286 261.503 127.286Z" fill="#FEF2DA"/>
<path d="M292.79 127.286C296.078 127.286 298.743 124.677 298.743 121.458C298.743 118.239 296.078 115.63 292.79 115.63C289.502 115.63 286.837 118.239 286.837 121.458C286.837 124.677 289.502 127.286 292.79 127.286Z" fill="#FEF2DA"/>
<path d="M324.077 127.286C327.365 127.286 330.03 124.677 330.03 121.458C330.03 118.239 327.365 115.63 324.077 115.63C320.789 115.63 318.123 118.239 318.123 121.458C318.123 124.677 320.789 127.286 324.077 127.286Z" fill="#FEF2DA"/>
<path d="M355.3 127.286C358.588 127.286 361.253 124.677 361.253 121.458C361.253 118.239 358.588 115.63 355.3 115.63C352.012 115.63 349.347 118.239 349.347 121.458C349.347 124.677 352.012 127.286 355.3 127.286Z" fill="#FEF2DA"/>
<path d="M386.587 127.286C389.875 127.286 392.54 124.677 392.54 121.458C392.54 118.239 389.875 115.63 386.587 115.63C383.299 115.63 380.633 118.239 380.633 121.458C380.633 124.677 383.299 127.286 386.587 127.286Z" fill="#FEF2DA"/>
<path d="M417.873 127.286C421.161 127.286 423.827 124.677 423.827 121.458C423.827 118.239 421.161 115.63 417.873 115.63C414.585 115.63 411.92 118.239 411.92 121.458C411.92 124.677 414.585 127.286 417.873 127.286Z" fill="#FEF2DA"/>
<path d="M449.16 127.286C452.448 127.286 455.113 124.677 455.113 121.458C455.113 118.239 452.448 115.63 449.16 115.63C445.872 115.63 443.207 118.239 443.207 121.458C443.207 124.677 445.872 127.286 449.16 127.286Z" fill="#FEF2DA"/>
<path d="M480.447 127.286C483.735 127.286 486.4 124.677 486.4 121.458C486.4 118.239 483.735 115.63 480.447 115.63C477.159 115.63 474.493 118.239 474.493 121.458C474.493 124.677 477.159 127.286 480.447 127.286Z" fill="#FEF2DA"/>
<path d="M511.733 127.286C515.021 127.286 517.687 124.677 517.687 121.458C517.687 118.239 515.021 115.63 511.733 115.63C508.445 115.63 505.78 118.239 505.78 121.458C505.78 124.677 508.445 127.286 511.733 127.286Z" fill="#FEF2DA"/>
<path d="M198.93 177.382C202.218 177.382 204.883 174.773 204.883 171.554C204.883 168.335 202.218 165.726 198.93 165.726C195.642 165.726 192.977 168.335 192.977 171.554C192.977 174.773 195.642 177.382 198.93 177.382Z" fill="#FEF2DA"/>
<path d="M230.217 177.382C233.505 177.382 236.17 174.773 236.17 171.554C236.17 168.335 233.505 165.726 230.217 165.726C226.929 165.726 224.263 168.335 224.263 171.554C224.263 174.773 226.929 177.382 230.217 177.382Z" fill="#FEF2DA"/>
<path d="M261.503 177.382C264.791 177.382 267.457 174.773 267.457 171.554C267.457 168.335 264.791 165.726 261.503 165.726C258.215 165.726 255.55 168.335 255.55 171.554C255.55 174.773 258.215 177.382 261.503 177.382Z" fill="#FEF2DA"/>
<path d="M292.79 177.382C296.078 177.382 298.743 174.773 298.743 171.554C298.743 168.335 296.078 165.726 292.79 165.726C289.502 165.726 286.837 168.335 286.837 171.554C286.837 174.773 289.502 177.382 292.79 177.382Z" fill="#FEF2DA"/>
<path d="M324.077 177.382C327.365 177.382 330.03 174.773 330.03 171.554C330.03 168.335 327.365 165.726 324.077 165.726C320.789 165.726 318.123 168.335 318.123 171.554C318.123 174.773 320.789 177.382 324.077 177.382Z" fill="#FEF2DA"/>
<path d="M355.3 177.382C358.588 177.382 361.253 174.773 361.253 171.554C361.253 168.335 358.588 165.726 355.3 165.726C352.012 165.726 349.347 168.335 349.347 171.554C349.347 174.773 352.012 177.382 355.3 177.382Z" fill="#FEF2DA"/>
<path d="M386.587 177.382C389.875 177.382 392.54 174.773 392.54 171.554C392.54 168.335 389.875 165.726 386.587 165.726C383.299 165.726 380.633 168.335 380.633 171.554C380.633 174.773 383.299 177.382 386.587 177.382Z" fill="#FEF2DA"/>
<path d="M417.873 177.382C421.161 177.382 423.827 174.773 423.827 171.554C423.827 168.335 421.161 165.726 417.873 165.726C414.585 165.726 411.92 168.335 411.92 171.554C411.92 174.773 414.585 177.382 417.873 177.382Z" fill="#FEF2DA"/>
<path d="M449.16 177.382C452.448 177.382 455.113 174.773 455.113 171.554C455.113 168.335 452.448 165.726 449.16 165.726C445.872 165.726 443.207 168.335 443.207 171.554C443.207 174.773 445.872 177.382 449.16 177.382Z" fill="#FEF2DA"/>
<path d="M480.447 177.382C483.735 177.382 486.4 174.773 486.4 171.554C486.4 168.335 483.735 165.726 480.447 165.726C477.159 165.726 474.493 168.335 474.493 171.554C474.493 174.773 477.159 177.382 480.447 177.382Z" fill="#FEF2DA"/>
<path d="M511.733 177.382C515.021 177.382 517.687 174.773 517.687 171.554C517.687 168.335 515.021 165.726 511.733 165.726C508.445 165.726 505.78 168.335 505.78 171.554C505.78 174.773 508.445 177.382 511.733 177.382Z" fill="#FEF2DA"/>
<path d="M198.93 227.416C202.218 227.416 204.883 224.807 204.883 221.588C204.883 218.369 202.218 215.76 198.93 215.76C195.642 215.76 192.977 218.369 192.977 221.588C192.977 224.807 195.642 227.416 198.93 227.416Z" fill="#FEF2DA"/>
<path d="M230.217 227.416C233.505 227.416 236.17 224.807 236.17 221.588C236.17 218.369 233.505 215.76 230.217 215.76C226.929 215.76 224.263 218.369 224.263 221.588C224.263 224.807 226.929 227.416 230.217 227.416Z" fill="#FEF2DA"/>
<path d="M261.503 227.416C264.791 227.416 267.457 224.807 267.457 221.588C267.457 218.369 264.791 215.76 261.503 215.76C258.215 215.76 255.55 218.369 255.55 221.588C255.55 224.807 258.215 227.416 261.503 227.416Z" fill="#FEF2DA"/>
<path d="M292.79 227.416C296.078 227.416 298.743 224.807 298.743 221.588C298.743 218.369 296.078 215.76 292.79 215.76C289.502 215.76 286.837 218.369 286.837 221.588C286.837 224.807 289.502 227.416 292.79 227.416Z" fill="#FEF2DA"/>
<path d="M324.077 227.416C327.365 227.416 330.03 224.807 330.03 221.588C330.03 218.369 327.365 215.76 324.077 215.76C320.789 215.76 318.123 218.369 318.123 221.588C318.123 224.807 320.789 227.416 324.077 227.416Z" fill="#FEF2DA"/>
<path d="M355.3 227.416C358.588 227.416 361.253 224.807 361.253 221.588C361.253 218.369 358.588 215.76 355.3 215.76C352.012 215.76 349.347 218.369 349.347 221.588C349.347 224.807 352.012 227.416 355.3 227.416Z" fill="#FEF2DA"/>
<path d="M386.587 227.416C389.875 227.416 392.54 224.807 392.54 221.588C392.54 218.369 389.875 215.76 386.587 215.76C383.299 215.76 380.633 218.369 380.633 221.588C380.633 224.807 383.299 227.416 386.587 227.416Z" fill="#FEF2DA"/>
<path d="M417.873 227.416C421.161 227.416 423.827 224.807 423.827 221.588C423.827 218.369 421.161 215.76 417.873 215.76C414.585 215.76 411.92 218.369 411.92 221.588C411.92 224.807 414.585 227.416 417.873 227.416Z" fill="#FEF2DA"/>
<path d="M449.16 227.416C452.448 227.416 455.113 224.807 455.113 221.588C455.113 218.369 452.448 215.76 449.16 215.76C445.872 215.76 443.207 218.369 443.207 221.588C443.207 224.807 445.872 227.416 449.16 227.416Z" fill="#FEF2DA"/>
<path d="M480.447 227.416C483.735 227.416 486.4 224.807 486.4 221.588C486.4 218.369 483.735 215.76 480.447 215.76C477.159 215.76 474.493 218.369 474.493 221.588C474.493 224.807 477.159 227.416 480.447 227.416Z" fill="#FEF2DA"/>
<path d="M511.733 227.416C515.021 227.416 517.687 224.807 517.687 221.588C517.687 218.369 515.021 215.76 511.733 215.76C508.445 215.76 505.78 218.369 505.78 221.588C505.78 224.807 508.445 227.416 511.733 227.416Z" fill="#FEF2DA"/>
<path d="M198.93 275.528C202.218 275.528 204.883 272.919 204.883 269.7C204.883 266.481 202.218 263.872 198.93 263.872C195.642 263.872 192.977 266.481 192.977 269.7C192.977 272.919 195.642 275.528 198.93 275.528Z" fill="#FEF2DA"/>
<path d="M230.217 275.528C233.505 275.528 236.17 272.919 236.17 269.7C236.17 266.481 233.505 263.872 230.217 263.872C226.929 263.872 224.263 266.481 224.263 269.7C224.263 272.919 226.929 275.528 230.217 275.528Z" fill="#FEF2DA"/>
<path d="M261.503 275.528C264.791 275.528 267.457 272.919 267.457 269.7C267.457 266.481 264.791 263.872 261.503 263.872C258.215 263.872 255.55 266.481 255.55 269.7C255.55 272.919 258.215 275.528 261.503 275.528Z" fill="#FEF2DA"/>
<path d="M292.79 275.528C296.078 275.528 298.743 272.919 298.743 269.7C298.743 266.481 296.078 263.872 292.79 263.872C289.502 263.872 286.837 266.481 286.837 269.7C286.837 272.919 289.502 275.528 292.79 275.528Z" fill="#FEF2DA"/>
<path d="M324.077 275.528C327.365 275.528 330.03 272.919 330.03 269.7C330.03 266.481 327.365 263.872 324.077 263.872C320.789 263.872 318.123 266.481 318.123 269.7C318.123 272.919 320.789 275.528 324.077 275.528Z" fill="#FEF2DA"/>
<path d="M355.3 275.528C358.588 275.528 361.253 272.919 361.253 269.7C361.253 266.481 358.588 263.872 355.3 263.872C352.012 263.872 349.347 266.481 349.347 269.7C349.347 272.919 352.012 275.528 355.3 275.528Z" fill="#FEF2DA"/>
<path d="M386.587 275.528C389.875 275.528 392.54 272.919 392.54 269.7C392.54 266.481 389.875 263.872 386.587 263.872C383.299 263.872 380.633 266.481 380.633 269.7C380.633 272.919 383.299 275.528 386.587 275.528Z" fill="#FEF2DA"/>
<path d="M417.873 275.528C421.161 275.528 423.827 272.919 423.827 269.7C423.827 266.481 421.161 263.872 417.873 263.872C414.585 263.872 411.92 266.481 411.92 269.7C411.92 272.919 414.585 275.528 417.873 275.528Z" fill="#FEF2DA"/>
<path d="M449.16 275.528C452.448 275.528 455.113 272.919 455.113 269.7C455.113 266.481 452.448 263.872 449.16 263.872C445.872 263.872 443.207 266.481 443.207 269.7C443.207 272.919 445.872 275.528 449.16 275.528Z" fill="#FEF2DA"/>
<path d="M480.447 275.528C483.735 275.528 486.4 272.919 486.4 269.7C486.4 266.481 483.735 263.872 480.447 263.872C477.159 263.872 474.493 266.481 474.493 269.7C474.493 272.919 477.159 275.528 480.447 275.528Z" fill="#FEF2DA"/>
<path d="M511.733 275.528C515.021 275.528 517.687 272.919 517.687 269.7C517.687 266.481 515.021 263.872 511.733 263.872C508.445 263.872 505.78 266.481 505.78 269.7C505.78 272.919 508.445 275.528 511.733 275.528Z" fill="#FEF2DA"/>
<path d="M198.93 323.64C202.218 323.64 204.883 321.031 204.883 317.812C204.883 314.593 202.218 311.984 198.93 311.984C195.642 311.984 192.977 314.593 192.977 317.812C192.977 321.031 195.642 323.64 198.93 323.64Z" fill="#FEF2DA"/>
<path d="M230.217 323.64C233.505 323.64 236.17 321.031 236.17 317.812C236.17 314.593 233.505 311.984 230.217 311.984C226.929 311.984 224.263 314.593 224.263 317.812C224.263 321.031 226.929 323.64 230.217 323.64Z" fill="#FEF2DA"/>
<path d="M261.503 323.64C264.791 323.64 267.457 321.031 267.457 317.812C267.457 314.593 264.791 311.984 261.503 311.984C258.215 311.984 255.55 314.593 255.55 317.812C255.55 321.031 258.215 323.64 261.503 323.64Z" fill="#FEF2DA"/>
<path d="M292.79 323.64C296.078 323.64 298.743 321.031 298.743 317.812C298.743 314.593 296.078 311.984 292.79 311.984C289.502 311.984 286.837 314.593 286.837 317.812C286.837 321.031 289.502 323.64 292.79 323.64Z" fill="#FEF2DA"/>
<path d="M324.077 323.64C327.365 323.64 330.03 321.031 330.03 317.812C330.03 314.593 327.365 311.984 324.077 311.984C320.789 311.984 318.123 314.593 318.123 317.812C318.123 321.031 320.789 323.64 324.077 323.64Z" fill="#FEF2DA"/>
<path d="M355.3 323.64C358.588 323.64 361.253 321.031 361.253 317.812C361.253 314.593 358.588 311.984 355.3 311.984C352.012 311.984 349.347 314.593 349.347 317.812C349.347 321.031 352.012 323.64 355.3 323.64Z" fill="#FEF2DA"/>
<path d="M386.587 323.64C389.875 323.64 392.54 321.031 392.54 317.812C392.54 314.593 389.875 311.984 386.587 311.984C383.299 311.984 380.633 314.593 380.633 317.812C380.633 321.031 383.299 323.64 386.587 323.64Z" fill="#FEF2DA"/>
<path d="M417.873 323.64C421.161 323.64 423.827 321.031 423.827 317.812C423.827 314.593 421.161 311.984 417.873 311.984C414.585 311.984 411.92 314.593 411.92 317.812C411.92 321.031 414.585 323.64 417.873 323.64Z" fill="#FEF2DA"/>
<path d="M449.16 323.64C452.448 323.64 455.113 321.031 455.113 317.812C455.113 314.593 452.448 311.984 449.16 311.984C445.872 311.984 443.207 314.593 443.207 317.812C443.207 321.031 445.872 323.64 449.16 323.64Z" fill="#FEF2DA"/>
<path d="M480.447 323.64C483.735 323.64 486.4 321.031 486.4 317.812C486.4 314.593 483.735 311.984 480.447 311.984C477.159 311.984 474.493 314.593 474.493 317.812C474.493 321.031 477.159 323.64 480.447 323.64Z" fill="#FEF2DA"/>
<path d="M511.733 323.64C515.021 323.64 517.687 321.031 517.687 317.812C517.687 314.593 515.021 311.984 511.733 311.984C508.445 311.984 505.78 314.593 505.78 317.812C505.78 321.031 508.445 323.64 511.733 323.64Z" fill="#FEF2DA"/>
<path d="M198.93 371.752C202.218 371.752 204.883 369.143 204.883 365.924C204.883 362.705 202.218 360.096 198.93 360.096C195.642 360.096 192.977 362.705 192.977 365.924C192.977 369.143 195.642 371.752 198.93 371.752Z" fill="#FEF2DA"/>
<path d="M230.217 371.752C233.505 371.752 236.17 369.143 236.17 365.924C236.17 362.705 233.505 360.096 230.217 360.096C226.929 360.096 224.263 362.705 224.263 365.924C224.263 369.143 226.929 371.752 230.217 371.752Z" fill="#FEF2DA"/>
<path d="M261.503 371.752C264.791 371.752 267.457 369.143 267.457 365.924C267.457 362.705 264.791 360.096 261.503 360.096C258.215 360.096 255.55 362.705 255.55 365.924C255.55 369.143 258.215 371.752 261.503 371.752Z" fill="#FEF2DA"/>
<path d="M292.79 371.752C296.078 371.752 298.743 369.143 298.743 365.924C298.743 362.705 296.078 360.096 292.79 360.096C289.502 360.096 286.837 362.705 286.837 365.924C286.837 369.143 289.502 371.752 292.79 371.752Z" fill="#FEF2DA"/>
<path d="M324.077 371.752C327.365 371.752 330.03 369.143 330.03 365.924C330.03 362.705 327.365 360.096 324.077 360.096C320.789 360.096 318.123 362.705 318.123 365.924C318.123 369.143 320.789 371.752 324.077 371.752Z" fill="#FEF2DA"/>
<path d="M355.3 371.752C358.588 371.752 361.253 369.143 361.253 365.924C361.253 362.705 358.588 360.096 355.3 360.096C352.012 360.096 349.347 362.705 349.347 365.924C349.347 369.143 352.012 371.752 355.3 371.752Z" fill="#FEF2DA"/>
<path d="M386.587 371.752C389.875 371.752 392.54 369.143 392.54 365.924C392.54 362.705 389.875 360.096 386.587 360.096C383.299 360.096 380.633 362.705 380.633 365.924C380.633 369.143 383.299 371.752 386.587 371.752Z" fill="#FEF2DA"/>
<path d="M417.873 371.752C421.161 371.752 423.827 369.143 423.827 365.924C423.827 362.705 421.161 360.096 417.873 360.096C414.585 360.096 411.92 362.705 411.92 365.924C411.92 369.143 414.585 371.752 417.873 371.752Z" fill="#FEF2DA"/>
<path d="M449.16 371.752C452.448 371.752 455.113 369.143 455.113 365.924C455.113 362.705 452.448 360.096 449.16 360.096C445.872 360.096 443.207 362.705 443.207 365.924C443.207 369.143 445.872 371.752 449.16 371.752Z" fill="#FEF2DA"/>
<path d="M480.447 371.752C483.735 371.752 486.4 369.143 486.4 365.924C486.4 362.705 483.735 360.096 480.447 360.096C477.159 360.096 474.493 362.705 474.493 365.924C474.493 369.143 477.159 371.752 480.447 371.752Z" fill="#FEF2DA"/>
<path d="M511.733 371.752C515.021 371.752 517.687 369.143 517.687 365.924C517.687 362.705 515.021 360.096 511.733 360.096C508.445 360.096 505.78 362.705 505.78 365.924C505.78 369.143 508.445 371.752 511.733 371.752Z" fill="#FEF2DA"/>
<path d="M33.25 842.394L214.763 945.314C217.993 942.834 221.033 940.168 224.01 937.316L35.72 830.614C34.7067 834.52 33.8833 838.426 33.25 842.394Z" fill="#FEF2DA"/>
<path d="M39.52 819.082L232.243 928.326C234.713 925.35 236.993 922.25 239.147 919.026L44.3334 808.604C42.56 812.014 40.9134 815.548 39.52 819.082Z" fill="#FEF2DA"/>
<path d="M32.49 868.868L191.647 959.078C195.827 957.218 199.88 955.11 203.807 952.754L32.0466 855.414C31.92 859.878 32.11 864.404 32.49 868.868Z" fill="#FEF2DA"/>
<path d="M129.453 749.332C123.69 750.076 118.053 751.316 112.48 752.928L254.473 833.466C253.143 827.948 251.37 822.554 249.217 817.284L129.453 749.332Z" fill="#FEF2DA"/>
<path d="M40.2799 900.116L160.107 968.068C165.87 967.324 171.507 966.084 177.08 964.472L35.0232 883.934C36.3532 889.452 38.1265 894.846 40.2799 900.116Z" fill="#FEF2DA"/>
<path d="M50.4133 798.374L245.29 908.858C247.063 905.386 248.71 901.914 250.103 898.38L57.3167 789.074C54.8467 791.988 52.5667 795.088 50.4133 798.374Z" fill="#FEF2DA"/>
<path d="M201.273 763.158C185.757 754.354 168.91 749.58 152.127 748.526L238.703 797.63C229.393 783.928 216.853 772.024 201.273 763.158Z" fill="#FEF2DA"/>
<path d="M88.2867 954.18C103.803 962.984 120.65 967.758 137.433 968.812L50.8567 919.708C60.1667 933.472 72.77 945.376 88.2867 954.18Z" fill="#FEF2DA"/>
<path d="M65.6133 780.084L253.84 886.786C254.917 882.88 255.74 878.912 256.31 875.006L74.7966 772.086C71.6299 774.566 68.5266 777.294 65.6133 780.084Z" fill="#FEF2DA"/>
<path d="M97.9133 758.322C93.7333 760.182 89.68 762.29 85.7533 764.646L257.513 861.986C257.64 857.46 257.513 852.996 257.07 848.532L97.9133 758.322Z" fill="#FEF2DA"/>
<path d="M1804.81 184.76C1807.61 184.76 1809.88 182.539 1809.88 179.8C1809.88 177.061 1807.61 174.84 1804.81 174.84C1802.01 174.84 1799.74 177.061 1799.74 179.8C1799.74 182.539 1802.01 184.76 1804.81 184.76Z" fill="#6ABFAF"/>
<path d="M1804.81 208.196C1807.61 208.196 1809.88 205.975 1809.88 203.236C1809.88 200.497 1807.61 198.276 1804.81 198.276C1802.01 198.276 1799.74 200.497 1799.74 203.236C1799.74 205.975 1802.01 208.196 1804.81 208.196Z" fill="#6ABFAF"/>
<path d="M1804.81 161.262C1807.61 161.262 1809.88 159.041 1809.88 156.302C1809.88 153.563 1807.61 151.342 1804.81 151.342C1802.01 151.342 1799.74 153.563 1799.74 156.302C1799.74 159.041 1802.01 161.262 1804.81 161.262Z" fill="#6ABFAF"/>
<path d="M1804.81 255.13C1807.61 255.13 1809.88 252.909 1809.88 250.17C1809.88 247.431 1807.61 245.21 1804.81 245.21C1802.01 245.21 1799.74 247.431 1799.74 250.17C1799.74 252.909 1802.01 255.13 1804.81 255.13Z" fill="#6ABFAF"/>
<path d="M1804.81 231.694C1807.61 231.694 1809.88 229.473 1809.88 226.734C1809.88 223.995 1807.61 221.774 1804.81 221.774C1802.01 221.774 1799.74 223.995 1799.74 226.734C1799.74 229.473 1802.01 231.694 1804.81 231.694Z" fill="#6ABFAF"/>
<path d="M1884.61 161.262C1887.41 161.262 1889.68 159.041 1889.68 156.302C1889.68 153.563 1887.41 151.342 1884.61 151.342C1881.81 151.342 1879.54 153.563 1879.54 156.302C1879.54 159.041 1881.81 161.262 1884.61 161.262Z" fill="#6ABFAF"/>
<path d="M1804.81 141.484C1807.61 141.484 1809.88 139.263 1809.88 136.524C1809.88 133.785 1807.61 131.564 1804.81 131.564C1802.01 131.564 1799.74 133.785 1799.74 136.524C1799.74 139.263 1802.01 141.484 1804.81 141.484Z" fill="#6ABFAF"/>
<path d="M1804.81 278.628C1807.61 278.628 1809.88 276.407 1809.88 273.668C1809.88 270.929 1807.61 268.708 1804.81 268.708C1802.01 268.708 1799.74 270.929 1799.74 273.668C1799.74 276.407 1802.01 278.628 1804.81 278.628Z" fill="#6ABFAF"/>
<path d="M1831.41 208.196C1834.21 208.196 1836.48 205.975 1836.48 203.236C1836.48 200.497 1834.21 198.276 1831.41 198.276C1828.61 198.276 1826.34 200.497 1826.34 203.236C1826.34 205.975 1828.61 208.196 1831.41 208.196Z" fill="#6ABFAF"/>
<path d="M1884.61 231.694C1887.41 231.694 1889.68 229.473 1889.68 226.734C1889.68 223.995 1887.41 221.774 1884.61 221.774C1881.81 221.774 1879.54 223.995 1879.54 226.734C1879.54 229.473 1881.81 231.694 1884.61 231.694Z" fill="#6ABFAF"/>
<path d="M1884.61 208.196C1887.41 208.196 1889.68 205.975 1889.68 203.236C1889.68 200.497 1887.41 198.276 1884.61 198.276C1881.81 198.276 1879.54 200.497 1879.54 203.236C1879.54 205.975 1881.81 208.196 1884.61 208.196Z" fill="#6ABFAF"/>
<path d="M1804.81 453.22C1807.61 453.22 1809.88 450.999 1809.88 448.26C1809.88 445.521 1807.61 443.3 1804.81 443.3C1802.01 443.3 1799.74 445.521 1799.74 448.26C1799.74 450.999 1802.01 453.22 1804.81 453.22Z" fill="#6ABFAF"/>
<path d="M1804.81 431.954C1807.61 431.954 1809.88 429.733 1809.88 426.994C1809.88 424.255 1807.61 422.034 1804.81 422.034C1802.01 422.034 1799.74 424.255 1799.74 426.994C1799.74 429.733 1802.01 431.954 1804.81 431.954Z" fill="#6ABFAF"/>
<path d="M1831.41 141.484C1834.21 141.484 1836.48 139.263 1836.48 136.524C1836.48 133.785 1834.21 131.564 1831.41 131.564C1828.61 131.564 1826.34 133.785 1826.34 136.524C1826.34 139.263 1828.61 141.484 1831.41 141.484Z" fill="#6ABFAF"/>
<path d="M1804.81 302.064C1807.61 302.064 1809.88 299.843 1809.88 297.104C1809.88 294.365 1807.61 292.144 1804.81 292.144C1802.01 292.144 1799.74 294.365 1799.74 297.104C1799.74 299.843 1802.01 302.064 1804.81 302.064Z" fill="#6ABFAF"/>
<path d="M1831.41 161.262C1834.21 161.262 1836.48 159.041 1836.48 156.302C1836.48 153.563 1834.21 151.342 1831.41 151.342C1828.61 151.342 1826.34 153.563 1826.34 156.302C1826.34 159.041 1828.61 161.262 1831.41 161.262Z" fill="#6ABFAF"/>
<path d="M1804.81 410.688C1807.61 410.688 1809.88 408.467 1809.88 405.728C1809.88 402.989 1807.61 400.768 1804.81 400.768C1802.01 400.768 1799.74 402.989 1799.74 405.728C1799.74 408.467 1802.01 410.688 1804.81 410.688Z" fill="#6ABFAF"/>
<path d="M1804.81 325.562C1807.61 325.562 1809.88 323.341 1809.88 320.602C1809.88 317.863 1807.61 315.642 1804.81 315.642C1802.01 315.642 1799.74 317.863 1799.74 320.602C1799.74 323.341 1802.01 325.562 1804.81 325.562Z" fill="#6ABFAF"/>
<path d="M1804.81 346.828C1807.61 346.828 1809.88 344.607 1809.88 341.868C1809.88 339.129 1807.61 336.908 1804.81 336.908C1802.01 336.908 1799.74 339.129 1799.74 341.868C1799.74 344.607 1802.01 346.828 1804.81 346.828Z" fill="#6ABFAF"/>
<path d="M1804.81 389.422C1807.61 389.422 1809.88 387.201 1809.88 384.462C1809.88 381.723 1807.61 379.502 1804.81 379.502C1802.01 379.502 1799.74 381.723 1799.74 384.462C1799.74 387.201 1802.01 389.422 1804.81 389.422Z" fill="#6ABFAF"/>
<path d="M1804.81 368.094C1807.61 368.094 1809.88 365.873 1809.88 363.134C1809.88 360.395 1807.61 358.174 1804.81 358.174C1802.01 358.174 1799.74 360.395 1799.74 363.134C1799.74 365.873 1802.01 368.094 1804.81 368.094Z" fill="#6ABFAF"/>
<path d="M1831.41 184.76C1834.21 184.76 1836.48 182.539 1836.48 179.8C1836.48 177.061 1834.21 174.84 1831.41 174.84C1828.61 174.84 1826.34 177.061 1826.34 179.8C1826.34 182.539 1828.61 184.76 1831.41 184.76Z" fill="#6ABFAF"/>
<path d="M1884.61 255.13C1887.41 255.13 1889.68 252.909 1889.68 250.17C1889.68 247.431 1887.41 245.21 1884.61 245.21C1881.81 245.21 1879.54 247.431 1879.54 250.17C1879.54 252.909 1881.81 255.13 1884.61 255.13Z" fill="#6ABFAF"/>
<path d="M1884.61 346.828C1887.41 346.828 1889.68 344.607 1889.68 341.868C1889.68 339.129 1887.41 336.908 1884.61 336.908C1881.81 336.908 1879.54 339.129 1879.54 341.868C1879.54 344.607 1881.81 346.828 1884.61 346.828Z" fill="#6ABFAF"/>
<path d="M1884.61 325.562C1887.41 325.562 1889.68 323.341 1889.68 320.602C1889.68 317.863 1887.41 315.642 1884.61 315.642C1881.81 315.642 1879.54 317.863 1879.54 320.602C1879.54 323.341 1881.81 325.562 1884.61 325.562Z" fill="#6ABFAF"/>
<path d="M1884.61 302.064C1887.41 302.064 1889.68 299.843 1889.68 297.104C1889.68 294.365 1887.41 292.144 1884.61 292.144C1881.81 292.144 1879.54 294.365 1879.54 297.104C1879.54 299.843 1881.81 302.064 1884.61 302.064Z" fill="#6ABFAF"/>
<path d="M1884.61 368.094C1887.41 368.094 1889.68 365.873 1889.68 363.134C1889.68 360.395 1887.41 358.174 1884.61 358.174C1881.81 358.174 1879.54 360.395 1879.54 363.134C1879.54 365.873 1881.81 368.094 1884.61 368.094Z" fill="#6ABFAF"/>
<path d="M1884.61 278.628C1887.41 278.628 1889.68 276.407 1889.68 273.668C1889.68 270.929 1887.41 268.708 1884.61 268.708C1881.81 268.708 1879.54 270.929 1879.54 273.668C1879.54 276.407 1881.81 278.628 1884.61 278.628Z" fill="#6ABFAF"/>
<path d="M1884.61 389.422C1887.41 389.422 1889.68 387.201 1889.68 384.462C1889.68 381.723 1887.41 379.502 1884.61 379.502C1881.81 379.502 1879.54 381.723 1879.54 384.462C1879.54 387.201 1881.81 389.422 1884.61 389.422Z" fill="#6ABFAF"/>
<path d="M1884.61 453.22C1887.41 453.22 1889.68 450.999 1889.68 448.26C1889.68 445.521 1887.41 443.3 1884.61 443.3C1881.81 443.3 1879.54 445.521 1879.54 448.26C1879.54 450.999 1881.81 453.22 1884.61 453.22Z" fill="#6ABFAF"/>
<path d="M1884.61 410.688C1887.41 410.688 1889.68 408.467 1889.68 405.728C1889.68 402.989 1887.41 400.768 1884.61 400.768C1881.81 400.768 1879.54 402.989 1879.54 405.728C1879.54 408.467 1881.81 410.688 1884.61 410.688Z" fill="#6ABFAF"/>
<path d="M1884.61 431.954C1887.41 431.954 1889.68 429.733 1889.68 426.994C1889.68 424.255 1887.41 422.034 1884.61 422.034C1881.81 422.034 1879.54 424.255 1879.54 426.994C1879.54 429.733 1881.81 431.954 1884.61 431.954Z" fill="#6ABFAF"/>
<path d="M1804.81 474.548C1807.61 474.548 1809.88 472.327 1809.88 469.588C1809.88 466.849 1807.61 464.628 1804.81 464.628C1802.01 464.628 1799.74 466.849 1799.74 469.588C1799.74 472.327 1802.01 474.548 1804.81 474.548Z" fill="#6ABFAF"/>
<path d="M1858.01 474.548C1860.81 474.548 1863.08 472.327 1863.08 469.588C1863.08 466.849 1860.81 464.628 1858.01 464.628C1855.21 464.628 1852.94 466.849 1852.94 469.588C1852.94 472.327 1855.21 474.548 1858.01 474.548Z" fill="#6ABFAF"/>
<path d="M1858.01 453.22C1860.81 453.22 1863.08 450.999 1863.08 448.26C1863.08 445.521 1860.81 443.3 1858.01 443.3C1855.21 443.3 1852.94 445.521 1852.94 448.26C1852.94 450.999 1855.21 453.22 1858.01 453.22Z" fill="#6ABFAF"/>
<path d="M1858.01 431.954C1860.81 431.954 1863.08 429.733 1863.08 426.994C1863.08 424.255 1860.81 422.034 1858.01 422.034C1855.21 422.034 1852.94 424.255 1852.94 426.994C1852.94 429.733 1855.21 431.954 1858.01 431.954Z" fill="#6ABFAF"/>
<path d="M1831.41 231.694C1834.21 231.694 1836.48 229.473 1836.48 226.734C1836.48 223.995 1834.21 221.774 1831.41 221.774C1828.61 221.774 1826.34 223.995 1826.34 226.734C1826.34 229.473 1828.61 231.694 1831.41 231.694Z" fill="#6ABFAF"/>
<path d="M1831.41 453.22C1834.21 453.22 1836.48 450.999 1836.48 448.26C1836.48 445.521 1834.21 443.3 1831.41 443.3C1828.61 443.3 1826.34 445.521 1826.34 448.26C1826.34 450.999 1828.61 453.22 1831.41 453.22Z" fill="#6ABFAF"/>
<path d="M1831.41 410.688C1834.21 410.688 1836.48 408.467 1836.48 405.728C1836.48 402.989 1834.21 400.768 1831.41 400.768C1828.61 400.768 1826.34 402.989 1826.34 405.728C1826.34 408.467 1828.61 410.688 1831.41 410.688Z" fill="#6ABFAF"/>
<path d="M1831.41 474.548C1834.21 474.548 1836.48 472.327 1836.48 469.588C1836.48 466.849 1834.21 464.628 1831.41 464.628C1828.61 464.628 1826.34 466.849 1826.34 469.588C1826.34 472.327 1828.61 474.548 1831.41 474.548Z" fill="#6ABFAF"/>
<path d="M1831.41 431.954C1834.21 431.954 1836.48 429.733 1836.48 426.994C1836.48 424.255 1834.21 422.034 1831.41 422.034C1828.61 422.034 1826.34 424.255 1826.34 426.994C1826.34 429.733 1828.61 431.954 1831.41 431.954Z" fill="#6ABFAF"/>
<path d="M1831.41 368.094C1834.21 368.094 1836.48 365.873 1836.48 363.134C1836.48 360.395 1834.21 358.174 1831.41 358.174C1828.61 358.174 1826.34 360.395 1826.34 363.134C1826.34 365.873 1828.61 368.094 1831.41 368.094Z" fill="#6ABFAF"/>
<path d="M1831.41 389.422C1834.21 389.422 1836.48 387.201 1836.48 384.462C1836.48 381.723 1834.21 379.502 1831.41 379.502C1828.61 379.502 1826.34 381.723 1826.34 384.462C1826.34 387.201 1828.61 389.422 1831.41 389.422Z" fill="#6ABFAF"/>
<path d="M1831.41 255.13C1834.21 255.13 1836.48 252.909 1836.48 250.17C1836.48 247.431 1834.21 245.21 1831.41 245.21C1828.61 245.21 1826.34 247.431 1826.34 250.17C1826.34 252.909 1828.61 255.13 1831.41 255.13Z" fill="#6ABFAF"/>
<path d="M1831.41 346.828C1834.21 346.828 1836.48 344.607 1836.48 341.868C1836.48 339.129 1834.21 336.908 1831.41 336.908C1828.61 336.908 1826.34 339.129 1826.34 341.868C1826.34 344.607 1828.61 346.828 1831.41 346.828Z" fill="#6ABFAF"/>
<path d="M1831.41 278.628C1834.21 278.628 1836.48 276.407 1836.48 273.668C1836.48 270.929 1834.21 268.708 1831.41 268.708C1828.61 268.708 1826.34 270.929 1826.34 273.668C1826.34 276.407 1828.61 278.628 1831.41 278.628Z" fill="#6ABFAF"/>
<path d="M1831.41 302.064C1834.21 302.064 1836.48 299.843 1836.48 297.104C1836.48 294.365 1834.21 292.144 1831.41 292.144C1828.61 292.144 1826.34 294.365 1826.34 297.104C1826.34 299.843 1828.61 302.064 1831.41 302.064Z" fill="#6ABFAF"/>
<path d="M1831.41 325.562C1834.21 325.562 1836.48 323.341 1836.48 320.602C1836.48 317.863 1834.21 315.642 1831.41 315.642C1828.61 315.642 1826.34 317.863 1826.34 320.602C1826.34 323.341 1828.61 325.562 1831.41 325.562Z" fill="#6ABFAF"/>
<path d="M1858.01 255.13C1860.81 255.13 1863.08 252.909 1863.08 250.17C1863.08 247.431 1860.81 245.21 1858.01 245.21C1855.21 245.21 1852.94 247.431 1852.94 250.17C1852.94 252.909 1855.21 255.13 1858.01 255.13Z" fill="#6ABFAF"/>
<path d="M1858.01 325.562C1860.81 325.562 1863.08 323.341 1863.08 320.602C1863.08 317.863 1860.81 315.642 1858.01 315.642C1855.21 315.642 1852.94 317.863 1852.94 320.602C1852.94 323.341 1855.21 325.562 1858.01 325.562Z" fill="#6ABFAF"/>
<path d="M1858.01 346.828C1860.81 346.828 1863.08 344.607 1863.08 341.868C1863.08 339.129 1860.81 336.908 1858.01 336.908C1855.21 336.908 1852.94 339.129 1852.94 341.868C1852.94 344.607 1855.21 346.828 1858.01 346.828Z" fill="#6ABFAF"/>
<path d="M1858.01 161.262C1860.81 161.262 1863.08 159.041 1863.08 156.302C1863.08 153.563 1860.81 151.342 1858.01 151.342C1855.21 151.342 1852.94 153.563 1852.94 156.302C1852.94 159.041 1855.21 161.262 1858.01 161.262Z" fill="#6ABFAF"/>
<path d="M1858.01 302.064C1860.81 302.064 1863.08 299.843 1863.08 297.104C1863.08 294.365 1860.81 292.144 1858.01 292.144C1855.21 292.144 1852.94 294.365 1852.94 297.104C1852.94 299.843 1855.21 302.064 1858.01 302.064Z" fill="#6ABFAF"/>
<path d="M1858.01 389.422C1860.81 389.422 1863.08 387.201 1863.08 384.462C1863.08 381.723 1860.81 379.502 1858.01 379.502C1855.21 379.502 1852.94 381.723 1852.94 384.462C1852.94 387.201 1855.21 389.422 1858.01 389.422Z" fill="#6ABFAF"/>
<path d="M1858.01 368.094C1860.81 368.094 1863.08 365.873 1863.08 363.134C1863.08 360.395 1860.81 358.174 1858.01 358.174C1855.21 358.174 1852.94 360.395 1852.94 363.134C1852.94 365.873 1855.21 368.094 1858.01 368.094Z" fill="#6ABFAF"/>
<path d="M1858.01 208.196C1860.81 208.196 1863.08 205.975 1863.08 203.236C1863.08 200.497 1860.81 198.276 1858.01 198.276C1855.21 198.276 1852.94 200.497 1852.94 203.236C1852.94 205.975 1855.21 208.196 1858.01 208.196Z" fill="#6ABFAF"/>
<path d="M1858.01 184.76C1860.81 184.76 1863.08 182.539 1863.08 179.8C1863.08 177.061 1860.81 174.84 1858.01 174.84C1855.21 174.84 1852.94 177.061 1852.94 179.8C1852.94 182.539 1855.21 184.76 1858.01 184.76Z" fill="#6ABFAF"/>
<path d="M1858.01 410.688C1860.81 410.688 1863.08 408.467 1863.08 405.728C1863.08 402.989 1860.81 400.768 1858.01 400.768C1855.21 400.768 1852.94 402.989 1852.94 405.728C1852.94 408.467 1855.21 410.688 1858.01 410.688Z" fill="#6ABFAF"/>
<path d="M1858.01 278.628C1860.81 278.628 1863.08 276.407 1863.08 273.668C1863.08 270.929 1860.81 268.708 1858.01 268.708C1855.21 268.708 1852.94 270.929 1852.94 273.668C1852.94 276.407 1855.21 278.628 1858.01 278.628Z" fill="#6ABFAF"/>
<path d="M1858.01 231.694C1860.81 231.694 1863.08 229.473 1863.08 226.734C1863.08 223.995 1860.81 221.774 1858.01 221.774C1855.21 221.774 1852.94 223.995 1852.94 226.734C1852.94 229.473 1855.21 231.694 1858.01 231.694Z" fill="#6ABFAF"/>
<path d="M1884.61 184.76C1887.41 184.76 1889.68 182.539 1889.68 179.8C1889.68 177.061 1887.41 174.84 1884.61 174.84C1881.81 174.84 1879.54 177.061 1879.54 179.8C1879.54 182.539 1881.81 184.76 1884.61 184.76Z" fill="#6ABFAF"/>
<path d="M1778.21 278.628C1781.01 278.628 1783.28 276.407 1783.28 273.668C1783.28 270.929 1781.01 268.708 1778.21 268.708C1775.41 268.708 1773.14 270.929 1773.14 273.668C1773.14 276.407 1775.41 278.628 1778.21 278.628Z" fill="#6ABFAF"/>
<path d="M1778.21 431.954C1781.01 431.954 1783.28 429.733 1783.28 426.994C1783.28 424.255 1781.01 422.034 1778.21 422.034C1775.41 422.034 1773.14 424.255 1773.14 426.994C1773.14 429.733 1775.41 431.954 1778.21 431.954Z" fill="#6ABFAF"/>
<path d="M1778.21 208.196C1781.01 208.196 1783.28 205.975 1783.28 203.236C1783.28 200.497 1781.01 198.276 1778.21 198.276C1775.41 198.276 1773.14 200.497 1773.14 203.236C1773.14 205.975 1775.41 208.196 1778.21 208.196Z" fill="#6ABFAF"/>
<path d="M1778.21 231.694C1781.01 231.694 1783.28 229.473 1783.28 226.734C1783.28 223.995 1781.01 221.774 1778.21 221.774C1775.41 221.774 1773.14 223.995 1773.14 226.734C1773.14 229.473 1775.41 231.694 1778.21 231.694Z" fill="#6ABFAF"/>
<path d="M1778.21 302.064C1781.01 302.064 1783.28 299.843 1783.28 297.104C1783.28 294.365 1781.01 292.144 1778.21 292.144C1775.41 292.144 1773.14 294.365 1773.14 297.104C1773.14 299.843 1775.41 302.064 1778.21 302.064Z" fill="#6ABFAF"/>
<path d="M1778.21 346.828C1781.01 346.828 1783.28 344.607 1783.28 341.868C1783.28 339.129 1781.01 336.908 1778.21 336.908C1775.41 336.908 1773.14 339.129 1773.14 341.868C1773.14 344.607 1775.41 346.828 1778.21 346.828Z" fill="#6ABFAF"/>
<path d="M1778.21 410.688C1781.01 410.688 1783.28 408.467 1783.28 405.728C1783.28 402.989 1781.01 400.768 1778.21 400.768C1775.41 400.768 1773.14 402.989 1773.14 405.728C1773.14 408.467 1775.41 410.688 1778.21 410.688Z" fill="#6ABFAF"/>
<path d="M1778.21 389.422C1781.01 389.422 1783.28 387.201 1783.28 384.462C1783.28 381.723 1781.01 379.502 1778.21 379.502C1775.41 379.502 1773.14 381.723 1773.14 384.462C1773.14 387.201 1775.41 389.422 1778.21 389.422Z" fill="#6ABFAF"/>
<path d="M1778.21 368.094C1781.01 368.094 1783.28 365.873 1783.28 363.134C1783.28 360.395 1781.01 358.174 1778.21 358.174C1775.41 358.174 1773.14 360.395 1773.14 363.134C1773.14 365.873 1775.41 368.094 1778.21 368.094Z" fill="#6ABFAF"/>
<path d="M1778.21 161.262C1781.01 161.262 1783.28 159.041 1783.28 156.302C1783.28 153.563 1781.01 151.342 1778.21 151.342C1775.41 151.342 1773.14 153.563 1773.14 156.302C1773.14 159.041 1775.41 161.262 1778.21 161.262Z" fill="#6ABFAF"/>
<path d="M1778.21 325.562C1781.01 325.562 1783.28 323.341 1783.28 320.602C1783.28 317.863 1781.01 315.642 1778.21 315.642C1775.41 315.642 1773.14 317.863 1773.14 320.602C1773.14 323.341 1775.41 325.562 1778.21 325.562Z" fill="#6ABFAF"/>
<path d="M1778.21 255.13C1781.01 255.13 1783.28 252.909 1783.28 250.17C1783.28 247.431 1781.01 245.21 1778.21 245.21C1775.41 245.21 1773.14 247.431 1773.14 250.17C1773.14 252.909 1775.41 255.13 1778.21 255.13Z" fill="#6ABFAF"/>
<path d="M1751.61 325.562C1754.41 325.562 1756.68 323.341 1756.68 320.602C1756.68 317.863 1754.41 315.642 1751.61 315.642C1748.81 315.642 1746.54 317.863 1746.54 320.602C1746.54 323.341 1748.81 325.562 1751.61 325.562Z" fill="#6ABFAF"/>
<path d="M1751.61 368.094C1754.41 368.094 1756.68 365.873 1756.68 363.134C1756.68 360.395 1754.41 358.174 1751.61 358.174C1748.81 358.174 1746.54 360.395 1746.54 363.134C1746.54 365.873 1748.81 368.094 1751.61 368.094Z" fill="#6ABFAF"/>
<path d="M1751.61 346.828C1754.41 346.828 1756.68 344.607 1756.68 341.868C1756.68 339.129 1754.41 336.908 1751.61 336.908C1748.81 336.908 1746.54 339.129 1746.54 341.868C1746.54 344.607 1748.81 346.828 1751.61 346.828Z" fill="#6ABFAF"/>
<path d="M1751.61 302.064C1754.41 302.064 1756.68 299.843 1756.68 297.104C1756.68 294.365 1754.41 292.144 1751.61 292.144C1748.81 292.144 1746.54 294.365 1746.54 297.104C1746.54 299.843 1748.81 302.064 1751.61 302.064Z" fill="#6ABFAF"/>
<path d="M1751.61 278.628C1754.41 278.628 1756.68 276.407 1756.68 273.668C1756.68 270.929 1754.41 268.708 1751.61 268.708C1748.81 268.708 1746.54 270.929 1746.54 273.668C1746.54 276.407 1748.81 278.628 1751.61 278.628Z" fill="#6ABFAF"/>
<path d="M1751.61 431.954C1754.41 431.954 1756.68 429.733 1756.68 426.994C1756.68 424.255 1754.41 422.034 1751.61 422.034C1748.81 422.034 1746.54 424.255 1746.54 426.994C1746.54 429.733 1748.81 431.954 1751.61 431.954Z" fill="#6ABFAF"/>
<path d="M1751.61 474.548C1754.41 474.548 1756.68 472.327 1756.68 469.588C1756.68 466.849 1754.41 464.628 1751.61 464.628C1748.81 464.628 1746.54 466.849 1746.54 469.588C1746.54 472.327 1748.81 474.548 1751.61 474.548Z" fill="#6ABFAF"/>
<path d="M1751.61 453.22C1754.41 453.22 1756.68 450.999 1756.68 448.26C1756.68 445.521 1754.41 443.3 1751.61 443.3C1748.81 443.3 1746.54 445.521 1746.54 448.26C1746.54 450.999 1748.81 453.22 1751.61 453.22Z" fill="#6ABFAF"/>
<path d="M1751.61 389.422C1754.41 389.422 1756.68 387.201 1756.68 384.462C1756.68 381.723 1754.41 379.502 1751.61 379.502C1748.81 379.502 1746.54 381.723 1746.54 384.462C1746.54 387.201 1748.81 389.422 1751.61 389.422Z" fill="#6ABFAF"/>
<path d="M1751.61 255.13C1754.41 255.13 1756.68 252.909 1756.68 250.17C1756.68 247.431 1754.41 245.21 1751.61 245.21C1748.81 245.21 1746.54 247.431 1746.54 250.17C1746.54 252.909 1748.81 255.13 1751.61 255.13Z" fill="#6ABFAF"/>
<path d="M1751.61 410.688C1754.41 410.688 1756.68 408.467 1756.68 405.728C1756.68 402.989 1754.41 400.768 1751.61 400.768C1748.81 400.768 1746.54 402.989 1746.54 405.728C1746.54 408.467 1748.81 410.688 1751.61 410.688Z" fill="#6ABFAF"/>
<path d="M1778.21 184.76C1781.01 184.76 1783.28 182.539 1783.28 179.8C1783.28 177.061 1781.01 174.84 1778.21 174.84C1775.41 174.84 1773.14 177.061 1773.14 179.8C1773.14 182.539 1775.41 184.76 1778.21 184.76Z" fill="#6ABFAF"/>
<path d="M1645.21 346.828C1648.01 346.828 1650.28 344.607 1650.28 341.868C1650.28 339.129 1648.01 336.908 1645.21 336.908C1642.41 336.908 1640.14 339.129 1640.14 341.868C1640.14 344.607 1642.41 346.828 1645.21 346.828Z" fill="#6ABFAF"/>
<path d="M1645.21 231.694C1648.01 231.694 1650.28 229.473 1650.28 226.734C1650.28 223.995 1648.01 221.774 1645.21 221.774C1642.41 221.774 1640.14 223.995 1640.14 226.734C1640.14 229.473 1642.41 231.694 1645.21 231.694Z" fill="#6ABFAF"/>
<path d="M1645.21 278.628C1648.01 278.628 1650.28 276.407 1650.28 273.668C1650.28 270.929 1648.01 268.708 1645.21 268.708C1642.41 268.708 1640.14 270.929 1640.14 273.668C1640.14 276.407 1642.41 278.628 1645.21 278.628Z" fill="#6ABFAF"/>
<path d="M1725.01 453.22C1727.81 453.22 1730.08 450.999 1730.08 448.26C1730.08 445.521 1727.81 443.3 1725.01 443.3C1722.21 443.3 1719.94 445.521 1719.94 448.26C1719.94 450.999 1722.21 453.22 1725.01 453.22Z" fill="#6ABFAF"/>
<path d="M1645.21 368.094C1648.01 368.094 1650.28 365.873 1650.28 363.134C1650.28 360.395 1648.01 358.174 1645.21 358.174C1642.41 358.174 1640.14 360.395 1640.14 363.134C1640.14 365.873 1642.41 368.094 1645.21 368.094Z" fill="#6ABFAF"/>
<path d="M1645.21 325.562C1648.01 325.562 1650.28 323.341 1650.28 320.602C1650.28 317.863 1648.01 315.642 1645.21 315.642C1642.41 315.642 1640.14 317.863 1640.14 320.602C1640.14 323.341 1642.41 325.562 1645.21 325.562Z" fill="#6ABFAF"/>
<path d="M1645.21 208.196C1648.01 208.196 1650.28 205.975 1650.28 203.236C1650.28 200.497 1648.01 198.276 1645.21 198.276C1642.41 198.276 1640.14 200.497 1640.14 203.236C1640.14 205.975 1642.41 208.196 1645.21 208.196Z" fill="#6ABFAF"/>
<path d="M1645.21 389.422C1648.01 389.422 1650.28 387.201 1650.28 384.462C1650.28 381.723 1648.01 379.502 1645.21 379.502C1642.41 379.502 1640.14 381.723 1640.14 384.462C1640.14 387.201 1642.41 389.422 1645.21 389.422Z" fill="#6ABFAF"/>
<path d="M1645.21 410.688C1648.01 410.688 1650.28 408.467 1650.28 405.728C1650.28 402.989 1648.01 400.768 1645.21 400.768C1642.41 400.768 1640.14 402.989 1640.14 405.728C1640.14 408.467 1642.41 410.688 1645.21 410.688Z" fill="#6ABFAF"/>
<path d="M1645.21 255.13C1648.01 255.13 1650.28 252.909 1650.28 250.17C1650.28 247.431 1648.01 245.21 1645.21 245.21C1642.41 245.21 1640.14 247.431 1640.14 250.17C1640.14 252.909 1642.41 255.13 1645.21 255.13Z" fill="#6ABFAF"/>
<path d="M1618.61 325.562C1621.41 325.562 1623.68 323.341 1623.68 320.602C1623.68 317.863 1621.41 315.642 1618.61 315.642C1615.81 315.642 1613.54 317.863 1613.54 320.602C1613.54 323.341 1615.81 325.562 1618.61 325.562Z" fill="#6ABFAF"/>
<path d="M1778.21 141.484C1781.01 141.484 1783.28 139.263 1783.28 136.524C1783.28 133.785 1781.01 131.564 1778.21 131.564C1775.41 131.564 1773.14 133.785 1773.14 136.524C1773.14 139.263 1775.41 141.484 1778.21 141.484Z" fill="#6ABFAF"/>
<path d="M1778.21 474.548C1781.01 474.548 1783.28 472.327 1783.28 469.588C1783.28 466.849 1781.01 464.628 1778.21 464.628C1775.41 464.628 1773.14 466.849 1773.14 469.588C1773.14 472.327 1775.41 474.548 1778.21 474.548Z" fill="#6ABFAF"/>
<path d="M1618.61 346.828C1621.41 346.828 1623.68 344.607 1623.68 341.868C1623.68 339.129 1621.41 336.908 1618.61 336.908C1615.81 336.908 1613.54 339.129 1613.54 341.868C1613.54 344.607 1615.81 346.828 1618.61 346.828Z" fill="#6ABFAF"/>
<path d="M1778.21 453.22C1781.01 453.22 1783.28 450.999 1783.28 448.26C1783.28 445.521 1781.01 443.3 1778.21 443.3C1775.41 443.3 1773.14 445.521 1773.14 448.26C1773.14 450.999 1775.41 453.22 1778.21 453.22Z" fill="#6ABFAF"/>
<path d="M1618.61 302.064C1621.41 302.064 1623.68 299.843 1623.68 297.104C1623.68 294.365 1621.41 292.144 1618.61 292.144C1615.81 292.144 1613.54 294.365 1613.54 297.104C1613.54 299.843 1615.81 302.064 1618.61 302.064Z" fill="#6ABFAF"/>
<path d="M1618.61 368.094C1621.41 368.094 1623.68 365.873 1623.68 363.134C1623.68 360.395 1621.41 358.174 1618.61 358.174C1615.81 358.174 1613.54 360.395 1613.54 363.134C1613.54 365.873 1615.81 368.094 1618.61 368.094Z" fill="#6ABFAF"/>
<path d="M1618.61 255.13C1621.41 255.13 1623.68 252.909 1623.68 250.17C1623.68 247.431 1621.41 245.21 1618.61 245.21C1615.81 245.21 1613.54 247.431 1613.54 250.17C1613.54 252.909 1615.81 255.13 1618.61 255.13Z" fill="#6ABFAF"/>
<path d="M1618.61 278.628C1621.41 278.628 1623.68 276.407 1623.68 273.668C1623.68 270.929 1621.41 268.708 1618.61 268.708C1615.81 268.708 1613.54 270.929 1613.54 273.668C1613.54 276.407 1615.81 278.628 1618.61 278.628Z" fill="#6ABFAF"/>
<path d="M1645.21 302.064C1648.01 302.064 1650.28 299.843 1650.28 297.104C1650.28 294.365 1648.01 292.144 1645.21 292.144C1642.41 292.144 1640.14 294.365 1640.14 297.104C1640.14 299.843 1642.41 302.064 1645.21 302.064Z" fill="#6ABFAF"/>
<path d="M1698.41 410.688C1701.21 410.688 1703.48 408.467 1703.48 405.728C1703.48 402.989 1701.21 400.768 1698.41 400.768C1695.61 400.768 1693.34 402.989 1693.34 405.728C1693.34 408.467 1695.61 410.688 1698.41 410.688Z" fill="#6ABFAF"/>
<path d="M1698.41 453.22C1701.21 453.22 1703.48 450.999 1703.48 448.26C1703.48 445.521 1701.21 443.3 1698.41 443.3C1695.61 443.3 1693.34 445.521 1693.34 448.26C1693.34 450.999 1695.61 453.22 1698.41 453.22Z" fill="#6ABFAF"/>
<path d="M1698.41 431.954C1701.21 431.954 1703.48 429.733 1703.48 426.994C1703.48 424.255 1701.21 422.034 1698.41 422.034C1695.61 422.034 1693.34 424.255 1693.34 426.994C1693.34 429.733 1695.61 431.954 1698.41 431.954Z" fill="#6ABFAF"/>
<path d="M1725.01 208.196C1727.81 208.196 1730.08 205.975 1730.08 203.236C1730.08 200.497 1727.81 198.276 1725.01 198.276C1722.21 198.276 1719.94 200.497 1719.94 203.236C1719.94 205.975 1722.21 208.196 1725.01 208.196Z" fill="#6ABFAF"/>
<path d="M1725.01 161.262C1727.81 161.262 1730.08 159.041 1730.08 156.302C1730.08 153.563 1727.81 151.342 1725.01 151.342C1722.21 151.342 1719.94 153.563 1719.94 156.302C1719.94 159.041 1722.21 161.262 1725.01 161.262Z" fill="#6ABFAF"/>
<path d="M1725.01 184.76C1727.81 184.76 1730.08 182.539 1730.08 179.8C1730.08 177.061 1727.81 174.84 1725.01 174.84C1722.21 174.84 1719.94 177.061 1719.94 179.8C1719.94 182.539 1722.21 184.76 1725.01 184.76Z" fill="#6ABFAF"/>
<path d="M1698.41 325.562C1701.21 325.562 1703.48 323.341 1703.48 320.602C1703.48 317.863 1701.21 315.642 1698.41 315.642C1695.61 315.642 1693.34 317.863 1693.34 320.602C1693.34 323.341 1695.61 325.562 1698.41 325.562Z" fill="#6ABFAF"/>
<path d="M1698.41 302.064C1701.21 302.064 1703.48 299.843 1703.48 297.104C1703.48 294.365 1701.21 292.144 1698.41 292.144C1695.61 292.144 1693.34 294.365 1693.34 297.104C1693.34 299.843 1695.61 302.064 1698.41 302.064Z" fill="#6ABFAF"/>
<path d="M1698.41 389.422C1701.21 389.422 1703.48 387.201 1703.48 384.462C1703.48 381.723 1701.21 379.502 1698.41 379.502C1695.61 379.502 1693.34 381.723 1693.34 384.462C1693.34 387.201 1695.61 389.422 1698.41 389.422Z" fill="#6ABFAF"/>
<path d="M1698.41 368.094C1701.21 368.094 1703.48 365.873 1703.48 363.134C1703.48 360.395 1701.21 358.174 1698.41 358.174C1695.61 358.174 1693.34 360.395 1693.34 363.134C1693.34 365.873 1695.61 368.094 1698.41 368.094Z" fill="#6ABFAF"/>
<path d="M1698.41 346.828C1701.21 346.828 1703.48 344.607 1703.48 341.868C1703.48 339.129 1701.21 336.908 1698.41 336.908C1695.61 336.908 1693.34 339.129 1693.34 341.868C1693.34 344.607 1695.61 346.828 1698.41 346.828Z" fill="#6ABFAF"/>
<path d="M1725.01 302.064C1727.81 302.064 1730.08 299.843 1730.08 297.104C1730.08 294.365 1727.81 292.144 1725.01 292.144C1722.21 292.144 1719.94 294.365 1719.94 297.104C1719.94 299.843 1722.21 302.064 1725.01 302.064Z" fill="#6ABFAF"/>
<path d="M1725.01 368.094C1727.81 368.094 1730.08 365.873 1730.08 363.134C1730.08 360.395 1727.81 358.174 1725.01 358.174C1722.21 358.174 1719.94 360.395 1719.94 363.134C1719.94 365.873 1722.21 368.094 1725.01 368.094Z" fill="#6ABFAF"/>
<path d="M1725.01 410.688C1727.81 410.688 1730.08 408.467 1730.08 405.728C1730.08 402.989 1727.81 400.768 1725.01 400.768C1722.21 400.768 1719.94 402.989 1719.94 405.728C1719.94 408.467 1722.21 410.688 1725.01 410.688Z" fill="#6ABFAF"/>
<path d="M1725.01 389.422C1727.81 389.422 1730.08 387.201 1730.08 384.462C1730.08 381.723 1727.81 379.502 1725.01 379.502C1722.21 379.502 1719.94 381.723 1719.94 384.462C1719.94 387.201 1722.21 389.422 1725.01 389.422Z" fill="#6ABFAF"/>
<path d="M1725.01 231.694C1727.81 231.694 1730.08 229.473 1730.08 226.734C1730.08 223.995 1727.81 221.774 1725.01 221.774C1722.21 221.774 1719.94 223.995 1719.94 226.734C1719.94 229.473 1722.21 231.694 1725.01 231.694Z" fill="#6ABFAF"/>
<path d="M1725.01 474.548C1727.81 474.548 1730.08 472.327 1730.08 469.588C1730.08 466.849 1727.81 464.628 1725.01 464.628C1722.21 464.628 1719.94 466.849 1719.94 469.588C1719.94 472.327 1722.21 474.548 1725.01 474.548Z" fill="#6ABFAF"/>
<path d="M1725.01 431.954C1727.81 431.954 1730.08 429.733 1730.08 426.994C1730.08 424.255 1727.81 422.034 1725.01 422.034C1722.21 422.034 1719.94 424.255 1719.94 426.994C1719.94 429.733 1722.21 431.954 1725.01 431.954Z" fill="#6ABFAF"/>
<path d="M1725.01 255.13C1727.81 255.13 1730.08 252.909 1730.08 250.17C1730.08 247.431 1727.81 245.21 1725.01 245.21C1722.21 245.21 1719.94 247.431 1719.94 250.17C1719.94 252.909 1722.21 255.13 1725.01 255.13Z" fill="#6ABFAF"/>
<path d="M1725.01 346.828C1727.81 346.828 1730.08 344.607 1730.08 341.868C1730.08 339.129 1727.81 336.908 1725.01 336.908C1722.21 336.908 1719.94 339.129 1719.94 341.868C1719.94 344.607 1722.21 346.828 1725.01 346.828Z" fill="#6ABFAF"/>
<path d="M1725.01 278.628C1727.81 278.628 1730.08 276.407 1730.08 273.668C1730.08 270.929 1727.81 268.708 1725.01 268.708C1722.21 268.708 1719.94 270.929 1719.94 273.668C1719.94 276.407 1722.21 278.628 1725.01 278.628Z" fill="#6ABFAF"/>
<path d="M1698.41 278.628C1701.21 278.628 1703.48 276.407 1703.48 273.668C1703.48 270.929 1701.21 268.708 1698.41 268.708C1695.61 268.708 1693.34 270.929 1693.34 273.668C1693.34 276.407 1695.61 278.628 1698.41 278.628Z" fill="#6ABFAF"/>
<path d="M1725.01 325.562C1727.81 325.562 1730.08 323.341 1730.08 320.602C1730.08 317.863 1727.81 315.642 1725.01 315.642C1722.21 315.642 1719.94 317.863 1719.94 320.602C1719.94 323.341 1722.21 325.562 1725.01 325.562Z" fill="#6ABFAF"/>
<path d="M1751.61 208.196C1754.41 208.196 1756.68 205.975 1756.68 203.236C1756.68 200.497 1754.41 198.276 1751.61 198.276C1748.81 198.276 1746.54 200.497 1746.54 203.236C1746.54 205.975 1748.81 208.196 1751.61 208.196Z" fill="#6ABFAF"/>
<path d="M1671.81 255.13C1674.61 255.13 1676.88 252.909 1676.88 250.17C1676.88 247.431 1674.61 245.21 1671.81 245.21C1669.01 245.21 1666.74 247.431 1666.74 250.17C1666.74 252.909 1669.01 255.13 1671.81 255.13Z" fill="#6ABFAF"/>
<path d="M1671.81 431.954C1674.61 431.954 1676.88 429.733 1676.88 426.994C1676.88 424.255 1674.61 422.034 1671.81 422.034C1669.01 422.034 1666.74 424.255 1666.74 426.994C1666.74 429.733 1669.01 431.954 1671.81 431.954Z" fill="#6ABFAF"/>
<path d="M1671.81 208.196C1674.61 208.196 1676.88 205.975 1676.88 203.236C1676.88 200.497 1674.61 198.276 1671.81 198.276C1669.01 198.276 1666.74 200.497 1666.74 203.236C1666.74 205.975 1669.01 208.196 1671.81 208.196Z" fill="#6ABFAF"/>
<path d="M1671.81 231.694C1674.61 231.694 1676.88 229.473 1676.88 226.734C1676.88 223.995 1674.61 221.774 1671.81 221.774C1669.01 221.774 1666.74 223.995 1666.74 226.734C1666.74 229.473 1669.01 231.694 1671.81 231.694Z" fill="#6ABFAF"/>
<path d="M1671.81 184.76C1674.61 184.76 1676.88 182.539 1676.88 179.8C1676.88 177.061 1674.61 174.84 1671.81 174.84C1669.01 174.84 1666.74 177.061 1666.74 179.8C1666.74 182.539 1669.01 184.76 1671.81 184.76Z" fill="#6ABFAF"/>
<path d="M1751.61 231.694C1754.41 231.694 1756.68 229.473 1756.68 226.734C1756.68 223.995 1754.41 221.774 1751.61 221.774C1748.81 221.774 1746.54 223.995 1746.54 226.734C1746.54 229.473 1748.81 231.694 1751.61 231.694Z" fill="#6ABFAF"/>
<path d="M1751.61 184.76C1754.41 184.76 1756.68 182.539 1756.68 179.8C1756.68 177.061 1754.41 174.84 1751.61 174.84C1748.81 174.84 1746.54 177.061 1746.54 179.8C1746.54 182.539 1748.81 184.76 1751.61 184.76Z" fill="#6ABFAF"/>
<path d="M1751.61 141.484C1754.41 141.484 1756.68 139.263 1756.68 136.524C1756.68 133.785 1754.41 131.564 1751.61 131.564C1748.81 131.564 1746.54 133.785 1746.54 136.524C1746.54 139.263 1748.81 141.484 1751.61 141.484Z" fill="#6ABFAF"/>
<path d="M1751.61 161.262C1754.41 161.262 1756.68 159.041 1756.68 156.302C1756.68 153.563 1754.41 151.342 1751.61 151.342C1748.81 151.342 1746.54 153.563 1746.54 156.302C1746.54 159.041 1748.81 161.262 1751.61 161.262Z" fill="#6ABFAF"/>
<path d="M1671.81 325.562C1674.61 325.562 1676.88 323.341 1676.88 320.602C1676.88 317.863 1674.61 315.642 1671.81 315.642C1669.01 315.642 1666.74 317.863 1666.74 320.602C1666.74 323.341 1669.01 325.562 1671.81 325.562Z" fill="#6ABFAF"/>
<path d="M1698.41 184.76C1701.21 184.76 1703.48 182.539 1703.48 179.8C1703.48 177.061 1701.21 174.84 1698.41 174.84C1695.61 174.84 1693.34 177.061 1693.34 179.8C1693.34 182.539 1695.61 184.76 1698.41 184.76Z" fill="#6ABFAF"/>
<path d="M1698.41 161.262C1701.21 161.262 1703.48 159.041 1703.48 156.302C1703.48 153.563 1701.21 151.342 1698.41 151.342C1695.61 151.342 1693.34 153.563 1693.34 156.302C1693.34 159.041 1695.61 161.262 1698.41 161.262Z" fill="#6ABFAF"/>
<path d="M1698.41 231.694C1701.21 231.694 1703.48 229.473 1703.48 226.734C1703.48 223.995 1701.21 221.774 1698.41 221.774C1695.61 221.774 1693.34 223.995 1693.34 226.734C1693.34 229.473 1695.61 231.694 1698.41 231.694Z" fill="#6ABFAF"/>
<path d="M1671.81 389.422C1674.61 389.422 1676.88 387.201 1676.88 384.462C1676.88 381.723 1674.61 379.502 1671.81 379.502C1669.01 379.502 1666.74 381.723 1666.74 384.462C1666.74 387.201 1669.01 389.422 1671.81 389.422Z" fill="#6ABFAF"/>
<path d="M1698.41 208.196C1701.21 208.196 1703.48 205.975 1703.48 203.236C1703.48 200.497 1701.21 198.276 1698.41 198.276C1695.61 198.276 1693.34 200.497 1693.34 203.236C1693.34 205.975 1695.61 208.196 1698.41 208.196Z" fill="#6ABFAF"/>
<path d="M1671.81 278.628C1674.61 278.628 1676.88 276.407 1676.88 273.668C1676.88 270.929 1674.61 268.708 1671.81 268.708C1669.01 268.708 1666.74 270.929 1666.74 273.668C1666.74 276.407 1669.01 278.628 1671.81 278.628Z" fill="#6ABFAF"/>
<path d="M1698.41 255.13C1701.21 255.13 1703.48 252.909 1703.48 250.17C1703.48 247.431 1701.21 245.21 1698.41 245.21C1695.61 245.21 1693.34 247.431 1693.34 250.17C1693.34 252.909 1695.61 255.13 1698.41 255.13Z" fill="#6ABFAF"/>
<path d="M1671.81 410.688C1674.61 410.688 1676.88 408.467 1676.88 405.728C1676.88 402.989 1674.61 400.768 1671.81 400.768C1669.01 400.768 1666.74 402.989 1666.74 405.728C1666.74 408.467 1669.01 410.688 1671.81 410.688Z" fill="#6ABFAF"/>
<path d="M1671.81 302.064C1674.61 302.064 1676.88 299.843 1676.88 297.104C1676.88 294.365 1674.61 292.144 1671.81 292.144C1669.01 292.144 1666.74 294.365 1666.74 297.104C1666.74 299.843 1669.01 302.064 1671.81 302.064Z" fill="#6ABFAF"/>
<path d="M1671.81 368.094C1674.61 368.094 1676.88 365.873 1676.88 363.134C1676.88 360.395 1674.61 358.174 1671.81 358.174C1669.01 358.174 1666.74 360.395 1666.74 363.134C1666.74 365.873 1669.01 368.094 1671.81 368.094Z" fill="#6ABFAF"/>
<path d="M1671.81 346.828C1674.61 346.828 1676.88 344.607 1676.88 341.868C1676.88 339.129 1674.61 336.908 1671.81 336.908C1669.01 336.908 1666.74 339.129 1666.74 341.868C1666.74 344.607 1669.01 346.828 1671.81 346.828Z" fill="#6ABFAF"/>
<path d="M500.84 416.516C493.873 416.516 487.413 419.182 482.473 423.956C476.52 429.784 466.893 429.784 461.003 423.956C450.87 414.036 434.403 414.036 424.27 423.956C418.317 429.784 408.69 429.784 402.8 423.956C397.923 419.182 391.4 416.516 384.433 416.516C377.467 416.516 371.007 419.182 366.067 423.956C360.113 429.784 350.487 429.784 344.597 423.956C334.463 414.036 317.997 414.036 307.863 423.956C301.91 429.784 292.283 429.784 286.393 423.956C276.26 414.036 259.793 414.036 249.66 423.956C243.707 429.784 234.08 429.784 228.19 423.956C223.313 419.182 216.79 416.516 209.823 416.516C202.857 416.516 196.397 419.182 191.457 423.956C189.367 426.002 189.367 429.35 191.457 431.396C193.547 433.442 196.967 433.442 199.057 431.396C205.01 425.568 214.637 425.568 220.527 431.396C230.66 441.316 247.127 441.316 257.26 431.396C263.213 425.568 272.84 425.568 278.73 431.396C288.863 441.316 305.33 441.316 315.463 431.396C318.313 428.606 322.177 427.056 326.23 427.056C330.283 427.056 334.083 428.606 336.997 431.396C347.13 441.316 363.597 441.316 373.73 431.396C376.58 428.606 380.443 427.056 384.497 427.056C388.55 427.056 392.35 428.606 395.263 431.396C400.14 436.17 406.663 438.836 413.63 438.836C420.597 438.836 427.057 436.17 431.997 431.396C437.95 425.568 447.577 425.568 453.467 431.396C463.6 441.316 480.067 441.316 490.2 431.396C496.153 425.568 505.78 425.568 511.67 431.396C513.76 433.442 517.18 433.442 519.27 431.396C521.36 429.35 521.36 426.002 519.27 423.956C514.33 419.12 507.807 416.516 500.84 416.516Z" fill="white"/>
<path d="M500.84 469.464C493.873 469.464 487.413 472.13 482.473 476.904C476.52 482.732 466.893 482.732 461.003 476.904C450.87 466.984 434.403 466.984 424.27 476.904C418.317 482.732 408.69 482.732 402.8 476.904C397.923 472.13 391.4 469.464 384.433 469.464C377.467 469.464 371.007 472.13 366.067 476.904C360.113 482.732 350.487 482.732 344.597 476.904C334.463 466.984 317.997 466.984 307.863 476.904C301.91 482.732 292.283 482.732 286.393 476.904C276.26 466.984 259.793 466.984 249.66 476.904C243.707 482.732 234.08 482.732 228.19 476.904C223.313 472.13 216.79 469.464 209.823 469.464C202.857 469.464 196.397 472.13 191.457 476.904C189.367 478.95 189.367 482.298 191.457 484.344C193.547 486.39 196.967 486.39 199.057 484.344C205.01 478.516 214.637 478.516 220.527 484.344C230.66 494.264 247.127 494.264 257.26 484.344C263.213 478.516 272.84 478.516 278.73 484.344C288.863 494.264 305.33 494.264 315.463 484.344C318.313 481.554 322.177 480.004 326.23 480.004C330.283 480.004 334.083 481.554 336.997 484.344C347.13 494.264 363.597 494.264 373.73 484.344C376.58 481.554 380.443 480.004 384.497 480.004C388.55 480.004 392.35 481.554 395.263 484.344C400.14 489.118 406.663 491.784 413.63 491.784C420.597 491.784 427.057 489.118 431.997 484.344C437.95 478.516 447.577 478.516 453.467 484.344C463.6 494.264 480.067 494.264 490.2 484.344C496.153 478.516 505.78 478.516 511.67 484.344C513.76 486.39 517.18 486.39 519.27 484.344C521.36 482.298 521.36 478.95 519.27 476.904C514.33 472.13 507.807 469.464 500.84 469.464Z" fill="white"/>
<path d="M500.84 522.474C493.873 522.474 487.413 525.14 482.473 529.914C476.52 535.742 466.893 535.742 461.003 529.914C450.87 519.994 434.403 519.994 424.27 529.914C418.317 535.742 408.69 535.742 402.8 529.914C397.923 525.14 391.4 522.474 384.433 522.474C377.467 522.474 371.007 525.14 366.067 529.914C360.113 535.742 350.487 535.742 344.597 529.914C334.463 519.994 317.997 519.994 307.863 529.914C301.91 535.742 292.283 535.742 286.393 529.914C276.26 519.994 259.793 519.994 249.66 529.914C243.707 535.742 234.08 535.742 228.19 529.914C223.313 525.14 216.79 522.474 209.823 522.474C202.857 522.474 196.397 525.14 191.457 529.914C189.367 531.96 189.367 535.308 191.457 537.354C193.547 539.4 196.967 539.4 199.057 537.354C205.01 531.526 214.637 531.526 220.527 537.354C230.66 547.274 247.127 547.274 257.26 537.354C263.213 531.526 272.84 531.526 278.73 537.354C288.863 547.274 305.33 547.274 315.463 537.354C318.313 534.564 322.177 533.014 326.23 533.014C330.283 533.014 334.083 534.564 336.997 537.354C347.13 547.274 363.597 547.274 373.73 537.354C376.58 534.564 380.443 533.014 384.497 533.014C388.55 533.014 392.35 534.564 395.263 537.354C400.14 542.128 406.663 544.794 413.63 544.794C420.597 544.794 427.057 542.128 431.997 537.354C437.95 531.526 447.577 531.526 453.467 537.354C463.6 547.274 480.067 547.274 490.2 537.354C496.153 531.526 505.78 531.526 511.67 537.354C513.76 539.4 517.18 539.4 519.27 537.354C521.36 535.308 521.36 531.96 519.27 529.914C514.33 525.14 507.807 522.474 500.84 522.474Z" fill="white"/>
<path d="M500.84 575.484C493.873 575.484 487.413 578.15 482.473 582.924C476.52 588.752 466.893 588.752 461.003 582.924C450.87 573.004 434.403 573.004 424.27 582.924C418.317 588.752 408.69 588.752 402.8 582.924C397.923 578.15 391.4 575.484 384.433 575.484C377.467 575.484 371.007 578.15 366.067 582.924C360.113 588.752 350.487 588.752 344.597 582.924C334.463 573.004 317.997 573.004 307.863 582.924C301.91 588.752 292.283 588.752 286.393 582.924C276.26 573.004 259.793 573.004 249.66 582.924C243.707 588.752 234.08 588.752 228.19 582.924C223.313 578.15 216.79 575.484 209.823 575.484C202.857 575.484 196.397 578.15 191.457 582.924C189.367 584.97 189.367 588.318 191.457 590.364C193.547 592.41 196.967 592.41 199.057 590.364C205.01 584.536 214.637 584.536 220.527 590.364C230.66 600.284 247.127 600.284 257.26 590.364C263.213 584.536 272.84 584.536 278.73 590.364C288.863 600.284 305.33 600.284 315.463 590.364C318.313 587.574 322.177 586.024 326.23 586.024C330.283 586.024 334.083 587.574 336.997 590.364C347.13 600.284 363.597 600.284 373.73 590.364C376.58 587.574 380.443 586.024 384.497 586.024C388.55 586.024 392.35 587.574 395.263 590.364C400.14 595.138 406.663 597.804 413.63 597.804C420.597 597.804 427.057 595.138 431.997 590.364C437.95 584.536 447.577 584.536 453.467 590.364C463.6 600.284 480.067 600.284 490.2 590.364C496.153 584.536 505.78 584.536 511.67 590.364C513.76 592.41 517.18 592.41 519.27 590.364C521.36 588.318 521.36 584.97 519.27 582.924C514.33 578.088 507.807 575.484 500.84 575.484Z" fill="white"/>
<path d="M500.84 628.432C493.873 628.432 487.413 631.098 482.473 635.872C476.52 641.7 466.893 641.7 461.003 635.872C450.87 625.952 434.403 625.952 424.27 635.872C418.317 641.7 408.69 641.7 402.8 635.872C397.923 631.098 391.4 628.432 384.433 628.432C377.467 628.432 371.007 631.098 366.067 635.872C360.113 641.7 350.487 641.7 344.597 635.872C334.463 625.952 317.997 625.952 307.863 635.872C301.91 641.7 292.283 641.7 286.393 635.872C276.26 625.952 259.793 625.952 249.66 635.872C243.707 641.7 234.08 641.7 228.19 635.872C223.313 631.098 216.79 628.432 209.823 628.432C202.857 628.432 196.397 631.098 191.457 635.872C189.367 637.918 189.367 641.266 191.457 643.312C193.547 645.358 196.967 645.358 199.057 643.312C205.01 637.484 214.637 637.484 220.527 643.312C230.66 653.232 247.127 653.232 257.26 643.312C263.213 637.484 272.84 637.484 278.73 643.312C288.863 653.232 305.33 653.232 315.463 643.312C318.313 640.522 322.177 638.972 326.23 638.972C330.283 638.972 334.083 640.522 336.997 643.312C347.13 653.232 363.597 653.232 373.73 643.312C376.58 640.522 380.443 638.972 384.497 638.972C388.55 638.972 392.35 640.522 395.263 643.312C400.14 648.086 406.663 650.752 413.63 650.752C420.597 650.752 427.057 648.086 431.997 643.312C437.95 637.484 447.577 637.484 453.467 643.312C463.6 653.232 480.067 653.232 490.2 643.312C496.153 637.484 505.78 637.484 511.67 643.312C513.76 645.358 517.18 645.358 519.27 643.312C521.36 641.266 521.36 637.918 519.27 635.872C514.33 631.098 507.807 628.432 500.84 628.432Z" fill="white"/>
<path d="M1847.81 942.4C1840.85 942.4 1834.39 945.066 1829.45 949.84C1823.49 955.668 1813.87 955.668 1807.98 949.84C1797.84 939.92 1781.38 939.92 1771.24 949.84C1765.29 955.668 1755.66 955.668 1749.77 949.84C1744.9 945.066 1738.37 942.4 1731.41 942.4C1724.44 942.4 1717.98 945.066 1713.04 949.84C1707.09 955.668 1697.46 955.668 1691.57 949.84C1681.44 939.92 1664.97 939.92 1654.84 949.84C1648.88 955.668 1639.26 955.668 1633.37 949.84C1623.23 939.92 1606.77 939.92 1596.63 949.84C1590.68 955.668 1581.05 955.668 1575.16 949.84C1570.29 945.066 1563.76 942.4 1556.8 942.4C1549.83 942.4 1543.37 945.066 1538.43 949.84C1536.34 951.886 1536.34 955.234 1538.43 957.28C1540.52 959.326 1543.94 959.326 1546.03 957.28C1551.98 951.452 1561.61 951.452 1567.5 957.28C1577.63 967.2 1594.1 967.2 1604.23 957.28C1610.19 951.452 1619.81 951.452 1625.7 957.28C1635.84 967.2 1652.3 967.2 1662.44 957.28C1665.29 954.49 1669.15 952.94 1673.2 952.94C1677.26 952.94 1681.06 954.49 1683.97 957.28C1694.1 967.2 1710.57 967.2 1720.7 957.28C1723.55 954.49 1727.42 952.94 1731.47 952.94C1735.52 952.94 1739.32 954.49 1742.24 957.28C1747.11 962.054 1753.64 964.72 1760.6 964.72C1767.57 964.72 1774.03 962.054 1778.97 957.28C1784.92 951.452 1794.55 951.452 1800.44 957.28C1810.57 967.2 1827.04 967.2 1837.17 957.28C1843.13 951.452 1852.75 951.452 1858.64 957.28C1860.73 959.326 1864.15 959.326 1866.24 957.28C1868.33 955.234 1868.33 951.886 1866.24 949.84C1861.3 945.066 1854.78 942.4 1847.81 942.4Z" fill="#7ACEBE"/>
<path d="M1847.81 995.41C1840.85 995.41 1834.39 998.076 1829.45 1002.85C1823.49 1008.68 1813.87 1008.68 1807.98 1002.85C1797.84 992.93 1781.38 992.93 1771.24 1002.85C1765.29 1008.68 1755.66 1008.68 1749.77 1002.85C1744.9 998.076 1738.37 995.41 1731.41 995.41C1724.44 995.41 1717.98 998.076 1713.04 1002.85C1707.09 1008.68 1697.46 1008.68 1691.57 1002.85C1681.44 992.93 1664.97 992.93 1654.84 1002.85C1648.88 1008.68 1639.26 1008.68 1633.37 1002.85C1623.23 992.93 1606.77 992.93 1596.63 1002.85C1590.68 1008.68 1581.05 1008.68 1575.16 1002.85C1570.29 998.076 1563.76 995.41 1556.8 995.41C1549.83 995.41 1543.37 998.076 1538.43 1002.85C1536.34 1004.9 1536.34 1008.24 1538.43 1010.29C1540.52 1012.34 1543.94 1012.34 1546.03 1010.29C1551.98 1004.46 1561.61 1004.46 1567.5 1010.29C1577.63 1020.21 1594.1 1020.21 1604.23 1010.29C1610.19 1004.46 1619.81 1004.46 1625.7 1010.29C1635.84 1020.21 1652.3 1020.21 1662.44 1010.29C1665.29 1007.5 1669.15 1005.95 1673.2 1005.95C1677.26 1005.95 1681.06 1007.5 1683.97 1010.29C1694.1 1020.21 1710.57 1020.21 1720.7 1010.29C1723.55 1007.5 1727.42 1005.95 1731.47 1005.95C1735.52 1005.95 1739.32 1007.5 1742.24 1010.29C1747.11 1015.06 1753.64 1017.73 1760.6 1017.73C1767.57 1017.73 1774.03 1015.06 1778.97 1010.29C1784.92 1004.46 1794.55 1004.46 1800.44 1010.29C1810.57 1020.21 1827.04 1020.21 1837.17 1010.29C1843.13 1004.46 1852.75 1004.46 1858.64 1010.29C1860.73 1012.34 1864.15 1012.34 1866.24 1010.29C1868.33 1008.24 1868.33 1004.9 1866.24 1002.85C1861.3 998.014 1854.78 995.41 1847.81 995.41Z" fill="#7ACEBE"/>
<path d="M1847.81 1048.36C1840.85 1048.36 1834.39 1051.02 1829.45 1055.8C1823.49 1061.63 1813.87 1061.63 1807.98 1055.8C1797.84 1045.88 1781.38 1045.88 1771.24 1055.8C1765.29 1061.63 1755.66 1061.63 1749.77 1055.8C1744.9 1051.02 1738.37 1048.36 1731.41 1048.36C1724.44 1048.36 1717.98 1051.02 1713.04 1055.8C1707.09 1061.63 1697.46 1061.63 1691.57 1055.8C1681.44 1045.88 1664.97 1045.88 1654.84 1055.8C1648.88 1061.63 1639.26 1061.63 1633.37 1055.8C1623.23 1045.88 1606.77 1045.88 1596.63 1055.8C1590.68 1061.63 1581.05 1061.63 1575.16 1055.8C1570.29 1051.02 1563.76 1048.36 1556.8 1048.36C1549.83 1048.36 1543.37 1051.02 1538.43 1055.8C1536.34 1057.84 1536.34 1061.19 1538.43 1063.24C1540.52 1065.28 1543.94 1065.28 1546.03 1063.24C1551.98 1057.41 1561.61 1057.41 1567.5 1063.24C1577.63 1073.16 1594.1 1073.16 1604.23 1063.24C1610.19 1057.41 1619.81 1057.41 1625.7 1063.24C1635.84 1073.16 1652.3 1073.16 1662.44 1063.24C1665.29 1060.45 1669.15 1058.9 1673.2 1058.9C1677.26 1058.9 1681.06 1060.45 1683.97 1063.24C1694.1 1073.16 1710.57 1073.16 1720.7 1063.24C1723.55 1060.45 1727.42 1058.9 1731.47 1058.9C1735.52 1058.9 1739.32 1060.45 1742.24 1063.24C1747.11 1068.01 1753.64 1070.68 1760.6 1070.68C1767.57 1070.68 1774.03 1068.01 1778.97 1063.24C1784.92 1057.41 1794.55 1057.41 1800.44 1063.24C1810.57 1073.16 1827.04 1073.16 1837.17 1063.24C1843.13 1057.41 1852.75 1057.41 1858.64 1063.24C1860.73 1065.28 1864.15 1065.28 1866.24 1063.24C1868.33 1061.19 1868.33 1057.84 1866.24 1055.8C1861.3 1051.02 1854.78 1048.36 1847.81 1048.36Z" fill="#7ACEBE"/>
<path d="M1847.81 1101.37C1840.85 1101.37 1834.39 1104.03 1829.45 1108.81C1823.49 1114.64 1813.87 1114.64 1807.98 1108.81C1797.84 1098.89 1781.38 1098.89 1771.24 1108.81C1765.29 1114.64 1755.66 1114.64 1749.77 1108.81C1744.9 1104.03 1738.37 1101.37 1731.41 1101.37C1724.44 1101.37 1717.98 1104.03 1713.04 1108.81C1707.09 1114.64 1697.46 1114.64 1691.57 1108.81C1681.44 1098.89 1664.97 1098.89 1654.84 1108.81C1648.88 1114.64 1639.26 1114.64 1633.37 1108.81C1623.23 1098.89 1606.77 1098.89 1596.63 1108.81C1590.68 1114.64 1581.05 1114.64 1575.16 1108.81C1570.29 1104.03 1563.76 1101.37 1556.8 1101.37C1549.83 1101.37 1543.37 1104.03 1538.43 1108.81C1536.34 1110.85 1536.34 1114.2 1538.43 1116.25C1540.52 1118.29 1543.94 1118.29 1546.03 1116.25C1551.98 1110.42 1561.61 1110.42 1567.5 1116.25C1577.63 1126.17 1594.1 1126.17 1604.23 1116.25C1610.19 1110.42 1619.81 1110.42 1625.7 1116.25C1635.84 1126.17 1652.3 1126.17 1662.44 1116.25C1665.29 1113.46 1669.15 1111.91 1673.2 1111.91C1677.26 1111.91 1681.06 1113.46 1683.97 1116.25C1694.1 1126.17 1710.57 1126.17 1720.7 1116.25C1723.55 1113.46 1727.42 1111.91 1731.47 1111.91C1735.52 1111.91 1739.32 1113.46 1742.24 1116.25C1747.11 1121.02 1753.64 1123.69 1760.6 1123.69C1767.57 1123.69 1774.03 1121.02 1778.97 1116.25C1784.92 1110.42 1794.55 1110.42 1800.44 1116.25C1810.57 1126.17 1827.04 1126.17 1837.17 1116.25C1843.13 1110.42 1852.75 1110.42 1858.64 1116.25C1860.73 1118.29 1864.15 1118.29 1866.24 1116.25C1868.33 1114.2 1868.33 1110.85 1866.24 1108.81C1861.3 1104.03 1854.78 1101.37 1847.81 1101.37Z" fill="#7ACEBE"/>
<path d="M1847.81 1154.38C1840.85 1154.38 1834.39 1157.04 1829.45 1161.82C1823.49 1167.65 1813.87 1167.65 1807.98 1161.82C1797.84 1151.9 1781.38 1151.9 1771.24 1161.82C1765.29 1167.65 1755.66 1167.65 1749.77 1161.82C1744.9 1157.04 1738.37 1154.38 1731.41 1154.38C1724.44 1154.38 1717.98 1157.04 1713.04 1161.82C1707.09 1167.65 1697.46 1167.65 1691.57 1161.82C1681.44 1151.9 1664.97 1151.9 1654.84 1161.82C1648.88 1167.65 1639.26 1167.65 1633.37 1161.82C1623.23 1151.9 1606.77 1151.9 1596.63 1161.82C1590.68 1167.65 1581.05 1167.65 1575.16 1161.82C1570.29 1157.04 1563.76 1154.38 1556.8 1154.38C1549.83 1154.38 1543.37 1157.04 1538.43 1161.82C1536.34 1163.86 1536.34 1167.21 1538.43 1169.26C1540.52 1171.3 1543.94 1171.3 1546.03 1169.26C1551.98 1163.43 1561.61 1163.43 1567.5 1169.26C1577.63 1179.18 1594.1 1179.18 1604.23 1169.26C1610.19 1163.43 1619.81 1163.43 1625.7 1169.26C1635.84 1179.18 1652.3 1179.18 1662.44 1169.26C1665.29 1166.47 1669.15 1164.92 1673.2 1164.92C1677.26 1164.92 1681.06 1166.47 1683.97 1169.26C1694.1 1179.18 1710.57 1179.18 1720.7 1169.26C1723.55 1166.47 1727.42 1164.92 1731.47 1164.92C1735.52 1164.92 1739.32 1166.47 1742.24 1169.26C1747.11 1174.03 1753.64 1176.7 1760.6 1176.7C1767.57 1176.7 1774.03 1174.03 1778.97 1169.26C1784.92 1163.43 1794.55 1163.43 1800.44 1169.26C1810.57 1179.18 1827.04 1179.18 1837.17 1169.26C1843.13 1163.43 1852.75 1163.43 1858.64 1169.26C1860.73 1171.3 1864.15 1171.3 1866.24 1169.26C1868.33 1167.21 1868.33 1163.86 1866.24 1161.82C1861.3 1156.98 1854.78 1154.38 1847.81 1154.38Z" fill="#7ACEBE"/>
<path d="M1080.09 225.122C1042.34 225.122 1011.62 255.192 1011.62 292.144C1011.62 329.096 1042.34 359.166 1080.09 359.166C1117.83 359.166 1148.55 329.096 1148.55 292.144C1148.55 255.192 1117.83 225.122 1080.09 225.122ZM1080.09 333.126C1057.03 333.126 1038.22 314.712 1038.22 292.144C1038.22 269.576 1057.03 251.162 1080.09 251.162C1103.14 251.162 1121.95 269.576 1121.95 292.144C1121.95 314.774 1103.14 333.126 1080.09 333.126Z" fill="#FEF2DA"/>
<path d="M380.633 1040.36C342.887 1040.36 312.17 1070.43 312.17 1107.38C312.17 1144.33 342.887 1174.4 380.633 1174.4C418.38 1174.4 449.097 1144.33 449.097 1107.38C449.097 1070.43 418.38 1040.36 380.633 1040.36ZM380.633 1148.36C357.58 1148.36 338.77 1129.95 338.77 1107.38C338.77 1084.81 357.58 1066.4 380.633 1066.4C403.687 1066.4 422.497 1084.81 422.497 1107.38C422.497 1129.95 403.687 1148.36 380.633 1148.36Z" fill="#FEF2DA"/>
<path d="M380.633 912.578C395.01 930.248 392.033 956.102 373.983 970.176C355.933 984.25 329.523 981.336 315.147 963.666L294.373 979.91C317.933 1008.8 361.063 1013.58 390.577 990.574C420.09 967.51 424.967 925.288 401.47 896.396L380.633 912.578Z" fill="#FEF2DA"/>
<path d="M1162.04 176.08C1144.56 161.324 1142.53 135.408 1157.61 118.296L1137.47 101.308C1112.83 129.332 1116.06 171.74 1144.69 195.858C1173.31 219.976 1216.63 216.814 1241.27 188.79L1221.07 171.74C1205.99 188.852 1179.52 190.836 1162.04 176.08Z" fill="#FEF2DA"/>
<path d="M718.2 584.102L1005.04 769.048C1010.48 765.266 1015.8 761.236 1020.87 756.834L723.393 565.068C721.303 571.33 719.53 577.716 718.2 584.102Z" fill="#FEF2DA"/>
<path d="M730.677 546.592L1035.25 742.946C1039.55 738.358 1043.61 733.522 1047.47 728.376L739.543 529.852C736.25 535.37 733.337 540.95 730.677 546.592Z" fill="#FEF2DA"/>
<path d="M714.4 627.316L965.96 789.508C972.927 786.842 979.767 783.742 986.417 780.27L715.033 605.244C714.337 612.622 714.147 620 714.4 627.316Z" fill="#FEF2DA"/>
<path d="M884.45 440.882C875.013 441.626 865.577 443.052 856.393 445.222L1080.85 589.93C1079.2 580.816 1076.86 571.764 1073.82 562.96L884.45 440.882Z" fill="#FEF2DA"/>
<path d="M724.154 679.148L913.52 801.226C922.957 800.482 932.393 799.056 941.577 796.886L717.124 652.178C718.707 661.354 721.114 670.344 724.154 679.148Z" fill="#FEF2DA"/>
<path d="M750.437 513.732L1058.36 712.256C1061.66 706.8 1064.57 701.22 1067.23 695.516L762.66 499.162C758.353 503.75 754.237 508.586 750.437 513.732Z" fill="#FEF2DA"/>
<path d="M1000.48 470.084C975.903 454.274 948.923 444.912 921.563 441.626L1058.36 529.852C1044.49 506.54 1025.05 485.956 1000.48 470.084Z" fill="#FEF2DA"/>
<path d="M797.43 772.024C822.003 787.834 848.983 797.196 876.343 800.482L739.543 712.256C753.413 735.568 772.857 756.152 797.43 772.024Z" fill="#FEF2DA"/>
<path d="M777.037 485.274L1074.51 677.04C1076.6 670.716 1078.38 664.392 1079.71 657.944L792.87 473.06C787.423 476.842 782.103 480.872 777.037 485.274Z" fill="#FEF2DA"/>
<path d="M831.947 452.662C824.98 455.328 818.14 458.428 811.49 461.9L1082.94 636.926C1083.57 629.548 1083.76 622.232 1083.51 614.854L831.947 452.662Z" fill="#FEF2DA"/>
<path d="M840.687 78.864C799.837 78.864 766.65 111.414 766.65 151.342C766.65 191.332 799.9 223.82 840.687 223.82C881.473 223.82 914.723 191.27 914.723 151.342C914.723 111.352 881.537 78.864 840.687 78.864ZM840.687 216.504C804.017 216.504 774.123 187.302 774.123 151.342C774.123 115.382 803.953 86.18 840.687 86.18C877.357 86.18 907.25 115.382 907.25 151.342C907.25 187.302 877.357 216.504 840.687 216.504Z" fill="#FEF2DA"/>
<path d="M840.687 95.604C809.273 95.604 783.687 120.652 783.687 151.404C783.687 182.156 809.273 207.204 840.687 207.204C872.1 207.204 897.687 182.156 897.687 151.404C897.687 120.652 872.1 95.604 840.687 95.604ZM840.687 199.764C813.39 199.764 791.223 178.064 791.223 151.342C791.223 124.62 813.39 102.92 840.687 102.92C867.983 102.92 890.15 124.62 890.15 151.342C890.15 178.064 867.92 199.764 840.687 199.764Z" fill="#FEF2DA"/>
<path d="M1462.43 43.152C1421.58 43.152 1388.39 75.702 1388.39 115.63C1388.39 155.62 1421.64 188.108 1462.43 188.108C1503.28 188.108 1536.47 155.558 1536.47 115.63C1536.53 75.64 1503.28 43.152 1462.43 43.152ZM1462.43 180.792C1425.76 180.792 1395.87 151.59 1395.87 115.63C1395.87 79.732 1425.7 50.468 1462.43 50.468C1499.1 50.468 1528.99 79.67 1528.99 115.63C1528.99 151.528 1499.16 180.792 1462.43 180.792Z" fill="#FEF2DA"/>
<path d="M1462.43 59.892C1431.02 59.892 1405.43 84.94 1405.43 115.692C1405.43 146.444 1431.02 171.492 1462.43 171.492C1493.84 171.492 1519.43 146.444 1519.43 115.692C1519.43 84.878 1493.84 59.892 1462.43 59.892ZM1462.43 164.052C1435.13 164.052 1412.97 142.352 1412.97 115.63C1412.97 88.908 1435.13 67.208 1462.43 67.208C1489.73 67.208 1511.89 88.908 1511.89 115.63C1511.89 142.352 1489.73 164.052 1462.43 164.052Z" fill="#FEF2DA"/>
<path d="M783.687 1028.89C742.837 1028.89 709.65 1061.44 709.65 1101.37C709.65 1141.36 742.9 1173.85 783.687 1173.85C824.537 1173.85 857.723 1141.3 857.723 1101.37C857.787 1061.38 824.537 1028.89 783.687 1028.89ZM783.687 1166.47C747.017 1166.47 717.123 1137.27 717.123 1101.31C717.123 1065.41 746.953 1036.14 783.687 1036.14C820.357 1036.14 850.25 1065.35 850.25 1101.31C850.25 1137.27 820.42 1166.47 783.687 1166.47Z" fill="#FEF2DA"/>
<path d="M783.687 1045.57C752.273 1045.57 726.687 1070.62 726.687 1101.37C726.687 1132.12 752.273 1157.17 783.687 1157.17C815.1 1157.17 840.687 1132.12 840.687 1101.37C840.687 1070.62 815.1 1045.57 783.687 1045.57ZM783.687 1149.79C756.39 1149.79 734.223 1128.09 734.223 1101.37C734.223 1074.65 756.39 1052.95 783.687 1052.95C810.983 1052.95 833.15 1074.65 833.15 1101.37C833.15 1128.03 810.983 1149.79 783.687 1149.79Z" fill="#FEF2DA"/>
<path d="M117.927 1051.21C77.0767 1051.21 43.89 1083.76 43.89 1123.69C43.89 1163.68 77.14 1196.17 117.927 1196.17C158.777 1196.17 191.963 1163.62 191.963 1123.69C191.963 1083.76 158.777 1051.21 117.927 1051.21ZM117.927 1188.85C81.2567 1188.85 51.3633 1159.65 51.3633 1123.69C51.3633 1087.79 81.1933 1058.53 117.927 1058.53C154.597 1058.53 184.49 1087.73 184.49 1123.69C184.49 1159.65 154.597 1188.85 117.927 1188.85Z" fill="#FEF2DA"/>
<path d="M117.927 1067.95C86.5133 1067.95 60.9266 1093 60.9266 1123.75C60.9266 1154.5 86.5133 1179.55 117.927 1179.55C149.34 1179.55 174.927 1154.5 174.927 1123.75C174.927 1092.94 149.34 1067.95 117.927 1067.95ZM117.927 1172.11C90.63 1172.11 68.4633 1150.41 68.4633 1123.69C68.4633 1096.97 90.63 1075.27 117.927 1075.27C145.223 1075.27 167.39 1096.97 167.39 1123.69C167.39 1150.41 145.223 1172.11 117.927 1172.11Z" fill="#FEF2DA"/>
</svg>
