<svg width="1341" height="817" viewBox="0 0 1341 817" fill="none" xmlns="http://www.w3.org/2000/svg">
<g clip-path="url(#clip0)" filter="url(#filter0_d)">
<path d="M1352.72 -0.376465H3.24902V801.026H1352.72V-0.376465Z" fill="#F7F9E8"/>
<path d="M1269.16 38.999C1268.58 38.9993 1268.01 38.727 1267.59 38.2404C1267.17 37.7538 1266.93 37.0913 1266.91 36.3945C1266.91 35.686 1267.15 35.0065 1267.57 34.5056C1267.99 34.0046 1268.57 33.7231 1269.16 33.7231C1269.76 33.7231 1270.33 34.0046 1270.75 34.5056C1271.17 35.0065 1271.41 35.686 1271.41 36.3945C1271.4 37.0913 1271.15 37.7538 1270.73 38.2404C1270.31 38.727 1269.75 38.9993 1269.16 38.999ZM1269.16 65.7926C1268.58 65.7928 1268.01 65.5206 1267.59 65.0339C1267.17 64.5473 1266.93 63.8849 1266.91 63.188C1266.91 62.4796 1267.15 61.8001 1267.57 61.2991C1267.99 60.7981 1268.57 60.5167 1269.16 60.5167C1269.76 60.5167 1270.33 60.7981 1270.75 61.2991C1271.17 61.8001 1271.41 62.4796 1271.41 63.188C1271.4 63.8849 1271.15 64.5473 1270.73 65.0339C1270.31 65.5206 1269.75 65.7928 1269.16 65.7926ZM1269.16 92.5861C1268.58 92.5864 1268.01 92.3141 1267.59 91.8275C1267.17 91.3409 1266.93 90.6784 1266.91 89.9816C1266.91 89.2731 1267.15 88.5936 1267.57 88.0927C1267.99 87.5917 1268.57 87.3102 1269.16 87.3102C1269.76 87.3102 1270.33 87.5917 1270.75 88.0927C1271.17 88.5936 1271.41 89.2731 1271.41 89.9816C1271.4 90.6784 1271.15 91.3409 1270.73 91.8275C1270.31 92.3141 1269.75 92.5864 1269.16 92.5861ZM1269.16 119.38C1268.57 119.38 1267.99 119.098 1267.57 118.597C1267.15 118.096 1266.91 117.417 1266.91 116.708C1266.93 116.012 1267.17 115.349 1267.59 114.862C1268.01 114.376 1268.58 114.104 1269.16 114.104C1269.75 114.104 1270.31 114.376 1270.73 114.862C1271.15 115.349 1271.4 116.012 1271.41 116.708C1271.41 117.417 1271.17 118.096 1270.75 118.597C1270.33 119.098 1269.76 119.38 1269.16 119.38ZM1269.16 146.173C1268.57 146.173 1267.99 145.892 1267.57 145.391C1267.15 144.89 1266.91 144.21 1266.91 143.502C1266.91 142.793 1267.15 142.114 1267.57 141.613C1267.99 141.112 1268.57 140.831 1269.16 140.831C1269.76 140.831 1270.33 141.112 1270.75 141.613C1271.17 142.114 1271.41 142.793 1271.41 143.502C1271.41 144.21 1271.17 144.89 1270.75 145.391C1270.33 145.892 1269.76 146.173 1269.16 146.173ZM1269.16 172.967C1268.57 172.967 1267.99 172.685 1267.57 172.184C1267.15 171.683 1266.91 171.004 1266.91 170.295C1266.91 169.587 1267.15 168.908 1267.57 168.407C1267.99 167.906 1268.57 167.624 1269.16 167.624C1269.76 167.624 1270.33 167.906 1270.75 168.407C1271.17 168.908 1271.41 169.587 1271.41 170.295C1271.41 171.004 1271.17 171.683 1270.75 172.184C1270.33 172.685 1269.76 172.967 1269.16 172.967ZM1269.16 199.76C1268.57 199.76 1267.99 199.479 1267.57 198.978C1267.15 198.477 1266.91 197.797 1266.91 197.089C1266.93 196.392 1267.17 195.73 1267.59 195.243C1268.01 194.756 1268.58 194.484 1269.16 194.484C1269.75 194.484 1270.31 194.756 1270.73 195.243C1271.15 195.73 1271.4 196.392 1271.41 197.089C1271.41 197.797 1271.17 198.477 1270.75 198.978C1270.33 199.479 1269.76 199.76 1269.16 199.76ZM1269.16 226.554C1268.57 226.554 1267.99 226.272 1267.57 225.771C1267.15 225.27 1266.91 224.591 1266.91 223.883C1266.93 223.186 1267.17 222.523 1267.59 222.037C1268.01 221.55 1268.58 221.278 1269.16 221.278C1269.75 221.278 1270.31 221.55 1270.73 222.037C1271.15 222.523 1271.4 223.186 1271.41 223.883C1271.41 224.591 1271.17 225.27 1270.75 225.771C1270.33 226.272 1269.76 226.554 1269.16 226.554ZM1269.16 253.347C1268.57 253.347 1267.99 253.066 1267.57 252.565C1267.15 252.064 1266.91 251.385 1266.91 250.676C1266.93 249.979 1267.17 249.317 1267.59 248.83C1268.01 248.344 1268.58 248.071 1269.16 248.072C1269.75 248.071 1270.31 248.344 1270.73 248.83C1271.15 249.317 1271.4 249.979 1271.41 250.676C1271.42 251.031 1271.36 251.384 1271.25 251.715C1271.14 252.045 1270.98 252.346 1270.77 252.6C1270.56 252.853 1270.31 253.055 1270.03 253.193C1269.76 253.33 1269.46 253.401 1269.16 253.401V253.347ZM1269.16 280.141C1268.57 280.141 1267.99 279.86 1267.57 279.359C1267.15 278.858 1266.91 278.178 1266.91 277.47C1266.91 276.761 1267.15 276.082 1267.57 275.581C1267.99 275.08 1268.57 274.798 1269.16 274.798C1269.76 274.798 1270.33 275.08 1270.75 275.581C1271.17 276.082 1271.41 276.761 1271.41 277.47C1271.41 278.174 1271.17 278.846 1270.74 279.341C1270.32 279.837 1269.75 280.114 1269.16 280.114V280.141ZM1269.16 306.935C1268.57 306.935 1267.99 306.653 1267.57 306.152C1267.15 305.651 1266.91 304.972 1266.91 304.263C1266.91 303.555 1267.15 302.875 1267.57 302.374C1267.99 301.873 1268.57 301.592 1269.16 301.592C1269.76 301.592 1270.33 301.873 1270.75 302.374C1271.17 302.875 1271.41 303.555 1271.41 304.263C1271.41 304.972 1271.17 305.651 1270.75 306.152C1270.33 306.653 1269.76 306.935 1269.16 306.935Z" fill="#1E3F7D"/>
<path d="M1295.78 38.999C1295.19 38.9993 1294.63 38.727 1294.21 38.2404C1293.79 37.7538 1293.55 37.0913 1293.53 36.3945C1293.53 35.686 1293.77 35.0065 1294.19 34.5056C1294.61 34.0046 1295.18 33.7231 1295.78 33.7231C1296.38 33.7231 1296.95 34.0046 1297.37 34.5056C1297.79 35.0065 1298.03 35.686 1298.03 36.3945C1298.02 37.0913 1297.77 37.7538 1297.35 38.2404C1296.93 38.727 1296.37 38.9993 1295.78 38.999ZM1295.78 65.7926C1295.19 65.7928 1294.63 65.5206 1294.21 65.0339C1293.79 64.5473 1293.55 63.8849 1293.53 63.188C1293.53 62.4796 1293.77 61.8001 1294.19 61.2991C1294.61 60.7981 1295.18 60.5167 1295.78 60.5167C1296.38 60.5167 1296.95 60.7981 1297.37 61.2991C1297.79 61.8001 1298.03 62.4796 1298.03 63.188C1298.02 63.8849 1297.77 64.5473 1297.35 65.0339C1296.93 65.5206 1296.37 65.7928 1295.78 65.7926ZM1295.78 92.5861C1295.19 92.5864 1294.63 92.3141 1294.21 91.8275C1293.79 91.3409 1293.55 90.6784 1293.53 89.9816C1293.53 89.2731 1293.77 88.5936 1294.19 88.0927C1294.61 87.5917 1295.18 87.3102 1295.78 87.3102C1296.38 87.3102 1296.95 87.5917 1297.37 88.0927C1297.79 88.5936 1298.03 89.2731 1298.03 89.9816C1298.02 90.6784 1297.77 91.3409 1297.35 91.8275C1296.93 92.3141 1296.37 92.5864 1295.78 92.5861ZM1295.78 119.38C1295.18 119.38 1294.61 119.098 1294.19 118.597C1293.77 118.096 1293.53 117.417 1293.53 116.708C1293.55 116.012 1293.79 115.349 1294.21 114.862C1294.63 114.376 1295.19 114.104 1295.78 114.104C1296.37 114.104 1296.93 114.376 1297.35 114.862C1297.77 115.349 1298.02 116.012 1298.03 116.708C1298.03 117.417 1297.79 118.096 1297.37 118.597C1296.95 119.098 1296.38 119.38 1295.78 119.38ZM1295.78 146.173C1295.18 146.173 1294.61 145.892 1294.19 145.391C1293.77 144.89 1293.53 144.21 1293.53 143.502C1293.53 142.793 1293.77 142.114 1294.19 141.613C1294.61 141.112 1295.18 140.831 1295.78 140.831C1296.38 140.831 1296.95 141.112 1297.37 141.613C1297.79 142.114 1298.03 142.793 1298.03 143.502C1298.03 144.21 1297.79 144.89 1297.37 145.391C1296.95 145.892 1296.38 146.173 1295.78 146.173ZM1295.78 172.967C1295.18 172.967 1294.61 172.685 1294.19 172.184C1293.77 171.683 1293.53 171.004 1293.53 170.295C1293.53 169.587 1293.77 168.908 1294.19 168.407C1294.61 167.906 1295.18 167.624 1295.78 167.624C1296.38 167.624 1296.95 167.906 1297.37 168.407C1297.79 168.908 1298.03 169.587 1298.03 170.295C1298.03 171.004 1297.79 171.683 1297.37 172.184C1296.95 172.685 1296.38 172.967 1295.78 172.967ZM1295.78 199.76C1295.18 199.76 1294.61 199.479 1294.19 198.978C1293.77 198.477 1293.53 197.797 1293.53 197.089C1293.55 196.392 1293.79 195.73 1294.21 195.243C1294.63 194.756 1295.19 194.484 1295.78 194.484C1296.37 194.484 1296.93 194.756 1297.35 195.243C1297.77 195.73 1298.02 196.392 1298.03 197.089C1298.03 197.797 1297.79 198.477 1297.37 198.978C1296.95 199.479 1296.38 199.76 1295.78 199.76ZM1295.78 226.554C1295.18 226.554 1294.61 226.272 1294.19 225.771C1293.77 225.27 1293.53 224.591 1293.53 223.883C1293.55 223.186 1293.79 222.523 1294.21 222.037C1294.63 221.55 1295.19 221.278 1295.78 221.278C1296.37 221.278 1296.93 221.55 1297.35 222.037C1297.77 222.523 1298.02 223.186 1298.03 223.883C1298.03 224.591 1297.79 225.27 1297.37 225.771C1296.95 226.272 1296.38 226.554 1295.78 226.554ZM1295.78 253.347C1295.18 253.347 1294.61 253.066 1294.19 252.565C1293.77 252.064 1293.53 251.385 1293.53 250.676C1293.55 249.979 1293.79 249.317 1294.21 248.83C1294.63 248.344 1295.19 248.071 1295.78 248.072C1296.37 248.071 1296.93 248.344 1297.35 248.83C1297.77 249.317 1298.02 249.979 1298.03 250.676C1298.04 251.031 1297.98 251.384 1297.87 251.715C1297.76 252.045 1297.6 252.346 1297.39 252.6C1297.18 252.853 1296.93 253.055 1296.65 253.193C1296.38 253.33 1296.08 253.401 1295.78 253.401V253.347ZM1295.78 280.141C1295.18 280.141 1294.61 279.86 1294.19 279.359C1293.77 278.858 1293.53 278.178 1293.53 277.47C1293.53 276.761 1293.77 276.082 1294.19 275.581C1294.61 275.08 1295.18 274.798 1295.78 274.798C1296.38 274.798 1296.95 275.08 1297.37 275.581C1297.79 276.082 1298.03 276.761 1298.03 277.47C1298.02 278.174 1297.78 278.846 1297.36 279.341C1296.94 279.837 1296.37 280.114 1295.78 280.114V280.141ZM1295.78 306.935C1295.18 306.935 1294.61 306.653 1294.19 306.152C1293.77 305.651 1293.53 304.972 1293.53 304.263C1293.53 303.555 1293.77 302.875 1294.19 302.374C1294.61 301.873 1295.18 301.592 1295.78 301.592C1296.38 301.592 1296.95 301.873 1297.37 302.374C1297.79 302.875 1298.03 303.555 1298.03 304.263C1298.03 304.972 1297.79 305.651 1297.37 306.152C1296.95 306.653 1296.38 306.935 1295.78 306.935Z" fill="#1E3F7D"/>
<path d="M1322.41 38.999C1321.82 38.9993 1321.26 38.727 1320.84 38.2404C1320.42 37.7538 1320.18 37.0913 1320.16 36.3945C1320.16 35.686 1320.4 35.0065 1320.82 34.5056C1321.24 34.0046 1321.81 33.7231 1322.41 33.7231C1323.01 33.7231 1323.58 34.0046 1324 34.5056C1324.42 35.0065 1324.66 35.686 1324.66 36.3945C1324.64 37.0913 1324.4 37.7538 1323.98 38.2404C1323.56 38.727 1323 38.9993 1322.41 38.999ZM1322.41 65.7926C1321.82 65.7928 1321.26 65.5206 1320.84 65.0339C1320.42 64.5473 1320.18 63.8849 1320.16 63.188C1320.16 62.4796 1320.4 61.8001 1320.82 61.2991C1321.24 60.7981 1321.81 60.5167 1322.41 60.5167C1323.01 60.5167 1323.58 60.7981 1324 61.2991C1324.42 61.8001 1324.66 62.4796 1324.66 63.188C1324.64 63.8849 1324.4 64.5473 1323.98 65.0339C1323.56 65.5206 1323 65.7928 1322.41 65.7926ZM1322.41 92.5861C1321.82 92.5864 1321.26 92.3141 1320.84 91.8275C1320.42 91.3409 1320.18 90.6784 1320.16 89.9816C1320.16 89.2731 1320.4 88.5936 1320.82 88.0927C1321.24 87.5917 1321.81 87.3102 1322.41 87.3102C1323.01 87.3102 1323.58 87.5917 1324 88.0927C1324.42 88.5936 1324.66 89.2731 1324.66 89.9816C1324.64 90.6784 1324.4 91.3409 1323.98 91.8275C1323.56 92.3141 1323 92.5864 1322.41 92.5861ZM1322.41 119.38C1321.81 119.38 1321.24 119.098 1320.82 118.597C1320.4 118.096 1320.16 117.417 1320.16 116.708C1320.18 116.012 1320.42 115.349 1320.84 114.862C1321.26 114.376 1321.82 114.104 1322.41 114.104C1323 114.104 1323.56 114.376 1323.98 114.862C1324.4 115.349 1324.64 116.012 1324.66 116.708C1324.66 117.417 1324.42 118.096 1324 118.597C1323.58 119.098 1323.01 119.38 1322.41 119.38ZM1322.41 146.173C1321.81 146.173 1321.24 145.892 1320.82 145.391C1320.4 144.89 1320.16 144.21 1320.16 143.502C1320.16 142.793 1320.4 142.114 1320.82 141.613C1321.24 141.112 1321.81 140.831 1322.41 140.831C1323.01 140.831 1323.58 141.112 1324 141.613C1324.42 142.114 1324.66 142.793 1324.66 143.502C1324.66 144.21 1324.42 144.89 1324 145.391C1323.58 145.892 1323.01 146.173 1322.41 146.173ZM1322.41 172.967C1321.81 172.967 1321.24 172.685 1320.82 172.184C1320.4 171.683 1320.16 171.004 1320.16 170.295C1320.16 169.587 1320.4 168.908 1320.82 168.407C1321.24 167.906 1321.81 167.624 1322.41 167.624C1323.01 167.624 1323.58 167.906 1324 168.407C1324.42 168.908 1324.66 169.587 1324.66 170.295C1324.66 171.004 1324.42 171.683 1324 172.184C1323.58 172.685 1323.01 172.967 1322.41 172.967ZM1322.41 199.76C1321.81 199.76 1321.24 199.479 1320.82 198.978C1320.4 198.477 1320.16 197.797 1320.16 197.089C1320.18 196.392 1320.42 195.73 1320.84 195.243C1321.26 194.756 1321.82 194.484 1322.41 194.484C1323 194.484 1323.56 194.756 1323.98 195.243C1324.4 195.73 1324.64 196.392 1324.66 197.089C1324.66 197.797 1324.42 198.477 1324 198.978C1323.58 199.479 1323.01 199.76 1322.41 199.76ZM1322.41 226.554C1321.81 226.554 1321.24 226.272 1320.82 225.771C1320.4 225.27 1320.16 224.591 1320.16 223.883C1320.18 223.186 1320.42 222.523 1320.84 222.037C1321.26 221.55 1321.82 221.278 1322.41 221.278C1323 221.278 1323.56 221.55 1323.98 222.037C1324.4 222.523 1324.64 223.186 1324.66 223.883C1324.66 224.591 1324.42 225.27 1324 225.771C1323.58 226.272 1323.01 226.554 1322.41 226.554ZM1322.41 253.347C1321.81 253.347 1321.24 253.066 1320.82 252.565C1320.4 252.064 1320.16 251.385 1320.16 250.676C1320.18 249.979 1320.42 249.317 1320.84 248.83C1321.26 248.344 1321.82 248.071 1322.41 248.072C1323 248.071 1323.56 248.344 1323.98 248.83C1324.4 249.317 1324.64 249.979 1324.66 250.676C1324.67 251.031 1324.61 251.384 1324.5 251.715C1324.39 252.045 1324.23 252.346 1324.02 252.6C1323.81 252.853 1323.56 253.055 1323.28 253.193C1323.01 253.33 1322.71 253.401 1322.41 253.401V253.347ZM1322.41 280.141C1321.81 280.141 1321.24 279.86 1320.82 279.359C1320.4 278.858 1320.16 278.178 1320.16 277.47C1320.16 276.761 1320.4 276.082 1320.82 275.581C1321.24 275.08 1321.81 274.798 1322.41 274.798C1323.01 274.798 1323.58 275.08 1324 275.581C1324.42 276.082 1324.66 276.761 1324.66 277.47C1324.65 278.174 1324.41 278.846 1323.99 279.341C1323.57 279.837 1323 280.114 1322.41 280.114V280.141ZM1322.41 306.935C1321.81 306.935 1321.24 306.653 1320.82 306.152C1320.4 305.651 1320.16 304.972 1320.16 304.263C1320.16 303.555 1320.4 302.875 1320.82 302.374C1321.24 301.873 1321.81 301.592 1322.41 301.592C1323.01 301.592 1323.58 301.873 1324 302.374C1324.42 302.875 1324.66 303.555 1324.66 304.263C1324.66 304.972 1324.42 305.651 1324 306.152C1323.58 306.653 1323.01 306.935 1322.41 306.935Z" fill="#1E3F7D"/>
<path d="M256.915 702.507C256.915 701.812 257.143 701.144 257.55 700.646C257.957 700.147 258.512 699.856 259.097 699.835C259.694 699.835 260.266 700.117 260.687 700.618C261.109 701.119 261.346 701.798 261.346 702.507C261.346 703.215 261.109 703.895 260.687 704.396C260.266 704.897 259.694 705.178 259.097 705.178C258.512 705.157 257.957 704.867 257.55 704.368C257.143 703.869 256.915 703.202 256.915 702.507ZM234.357 702.507C234.357 701.798 234.594 701.119 235.016 700.618C235.437 700.117 236.009 699.835 236.606 699.835C237.193 699.853 237.75 700.142 238.16 700.641C238.57 701.14 238.799 701.81 238.799 702.507C238.799 703.204 238.57 703.873 238.16 704.372C237.75 704.872 237.193 705.161 236.606 705.178C236.009 705.178 235.437 704.897 235.016 704.396C234.594 703.895 234.357 703.215 234.357 702.507ZM211.798 702.507C211.798 701.798 212.035 701.119 212.457 700.618C212.879 700.117 213.451 699.835 214.047 699.835C214.634 699.853 215.192 700.142 215.601 700.641C216.011 701.14 216.24 701.81 216.24 702.507C216.24 703.204 216.011 703.873 215.601 704.372C215.192 704.872 214.634 705.161 214.047 705.178C213.451 705.178 212.879 704.897 212.457 704.396C212.035 703.895 211.798 703.215 211.798 702.507ZM189.24 702.507C189.24 701.798 189.477 701.119 189.898 700.618C190.32 700.117 190.892 699.835 191.489 699.835C192.075 699.853 192.633 700.142 193.043 700.641C193.453 701.14 193.682 701.81 193.682 702.507C193.682 703.204 193.453 703.873 193.043 704.372C192.633 704.872 192.075 705.161 191.489 705.178C190.892 705.178 190.32 704.897 189.898 704.396C189.477 703.895 189.24 703.215 189.24 702.507ZM166.681 702.507C166.681 701.81 166.91 701.14 167.32 700.641C167.729 700.142 168.287 699.853 168.874 699.835C169.459 699.856 170.013 700.147 170.421 700.646C170.828 701.144 171.056 701.812 171.055 702.507C171.056 703.202 170.828 703.869 170.421 704.368C170.013 704.867 169.459 705.157 168.874 705.178C168.287 705.161 167.729 704.872 167.32 704.372C166.91 703.873 166.681 703.204 166.681 702.507ZM144.122 702.507C144.122 701.798 144.359 701.119 144.781 700.618C145.203 700.117 145.775 699.835 146.371 699.835C146.958 699.853 147.516 700.142 147.926 700.641C148.335 701.14 148.565 701.81 148.564 702.507C148.565 703.204 148.335 703.873 147.926 704.372C147.516 704.872 146.958 705.161 146.371 705.178C145.775 705.178 145.203 704.897 144.781 704.396C144.359 703.895 144.122 703.215 144.122 702.507ZM121.564 702.507C121.564 701.798 121.801 701.119 122.222 700.618C122.644 700.117 123.216 699.835 123.813 699.835C124.409 699.835 124.981 700.117 125.403 700.618C125.825 701.119 126.062 701.798 126.062 702.507C126.062 703.215 125.825 703.895 125.403 704.396C124.981 704.897 124.409 705.178 123.813 705.178C123.216 705.178 122.644 704.897 122.222 704.396C121.801 703.895 121.564 703.215 121.564 702.507ZM98.9939 702.507C98.9939 701.798 99.2308 701.119 99.6526 700.618C100.074 700.117 100.646 699.835 101.243 699.835C101.84 699.835 102.412 700.117 102.833 700.618C103.255 701.119 103.492 701.798 103.492 702.507C103.492 703.215 103.255 703.895 102.833 704.396C102.412 704.897 101.84 705.178 101.243 705.178C100.646 705.178 100.074 704.897 99.6526 704.396C99.2308 703.895 98.9939 703.215 98.9939 702.507ZM76.5027 702.507C76.5027 701.798 76.7397 701.119 77.1615 700.618C77.5833 700.117 78.1554 699.835 78.7519 699.835C79.3386 699.853 79.8963 700.142 80.306 700.641C80.7157 701.14 80.9449 701.81 80.9447 702.507C80.9449 703.204 80.7157 703.873 80.306 704.372C79.8963 704.872 79.3386 705.161 78.7519 705.178C78.4518 705.187 78.1533 705.125 77.8739 704.994C77.5945 704.864 77.3399 704.669 77.125 704.42C76.9102 704.171 76.7395 703.873 76.6229 703.545C76.5064 703.216 76.4464 702.863 76.4465 702.507H76.5027ZM53.9441 702.507C53.944 701.81 54.1732 701.14 54.5829 700.641C54.9926 700.142 55.5503 699.853 56.137 699.835C56.7335 699.835 57.3056 700.117 57.7274 700.618C58.1492 701.119 58.3861 701.798 58.3861 702.507C58.3861 703.215 58.1492 703.895 57.7274 704.396C57.3056 704.897 56.7335 705.178 56.137 705.178C55.8388 705.183 55.5427 705.118 55.266 704.986C54.9892 704.854 54.7372 704.659 54.5248 704.41C54.3124 704.161 54.1437 703.865 54.0285 703.538C53.9134 703.212 53.8541 702.861 53.8542 702.507H53.9441ZM31.3855 702.507C31.3855 701.798 31.6225 701.119 32.0443 700.618C32.4661 700.117 33.0381 699.835 33.6346 699.835C34.2213 699.853 34.7791 700.142 35.1888 700.641C35.5985 701.14 35.8277 701.81 35.8275 702.507C35.8277 703.204 35.5985 703.873 35.1888 704.372C34.7791 704.872 34.2213 705.161 33.6346 705.178C33.3374 705.182 33.0425 705.115 32.767 704.983C32.4916 704.85 32.241 704.654 32.0297 704.405C31.8185 704.157 31.6508 703.861 31.5364 703.535C31.4219 703.209 31.363 702.86 31.363 702.507H31.3855Z" fill="#1E3F7D"/>
<path d="M256.915 734.135C256.915 733.441 257.143 732.773 257.55 732.274C257.957 731.776 258.512 731.485 259.097 731.464C259.694 731.464 260.266 731.746 260.687 732.247C261.109 732.748 261.346 733.427 261.346 734.135C261.346 734.844 261.109 735.523 260.687 736.024C260.266 736.525 259.694 736.807 259.097 736.807C258.512 736.786 257.957 736.495 257.55 735.997C257.143 735.498 256.915 734.83 256.915 734.135ZM234.357 734.135C234.357 733.427 234.594 732.748 235.016 732.247C235.437 731.746 236.009 731.464 236.606 731.464C237.193 731.482 237.75 731.771 238.16 732.27C238.57 732.769 238.799 733.438 238.799 734.135C238.799 734.833 238.57 735.502 238.16 736.001C237.75 736.5 237.193 736.789 236.606 736.807C236.009 736.807 235.437 736.525 235.016 736.024C234.594 735.523 234.357 734.844 234.357 734.135ZM211.798 734.135C211.798 733.427 212.035 732.748 212.457 732.247C212.879 731.746 213.451 731.464 214.047 731.464C214.634 731.482 215.192 731.771 215.601 732.27C216.011 732.769 216.24 733.438 216.24 734.135C216.24 734.833 216.011 735.502 215.601 736.001C215.192 736.5 214.634 736.789 214.047 736.807C213.451 736.807 212.879 736.525 212.457 736.024C212.035 735.523 211.798 734.844 211.798 734.135ZM189.24 734.135C189.24 733.427 189.477 732.748 189.898 732.247C190.32 731.746 190.892 731.464 191.489 731.464C192.075 731.482 192.633 731.771 193.043 732.27C193.453 732.769 193.682 733.438 193.682 734.135C193.682 734.833 193.453 735.502 193.043 736.001C192.633 736.5 192.075 736.789 191.489 736.807C190.892 736.807 190.32 736.525 189.898 736.024C189.477 735.523 189.24 734.844 189.24 734.135ZM166.681 734.135C166.681 733.438 166.91 732.769 167.32 732.27C167.729 731.771 168.287 731.482 168.874 731.464C169.459 731.485 170.013 731.776 170.421 732.274C170.828 732.773 171.056 733.441 171.055 734.135C171.056 734.83 170.828 735.498 170.421 735.997C170.013 736.495 169.459 736.786 168.874 736.807C168.287 736.789 167.729 736.5 167.32 736.001C166.91 735.502 166.681 734.833 166.681 734.135ZM144.122 734.135C144.122 733.427 144.359 732.748 144.781 732.247C145.203 731.746 145.775 731.464 146.371 731.464C146.958 731.482 147.516 731.771 147.926 732.27C148.335 732.769 148.565 733.438 148.564 734.135C148.565 734.833 148.335 735.502 147.926 736.001C147.516 736.5 146.958 736.789 146.371 736.807C145.775 736.807 145.203 736.525 144.781 736.024C144.359 735.523 144.122 734.844 144.122 734.135ZM121.564 734.135C121.564 733.427 121.801 732.748 122.222 732.247C122.644 731.746 123.216 731.464 123.813 731.464C124.409 731.464 124.981 731.746 125.403 732.247C125.825 732.748 126.062 733.427 126.062 734.135C126.062 734.844 125.825 735.523 125.403 736.024C124.981 736.525 124.409 736.807 123.813 736.807C123.216 736.807 122.644 736.525 122.222 736.024C121.801 735.523 121.564 734.844 121.564 734.135ZM98.9939 734.135C98.9939 733.427 99.2308 732.748 99.6526 732.247C100.074 731.746 100.646 731.464 101.243 731.464C101.84 731.464 102.412 731.746 102.833 732.247C103.255 732.748 103.492 733.427 103.492 734.135C103.492 734.844 103.255 735.523 102.833 736.024C102.412 736.525 101.84 736.807 101.243 736.807C100.646 736.807 100.074 736.525 99.6526 736.024C99.2308 735.523 98.9939 734.844 98.9939 734.135ZM76.5027 734.135C76.5027 733.427 76.7397 732.748 77.1615 732.247C77.5833 731.746 78.1554 731.464 78.7519 731.464C79.3386 731.482 79.8963 731.771 80.306 732.27C80.7157 732.769 80.9449 733.438 80.9447 734.135C80.9449 734.833 80.7157 735.502 80.306 736.001C79.8963 736.5 79.3386 736.789 78.7519 736.807C78.4518 736.816 78.1533 736.753 77.8739 736.623C77.5945 736.493 77.3399 736.297 77.125 736.048C76.9102 735.799 76.7395 735.502 76.6229 735.173C76.5064 734.845 76.4464 734.492 76.4465 734.135H76.5027ZM53.9441 734.135C53.944 733.438 54.1732 732.769 54.5829 732.27C54.9926 731.771 55.5503 731.482 56.137 731.464C56.7335 731.464 57.3056 731.746 57.7274 732.247C58.1492 732.748 58.3861 733.427 58.3861 734.135C58.3861 734.844 58.1492 735.523 57.7274 736.024C57.3056 736.525 56.7335 736.807 56.137 736.807C55.8388 736.812 55.5427 736.747 55.266 736.615C54.9892 736.483 54.7372 736.287 54.5248 736.039C54.3124 735.79 54.1437 735.494 54.0285 735.167C53.9134 734.84 53.8541 734.49 53.8542 734.135H53.9441ZM31.3855 734.135C31.3855 733.427 31.6225 732.748 32.0443 732.247C32.4661 731.746 33.0381 731.464 33.6346 731.464C34.2213 731.482 34.7791 731.771 35.1888 732.27C35.5985 732.769 35.8277 733.438 35.8275 734.135C35.8277 734.833 35.5985 735.502 35.1888 736.001C34.7791 736.5 34.2213 736.789 33.6346 736.807C33.3374 736.81 33.0425 736.744 32.767 736.611C32.4916 736.479 32.241 736.282 32.0297 736.034C31.8185 735.785 31.6508 735.49 31.5364 735.164C31.4219 734.838 31.363 734.489 31.363 734.135H31.3855Z" fill="#1E3F7D"/>
<path d="M256.915 765.751C256.915 765.056 257.143 764.388 257.55 763.89C257.957 763.391 258.512 763.1 259.097 763.079C259.694 763.079 260.266 763.361 260.687 763.862C261.109 764.363 261.346 765.042 261.346 765.751C261.346 766.459 261.109 767.139 260.687 767.64C260.266 768.141 259.694 768.422 259.097 768.422C258.512 768.401 257.957 768.11 257.55 767.612C257.143 767.113 256.915 766.445 256.915 765.751ZM234.357 765.751C234.357 765.042 234.594 764.363 235.016 763.862C235.437 763.361 236.009 763.079 236.606 763.079C237.193 763.097 237.75 763.386 238.16 763.885C238.57 764.384 238.799 765.054 238.799 765.751C238.799 766.448 238.57 767.117 238.16 767.616C237.75 768.115 237.193 768.405 236.606 768.422C236.009 768.422 235.437 768.141 235.016 767.64C234.594 767.139 234.357 766.459 234.357 765.751ZM211.798 765.751C211.798 765.042 212.035 764.363 212.457 763.862C212.879 763.361 213.451 763.079 214.047 763.079C214.634 763.097 215.192 763.386 215.601 763.885C216.011 764.384 216.24 765.054 216.24 765.751C216.24 766.448 216.011 767.117 215.601 767.616C215.192 768.115 214.634 768.405 214.047 768.422C213.451 768.422 212.879 768.141 212.457 767.64C212.035 767.139 211.798 766.459 211.798 765.751ZM189.24 765.751C189.24 765.042 189.477 764.363 189.898 763.862C190.32 763.361 190.892 763.079 191.489 763.079C192.075 763.097 192.633 763.386 193.043 763.885C193.453 764.384 193.682 765.054 193.682 765.751C193.682 766.448 193.453 767.117 193.043 767.616C192.633 768.115 192.075 768.405 191.489 768.422C190.892 768.422 190.32 768.141 189.898 767.64C189.477 767.139 189.24 766.459 189.24 765.751ZM166.681 765.751C166.681 765.054 166.91 764.384 167.32 763.885C167.729 763.386 168.287 763.097 168.874 763.079C169.459 763.1 170.013 763.391 170.421 763.89C170.828 764.388 171.056 765.056 171.055 765.751C171.056 766.445 170.828 767.113 170.421 767.612C170.013 768.11 169.459 768.401 168.874 768.422C168.287 768.405 167.729 768.115 167.32 767.616C166.91 767.117 166.681 766.448 166.681 765.751ZM144.122 765.751C144.122 765.042 144.359 764.363 144.781 763.862C145.203 763.361 145.775 763.079 146.371 763.079C146.958 763.097 147.516 763.386 147.926 763.885C148.335 764.384 148.565 765.054 148.564 765.751C148.565 766.448 148.335 767.117 147.926 767.616C147.516 768.115 146.958 768.405 146.371 768.422C145.775 768.422 145.203 768.141 144.781 767.64C144.359 767.139 144.122 766.459 144.122 765.751ZM121.564 765.751C121.564 765.042 121.801 764.363 122.222 763.862C122.644 763.361 123.216 763.079 123.813 763.079C124.409 763.079 124.981 763.361 125.403 763.862C125.825 764.363 126.062 765.042 126.062 765.751C126.062 766.459 125.825 767.139 125.403 767.64C124.981 768.141 124.409 768.422 123.813 768.422C123.216 768.422 122.644 768.141 122.222 767.64C121.801 767.139 121.564 766.459 121.564 765.751ZM98.9939 765.751C98.9939 765.042 99.2308 764.363 99.6526 763.862C100.074 763.361 100.646 763.079 101.243 763.079C101.84 763.079 102.412 763.361 102.833 763.862C103.255 764.363 103.492 765.042 103.492 765.751C103.492 766.459 103.255 767.139 102.833 767.64C102.412 768.141 101.84 768.422 101.243 768.422C100.646 768.422 100.074 768.141 99.6526 767.64C99.2308 767.139 98.9939 766.459 98.9939 765.751ZM76.5027 765.751C76.5027 765.042 76.7397 764.363 77.1615 763.862C77.5833 763.361 78.1554 763.079 78.7519 763.079C79.3386 763.097 79.8963 763.386 80.306 763.885C80.7157 764.384 80.9449 765.054 80.9447 765.751C80.9449 766.448 80.7157 767.117 80.306 767.616C79.8963 768.115 79.3386 768.405 78.7519 768.422C78.4518 768.431 78.1533 768.368 77.8739 768.238C77.5945 768.108 77.3399 767.913 77.125 767.664C76.9102 767.415 76.7395 767.117 76.6229 766.789C76.5064 766.46 76.4464 766.107 76.4465 765.751H76.5027ZM53.9441 765.751C53.944 765.054 54.1732 764.384 54.5829 763.885C54.9926 763.386 55.5503 763.097 56.137 763.079C56.7335 763.079 57.3056 763.361 57.7274 763.862C58.1492 764.363 58.3861 765.042 58.3861 765.751C58.3861 766.459 58.1492 767.139 57.7274 767.64C57.3056 768.141 56.7335 768.422 56.137 768.422C55.8388 768.427 55.5427 768.362 55.266 768.23C54.9892 768.098 54.7372 767.902 54.5248 767.654C54.3124 767.405 54.1437 767.109 54.0285 766.782C53.9134 766.456 53.8541 766.105 53.8542 765.751H53.9441ZM31.3855 765.751C31.3855 765.042 31.6225 764.363 32.0443 763.862C32.4661 763.361 33.0381 763.079 33.6346 763.079C34.2213 763.097 34.7791 763.386 35.1888 763.885C35.5985 764.384 35.8277 765.054 35.8275 765.751C35.8277 766.448 35.5985 767.117 35.1888 767.616C34.7791 768.115 34.2213 768.405 33.6346 768.422C33.3374 768.426 33.0425 768.359 32.767 768.226C32.4916 768.094 32.241 767.897 32.0297 767.649C31.8185 767.401 31.6508 767.105 31.5364 766.779C31.4219 766.453 31.363 766.104 31.363 765.751H31.3855Z" fill="#1E3F7D"/>
<path d="M1352.72 -0.376465H3.24902V801.026H1352.72V-0.376465Z" fill="#F3E8EE"/>
<path d="M1269.16 38.999C1268.58 38.9993 1268.01 38.727 1267.59 38.2404C1267.17 37.7538 1266.93 37.0913 1266.91 36.3945C1266.91 35.686 1267.15 35.0065 1267.57 34.5056C1267.99 34.0046 1268.57 33.7231 1269.16 33.7231C1269.76 33.7231 1270.33 34.0046 1270.75 34.5056C1271.17 35.0065 1271.41 35.686 1271.41 36.3945C1271.4 37.0913 1271.15 37.7538 1270.73 38.2404C1270.31 38.727 1269.75 38.9993 1269.16 38.999ZM1269.16 65.7926C1268.58 65.7928 1268.01 65.5206 1267.59 65.0339C1267.17 64.5473 1266.93 63.8849 1266.91 63.188C1266.91 62.4796 1267.15 61.8001 1267.57 61.2991C1267.99 60.7981 1268.57 60.5167 1269.16 60.5167C1269.76 60.5167 1270.33 60.7981 1270.75 61.2991C1271.17 61.8001 1271.41 62.4796 1271.41 63.188C1271.4 63.8849 1271.15 64.5473 1270.73 65.0339C1270.31 65.5206 1269.75 65.7928 1269.16 65.7926ZM1269.16 92.5861C1268.58 92.5864 1268.01 92.3141 1267.59 91.8275C1267.17 91.3409 1266.93 90.6784 1266.91 89.9816C1266.91 89.2731 1267.15 88.5936 1267.57 88.0927C1267.99 87.5917 1268.57 87.3102 1269.16 87.3102C1269.76 87.3102 1270.33 87.5917 1270.75 88.0927C1271.17 88.5936 1271.41 89.2731 1271.41 89.9816C1271.4 90.6784 1271.15 91.3409 1270.73 91.8275C1270.31 92.3141 1269.75 92.5864 1269.16 92.5861ZM1269.16 119.38C1268.57 119.38 1267.99 119.098 1267.57 118.597C1267.15 118.096 1266.91 117.417 1266.91 116.708C1266.93 116.012 1267.17 115.349 1267.59 114.862C1268.01 114.376 1268.58 114.104 1269.16 114.104C1269.75 114.104 1270.31 114.376 1270.73 114.862C1271.15 115.349 1271.4 116.012 1271.41 116.708C1271.41 117.417 1271.17 118.096 1270.75 118.597C1270.33 119.098 1269.76 119.38 1269.16 119.38ZM1269.16 146.173C1268.57 146.173 1267.99 145.892 1267.57 145.391C1267.15 144.89 1266.91 144.21 1266.91 143.502C1266.91 142.793 1267.15 142.114 1267.57 141.613C1267.99 141.112 1268.57 140.831 1269.16 140.831C1269.76 140.831 1270.33 141.112 1270.75 141.613C1271.17 142.114 1271.41 142.793 1271.41 143.502C1271.41 144.21 1271.17 144.89 1270.75 145.391C1270.33 145.892 1269.76 146.173 1269.16 146.173ZM1269.16 172.967C1268.57 172.967 1267.99 172.685 1267.57 172.184C1267.15 171.683 1266.91 171.004 1266.91 170.295C1266.91 169.587 1267.15 168.908 1267.57 168.407C1267.99 167.906 1268.57 167.624 1269.16 167.624C1269.76 167.624 1270.33 167.906 1270.75 168.407C1271.17 168.908 1271.41 169.587 1271.41 170.295C1271.41 171.004 1271.17 171.683 1270.75 172.184C1270.33 172.685 1269.76 172.967 1269.16 172.967ZM1269.16 199.76C1268.57 199.76 1267.99 199.479 1267.57 198.978C1267.15 198.477 1266.91 197.797 1266.91 197.089C1266.93 196.392 1267.17 195.73 1267.59 195.243C1268.01 194.756 1268.58 194.484 1269.16 194.484C1269.75 194.484 1270.31 194.756 1270.73 195.243C1271.15 195.73 1271.4 196.392 1271.41 197.089C1271.41 197.797 1271.17 198.477 1270.75 198.978C1270.33 199.479 1269.76 199.76 1269.16 199.76ZM1269.16 226.554C1268.57 226.554 1267.99 226.272 1267.57 225.771C1267.15 225.27 1266.91 224.591 1266.91 223.883C1266.93 223.186 1267.17 222.523 1267.59 222.037C1268.01 221.55 1268.58 221.278 1269.16 221.278C1269.75 221.278 1270.31 221.55 1270.73 222.037C1271.15 222.523 1271.4 223.186 1271.41 223.883C1271.41 224.591 1271.17 225.27 1270.75 225.771C1270.33 226.272 1269.76 226.554 1269.16 226.554ZM1269.16 253.347C1268.57 253.347 1267.99 253.066 1267.57 252.565C1267.15 252.064 1266.91 251.385 1266.91 250.676C1266.93 249.979 1267.17 249.317 1267.59 248.83C1268.01 248.344 1268.58 248.071 1269.16 248.072C1269.75 248.071 1270.31 248.344 1270.73 248.83C1271.15 249.317 1271.4 249.979 1271.41 250.676C1271.42 251.031 1271.36 251.384 1271.25 251.715C1271.14 252.045 1270.98 252.346 1270.77 252.6C1270.56 252.853 1270.31 253.055 1270.03 253.193C1269.76 253.33 1269.46 253.401 1269.16 253.401V253.347ZM1269.16 280.141C1268.57 280.141 1267.99 279.86 1267.57 279.359C1267.15 278.858 1266.91 278.178 1266.91 277.47C1266.91 276.761 1267.15 276.082 1267.57 275.581C1267.99 275.08 1268.57 274.798 1269.16 274.798C1269.76 274.798 1270.33 275.08 1270.75 275.581C1271.17 276.082 1271.41 276.761 1271.41 277.47C1271.41 278.174 1271.17 278.846 1270.74 279.341C1270.32 279.837 1269.75 280.114 1269.16 280.114V280.141ZM1269.16 306.935C1268.57 306.935 1267.99 306.653 1267.57 306.152C1267.15 305.651 1266.91 304.972 1266.91 304.263C1266.91 303.555 1267.15 302.875 1267.57 302.374C1267.99 301.873 1268.57 301.592 1269.16 301.592C1269.76 301.592 1270.33 301.873 1270.75 302.374C1271.17 302.875 1271.41 303.555 1271.41 304.263C1271.41 304.972 1271.17 305.651 1270.75 306.152C1270.33 306.653 1269.76 306.935 1269.16 306.935Z" fill="#1E3F7D"/>
<path d="M1295.78 38.999C1295.19 38.9993 1294.63 38.727 1294.21 38.2404C1293.79 37.7538 1293.55 37.0913 1293.53 36.3945C1293.53 35.686 1293.77 35.0065 1294.19 34.5056C1294.61 34.0046 1295.18 33.7231 1295.78 33.7231C1296.38 33.7231 1296.95 34.0046 1297.37 34.5056C1297.79 35.0065 1298.03 35.686 1298.03 36.3945C1298.02 37.0913 1297.77 37.7538 1297.35 38.2404C1296.93 38.727 1296.37 38.9993 1295.78 38.999ZM1295.78 65.7926C1295.19 65.7928 1294.63 65.5206 1294.21 65.0339C1293.79 64.5473 1293.55 63.8849 1293.53 63.188C1293.53 62.4796 1293.77 61.8001 1294.19 61.2991C1294.61 60.7981 1295.18 60.5167 1295.78 60.5167C1296.38 60.5167 1296.95 60.7981 1297.37 61.2991C1297.79 61.8001 1298.03 62.4796 1298.03 63.188C1298.02 63.8849 1297.77 64.5473 1297.35 65.0339C1296.93 65.5206 1296.37 65.7928 1295.78 65.7926ZM1295.78 92.5861C1295.19 92.5864 1294.63 92.3141 1294.21 91.8275C1293.79 91.3409 1293.55 90.6784 1293.53 89.9816C1293.53 89.2731 1293.77 88.5936 1294.19 88.0927C1294.61 87.5917 1295.18 87.3102 1295.78 87.3102C1296.38 87.3102 1296.95 87.5917 1297.37 88.0927C1297.79 88.5936 1298.03 89.2731 1298.03 89.9816C1298.02 90.6784 1297.77 91.3409 1297.35 91.8275C1296.93 92.3141 1296.37 92.5864 1295.78 92.5861ZM1295.78 119.38C1295.18 119.38 1294.61 119.098 1294.19 118.597C1293.77 118.096 1293.53 117.417 1293.53 116.708C1293.55 116.012 1293.79 115.349 1294.21 114.862C1294.63 114.376 1295.19 114.104 1295.78 114.104C1296.37 114.104 1296.93 114.376 1297.35 114.862C1297.77 115.349 1298.02 116.012 1298.03 116.708C1298.03 117.417 1297.79 118.096 1297.37 118.597C1296.95 119.098 1296.38 119.38 1295.78 119.38ZM1295.78 146.173C1295.18 146.173 1294.61 145.892 1294.19 145.391C1293.77 144.89 1293.53 144.21 1293.53 143.502C1293.53 142.793 1293.77 142.114 1294.19 141.613C1294.61 141.112 1295.18 140.831 1295.78 140.831C1296.38 140.831 1296.95 141.112 1297.37 141.613C1297.79 142.114 1298.03 142.793 1298.03 143.502C1298.03 144.21 1297.79 144.89 1297.37 145.391C1296.95 145.892 1296.38 146.173 1295.78 146.173ZM1295.78 172.967C1295.18 172.967 1294.61 172.685 1294.19 172.184C1293.77 171.683 1293.53 171.004 1293.53 170.295C1293.53 169.587 1293.77 168.908 1294.19 168.407C1294.61 167.906 1295.18 167.624 1295.78 167.624C1296.38 167.624 1296.95 167.906 1297.37 168.407C1297.79 168.908 1298.03 169.587 1298.03 170.295C1298.03 171.004 1297.79 171.683 1297.37 172.184C1296.95 172.685 1296.38 172.967 1295.78 172.967ZM1295.78 199.76C1295.18 199.76 1294.61 199.479 1294.19 198.978C1293.77 198.477 1293.53 197.797 1293.53 197.089C1293.55 196.392 1293.79 195.73 1294.21 195.243C1294.63 194.756 1295.19 194.484 1295.78 194.484C1296.37 194.484 1296.93 194.756 1297.35 195.243C1297.77 195.73 1298.02 196.392 1298.03 197.089C1298.03 197.797 1297.79 198.477 1297.37 198.978C1296.95 199.479 1296.38 199.76 1295.78 199.76ZM1295.78 226.554C1295.18 226.554 1294.61 226.272 1294.19 225.771C1293.77 225.27 1293.53 224.591 1293.53 223.883C1293.55 223.186 1293.79 222.523 1294.21 222.037C1294.63 221.55 1295.19 221.278 1295.78 221.278C1296.37 221.278 1296.93 221.55 1297.35 222.037C1297.77 222.523 1298.02 223.186 1298.03 223.883C1298.03 224.591 1297.79 225.27 1297.37 225.771C1296.95 226.272 1296.38 226.554 1295.78 226.554ZM1295.78 253.347C1295.18 253.347 1294.61 253.066 1294.19 252.565C1293.77 252.064 1293.53 251.385 1293.53 250.676C1293.55 249.979 1293.79 249.317 1294.21 248.83C1294.63 248.344 1295.19 248.071 1295.78 248.072C1296.37 248.071 1296.93 248.344 1297.35 248.83C1297.77 249.317 1298.02 249.979 1298.03 250.676C1298.04 251.031 1297.98 251.384 1297.87 251.715C1297.76 252.045 1297.6 252.346 1297.39 252.6C1297.18 252.853 1296.93 253.055 1296.65 253.193C1296.38 253.33 1296.08 253.401 1295.78 253.401V253.347ZM1295.78 280.141C1295.18 280.141 1294.61 279.86 1294.19 279.359C1293.77 278.858 1293.53 278.178 1293.53 277.47C1293.53 276.761 1293.77 276.082 1294.19 275.581C1294.61 275.08 1295.18 274.798 1295.78 274.798C1296.38 274.798 1296.95 275.08 1297.37 275.581C1297.79 276.082 1298.03 276.761 1298.03 277.47C1298.02 278.174 1297.78 278.846 1297.36 279.341C1296.94 279.837 1296.37 280.114 1295.78 280.114V280.141ZM1295.78 306.935C1295.18 306.935 1294.61 306.653 1294.19 306.152C1293.77 305.651 1293.53 304.972 1293.53 304.263C1293.53 303.555 1293.77 302.875 1294.19 302.374C1294.61 301.873 1295.18 301.592 1295.78 301.592C1296.38 301.592 1296.95 301.873 1297.37 302.374C1297.79 302.875 1298.03 303.555 1298.03 304.263C1298.03 304.972 1297.79 305.651 1297.37 306.152C1296.95 306.653 1296.38 306.935 1295.78 306.935Z" fill="#1E3F7D"/>
<path d="M1322.41 38.999C1321.82 38.9993 1321.26 38.727 1320.84 38.2404C1320.42 37.7538 1320.18 37.0913 1320.16 36.3945C1320.16 35.686 1320.4 35.0065 1320.82 34.5056C1321.24 34.0046 1321.81 33.7231 1322.41 33.7231C1323.01 33.7231 1323.58 34.0046 1324 34.5056C1324.42 35.0065 1324.66 35.686 1324.66 36.3945C1324.64 37.0913 1324.4 37.7538 1323.98 38.2404C1323.56 38.727 1323 38.9993 1322.41 38.999ZM1322.41 65.7926C1321.82 65.7928 1321.26 65.5206 1320.84 65.0339C1320.42 64.5473 1320.18 63.8849 1320.16 63.188C1320.16 62.4796 1320.4 61.8001 1320.82 61.2991C1321.24 60.7981 1321.81 60.5167 1322.41 60.5167C1323.01 60.5167 1323.58 60.7981 1324 61.2991C1324.42 61.8001 1324.66 62.4796 1324.66 63.188C1324.64 63.8849 1324.4 64.5473 1323.98 65.0339C1323.56 65.5206 1323 65.7928 1322.41 65.7926ZM1322.41 92.5861C1321.82 92.5864 1321.26 92.3141 1320.84 91.8275C1320.42 91.3409 1320.18 90.6784 1320.16 89.9816C1320.16 89.2731 1320.4 88.5936 1320.82 88.0927C1321.24 87.5917 1321.81 87.3102 1322.41 87.3102C1323.01 87.3102 1323.58 87.5917 1324 88.0927C1324.42 88.5936 1324.66 89.2731 1324.66 89.9816C1324.64 90.6784 1324.4 91.3409 1323.98 91.8275C1323.56 92.3141 1323 92.5864 1322.41 92.5861ZM1322.41 119.38C1321.81 119.38 1321.24 119.098 1320.82 118.597C1320.4 118.096 1320.16 117.417 1320.16 116.708C1320.18 116.012 1320.42 115.349 1320.84 114.862C1321.26 114.376 1321.82 114.104 1322.41 114.104C1323 114.104 1323.56 114.376 1323.98 114.862C1324.4 115.349 1324.64 116.012 1324.66 116.708C1324.66 117.417 1324.42 118.096 1324 118.597C1323.58 119.098 1323.01 119.38 1322.41 119.38ZM1322.41 146.173C1321.81 146.173 1321.24 145.892 1320.82 145.391C1320.4 144.89 1320.16 144.21 1320.16 143.502C1320.16 142.793 1320.4 142.114 1320.82 141.613C1321.24 141.112 1321.81 140.831 1322.41 140.831C1323.01 140.831 1323.58 141.112 1324 141.613C1324.42 142.114 1324.66 142.793 1324.66 143.502C1324.66 144.21 1324.42 144.89 1324 145.391C1323.58 145.892 1323.01 146.173 1322.41 146.173ZM1322.41 172.967C1321.81 172.967 1321.24 172.685 1320.82 172.184C1320.4 171.683 1320.16 171.004 1320.16 170.295C1320.16 169.587 1320.4 168.908 1320.82 168.407C1321.24 167.906 1321.81 167.624 1322.41 167.624C1323.01 167.624 1323.58 167.906 1324 168.407C1324.42 168.908 1324.66 169.587 1324.66 170.295C1324.66 171.004 1324.42 171.683 1324 172.184C1323.58 172.685 1323.01 172.967 1322.41 172.967ZM1322.41 199.76C1321.81 199.76 1321.24 199.479 1320.82 198.978C1320.4 198.477 1320.16 197.797 1320.16 197.089C1320.18 196.392 1320.42 195.73 1320.84 195.243C1321.26 194.756 1321.82 194.484 1322.41 194.484C1323 194.484 1323.56 194.756 1323.98 195.243C1324.4 195.73 1324.64 196.392 1324.66 197.089C1324.66 197.797 1324.42 198.477 1324 198.978C1323.58 199.479 1323.01 199.76 1322.41 199.76ZM1322.41 226.554C1321.81 226.554 1321.24 226.272 1320.82 225.771C1320.4 225.27 1320.16 224.591 1320.16 223.883C1320.18 223.186 1320.42 222.523 1320.84 222.037C1321.26 221.55 1321.82 221.278 1322.41 221.278C1323 221.278 1323.56 221.55 1323.98 222.037C1324.4 222.523 1324.64 223.186 1324.66 223.883C1324.66 224.591 1324.42 225.27 1324 225.771C1323.58 226.272 1323.01 226.554 1322.41 226.554ZM1322.41 253.347C1321.81 253.347 1321.24 253.066 1320.82 252.565C1320.4 252.064 1320.16 251.385 1320.16 250.676C1320.18 249.979 1320.42 249.317 1320.84 248.83C1321.26 248.344 1321.82 248.071 1322.41 248.072C1323 248.071 1323.56 248.344 1323.98 248.83C1324.4 249.317 1324.64 249.979 1324.66 250.676C1324.67 251.031 1324.61 251.384 1324.5 251.715C1324.39 252.045 1324.23 252.346 1324.02 252.6C1323.81 252.853 1323.56 253.055 1323.28 253.193C1323.01 253.33 1322.71 253.401 1322.41 253.401V253.347ZM1322.41 280.141C1321.81 280.141 1321.24 279.86 1320.82 279.359C1320.4 278.858 1320.16 278.178 1320.16 277.47C1320.16 276.761 1320.4 276.082 1320.82 275.581C1321.24 275.08 1321.81 274.798 1322.41 274.798C1323.01 274.798 1323.58 275.08 1324 275.581C1324.42 276.082 1324.66 276.761 1324.66 277.47C1324.65 278.174 1324.41 278.846 1323.99 279.341C1323.57 279.837 1323 280.114 1322.41 280.114V280.141ZM1322.41 306.935C1321.81 306.935 1321.24 306.653 1320.82 306.152C1320.4 305.651 1320.16 304.972 1320.16 304.263C1320.16 303.555 1320.4 302.875 1320.82 302.374C1321.24 301.873 1321.81 301.592 1322.41 301.592C1323.01 301.592 1323.58 301.873 1324 302.374C1324.42 302.875 1324.66 303.555 1324.66 304.263C1324.66 304.972 1324.42 305.651 1324 306.152C1323.58 306.653 1323.01 306.935 1322.41 306.935Z" fill="#1E3F7D"/>
<path d="M256.915 702.507C256.915 701.812 257.143 701.144 257.55 700.646C257.957 700.147 258.512 699.856 259.097 699.835C259.694 699.835 260.266 700.117 260.687 700.618C261.109 701.119 261.346 701.798 261.346 702.507C261.346 703.215 261.109 703.895 260.687 704.396C260.266 704.897 259.694 705.178 259.097 705.178C258.512 705.157 257.957 704.867 257.55 704.368C257.143 703.869 256.915 703.202 256.915 702.507ZM234.357 702.507C234.357 701.798 234.594 701.119 235.016 700.618C235.437 700.117 236.009 699.835 236.606 699.835C237.193 699.853 237.75 700.142 238.16 700.641C238.57 701.14 238.799 701.81 238.799 702.507C238.799 703.204 238.57 703.873 238.16 704.372C237.75 704.872 237.193 705.161 236.606 705.178C236.009 705.178 235.437 704.897 235.016 704.396C234.594 703.895 234.357 703.215 234.357 702.507ZM211.798 702.507C211.798 701.798 212.035 701.119 212.457 700.618C212.879 700.117 213.451 699.835 214.047 699.835C214.634 699.853 215.192 700.142 215.601 700.641C216.011 701.14 216.24 701.81 216.24 702.507C216.24 703.204 216.011 703.873 215.601 704.372C215.192 704.872 214.634 705.161 214.047 705.178C213.451 705.178 212.879 704.897 212.457 704.396C212.035 703.895 211.798 703.215 211.798 702.507ZM189.24 702.507C189.24 701.798 189.477 701.119 189.898 700.618C190.32 700.117 190.892 699.835 191.489 699.835C192.075 699.853 192.633 700.142 193.043 700.641C193.453 701.14 193.682 701.81 193.682 702.507C193.682 703.204 193.453 703.873 193.043 704.372C192.633 704.872 192.075 705.161 191.489 705.178C190.892 705.178 190.32 704.897 189.898 704.396C189.477 703.895 189.24 703.215 189.24 702.507ZM166.681 702.507C166.681 701.81 166.91 701.14 167.32 700.641C167.729 700.142 168.287 699.853 168.874 699.835C169.459 699.856 170.013 700.147 170.421 700.646C170.828 701.144 171.056 701.812 171.055 702.507C171.056 703.202 170.828 703.869 170.421 704.368C170.013 704.867 169.459 705.157 168.874 705.178C168.287 705.161 167.729 704.872 167.32 704.372C166.91 703.873 166.681 703.204 166.681 702.507ZM144.122 702.507C144.122 701.798 144.359 701.119 144.781 700.618C145.203 700.117 145.775 699.835 146.371 699.835C146.958 699.853 147.516 700.142 147.926 700.641C148.335 701.14 148.565 701.81 148.564 702.507C148.565 703.204 148.335 703.873 147.926 704.372C147.516 704.872 146.958 705.161 146.371 705.178C145.775 705.178 145.203 704.897 144.781 704.396C144.359 703.895 144.122 703.215 144.122 702.507ZM121.564 702.507C121.564 701.798 121.801 701.119 122.222 700.618C122.644 700.117 123.216 699.835 123.813 699.835C124.409 699.835 124.981 700.117 125.403 700.618C125.825 701.119 126.062 701.798 126.062 702.507C126.062 703.215 125.825 703.895 125.403 704.396C124.981 704.897 124.409 705.178 123.813 705.178C123.216 705.178 122.644 704.897 122.222 704.396C121.801 703.895 121.564 703.215 121.564 702.507ZM98.9939 702.507C98.9939 701.798 99.2308 701.119 99.6526 700.618C100.074 700.117 100.646 699.835 101.243 699.835C101.84 699.835 102.412 700.117 102.833 700.618C103.255 701.119 103.492 701.798 103.492 702.507C103.492 703.215 103.255 703.895 102.833 704.396C102.412 704.897 101.84 705.178 101.243 705.178C100.646 705.178 100.074 704.897 99.6526 704.396C99.2308 703.895 98.9939 703.215 98.9939 702.507ZM76.5027 702.507C76.5027 701.798 76.7397 701.119 77.1615 700.618C77.5833 700.117 78.1554 699.835 78.7519 699.835C79.3386 699.853 79.8963 700.142 80.306 700.641C80.7157 701.14 80.9449 701.81 80.9447 702.507C80.9449 703.204 80.7157 703.873 80.306 704.372C79.8963 704.872 79.3386 705.161 78.7519 705.178C78.4518 705.187 78.1533 705.125 77.8739 704.994C77.5945 704.864 77.3399 704.669 77.125 704.42C76.9102 704.171 76.7395 703.873 76.6229 703.545C76.5064 703.216 76.4464 702.863 76.4465 702.507H76.5027ZM53.9441 702.507C53.944 701.81 54.1732 701.14 54.5829 700.641C54.9926 700.142 55.5503 699.853 56.137 699.835C56.7335 699.835 57.3056 700.117 57.7274 700.618C58.1492 701.119 58.3861 701.798 58.3861 702.507C58.3861 703.215 58.1492 703.895 57.7274 704.396C57.3056 704.897 56.7335 705.178 56.137 705.178C55.8388 705.183 55.5427 705.118 55.266 704.986C54.9892 704.854 54.7372 704.659 54.5248 704.41C54.3124 704.161 54.1437 703.865 54.0285 703.538C53.9134 703.212 53.8541 702.861 53.8542 702.507H53.9441ZM31.3855 702.507C31.3855 701.798 31.6225 701.119 32.0443 700.618C32.4661 700.117 33.0381 699.835 33.6346 699.835C34.2213 699.853 34.7791 700.142 35.1888 700.641C35.5985 701.14 35.8277 701.81 35.8275 702.507C35.8277 703.204 35.5985 703.873 35.1888 704.372C34.7791 704.872 34.2213 705.161 33.6346 705.178C33.3374 705.182 33.0425 705.115 32.767 704.983C32.4916 704.85 32.241 704.654 32.0297 704.405C31.8185 704.157 31.6508 703.861 31.5364 703.535C31.4219 703.209 31.363 702.86 31.363 702.507H31.3855Z" fill="#1E3F7D"/>
<path d="M256.915 734.135C256.915 733.441 257.143 732.773 257.55 732.274C257.957 731.776 258.512 731.485 259.097 731.464C259.694 731.464 260.266 731.746 260.687 732.247C261.109 732.748 261.346 733.427 261.346 734.135C261.346 734.844 261.109 735.523 260.687 736.024C260.266 736.525 259.694 736.807 259.097 736.807C258.512 736.786 257.957 736.495 257.55 735.997C257.143 735.498 256.915 734.83 256.915 734.135ZM234.357 734.135C234.357 733.427 234.594 732.748 235.016 732.247C235.437 731.746 236.009 731.464 236.606 731.464C237.193 731.482 237.75 731.771 238.16 732.27C238.57 732.769 238.799 733.438 238.799 734.135C238.799 734.833 238.57 735.502 238.16 736.001C237.75 736.5 237.193 736.789 236.606 736.807C236.009 736.807 235.437 736.525 235.016 736.024C234.594 735.523 234.357 734.844 234.357 734.135ZM211.798 734.135C211.798 733.427 212.035 732.748 212.457 732.247C212.879 731.746 213.451 731.464 214.047 731.464C214.634 731.482 215.192 731.771 215.601 732.27C216.011 732.769 216.24 733.438 216.24 734.135C216.24 734.833 216.011 735.502 215.601 736.001C215.192 736.5 214.634 736.789 214.047 736.807C213.451 736.807 212.879 736.525 212.457 736.024C212.035 735.523 211.798 734.844 211.798 734.135ZM189.24 734.135C189.24 733.427 189.477 732.748 189.898 732.247C190.32 731.746 190.892 731.464 191.489 731.464C192.075 731.482 192.633 731.771 193.043 732.27C193.453 732.769 193.682 733.438 193.682 734.135C193.682 734.833 193.453 735.502 193.043 736.001C192.633 736.5 192.075 736.789 191.489 736.807C190.892 736.807 190.32 736.525 189.898 736.024C189.477 735.523 189.24 734.844 189.24 734.135ZM166.681 734.135C166.681 733.438 166.91 732.769 167.32 732.27C167.729 731.771 168.287 731.482 168.874 731.464C169.459 731.485 170.013 731.776 170.421 732.274C170.828 732.773 171.056 733.441 171.055 734.135C171.056 734.83 170.828 735.498 170.421 735.997C170.013 736.495 169.459 736.786 168.874 736.807C168.287 736.789 167.729 736.5 167.32 736.001C166.91 735.502 166.681 734.833 166.681 734.135ZM144.122 734.135C144.122 733.427 144.359 732.748 144.781 732.247C145.203 731.746 145.775 731.464 146.371 731.464C146.958 731.482 147.516 731.771 147.926 732.27C148.335 732.769 148.565 733.438 148.564 734.135C148.565 734.833 148.335 735.502 147.926 736.001C147.516 736.5 146.958 736.789 146.371 736.807C145.775 736.807 145.203 736.525 144.781 736.024C144.359 735.523 144.122 734.844 144.122 734.135ZM121.564 734.135C121.564 733.427 121.801 732.748 122.222 732.247C122.644 731.746 123.216 731.464 123.813 731.464C124.409 731.464 124.981 731.746 125.403 732.247C125.825 732.748 126.062 733.427 126.062 734.135C126.062 734.844 125.825 735.523 125.403 736.024C124.981 736.525 124.409 736.807 123.813 736.807C123.216 736.807 122.644 736.525 122.222 736.024C121.801 735.523 121.564 734.844 121.564 734.135ZM98.9939 734.135C98.9939 733.427 99.2308 732.748 99.6526 732.247C100.074 731.746 100.646 731.464 101.243 731.464C101.84 731.464 102.412 731.746 102.833 732.247C103.255 732.748 103.492 733.427 103.492 734.135C103.492 734.844 103.255 735.523 102.833 736.024C102.412 736.525 101.84 736.807 101.243 736.807C100.646 736.807 100.074 736.525 99.6526 736.024C99.2308 735.523 98.9939 734.844 98.9939 734.135ZM76.5027 734.135C76.5027 733.427 76.7397 732.748 77.1615 732.247C77.5833 731.746 78.1554 731.464 78.7519 731.464C79.3386 731.482 79.8963 731.771 80.306 732.27C80.7157 732.769 80.9449 733.438 80.9447 734.135C80.9449 734.833 80.7157 735.502 80.306 736.001C79.8963 736.5 79.3386 736.789 78.7519 736.807C78.4518 736.816 78.1533 736.753 77.8739 736.623C77.5945 736.493 77.3399 736.297 77.125 736.048C76.9102 735.799 76.7395 735.502 76.6229 735.173C76.5064 734.845 76.4464 734.492 76.4465 734.135H76.5027ZM53.9441 734.135C53.944 733.438 54.1732 732.769 54.5829 732.27C54.9926 731.771 55.5503 731.482 56.137 731.464C56.7335 731.464 57.3056 731.746 57.7274 732.247C58.1492 732.748 58.3861 733.427 58.3861 734.135C58.3861 734.844 58.1492 735.523 57.7274 736.024C57.3056 736.525 56.7335 736.807 56.137 736.807C55.8388 736.812 55.5427 736.747 55.266 736.615C54.9892 736.483 54.7372 736.287 54.5248 736.039C54.3124 735.79 54.1437 735.494 54.0285 735.167C53.9134 734.84 53.8541 734.49 53.8542 734.135H53.9441ZM31.3855 734.135C31.3855 733.427 31.6225 732.748 32.0443 732.247C32.4661 731.746 33.0381 731.464 33.6346 731.464C34.2213 731.482 34.7791 731.771 35.1888 732.27C35.5985 732.769 35.8277 733.438 35.8275 734.135C35.8277 734.833 35.5985 735.502 35.1888 736.001C34.7791 736.5 34.2213 736.789 33.6346 736.807C33.3374 736.81 33.0425 736.744 32.767 736.611C32.4916 736.479 32.241 736.282 32.0297 736.034C31.8185 735.785 31.6508 735.49 31.5364 735.164C31.4219 734.838 31.363 734.489 31.363 734.135H31.3855Z" fill="#1E3F7D"/>
<path d="M256.915 765.751C256.915 765.056 257.143 764.388 257.55 763.89C257.957 763.391 258.512 763.1 259.097 763.079C259.694 763.079 260.266 763.361 260.687 763.862C261.109 764.363 261.346 765.042 261.346 765.751C261.346 766.459 261.109 767.139 260.687 767.64C260.266 768.141 259.694 768.422 259.097 768.422C258.512 768.401 257.957 768.11 257.55 767.612C257.143 767.113 256.915 766.445 256.915 765.751ZM234.357 765.751C234.357 765.042 234.594 764.363 235.016 763.862C235.437 763.361 236.009 763.079 236.606 763.079C237.193 763.097 237.75 763.386 238.16 763.885C238.57 764.384 238.799 765.054 238.799 765.751C238.799 766.448 238.57 767.117 238.16 767.616C237.75 768.115 237.193 768.405 236.606 768.422C236.009 768.422 235.437 768.141 235.016 767.64C234.594 767.139 234.357 766.459 234.357 765.751ZM211.798 765.751C211.798 765.042 212.035 764.363 212.457 763.862C212.879 763.361 213.451 763.079 214.047 763.079C214.634 763.097 215.192 763.386 215.601 763.885C216.011 764.384 216.24 765.054 216.24 765.751C216.24 766.448 216.011 767.117 215.601 767.616C215.192 768.115 214.634 768.405 214.047 768.422C213.451 768.422 212.879 768.141 212.457 767.64C212.035 767.139 211.798 766.459 211.798 765.751ZM189.24 765.751C189.24 765.042 189.477 764.363 189.898 763.862C190.32 763.361 190.892 763.079 191.489 763.079C192.075 763.097 192.633 763.386 193.043 763.885C193.453 764.384 193.682 765.054 193.682 765.751C193.682 766.448 193.453 767.117 193.043 767.616C192.633 768.115 192.075 768.405 191.489 768.422C190.892 768.422 190.32 768.141 189.898 767.64C189.477 767.139 189.24 766.459 189.24 765.751ZM166.681 765.751C166.681 765.054 166.91 764.384 167.32 763.885C167.729 763.386 168.287 763.097 168.874 763.079C169.459 763.1 170.013 763.391 170.421 763.89C170.828 764.388 171.056 765.056 171.055 765.751C171.056 766.445 170.828 767.113 170.421 767.612C170.013 768.11 169.459 768.401 168.874 768.422C168.287 768.405 167.729 768.115 167.32 767.616C166.91 767.117 166.681 766.448 166.681 765.751ZM144.122 765.751C144.122 765.042 144.359 764.363 144.781 763.862C145.203 763.361 145.775 763.079 146.371 763.079C146.958 763.097 147.516 763.386 147.926 763.885C148.335 764.384 148.565 765.054 148.564 765.751C148.565 766.448 148.335 767.117 147.926 767.616C147.516 768.115 146.958 768.405 146.371 768.422C145.775 768.422 145.203 768.141 144.781 767.64C144.359 767.139 144.122 766.459 144.122 765.751ZM121.564 765.751C121.564 765.042 121.801 764.363 122.222 763.862C122.644 763.361 123.216 763.079 123.813 763.079C124.409 763.079 124.981 763.361 125.403 763.862C125.825 764.363 126.062 765.042 126.062 765.751C126.062 766.459 125.825 767.139 125.403 767.64C124.981 768.141 124.409 768.422 123.813 768.422C123.216 768.422 122.644 768.141 122.222 767.64C121.801 767.139 121.564 766.459 121.564 765.751ZM98.9939 765.751C98.9939 765.042 99.2308 764.363 99.6526 763.862C100.074 763.361 100.646 763.079 101.243 763.079C101.84 763.079 102.412 763.361 102.833 763.862C103.255 764.363 103.492 765.042 103.492 765.751C103.492 766.459 103.255 767.139 102.833 767.64C102.412 768.141 101.84 768.422 101.243 768.422C100.646 768.422 100.074 768.141 99.6526 767.64C99.2308 767.139 98.9939 766.459 98.9939 765.751ZM76.5027 765.751C76.5027 765.042 76.7397 764.363 77.1615 763.862C77.5833 763.361 78.1554 763.079 78.7519 763.079C79.3386 763.097 79.8963 763.386 80.306 763.885C80.7157 764.384 80.9449 765.054 80.9447 765.751C80.9449 766.448 80.7157 767.117 80.306 767.616C79.8963 768.115 79.3386 768.405 78.7519 768.422C78.4518 768.431 78.1533 768.368 77.8739 768.238C77.5945 768.108 77.3399 767.913 77.125 767.664C76.9102 767.415 76.7395 767.117 76.6229 766.789C76.5064 766.46 76.4464 766.107 76.4465 765.751H76.5027ZM53.9441 765.751C53.944 765.054 54.1732 764.384 54.5829 763.885C54.9926 763.386 55.5503 763.097 56.137 763.079C56.7335 763.079 57.3056 763.361 57.7274 763.862C58.1492 764.363 58.3861 765.042 58.3861 765.751C58.3861 766.459 58.1492 767.139 57.7274 767.64C57.3056 768.141 56.7335 768.422 56.137 768.422C55.8388 768.427 55.5427 768.362 55.266 768.23C54.9892 768.098 54.7372 767.902 54.5248 767.654C54.3124 767.405 54.1437 767.109 54.0285 766.782C53.9134 766.456 53.8541 766.105 53.8542 765.751H53.9441ZM31.3855 765.751C31.3855 765.042 31.6225 764.363 32.0443 763.862C32.4661 763.361 33.0381 763.079 33.6346 763.079C34.2213 763.097 34.7791 763.386 35.1888 763.885C35.5985 764.384 35.8277 765.054 35.8275 765.751C35.8277 766.448 35.5985 767.117 35.1888 767.616C34.7791 768.115 34.2213 768.405 33.6346 768.422C33.3374 768.426 33.0425 768.359 32.767 768.226C32.4916 768.094 32.241 767.897 32.0297 767.649C31.8185 767.401 31.6508 767.105 31.5364 766.779C31.4219 766.453 31.363 766.104 31.363 765.751H31.3855Z" fill="#1E3F7D"/>
<path d="M274.267 409.34L250.652 395.383L250.46 395.262L226.608 409.354L226.17 409.608V445.096L250.022 459.174L250.46 459.428L250.888 459.174L274.74 445.096V409.674L274.267 409.34ZM250.415 396.411L273.289 409.928L250.415 423.418L227.542 409.928L250.415 396.411ZM249.977 458.026L227.036 444.402V410.756L249.977 424.367V458.026ZM273.829 444.402L250.843 458.026V424.367L263.022 417.114L273.795 410.756L273.829 444.402Z" fill="#FFE45E"/>
<path d="M1033.22 348.527L1009.6 334.556L1009.41 334.449L985.561 348.527L985.122 348.781V384.296L1008.97 398.374L1009.41 398.628L1009.84 398.374L1033.65 384.296V348.781L1033.22 348.527ZM1009.37 335.598L1032.22 349.102L1009.34 362.605L986.46 349.102L1009.37 335.598ZM1008.93 397.212L985.943 383.642V349.93L1008.93 363.5V397.212ZM1032.78 383.642L1009.79 397.212V363.5L1022.01 356.287L1032.78 349.93V383.642Z" fill="#FFE45E"/>
<path d="M81.7181 79.7064L61.4807 103.743L62.7689 105.273L83.0063 81.2364L81.7181 79.7064Z" fill="black"/>
<path d="M101.958 79.7091L81.7203 103.746L83.0085 105.276L103.246 81.2391L101.958 79.7091Z" fill="black"/>
<path d="M122.19 79.7078L101.952 103.744L103.24 105.274L123.478 81.2379L122.19 79.7078Z" fill="black"/>
<path d="M142.429 79.7105L122.192 103.747L123.48 105.277L143.717 81.2406L142.429 79.7105Z" fill="black"/>
<path d="M162.669 79.6869L142.432 103.723L143.72 105.253L163.957 81.2169L162.669 79.6869Z" fill="black"/>
<path d="M968.897 574.676L948.66 598.713L949.948 600.243L970.186 576.206L968.897 574.676Z" fill="black"/>
<path d="M989.098 574.514L968.865 598.555L970.153 600.085L990.387 576.044L989.098 574.514Z" fill="black"/>
<path d="M1009.38 574.677L989.143 598.714L990.431 600.244L1010.67 576.207L1009.38 574.677Z" fill="black"/>
<path d="M1029.62 574.68L1009.38 598.717L1010.67 600.247L1030.91 576.21L1029.62 574.68Z" fill="black"/>
<path d="M1049.83 574.563L1029.59 598.599L1030.88 600.129L1051.11 576.093L1049.83 574.563Z" fill="black"/>
<path d="M-31.0947 665.188V509.623H99.8824L-31.0947 665.188Z" fill="#FFE45E"/>
<path d="M207.536 190.21C207.536 196.432 205.982 202.514 203.072 207.687C200.161 212.86 196.025 216.892 191.185 219.272C186.345 221.653 181.019 222.275 175.882 221.06C170.744 219.845 166.025 216.848 162.322 212.448C158.619 208.047 156.097 202.441 155.077 196.339C154.056 190.236 154.582 183.911 156.589 178.164C158.595 172.416 161.991 167.505 166.347 164.05C170.704 160.595 175.825 158.753 181.064 158.755C184.541 158.755 187.984 159.569 191.197 161.15C194.409 162.731 197.328 165.048 199.786 167.969C202.245 170.89 204.194 174.358 205.524 178.174C206.854 181.99 207.537 186.08 207.536 190.21Z" fill="#FFE45E"/>
<path d="M198.371 210.285C192.894 210.288 187.54 208.361 182.985 204.749C178.43 201.137 174.88 196.001 172.783 189.992C170.686 183.982 170.137 177.369 171.205 170.989C172.272 164.609 174.91 158.748 178.782 154.149C182.655 149.549 187.589 146.417 192.961 145.148C198.333 143.88 203.901 144.532 208.96 147.023C214.02 149.513 218.344 153.73 221.385 159.14C224.426 164.55 226.048 170.91 226.046 177.415C226.037 186.129 223.119 194.484 217.93 200.646C212.742 206.808 205.708 210.275 198.371 210.285ZM198.371 147.389C193.371 147.391 188.485 149.155 184.329 152.456C180.173 155.756 176.935 160.447 175.023 165.933C173.112 171.42 172.613 177.457 173.589 183.281C174.566 189.104 176.975 194.453 180.51 198.651C184.046 202.849 188.551 205.707 193.454 206.865C198.358 208.022 203.44 207.427 208.059 205.154C212.678 202.881 216.625 199.032 219.403 194.095C222.18 189.157 223.662 183.353 223.662 177.415C223.656 169.451 220.989 161.816 216.247 156.186C211.505 150.556 205.076 147.392 198.371 147.389Z" fill="black"/>
<path d="M1157.79 694.827C1157.8 701.051 1156.26 707.141 1153.36 712.324C1150.45 717.507 1146.32 721.552 1141.48 723.945C1136.65 726.338 1131.32 726.972 1126.18 725.767C1121.04 724.563 1116.31 721.573 1112.6 717.177C1108.89 712.782 1106.36 707.177 1105.33 701.073C1104.31 694.969 1104.83 688.641 1106.83 682.888C1108.83 677.136 1112.23 672.219 1116.58 668.759C1120.94 665.299 1126.06 663.452 1131.3 663.452C1138.32 663.452 1145.04 666.755 1150.01 672.637C1154.97 678.518 1157.77 686.498 1157.79 694.827Z" fill="#FF6392"/>
<path d="M1148.62 714.915C1143.14 714.918 1137.79 712.991 1133.24 709.38C1128.68 705.768 1125.13 700.633 1123.03 694.625C1120.94 688.616 1120.39 682.004 1121.45 675.624C1122.52 669.244 1125.16 663.383 1129.03 658.783C1132.9 654.183 1137.83 651.05 1143.2 649.78C1148.58 648.51 1154.14 649.16 1159.2 651.649C1164.26 654.137 1168.59 658.352 1171.63 663.76C1174.67 669.168 1176.3 675.527 1176.3 682.031C1176.29 690.747 1173.37 699.103 1168.18 705.267C1162.99 711.432 1155.96 714.901 1148.62 714.915ZM1148.62 652.018C1143.62 652.021 1138.73 653.785 1134.58 657.086C1130.42 660.388 1127.18 665.079 1125.27 670.566C1123.36 676.054 1122.86 682.091 1123.84 687.915C1124.82 693.739 1127.23 699.088 1130.76 703.285C1134.3 707.483 1138.81 710.34 1143.71 711.496C1148.62 712.652 1153.7 712.055 1158.32 709.78C1162.94 707.505 1166.88 703.654 1169.66 698.715C1172.43 693.775 1173.91 687.97 1173.91 682.031C1173.9 674.07 1171.24 666.438 1166.49 660.811C1161.75 655.184 1155.32 652.022 1148.62 652.018Z" fill="black"/>
<path d="M1020.13 160.412H1114.28V48.5759L1020.13 160.412Z" fill="#FFE45E"/>
<path d="M326.75 153.092H321.195V192.654H326.75V153.092Z" fill="#5AA9E6"/>
<path d="M340.627 176.172V169.574H307.318V176.172H340.627Z" fill="#5AA9E6"/>
<path d="M284.86 597.87H279.305V637.433H284.86V597.87Z" fill="#5AA9E6"/>
<path d="M298.738 620.951V614.352H265.428V620.951H298.738Z" fill="#5AA9E6"/>
<path d="M1137.27 414.883H1131.72V454.446H1137.27V414.883Z" fill="#5AA9E6"/>
<path d="M1151.15 437.964V431.365H1117.84V437.964H1151.15Z" fill="#5AA9E6"/>
<path d="M97.5432 392.537H-91V407.003H97.5432V392.537Z" fill="#FF6392"/>
<path d="M97.5432 422.764H-91V437.229H97.5432V422.764Z" fill="#FF6392"/>
<path d="M1408 586.223V803.123L1225.37 586.223H1408Z" fill="#FFE45E"/>
<path d="M534.152 702.694C530.779 698.443 528.288 693.316 526.876 687.721L534.152 702.694Z" fill="#5AA9E6"/>
<path d="M541.54 709.612C540.821 709.131 540.123 708.611 539.449 708.076L525.628 679.64C525.628 678.745 525.538 677.823 525.538 676.902V676.701L541.54 709.612Z" fill="#5AA9E6"/>
<path d="M546.972 712.538C546.398 712.297 545.847 712.057 545.274 711.776L525.83 671.786C525.92 671.065 526.01 670.344 526.134 669.649L546.972 712.538Z" fill="#5AA9E6"/>
<path d="M551.695 713.98C551.189 713.873 550.683 713.753 550.188 713.619L526.944 665.802C527.09 665.215 527.259 664.627 527.427 664.053L536.424 682.552C537.366 687.524 539.554 692.04 542.699 695.508L551.695 713.98Z" fill="#5AA9E6"/>
<path d="M529.182 659.445L536.075 673.616C535.979 674.418 535.923 675.225 535.906 676.034L528.552 660.914C528.754 660.353 528.968 659.859 529.182 659.445Z" fill="#5AA9E6"/>
<path d="M555.991 714.528C555.519 714.528 555.058 714.528 554.597 714.421L547.265 699.328C547.863 699.715 548.478 700.063 549.109 700.37L555.991 714.528Z" fill="#5AA9E6"/>
<path d="M531.239 655.357L537.301 667.806C537.11 668.367 536.952 668.954 536.795 669.529L530.531 656.626C530.756 656.186 531.003 655.771 531.239 655.357Z" fill="#5AA9E6"/>
<path d="M559.905 714.407C559.489 714.407 559.061 714.487 558.623 714.514L552.359 701.612C552.854 701.758 553.36 701.879 553.866 701.972L559.905 714.407Z" fill="#5AA9E6"/>
<path d="M533.567 651.858L539.19 663.371C538.954 663.826 538.729 664.28 538.515 664.707L532.792 652.926C533.028 652.593 533.298 652.219 533.567 651.858Z" fill="#5AA9E6"/>
<path d="M563.672 713.78C563.267 713.887 562.862 713.98 562.457 714.047L556.733 702.266H557.25H558.071L563.672 713.78Z" fill="#5AA9E6"/>
<path d="M536.12 648.826L541.462 659.805C541.181 660.165 540.911 660.526 540.652 660.913L535.254 649.787C535.529 649.449 535.818 649.128 536.12 648.826Z" fill="#5AA9E6"/>
<path d="M567.158 712.684C566.787 712.831 566.404 712.978 566.033 713.098L560.624 701.972L561.828 701.692L567.158 712.684Z" fill="#5AA9E6"/>
<path d="M538.864 646.222L544.082 656.907C543.763 657.183 543.459 657.481 543.171 657.802L537.931 647.01C538.235 646.756 538.538 646.475 538.864 646.222Z" fill="#5AA9E6"/>
<path d="M570.43 711.162L569.373 711.71L564.133 700.931C564.504 700.784 564.864 700.624 565.257 700.437L570.43 711.162Z" fill="#5AA9E6"/>
<path d="M541.81 643.991L546.983 654.676C546.646 654.89 546.309 655.13 545.983 655.384L540.81 644.699L541.81 643.991Z" fill="#5AA9E6"/>
<path d="M573.523 709.225C573.197 709.466 572.848 709.693 572.511 709.907L567.338 699.221L568.35 698.54L573.523 709.225Z" fill="#5AA9E6"/>
<path d="M544.948 642.174L550.188 652.953C549.817 653.1 549.446 653.26 549.064 653.434L543.868 642.749L544.948 642.174Z" fill="#5AA9E6"/>
<path d="M576.413 706.914C576.109 707.195 575.783 707.462 575.468 707.729L570.262 697.044C570.577 696.759 570.88 696.465 571.173 696.162L576.413 706.914Z" fill="#5AA9E6"/>
<path d="M548.288 640.745L553.686 651.858C553.281 651.938 552.876 652.032 552.483 652.139L547.152 641.173C547.534 641.039 547.906 640.892 548.288 640.745Z" fill="#5AA9E6"/>
<path d="M579.112 704.176L578.235 705.138L572.904 694.172C573.189 693.824 573.459 693.464 573.714 693.09L579.112 704.176Z" fill="#5AA9E6"/>
<path d="M551.83 639.783L557.543 651.537H557.251H556.216L550.593 640.051C551.02 639.957 551.425 639.877 551.83 639.783Z" fill="#5AA9E6"/>
<path d="M581.597 701.024C581.338 701.398 581.069 701.772 580.799 702.133L575.176 690.646C575.412 690.205 575.648 689.751 575.862 689.31L581.597 701.024Z" fill="#5AA9E6"/>
<path d="M555.609 639.289L561.85 652.125C561.357 651.98 560.858 651.869 560.354 651.791L554.282 639.409C554.739 639.356 555.181 639.316 555.609 639.289Z" fill="#5AA9E6"/>
<path d="M583.857 697.404L583.138 698.66L577.11 686.265C577.301 685.717 577.47 685.156 577.627 684.582L583.857 697.404Z" fill="#5AA9E6"/>
<path d="M559.657 639.41L566.911 654.316C566.326 653.955 565.719 653.635 565.1 653.341L558.274 639.316C558.78 639.276 559.196 639.303 559.657 639.41Z" fill="#5AA9E6"/>
<path d="M585.848 693.21C585.646 693.704 585.432 694.199 585.218 694.679L578.392 680.641C578.482 679.853 578.55 679.079 578.583 678.277L585.848 693.21Z" fill="#5AA9E6"/>
<path d="M564.054 640.104L575.738 664.146C574.56 661.761 573.063 659.618 571.308 657.802L562.547 639.77C563.053 639.864 563.559 639.97 564.054 640.104Z" fill="#5AA9E6"/>
<path d="M587.479 688.308C587.321 688.883 587.153 689.47 586.984 690.031L578.212 672C577.758 669.238 576.922 666.584 575.738 664.146L587.479 688.308Z" fill="#5AA9E6"/>
<path d="M588.626 682.378C588.547 683.099 588.435 683.794 588.311 684.502L567.237 641.146C567.81 641.373 568.361 641.613 568.935 641.88L588.626 682.378Z" fill="#5AA9E6"/>
<path d="M588.963 676.902C588.963 677.115 588.963 677.342 588.963 677.556L572.623 643.951C573.332 644.418 574.007 644.912 574.681 645.447L588.896 674.684C588.941 675.472 588.963 676.154 588.963 676.902Z" fill="#5AA9E6"/>
<path d="M587.85 667.004L579.775 650.389C583.63 655.006 586.412 660.73 587.85 667.004Z" fill="#5AA9E6"/>
<path d="M864.659 136.249C861.614 132.405 859.362 127.773 858.081 122.719L864.659 136.249Z" fill="#5AA9E6"/>
<path d="M871.294 142.54C870.653 142.099 870.023 141.632 869.405 141.204L856.922 115.426C856.922 114.611 856.844 113.783 856.844 112.942V112.768L871.294 142.54Z" fill="#5AA9E6"/>
<path d="M876.209 145.212C875.691 144.998 875.174 144.771 874.668 144.517L857.102 108.321C857.181 107.666 857.271 106.985 857.384 106.384L876.209 145.212Z" fill="#5AA9E6"/>
<path d="M880.471 146.44C880.021 146.347 879.56 146.24 879.11 146.12L858.115 102.924C858.249 102.39 858.396 101.856 858.553 101.335L866.672 118.044C867.528 122.532 869.508 126.606 872.351 129.731L880.471 146.44Z" fill="#5AA9E6"/>
<path d="M860.161 97.1272L866.391 109.936C866.312 110.658 866.256 111.379 866.234 112.113L859.565 98.4629C859.745 97.9954 859.936 97.5413 860.161 97.1272Z" fill="#5AA9E6"/>
<path d="M884.35 146.934C883.934 146.934 883.518 146.934 883.091 146.841L876.467 133.19C877.011 133.537 877.571 133.849 878.143 134.125L884.35 146.934Z" fill="#5AA9E6"/>
<path d="M861.994 93.4678L867.471 104.727C867.297 105.238 867.147 105.76 867.021 106.29L861.398 94.6298C861.556 94.2291 861.78 93.8551 861.994 93.4678Z" fill="#5AA9E6"/>
<path d="M887.938 146.841L886.813 146.935L881.19 135.274C881.64 135.408 882.101 135.515 882.551 135.595L887.938 146.841Z" fill="#5AA9E6"/>
<path d="M864.097 90.3154L869.157 100.72C868.944 101.121 868.741 101.535 868.539 101.962L863.377 91.2771C863.613 90.9833 863.85 90.636 864.097 90.3154Z" fill="#5AA9E6"/>
<path d="M891.289 146.267C890.929 146.36 890.569 146.441 890.164 146.507L884.991 135.822H886.206L891.289 146.267Z" fill="#5AA9E6"/>
<path d="M866.402 87.5776L871.227 97.5016C870.968 97.8222 870.732 98.1561 870.496 98.5034L865.615 88.4458C865.874 88.1386 866.133 87.8448 866.402 87.5776Z" fill="#5AA9E6"/>
<path d="M894.449 145.279L893.414 145.653L888.534 135.595C888.894 135.595 889.253 135.448 889.658 135.341L894.449 145.279Z" fill="#5AA9E6"/>
<path d="M868.876 85.2268L873.588 94.9104C873.303 95.1549 873.032 95.4227 872.779 95.7118L868.033 85.9614C868.314 85.7077 868.595 85.4539 868.876 85.2268Z" fill="#5AA9E6"/>
<path d="M897.406 143.876L896.45 144.37L891.705 134.633C892.053 134.5 892.38 134.353 892.706 134.192L897.406 143.876Z" fill="#5AA9E6"/>
<path d="M871.542 83.2097L876.22 92.8265C875.916 93.0269 875.601 93.2406 875.32 93.4677L870.642 83.8375L871.542 83.2097Z" fill="#5AA9E6"/>
<path d="M900.195 142.153C899.903 142.366 899.588 142.58 899.284 142.767L894.617 133.19L895.528 132.562L900.195 142.153Z" fill="#5AA9E6"/>
<path d="M874.376 81.5669L879.11 91.3039C878.773 91.4375 878.446 91.5844 878.12 91.7447L873.42 82.0878C873.735 81.9008 874.061 81.7405 874.376 81.5669Z" fill="#5AA9E6"/>
<path d="M902.816 140.069L901.961 140.804L897.271 131.12C897.553 130.866 897.822 130.613 898.081 130.332L902.816 140.069Z" fill="#5AA9E6"/>
<path d="M877.401 80.2981L882.281 90.3423C881.91 90.3423 881.55 90.4893 881.157 90.5961L876.332 80.6854C876.715 80.5385 877.03 80.4049 877.401 80.2981Z" fill="#5AA9E6"/>
<path d="M905.245 137.598L904.457 138.453L899.644 128.542C899.892 128.222 900.139 127.901 900.375 127.554L905.245 137.598Z" fill="#5AA9E6"/>
<path d="M880.605 79.4167L885.756 90.022H885.497C885.182 90.022 884.868 90.022 884.564 90.022L879.503 79.6438C879.875 79.577 880.234 79.4835 880.605 79.4167Z" fill="#5AA9E6"/>
<path d="M907.494 134.74C907.257 135.087 907.01 135.421 906.763 135.742L901.77 125.364C901.983 124.976 902.197 124.562 902.388 124.148L907.494 134.74Z" fill="#5AA9E6"/>
<path d="M884.013 78.9624L889.636 90.556C889.191 90.4258 888.741 90.3277 888.286 90.2622L882.844 79.0693C883.237 79.0158 883.619 78.9758 884.013 78.9624Z" fill="#5AA9E6"/>
<path d="M909.54 131.468C909.327 131.855 909.102 132.229 908.888 132.603L903.445 121.41C903.614 120.916 903.76 120.408 903.906 119.874L909.54 131.468Z" fill="#5AA9E6"/>
<path d="M887.679 79.0159L894.224 92.4928C893.695 92.1723 893.099 91.8784 892.582 91.6113L886.419 78.9358C886.836 78.9491 887.263 78.9759 887.679 79.0159Z" fill="#5AA9E6"/>
<path d="M911.328 127.688C911.149 128.128 910.957 128.569 910.766 129.023L904.592 116.334C904.682 115.626 904.739 114.919 904.772 114.197L911.328 127.688Z" fill="#5AA9E6"/>
<path d="M891.649 79.7637L902.208 101.495C901.151 99.3344 899.802 97.3942 898.216 95.7517L890.288 79.4565C890.738 79.4833 891.188 79.5768 891.649 79.7637Z" fill="#5AA9E6"/>
<path d="M912.813 123.253C912.667 123.774 912.52 124.295 912.363 124.802L904.491 108.521C904.083 106.023 903.323 103.625 902.242 101.428L912.813 123.253Z" fill="#5AA9E6"/>
<path d="M913.847 117.897C913.769 118.538 913.679 119.233 913.566 119.821L894.516 80.6321C895.033 80.8458 895.551 81.0595 896.057 81.3133L913.847 117.897Z" fill="#5AA9E6"/>
<path d="M914.14 112.942C914.14 113.142 914.14 113.343 914.14 113.53L899.386 83.1831C900.027 83.5972 900.634 84.0379 901.241 84.5188L914.14 110.952C914.14 111.606 914.14 112.274 914.14 112.942Z" fill="#5AA9E6"/>
<path d="M913.15 104.006L905.852 88.9932C909.338 93.1623 911.853 98.3355 913.15 104.006Z" fill="#5AA9E6"/>
<path d="M665.928 -99.0691L615.356 4.96626C615.075 4.03128 614.805 3.09631 614.558 2.13463L663.465 -98.4814C664.275 -98.6951 665.095 -98.891 665.928 -99.0691Z" fill="#FF6392"/>
<path d="M671.46 -99.9907L617.482 11.137C617.156 10.2956 616.841 9.44073 616.548 8.57254L669.178 -99.6167C669.909 -99.7904 670.685 -99.8972 671.46 -99.9907Z" fill="#FF6392"/>
<path d="M676.723 -100.351L619.821 16.7337C619.45 15.9591 619.112 15.1977 618.775 14.423L674.519 -100.258C675.25 -100.311 675.992 -100.338 676.723 -100.351Z" fill="#FF6392"/>
<path d="M681.75 -100.231L622.419 21.8492C622.025 21.1413 621.643 20.4468 621.294 19.7255L679.659 -100.338C680.345 -100.325 681.053 -100.284 681.75 -100.231Z" fill="#FF6392"/>
<path d="M686.586 -99.7102L625.219 26.5374C624.803 25.8963 624.398 25.2017 624.004 24.5873L684.55 -99.9773C685.225 -99.8972 685.911 -99.817 686.586 -99.7102Z" fill="#FF6392"/>
<path d="M691.23 -98.7889L628.255 30.8379C627.816 30.2502 627.378 29.6491 626.962 29.0481L689.228 -99.2163C689.918 -99.0916 690.585 -98.9492 691.23 -98.7889Z" fill="#FF6392"/>
<path d="M695.695 -97.5197L631.381 34.8051C630.909 34.2708 630.459 33.7232 630.01 33.1622L693.817 -98.1074C694.447 -97.8804 695.076 -97.7334 695.695 -97.5197Z" fill="#FF6392"/>
<path d="M700.013 -95.917L634.699 38.438L633.259 36.9287L698.225 -96.6516C698.799 -96.4112 699.406 -96.1841 700.013 -95.917Z" fill="#FF6392"/>
<path d="M704.163 -93.9934L638.174 41.7508L636.678 40.4151L702.408 -94.8616C703.004 -94.5811 703.578 -94.3006 704.163 -93.9934Z" fill="#FF6392"/>
<path d="M708.166 -91.7632L641.817 44.7557C641.289 44.355 640.76 43.9409 640.243 43.5135L706.49 -92.7249C707.042 -92.431 707.604 -92.1104 708.166 -91.7632Z" fill="#FF6392"/>
<path d="M712.012 -89.2253L645.573 47.4539C645.022 47.1066 644.449 46.7326 643.943 46.3453L710.393 -90.3606C710.944 -89.9866 711.483 -89.6126 712.012 -89.2253Z" fill="#FF6392"/>
<path d="M715.723 -86.3935L649.487 49.8448L647.789 48.8564L714.137 -87.6758C714.688 -87.1949 715.206 -86.8343 715.723 -86.3935Z" fill="#FF6392"/>
<path d="M719.288 -83.1882L653.558 51.9683C652.962 51.7011 652.433 51.4073 651.803 51.1134L717.792 -84.644C718.299 -84.1899 718.793 -83.7224 719.288 -83.1882Z" fill="#FF6392"/>
<path d="M722.695 -79.8219L657.741 53.7584C657.134 53.5314 656.526 53.2909 655.93 53.0238L721.267 -81.3179C721.751 -80.837 722.223 -80.3295 722.695 -79.8219Z" fill="#FF6392"/>
<path d="M725.957 -76.0423L662.149 55.214C661.508 55.0404 660.89 54.84 660.26 54.6263L724.585 -77.6985C725.057 -77.1509 725.507 -76.6032 725.957 -76.0423Z" fill="#FF6392"/>
<path d="M729.038 -71.9417L666.737 56.3361C666.074 56.2159 665.422 56.069 664.781 55.9087L727.756 -73.7314C728.194 -73.1438 728.588 -72.5026 729.038 -71.9417Z" fill="#FF6392"/>
<path d="M731.962 -67.4672L671.416 57.0573C670.73 56.9905 670.044 56.897 669.369 56.7902L730.736 -69.4307C731.163 -68.7895 731.568 -68.1351 731.962 -67.4672Z" fill="#FF6392"/>
<path d="M734.683 -62.6053L676.319 57.4581C675.61 57.4581 674.902 57.4581 674.204 57.3379L733.547 -64.729C733.941 -64.0345 734.323 -63.3266 734.683 -62.6053Z" fill="#FF6392"/>
<path d="M737.191 -57.3028L681.447 57.3778C680.716 57.3778 679.973 57.3778 679.198 57.458L736.1 -59.6135C736.516 -58.8522 736.854 -58.0909 737.191 -57.3028Z" fill="#FF6392"/>
<path d="M739.451 -51.4791L686.822 56.7903L684.494 57.0975L738.473 -54.0303C738.844 -53.1888 739.159 -52.334 739.451 -51.4791Z" fill="#FF6392"/>
<path d="M741.408 -45.0545L692.49 55.5748C691.68 55.8019 690.859 56.0023 690.038 56.1759L740.643 -47.8728C740.891 -46.9378 741.161 -45.9895 741.408 -45.0545Z" fill="#FF6392"/>
<path d="M742.994 -37.7751L698.529 53.6248C697.663 53.9721 696.785 54.2793 695.908 54.5732L742.375 -41.0208C742.6 -39.9656 742.802 -38.9104 742.994 -37.7751Z" fill="#FF6392"/>
<path d="M744.073 -29.6144L705.062 50.646C704.118 51.1402 703.173 51.621 702.206 52.0751L743.691 -33.2742C743.848 -32.0587 743.972 -30.8433 744.073 -29.6144Z" fill="#FF6392"/>
<path d="M744.433 -21.4402C744.433 -20.9059 744.433 -20.3717 744.433 -19.8508L712.361 46.118C711.304 46.8659 710.224 47.5872 709.133 48.2817L744.388 -24.2451C744.422 -23.3235 744.433 -22.3752 744.433 -21.4402Z" fill="#FF6392"/>
<path d="M744.062 -13.1187C743.893 -11.1151 743.646 -9.11164 743.342 -7.17492L721.087 38.6119C719.805 39.9475 718.467 41.1763 717.095 42.3517L744.062 -13.1187Z" fill="#FF6392"/>
<path d="M740.958 3.63037C738.141 13.6022 733.671 22.8032 727.812 30.691L740.958 3.63037Z" fill="#FF6392"/>
<path d="M677.983 -212C658.215 -212 638.641 -207.375 620.378 -198.39C602.115 -189.405 585.521 -176.235 571.544 -159.632C557.566 -143.029 546.479 -123.319 538.916 -101.627C531.352 -79.9352 527.459 -56.686 527.461 -33.2072C527.461 14.2081 543.319 59.6813 571.548 93.209C599.776 126.737 638.062 145.572 677.983 145.572C717.904 145.572 756.19 126.737 784.418 93.209C812.646 59.6813 828.505 14.2081 828.505 -33.2072C828.506 -56.686 824.614 -79.9352 817.05 -101.627C809.486 -123.319 798.399 -143.029 784.422 -159.632C770.444 -176.235 753.851 -189.405 735.588 -198.39C717.325 -207.375 697.751 -212 677.983 -212ZM677.983 78.4281C653.067 78.4281 629.172 66.6722 611.553 45.7466C593.935 24.8209 584.037 -3.56042 584.037 -33.1538C584.032 -47.812 586.457 -62.3281 591.175 -75.8727C595.894 -89.4174 602.813 -101.725 611.537 -112.093C620.261 -122.461 630.619 -130.687 642.02 -136.299C653.421 -141.911 665.641 -144.801 677.983 -144.802C702.9 -144.799 726.795 -133.04 744.413 -112.112C762.031 -91.1844 771.928 -62.8018 771.928 -33.2072C771.934 -18.5496 769.509 -4.03416 764.79 9.50975C760.072 23.0536 753.152 35.3607 744.428 45.7277C735.704 56.0946 725.346 64.3185 713.945 69.9294C702.544 75.5402 690.324 78.4281 677.983 78.4281Z" fill="#FF6392"/>
</g>
<defs>
<filter id="filter0_d" x="0" y="0" width="1341" height="825" filterUnits="userSpaceOnUse" color-interpolation-filters="sRGB">
<feFlood flood-opacity="0" result="BackgroundImageFix"/>
<feColorMatrix in="SourceAlpha" type="matrix" values="0 0 0 0 0 0 0 0 0 0 0 0 0 0 0 0 0 0 127 0"/>
<feOffset dy="4"/>
<feGaussianBlur stdDeviation="2"/>
<feColorMatrix type="matrix" values="0 0 0 0 0 0 0 0 0 0 0 0 0 0 0 0 0 0 0.25 0"/>
<feBlend mode="normal" in2="BackgroundImageFix" result="effect1_dropShadow"/>
<feBlend mode="normal" in="SourceGraphic" in2="effect1_dropShadow" result="shape"/>
</filter>
<clipPath id="clip0">
<rect width="1333" height="817" fill="white" transform="translate(4)"/>
</clipPath>
</defs>
</svg>
