<svg width="24" height="24" viewBox="0 0 24 24" fill="none" xmlns="http://www.w3.org/2000/svg">
<path d="M10.9273 2.42493L11.8143 0.254804C11.8534 0.158754 11.9287 0.0810045 12.0247 0.03752C12.1207 -0.00596443 12.2301 -0.0118838 12.3304 0.0209773L13.8759 0.525412C13.9368 0.545134 13.9925 0.577852 14.0389 0.621194C14.0853 0.664537 14.1212 0.717419 14.1441 0.776014C14.167 0.834608 14.1763 0.897448 14.1713 0.95998C14.1663 1.02251 14.1471 1.08317 14.1151 1.13757L13.3679 2.41442C13.3614 2.42594 13.3581 2.43891 13.3582 2.45207C13.3584 2.46523 13.362 2.47813 13.3688 2.4895C13.3755 2.50088 13.3852 2.51035 13.3968 2.51699C13.4085 2.52363 13.4216 2.52721 13.4351 2.52739H19.2168C21.7542 3.35498 22.7299 5.09423 22.9799 7.25647C23.1197 9.177 22.5256 10.1465 21.3671 10.4092H2.82052C1.16476 10.3251 0.670186 9.05352 1.20777 6.73102C1.71847 3.93823 3.3581 2.86368 5.50843 2.52739H10.7714C10.8048 2.52726 10.8374 2.51746 10.8652 2.49923C10.8929 2.48099 10.9145 2.45514 10.9273 2.42493V2.42493Z" fill="#FBB03B"/>
<path opacity="0.5" d="M2.89843 11.7228H21.0311C21.0751 11.7228 21.1187 11.7313 21.1593 11.7479C21.1999 11.7644 21.2368 11.7886 21.2677 11.8192C21.2987 11.8497 21.3232 11.8859 21.3398 11.9257C21.3564 11.9656 21.3648 12.0082 21.3644 12.0512C21.2757 16.6016 19.0179 20.285 14.3758 23.0148H14.3597C12.4782 24.3284 11.9406 24.3284 9.52145 23.0148C5.13656 20.8709 2.81152 17.219 2.54631 12.0591C2.54515 12.014 2.55352 11.9691 2.57091 11.9272C2.5883 11.8854 2.61433 11.8475 2.64738 11.8159C2.68043 11.7844 2.71977 11.7598 2.76297 11.7438C2.80617 11.7278 2.85228 11.7206 2.89843 11.7228V11.7228Z" fill="#FBB03B"/>
</svg>
