<svg xmlns="http://www.w3.org/2000/svg" viewBox="0 0 320 308"><defs><style>.cls-1,.cls-2{fill:#f2f2f2;}.cls-2{opacity:0.5;}</style></defs><title>icons</title><g id="acorn"><path class="cls-1" d="M155.16,110.61l3.3-8.26a1.54,1.54,0,0,1,1.92-.89l5.75,1.92a1.61,1.61,0,0,1,.89,2.33l-2.78,4.86a.29.29,0,0,0,.25.43H186c9.44,3.15,13.07,9.77,14,18,.52,7.31-1.69,11-6,12H125c-6.16-.32-8-5.16-6-14,1.9-10.63,8-14.72,16-16h19.58A.63.63,0,0,0,155.16,110.61Z"/><path class="cls-2" d="M125.29,146h67.46a1.24,1.24,0,0,1,1.24,1.25c-.33,17.32-8.73,31.34-26,41.73l-.06,0c-7,5-9,5-18,0q-24.47-12.24-25.95-41.7A1.25,1.25,0,0,1,125.29,146Z"/></g></svg>