<svg width="24" height="24" viewBox="0 0 24 24" fill="none" xmlns="http://www.w3.org/2000/svg">
<path d="M10.9273 2.3296L11.8143 0.244787C11.8534 0.152513 11.9287 0.0778202 12.0247 0.0360451C12.1207 -0.00572997 12.2301 -0.0114167 12.3304 0.0201527L13.8759 0.504758C13.9368 0.523704 13.9925 0.555136 14.0389 0.596775C14.0853 0.638414 14.1212 0.689217 14.1441 0.745508C14.167 0.801799 14.1763 0.862169 14.1713 0.922243C14.1663 0.982316 14.1471 1.04059 14.1151 1.09285L13.3679 2.31951C13.3614 2.33058 13.3581 2.34304 13.3582 2.35568C13.3584 2.36832 13.362 2.38071 13.3688 2.39164C13.3755 2.40257 13.3852 2.41166 13.3968 2.41804C13.4085 2.42442 13.4216 2.42786 13.4351 2.42804H19.2168C21.7542 3.22309 22.7299 4.89397 22.9799 6.97121C23.1197 8.81625 22.5256 9.7476 21.3671 10H2.82052C1.16476 9.91923 0.670186 8.69762 1.20777 6.46642C1.71847 3.78342 3.3581 2.75111 5.50843 2.42804H10.7714C10.8048 2.42791 10.8374 2.4185 10.8652 2.40098C10.8929 2.38346 10.9145 2.35863 10.9273 2.3296V2.3296Z" fill="#F2F2F2"/>
<path opacity="0.5" d="M3.33691 12.0004H20.6812C20.7233 12.0004 20.7649 12.0087 20.8038 12.0249C20.8426 12.041 20.8779 12.0647 20.9075 12.0945C20.9372 12.1244 20.9606 12.1598 20.9765 12.1987C20.9923 12.2376 21.0003 12.2793 21 12.3214C20.9151 16.7689 18.7555 20.369 14.3153 23.0371H14.2998C12.5001 24.321 11.9859 24.321 9.67196 23.0371C5.47773 20.9417 3.25378 17.3723 3.0001 12.3291C2.99899 12.2849 3.007 12.2411 3.02363 12.2002C3.04027 12.1593 3.06517 12.1222 3.09678 12.0914C3.12839 12.0606 3.16602 12.0365 3.20734 12.0209C3.24866 12.0052 3.29277 11.9982 3.33691 12.0004V12.0004Z" fill="#F2F2F2"/>
</svg>
