<svg width="24" height="24" viewBox="0 0 24 24" fill="none" xmlns="http://www.w3.org/2000/svg">
<path opacity="0.5" d="M17.4546 4.92307H6.54553V18.7692H17.4546V4.92307Z" fill="#F2F2F2"/>
<path opacity="0.5" d="M6.54536 4.92306V2.0646C6.54503 1.99539 6.55554 1.92679 6.57625 1.86277C6.59697 1.79875 6.6275 1.74058 6.66606 1.69164C6.70462 1.6427 6.75044 1.60396 6.80088 1.57767C6.85132 1.55137 6.90537 1.53804 6.9599 1.53845H7.91263C8.25725 1.53845 8.58776 1.7122 8.83144 2.02149C9.07512 2.33079 9.21202 2.75027 9.21202 3.18768V4.92306" fill="#F2F2F2"/>
<path opacity="0.5" d="M14.7879 4.92306V3.45844C14.7879 2.94923 14.9473 2.46087 15.231 2.1008C15.5146 1.74073 15.8994 1.53845 16.3006 1.53845H17.0279C17.0824 1.53804 17.1364 1.55137 17.1869 1.57767C17.2373 1.60396 17.2831 1.6427 17.3217 1.69164C17.3603 1.74058 17.3908 1.79875 17.4115 1.86277C17.4322 1.92679 17.4427 1.99539 17.4424 2.0646V4.92306" fill="#F2F2F2"/>
<path opacity="0.5" d="M3.87861 18.7692V7.29538C3.87829 7.22617 3.88879 7.15756 3.90951 7.09354C3.93023 7.02952 3.96075 6.97136 3.99931 6.92242C4.03787 6.87348 4.08369 6.83473 4.13413 6.80844C4.18457 6.78214 4.23862 6.76881 4.29315 6.76922H6.54527V18.7692" fill="#F2F2F2"/>
<path opacity="0.5" d="M17.4547 18.7692V6.76922H19.7068C19.7613 6.76881 19.8153 6.78214 19.8658 6.80844C19.9162 6.83473 19.9621 6.87348 20.0006 6.92242C20.0392 6.97136 20.0697 7.02952 20.0904 7.09354C20.1111 7.15756 20.1216 7.22617 20.1213 7.29538V18.7692" fill="#F2F2F2"/>
<path opacity="0.5" d="M2.66669 18.7692V10.1538H3.87881V18.7692" fill="#F2F2F2"/>
<path opacity="0.5" d="M20.1212 18.7692V10.1538H21.3333V18.7692" fill="#F2F2F2"/>
<path opacity="0.5" d="M0 13.5385V6.72308C0 6.3273 0.123874 5.94772 0.344372 5.66786C0.564869 5.388 0.863928 5.23077 1.17576 5.23077H1.49091C1.80274 5.23077 2.1018 5.388 2.3223 5.66786C2.5428 5.94772 2.66667 6.3273 2.66667 6.72308V13.5385" fill="#F2F2F2"/>
<path opacity="0.5" d="M21.3333 13.5385V6.76924C21.3333 6.36121 21.461 5.9699 21.6883 5.68138C21.9156 5.39286 22.2239 5.23077 22.5454 5.23077H22.7878C23.1093 5.23077 23.4176 5.39286 23.6449 5.68138C23.8722 5.9699 23.9999 6.36121 23.9999 6.76924V13.5385" fill="#F2F2F2"/>
<path opacity="0.5" d="M5.33344 24V18.7693H8.0001V24" fill="#F2F2F2"/>
<path d="M6.54536 15.3846V10.68C6.54503 10.6108 6.55554 10.5422 6.57625 10.4782C6.59697 10.4142 6.6275 10.356 6.66606 10.307C6.70462 10.2581 6.75044 10.2194 6.80088 10.1931C6.85132 10.1668 6.90537 10.1534 6.9599 10.1538H8.79747C8.852 10.1534 8.90605 10.1668 8.95649 10.1931C9.00693 10.2194 9.05276 10.2581 9.09132 10.307C9.12987 10.356 9.1604 10.4142 9.18112 10.4782C9.20184 10.5422 9.21234 10.6108 9.21202 10.68V15.3846" fill="#F2F2F2"/>
<path d="M14.7877 15.3846V10.68C14.7874 10.6108 14.7979 10.5422 14.8186 10.4782C14.8393 10.4142 14.8699 10.356 14.9084 10.307C14.947 10.2581 14.9928 10.2194 15.0433 10.1931C15.0937 10.1668 15.1477 10.1534 15.2023 10.1538H17.0398C17.0944 10.1534 17.1484 10.1668 17.1989 10.1931C17.2493 10.2194 17.2951 10.2581 17.3337 10.307C17.3722 10.356 17.4028 10.4142 17.4235 10.4782C17.4442 10.5422 17.4547 10.6108 17.4544 10.68V15.3846" fill="#F2F2F2"/>
<path opacity="0.5" d="M16.0001 24V18.7693H18.6667V24" fill="#F2F2F2"/>
<path opacity="0.5" d="M16 20.6153H14.4412C14.1476 20.6161 13.8661 20.7646 13.6585 21.0281C13.4509 21.2916 13.334 21.6488 13.3333 22.0215V22.5938C13.334 22.9665 13.4509 23.3237 13.6585 23.5872C13.8661 23.8508 14.1476 23.9992 14.4412 24H16" fill="#F2F2F2"/>
<path opacity="0.5" d="M7.99994 20.6153H9.55872C9.85235 20.6161 10.1338 20.7646 10.3414 21.0281C10.549 21.2916 10.666 21.6488 10.6666 22.0215V22.5938C10.666 22.9665 10.549 23.3237 10.3414 23.5872C10.1338 23.8508 9.85235 23.9992 9.55872 24H7.99994" fill="#F2F2F2"/>
<path opacity="0.5" d="M18.9262 0C19.0831 0 19.2385 0.0392366 19.3835 0.115469C19.5285 0.191702 19.6603 0.303437 19.7713 0.444296C19.8822 0.585155 19.9703 0.752381 20.0303 0.936423C20.0904 1.12046 20.1213 1.31772 20.1213 1.51692V1.84615C20.1213 2.25418 19.9936 2.64549 19.7663 2.93401C19.539 3.22253 19.2307 3.38462 18.9092 3.38462H17.8692C17.7593 3.38462 17.6538 3.32918 17.5761 3.23051C17.4983 3.13184 17.4547 2.99801 17.4547 2.85846V1.86769C17.4547 1.62242 17.4927 1.37956 17.5667 1.15296C17.6406 0.926358 17.749 0.720466 17.8856 0.547035C18.0223 0.373603 18.1845 0.23603 18.363 0.14217C18.5416 0.0483093 18.7329 0 18.9262 0V0Z" fill="#F2F2F2"/>
<path opacity="0.5" d="M6.13099 3.38463L5.09099 3.38463C4.76951 3.38463 4.46121 3.22254 4.23389 2.93402C4.00657 2.64551 3.87887 2.25419 3.87887 1.84617V1.51694C3.87887 1.11462 4.00479 0.728787 4.22892 0.444309C4.45306 0.15983 4.75704 1.24574e-05 5.07402 1.24574e-05V1.24574e-05C5.46429 1.24574e-05 5.83857 0.196787 6.11454 0.547047C6.3905 0.897307 6.54553 1.37236 6.54553 1.8677V2.85847C6.54553 2.99802 6.50186 3.13185 6.42411 3.23052C6.34637 3.32919 6.24093 3.38463 6.13099 3.38463V3.38463Z" fill="#F2F2F2"/>
</svg>
