<svg width="24" height="24" viewBox="0 0 24 24" fill="none" xmlns="http://www.w3.org/2000/svg">
<path opacity="0.5" d="M17.4545 4.92307H6.54541V18.7692H17.4545V4.92307Z" fill="#FBB03B"/>
<path opacity="0.5" d="M6.54536 4.92306V2.0646C6.54503 1.99539 6.55554 1.92679 6.57625 1.86277C6.59697 1.79875 6.6275 1.74058 6.66606 1.69164C6.70462 1.6427 6.75044 1.60396 6.80088 1.57767C6.85132 1.55137 6.90537 1.53804 6.9599 1.53845H7.91263C8.25725 1.53845 8.58776 1.7122 8.83144 2.02149C9.07512 2.33079 9.21202 2.75027 9.21202 3.18768V4.92306" fill="#FBB03B"/>
<path opacity="0.5" d="M14.7879 4.92306V3.45844C14.7879 2.94923 14.9473 2.46087 15.231 2.1008C15.5146 1.74073 15.8994 1.53845 16.3006 1.53845H17.0279C17.0824 1.53804 17.1364 1.55137 17.1869 1.57767C17.2373 1.60396 17.2831 1.6427 17.3217 1.69164C17.3603 1.74058 17.3908 1.79875 17.4115 1.86277C17.4322 1.92679 17.4427 1.99539 17.4424 2.0646V4.92306" fill="#FBB03B"/>
<path opacity="0.5" d="M3.87873 18.7692V7.29538C3.87841 7.22617 3.88891 7.15756 3.90963 7.09354C3.93035 7.02952 3.96087 6.97136 3.99943 6.92242C4.03799 6.87348 4.08382 6.83473 4.13426 6.80844C4.1847 6.78214 4.23875 6.76881 4.29327 6.76922H6.54539V18.7692" fill="#FBB03B"/>
<path opacity="0.5" d="M17.4545 18.7692V6.76922H19.7066C19.7612 6.76881 19.8152 6.78214 19.8657 6.80844C19.9161 6.83473 19.9619 6.87348 20.0005 6.92242C20.039 6.97136 20.0696 7.02952 20.0903 7.09354C20.111 7.15756 20.1215 7.22617 20.1212 7.29538V18.7692" fill="#FBB03B"/>
<path opacity="0.5" d="M2.66675 18.7692V10.1538H3.87887V18.7692" fill="#FBB03B"/>
<path opacity="0.5" d="M20.1212 18.7692V10.1538H21.3333V18.7692" fill="#FBB03B"/>
<path opacity="0.5" d="M0 13.5385V6.72308C0 6.3273 0.123874 5.94772 0.344372 5.66786C0.564869 5.388 0.863928 5.23077 1.17576 5.23077H1.49091C1.80274 5.23077 2.1018 5.388 2.3223 5.66786C2.5428 5.94772 2.66667 6.3273 2.66667 6.72308V13.5385" fill="#FBB03B"/>
<path opacity="0.5" d="M21.3334 13.5385V6.76924C21.3334 6.36121 21.4611 5.9699 21.6884 5.68138C21.9157 5.39286 22.224 5.23077 22.5455 5.23077H22.7879C23.1094 5.23077 23.4177 5.39286 23.645 5.68138C23.8723 5.9699 24 6.36121 24 6.76924V13.5385" fill="#FBB03B"/>
<path opacity="0.5" d="M5.33331 24V18.7693H7.99998V24" fill="#FBB03B"/>
<path d="M6.54536 15.3846V10.68C6.54503 10.6108 6.55554 10.5422 6.57625 10.4782C6.59697 10.4142 6.6275 10.356 6.66606 10.307C6.70462 10.2581 6.75044 10.2194 6.80088 10.1931C6.85132 10.1668 6.90537 10.1534 6.9599 10.1538H8.79747C8.852 10.1534 8.90605 10.1668 8.95649 10.1931C9.00693 10.2194 9.05276 10.2581 9.09132 10.307C9.12987 10.356 9.1604 10.4142 9.18112 10.4782C9.20184 10.5422 9.21234 10.6108 9.21202 10.68V15.3846" fill="#FBB03B"/>
<path d="M14.7878 15.3846V10.68C14.7875 10.6108 14.798 10.5422 14.8187 10.4782C14.8395 10.4142 14.87 10.356 14.9086 10.307C14.9471 10.2581 14.9929 10.2194 15.0434 10.1931C15.0938 10.1668 15.1479 10.1534 15.2024 10.1538H17.04C17.0945 10.1534 17.1485 10.1668 17.199 10.1931C17.2494 10.2194 17.2953 10.2581 17.3338 10.307C17.3724 10.356 17.4029 10.4142 17.4236 10.4782C17.4443 10.5422 17.4548 10.6108 17.4545 10.68V15.3846" fill="#FBB03B"/>
<path opacity="0.5" d="M16.0001 24V18.7693H18.6667V24" fill="#FBB03B"/>
<path opacity="0.5" d="M16 20.6153H14.4412C14.1476 20.6161 13.8661 20.7646 13.6585 21.0281C13.4509 21.2916 13.334 21.6488 13.3333 22.0215V22.5938C13.334 22.9665 13.4509 23.3237 13.6585 23.5872C13.8661 23.8508 14.1476 23.9992 14.4412 24H16" fill="#FBB03B"/>
<path opacity="0.5" d="M8 20.6153H9.55878C9.85241 20.6161 10.1338 20.7646 10.3415 21.0281C10.5491 21.2916 10.666 21.6488 10.6667 22.0215V22.5938C10.666 22.9665 10.5491 23.3237 10.3415 23.5872C10.1338 23.8508 9.85241 23.9992 9.55878 24H8" fill="#FBB03B"/>
<path opacity="0.5" d="M18.926 0C19.083 0 19.2384 0.0392366 19.3834 0.115469C19.5284 0.191702 19.6602 0.303437 19.7711 0.444296C19.8821 0.585155 19.9702 0.752381 20.0302 0.936423C20.0903 1.12046 20.1212 1.31772 20.1212 1.51692V1.84615C20.1212 2.25418 19.9935 2.64549 19.7662 2.93401C19.5389 3.22253 19.2305 3.38462 18.9091 3.38462H17.8691C17.7591 3.38462 17.6537 3.32918 17.5759 3.23051C17.4982 3.13184 17.4545 2.99801 17.4545 2.85846V1.86769C17.4545 1.62242 17.4926 1.37956 17.5665 1.15296C17.6405 0.926358 17.7489 0.720466 17.8855 0.547035C18.0222 0.373603 18.1844 0.23603 18.3629 0.14217C18.5415 0.0483093 18.7328 0 18.926 0V0Z" fill="#FBB03B"/>
<path opacity="0.5" d="M6.13087 3.38463L5.09087 3.38463C4.76939 3.38463 4.46108 3.22254 4.23377 2.93402C4.00645 2.64551 3.87875 2.25419 3.87875 1.84617V1.51694C3.87875 1.11462 4.00467 0.728787 4.2288 0.444309C4.45293 0.15983 4.75692 1.24574e-05 5.0739 1.24574e-05V1.24574e-05C5.46416 1.24574e-05 5.83845 0.196787 6.11441 0.547047C6.39038 0.897307 6.54541 1.37236 6.54541 1.8677V2.85847C6.54541 2.99802 6.50174 3.13185 6.42399 3.23052C6.34625 3.32919 6.24081 3.38463 6.13087 3.38463V3.38463Z" fill="#FBB03B"/>
</svg>
