<svg width="24" height="24" viewBox="0 0 24 24" fill="none" xmlns="http://www.w3.org/2000/svg">
<path opacity="0.5" d="M21.979 9.86667V21.9947C21.979 22.258 21.9298 22.5188 21.8343 22.7621C21.7389 23.0054 21.5989 23.2264 21.4225 23.4127C21.2461 23.5989 21.0367 23.7466 20.8062 23.8474C20.5757 23.9481 20.3287 24 20.0792 24H8.58949V11.4667H13.968C14.0824 11.466 14.1919 11.4177 14.2727 11.3323C14.3536 11.247 14.3994 11.1314 14.4 11.0107V9.86667H21.979Z" fill="#F2F2F2"/>
<path opacity="0.5" d="M8.58948 10.9147V24H3.65811C3.15693 24 2.67629 23.7899 2.3219 23.4158C1.96752 23.0417 1.76842 22.5344 1.76842 22.0054V7.85602C1.76842 7.54059 1.88713 7.23808 2.09844 7.01504C2.30974 6.79199 2.59633 6.66669 2.89516 6.66669H20.88C21.1715 6.66669 21.451 6.7889 21.6571 7.00644C21.8632 7.22398 21.979 7.51904 21.979 7.82669V9.86669H9.58232C9.45194 9.86669 9.32283 9.89379 9.20238 9.94646C9.08192 9.99913 8.97247 10.0763 8.88028 10.1736C8.78808 10.271 8.71495 10.3865 8.66505 10.5136C8.61516 10.6408 8.58948 10.7771 8.58948 10.9147V10.9147Z" fill="#F2F2F2"/>
<path d="M23.1815 0H0.818526C0.366466 0 0 0.386825 0 0.863999V3.936C0 4.41317 0.366466 4.8 0.818526 4.8H23.1815C23.6335 4.8 24 4.41317 24 3.936V0.863999C24 0.386825 23.6335 0 23.1815 0Z" fill="#F2F2F2"/>
</svg>
