<svg xmlns="http://www.w3.org/2000/svg" viewBox="0 0 320 308"><defs><style>.cls-1,.cls-2{fill:#f2f2f2;}.cls-1{opacity:0.5;}</style></defs><title>icons</title><g id="archive"><path class="cls-1" d="M197,140v45.48a7.52,7.52,0,0,1-7.52,7.52H144V146h21.29a1.72,1.72,0,0,0,1.71-1.71V140Z"/><path class="cls-1" d="M144,143.93V193H124.48a7.48,7.48,0,0,1-7.48-7.48V132.46a4.46,4.46,0,0,1,4.46-4.46h71.19a4.35,4.35,0,0,1,4.35,4.35V140H147.93A3.93,3.93,0,0,0,144,143.93Z"/><rect class="cls-2" x="110" y="103" width="95" height="18" rx="3.24"/></g></svg>