<svg width="24" height="24" viewBox="0 0 24 24" fill="none" xmlns="http://www.w3.org/2000/svg">
<path opacity="0.5" d="M1.44386 12.0568C1.29116 12.8718 16.2241 23.6114 16.4172 23.5427C16.7713 23.775 17.2181 23.9274 17.6991 23.9798C18.1801 24.0322 18.6726 23.9821 19.1118 23.8362C20.0101 23.5239 22.0625 22.3404 22.6508 21.619C22.8983 21.261 22.9799 20.8584 22.8841 20.4668C22.7884 20.0752 22.5201 19.714 22.1164 19.433L7.74487 9.17747C7.39228 8.94347 6.94553 8.78974 6.46412 8.73674C5.98272 8.68374 5.48951 8.73399 5.05021 8.8808C3.57264 9.40856 1.45733 12.0505 1.45733 12.0505" fill="#F2F2F2"/>
<path d="M5.71504 15.848L22.3321 4.60557C22.6658 4.35945 22.8867 4.04988 22.9666 3.71622C23.0466 3.38257 22.9821 3.03992 22.7812 2.73184C22.3321 2.10726 20.6794 0.636385 19.6374 0.233533C19.0597 0.0372891 18.4122 -0.0376842 17.7741 0.0177745C17.1361 0.0732333 16.5351 0.256722 16.0446 0.545822L1.67306 10.5391C1.33615 10.7839 1.11311 11.0935 1.033 11.4278C0.952891 11.762 1.01943 12.1052 1.22395 12.4128C1.96049 13.4527 5.71504 15.848 5.71504 15.848Z" fill="#F2F2F2"/>
</svg>
