<svg width="24" height="24" viewBox="0 0 24 24" fill="none" xmlns="http://www.w3.org/2000/svg">
<path opacity="0.5" d="M22.7358 12.0567C22.8885 12.8718 7.95675 23.6114 7.75915 23.5427C7.40511 23.775 6.95825 23.9274 6.47733 23.9798C5.99642 24.0322 5.50396 23.9821 5.06471 23.8362C4.16656 23.524 2.11428 22.3404 1.526 21.619C1.27906 21.2607 1.19828 20.8579 1.29482 20.4663C1.39136 20.0747 1.66045 19.7136 2.06489 19.433L16.4353 9.17745C16.7878 8.94346 17.2346 8.78972 17.7159 8.73672C18.1973 8.68372 18.6905 8.73397 19.1297 8.88078C20.6117 9.40855 22.7223 12.0505 22.7223 12.0505" fill="#F2F2F2"/>
<path d="M18.2853 15.8479L1.66956 4.60554C1.33483 4.35986 1.11325 4.05025 1.03324 3.71641C0.95323 3.38257 1.01843 3.03972 1.22049 2.73182C1.66956 2.10725 3.32216 0.636381 4.36401 0.233532C4.94174 0.0372888 5.58916 -0.037684 6.22716 0.0177744C6.86516 0.0732328 7.46612 0.256721 7.95661 0.545818L22.327 10.539C22.6639 10.7838 22.8869 11.0935 22.967 11.4277C23.0471 11.7619 22.9806 12.1052 22.7761 12.4127C22.0396 13.4526 18.2853 15.8479 18.2853 15.8479Z" fill="#F2F2F2"/>
</svg>
