<svg xmlns="http://www.w3.org/2000/svg" viewBox="0 0 320 308"><defs><style>.cls-1,.cls-2{fill:#f2f2f2;}.cls-1{opacity:0.5;}</style></defs><title>icons</title><g id="right_arrow" data-name="right arrow"><path class="cls-1" d="M183.41,154.36c.34,2.61-32.91,37-33.35,36.78a5.37,5.37,0,0,1-6,.94c-2-1-6.57-4.79-7.88-7.1a6.14,6.14,0,0,1,1.2-7l32-32.84a5.34,5.34,0,0,1,6-.95c3.3,1.69,8,10.15,8,10.15"/><path class="cls-2" d="M173.5,166.5l-37-36a5.44,5.44,0,0,1-1-6c1-2,4.68-6.71,7-8a7.37,7.37,0,0,1,8,1l32,32a5.4,5.4,0,0,1,1,6c-1.64,3.33-10,11-10,11"/></g></svg>