<svg width="24" height="19" viewBox="0 0 24 19" fill="none" xmlns="http://www.w3.org/2000/svg">
<path d="M0.964079 6.73298e-05H12.0839C12.1276 -0.000527291 12.1709 0.00857563 12.2114 0.0268454C12.2518 0.0451151 12.2886 0.0721831 12.3195 0.106449C12.3504 0.140716 12.3748 0.181488 12.3912 0.226372C12.4077 0.271256 12.4159 0.319344 12.4154 0.3678C12.3914 2.7204 12.2556 15.5955 12.2237 18.6392C12.2232 18.7083 12.2051 18.7758 12.1713 18.8338C12.1375 18.8919 12.0894 18.938 12.0328 18.9669C11.9762 18.9957 11.9134 19.006 11.8517 18.9966C11.79 18.9873 11.732 18.9586 11.6845 18.9139C9.20008 16.5702 0.436844 3.54447 0.436844 3.54447C-0.174265 2.21532 -0.206221 1.03681 0.7404 0.093111C0.801528 0.0315824 0.881551 -0.00170532 0.964079 6.73298e-05V6.73298e-05Z" fill="#F2F2F2"/>
<path opacity="0.5" d="M23.0359 8.83957e-05H11.9161C11.8724 -0.000506228 11.829 0.00859674 11.7886 0.0268665C11.7481 0.0451363 11.7114 0.0722045 11.6805 0.106471C11.6496 0.140737 11.6252 0.18151 11.6087 0.226394C11.5922 0.271279 11.584 0.319367 11.5846 0.367823C11.6085 2.72043 11.7443 15.5956 11.7723 18.6393C11.7737 18.7084 11.7926 18.7757 11.8269 18.8335C11.8612 18.8912 11.9095 18.937 11.9662 18.9657C12.0229 18.9944 12.0858 19.0047 12.1476 18.9956C12.2093 18.9865 12.2675 18.9582 12.3155 18.914C14.8159 16.5703 23.5631 3.54451 23.5631 3.54451C24.1742 2.21535 24.2062 1.03684 23.2595 0.0931325C23.198 0.032364 23.1183 -0.000807943 23.0359 8.83957e-05V8.83957e-05Z" fill="#F2F2F2"/>
</svg>
