<svg xmlns="http://www.w3.org/2000/svg" viewBox="0 0 320 308"><defs><style>.cls-1,.cls-2{fill:#f2f2f2;}.cls-1{opacity:0.5;}</style></defs><title>icons</title><g id="left_arrow" data-name="left arrow"><path class="cls-1" d="M136,161.36c-.34,2.61,32.91,37,33.34,36.78a5.37,5.37,0,0,0,6,.94c2-1,6.57-4.79,7.88-7.1a6.14,6.14,0,0,0-1.19-7l-32-32.84a5.34,5.34,0,0,0-6-.95c-3.29,1.69-8,10.15-8,10.15"/><path class="cls-2" d="M145.51,173.5l37-36a5.46,5.46,0,0,0,1-6c-1-2-4.68-6.71-7-8a7.37,7.37,0,0,0-8,1l-32,32a5.4,5.4,0,0,0-1,6c1.64,3.33,10,11,10,11"/></g></svg>