<svg width="24" height="27" viewBox="0 0 24 27" fill="none" xmlns="http://www.w3.org/2000/svg">
<path opacity="0.5" d="M1.44386 13.5638C1.29116 14.4808 16.2241 26.5628 16.4172 26.4855C16.7713 26.7469 17.2181 26.9183 17.6991 26.9772C18.1801 27.0362 18.6726 26.9799 19.1118 26.8158C20.0101 26.4644 22.0625 25.1329 22.6508 24.3214C22.8983 23.9186 22.9799 23.4657 22.8841 23.0252C22.7884 22.5846 22.5201 22.1782 22.1164 21.8621L7.74487 10.3246C7.39228 10.0614 6.94553 9.88845 6.46412 9.82882C5.98272 9.7692 5.48951 9.82573 5.05021 9.99089C3.57264 10.5846 1.45733 13.5568 1.45733 13.5568" fill="#2E2C2F"/>
<path d="M5.71504 17.829L22.3321 5.18127C22.6658 4.90438 22.8867 4.55611 22.9666 4.18075C23.0466 3.80539 22.9821 3.4199 22.7812 3.07332C22.3321 2.37067 20.6794 0.715934 19.6374 0.262725C19.0597 0.0419502 18.4122 -0.0423948 17.7741 0.0199963C17.1361 0.0823874 16.5351 0.288813 16.0446 0.614049L1.67306 11.8564C1.33615 12.1318 1.11311 12.4802 1.033 12.8562C0.952891 13.2322 1.01943 13.6184 1.22395 13.9644C1.96049 15.1343 5.71504 17.829 5.71504 17.829Z" fill="#2E2C2F"/>
</svg>
