<svg width="24" height="27" viewBox="0 0 24 27" fill="none" xmlns="http://www.w3.org/2000/svg">
<path opacity="0.5" d="M22.7358 13.5638C22.8885 14.4808 7.95675 26.5628 7.75916 26.4855C7.40512 26.7469 6.95826 26.9183 6.47734 26.9773C5.99642 27.0362 5.50396 26.9799 5.06471 26.8158C4.16656 26.4644 2.11429 25.1329 1.526 24.3214C1.27907 23.9183 1.19829 23.4652 1.29483 23.0246C1.39136 22.584 1.66046 22.1778 2.0649 21.8621L16.4353 10.3246C16.7878 10.0614 17.2346 9.88844 17.7159 9.82881C18.1973 9.76918 18.6905 9.82572 19.1297 9.99088C20.6117 10.5846 22.7223 13.5568 22.7223 13.5568" fill="#2E2C2F"/>
<path d="M18.2853 17.8288L1.66956 5.18124C1.33483 4.90484 1.11325 4.55653 1.03324 4.18096C0.95323 3.80539 1.01843 3.41969 1.22049 3.0733C1.66956 2.37066 3.32216 0.715929 4.36401 0.262723C4.94174 0.0419499 5.58916 -0.0423945 6.22716 0.0199962C6.86516 0.0823869 7.46612 0.288811 7.95661 0.614046L22.327 11.8564C22.6639 12.1318 22.8869 12.4802 22.967 12.8562C23.0471 13.2322 22.9806 13.6183 22.7761 13.9643C22.0396 15.1342 18.2853 17.8288 18.2853 17.8288Z" fill="#2E2C2F"/>
</svg>
