<svg width="24" height="24" viewBox="0 0 24 24" fill="none" xmlns="http://www.w3.org/2000/svg">
<path d="M5.75 3.12H3.25005C2.03257 3.312 1.18009 3.9816 1.00009 5.52V9.12H22.9997V5.28C22.7347 3.9456 21.9572 3.1656 20.4997 3.12H3.00005" fill="#F2F2F2"/>
<path opacity="0.5" d="M5.75047 0.818401V4.7016C5.74441 4.91214 5.82542 5.11642 5.97579 5.26978C6.12617 5.42314 6.33368 5.5131 6.55295 5.52H8.1979C8.41718 5.5131 8.62468 5.42314 8.77506 5.26978C8.92544 5.11642 9.00645 4.91214 9.00038 4.7016V0.818401C9.00645 0.607862 8.92544 0.403581 8.77506 0.250221C8.62468 0.0968611 8.41718 0.00689786 8.1979 0H6.55295C6.33368 0.00689786 6.12617 0.0968611 5.97579 0.250221C5.82542 0.403581 5.74441 0.607862 5.75047 0.818401V0.818401Z" fill="#F2F2F2"/>
<path opacity="0.5" d="M14.9999 0.818401V4.7016C14.9938 4.91214 15.0748 5.11642 15.2252 5.26978C15.3756 5.42314 15.5831 5.5131 15.8024 5.52H17.4473C17.6666 5.5131 17.8741 5.42314 18.0245 5.26978C18.1749 5.11642 18.2559 4.91214 18.2498 4.7016V0.818401C18.2559 0.607862 18.1749 0.403581 18.0245 0.250221C17.8741 0.0968611 17.6666 0.00689786 17.4473 0H15.8024C15.5831 0.00689786 15.3756 0.0968611 15.2252 0.250221C15.0748 0.403581 14.9938 0.607862 14.9999 0.818401Z" fill="#F2F2F2"/>
<path opacity="0.5" d="M1.00039 9.09357L1.17789 20.6568C1.17455 21.1291 1.27812 21.5965 1.48142 22.0266C1.68472 22.4568 1.98291 22.8394 2.35537 23.148L2.79286 23.4864C3.20334 23.8123 3.71767 23.9936 4.25033 24H19.4726C19.8078 23.9943 20.1381 23.9215 20.4424 23.7864C20.7468 23.6513 21.0184 23.4567 21.24 23.2152L22.1175 22.3008C22.6941 21.6734 23.0061 20.8621 22.9925 20.0256V8.81997C22.9925 7.11597 21.79 5.74076 20.32 5.75996L3.60535 5.98076C2.14537 5.99996 0.975394 7.39677 1.00039 9.09357Z" fill="#F2F2F2"/>
</svg>
