<svg xmlns="http://www.w3.org/2000/svg" viewBox="0 0 320 308"><defs><style>.cls-1,.cls-2{fill:#f2f2f2;}.cls-2{opacity:0.5;}</style></defs><title>icons</title><g id="calendar"><path class="cls-1" d="M122,109H112c-4.87.8-8.28,3.59-9,10v15h88V118c-1.06-5.56-4.17-8.81-10-9H111"/><path class="cls-2" d="M122,99.41v16.18a3.32,3.32,0,0,0,3.21,3.41h6.58a3.32,3.32,0,0,0,3.21-3.41V99.41A3.32,3.32,0,0,0,131.79,96h-6.58A3.32,3.32,0,0,0,122,99.41Z"/><path class="cls-2" d="M159,99.41v16.18a3.32,3.32,0,0,0,3.21,3.41h6.58a3.32,3.32,0,0,0,3.21-3.41V99.41A3.32,3.32,0,0,0,168.79,96h-6.58A3.32,3.32,0,0,0,159,99.41Z"/><path class="cls-2" d="M103,133.89l.71,48.18a13.59,13.59,0,0,0,4.71,10.38l1.75,1.41A9.33,9.33,0,0,0,116,196h60.89a9.65,9.65,0,0,0,7.07-3.27l3.51-3.81a14,14,0,0,0,3.5-9.48V132.75c0-7.1-4.81-12.83-10.69-12.75l-66.86.92C107.58,121,102.9,126.82,103,133.89Z"/></g></svg>