<svg width="30" height="25" viewBox="0 0 30 25" fill="none" xmlns="http://www.w3.org/2000/svg">
<path opacity="0.25" d="M6.96927 20.653L24.3885 0.482694C25.0486 -0.185011 25.7667 -0.136324 26.5277 0.482694L28.6669 2.91704C29.2781 3.61256 28.9725 4.65585 28.3613 5.35138L11.0949 25L6.96927 20.653Z" fill="#F2F2F2"/>
<path d="M10.7892 15.6104L15.0676 20.4791L12.0116 24.3045C11.8739 24.4699 11.7081 24.6016 11.5242 24.6917C11.3403 24.7817 11.1422 24.8282 10.942 24.8282C10.7418 24.8282 10.5437 24.7817 10.3598 24.6917C10.1759 24.6016 10.01 24.4699 9.87238 24.3045C9.84793 24.3288 0.417096 13.2073 0.39876 13.176C0.173271 12.9329 0.0333733 12.6045 0.0052484 12.2525C-0.0228765 11.9004 0.0626994 11.5488 0.24596 11.2633C0.716585 10.6687 2.23236 8.65511 2.84356 8.30735C3.45477 7.95958 4.37157 8.30735 4.67717 8.65511L10.7892 15.6104Z" fill="#F2F2F2"/>
</svg>
