<svg xmlns="http://www.w3.org/2000/svg" viewBox="0 0 320 308"><defs><style>.cls-1,.cls-2{fill:#f2f2f2;}.cls-2{opacity:0.5;}</style></defs><title>icons</title><g id="menu_down" data-name="menu down"><path class="cls-1" d="M147.32,145h27.84a.82.82,0,0,1,.83.83c-.06,5.31-.4,34.37-.48,41.24a.82.82,0,0,1-1.35.62C167.94,182.4,146,153,146,153c-1.53-3-1.61-5.66.76-7.79A.81.81,0,0,1,147.32,145Z"/><path class="cls-2" d="M202.58,145H174.74a.82.82,0,0,0-.83.83c.06,5.31.4,34.37.47,41.24a.83.83,0,0,0,1.36.62C182,182.4,203.9,153,203.9,153c1.53-3,1.61-5.66-.76-7.79A.83.83,0,0,0,202.58,145Z"/></g></svg>