<svg width="24" height="24" viewBox="0 0 24 24" fill="none" xmlns="http://www.w3.org/2000/svg">
<path d="M0.964079 8.50481e-05H12.0839C12.1276 -0.000666052 12.1709 0.0108324 12.2114 0.0339099C12.2518 0.0569875 12.2886 0.0911786 12.3195 0.134462C12.3504 0.177746 12.3748 0.229249 12.3912 0.285944C12.4077 0.34264 12.4159 0.403382 12.4154 0.46459C12.3914 3.4363 12.2556 19.6995 12.2237 23.5443C12.2232 23.6315 12.2051 23.7168 12.1713 23.7901C12.1375 23.8634 12.0894 23.9217 12.0328 23.9581C11.9762 23.9945 11.9134 24.0076 11.8517 23.9958C11.79 23.9839 11.732 23.9477 11.6845 23.8913C9.20008 20.9307 0.436844 4.47723 0.436844 4.47723C-0.174265 2.7983 -0.206221 1.30965 0.7404 0.117614C0.801528 0.0398935 0.881551 -0.00215409 0.964079 8.50481e-05V8.50481e-05Z" fill="#F2F2F2"/>
<path opacity="0.5" d="M23.0359 0.000126113H11.9161C11.8724 -0.00062499 11.829 0.0108735 11.7886 0.0339511C11.7481 0.0570288 11.7114 0.0912201 11.6805 0.134504C11.6496 0.177788 11.6252 0.229291 11.6087 0.285986C11.5922 0.342682 11.584 0.403425 11.5846 0.464633C11.6085 3.43635 11.7443 19.6997 11.7723 23.5444C11.7737 23.6317 11.7926 23.7167 11.8269 23.7897C11.8612 23.8626 11.9095 23.9205 11.9662 23.9567C12.0229 23.9929 12.0858 24.006 12.1476 23.9945C12.2093 23.9829 12.2675 23.9472 12.3155 23.8914C14.8159 20.9309 23.5631 4.47729 23.5631 4.47729C24.1742 2.79836 24.2062 1.3097 23.2595 0.117655C23.198 0.0408953 23.1183 -0.0010061 23.0359 0.000126113V0.000126113Z" fill="#F2F2F2"/>
</svg>
