<svg xmlns="http://www.w3.org/2000/svg" viewBox="0 0 320 308"><defs><style>.cls-1,.cls-2{fill:#f2f2f2;}.cls-2{opacity:0.5;}</style></defs><title>icons</title><g id="edit"><path class="cls-1" d="M133.1,176.15l2-17a1.07,1.07,0,0,1,1.83-.63L151.08,173a1.22,1.22,0,0,1-.73,2.07l-16.41,2A.76.76,0,0,1,133.1,176.15Z"/><path class="cls-1" d="M135.81,157.82l34.35-35a1.28,1.28,0,0,1,1.78,0l15.31,14.75a1.09,1.09,0,0,1,0,1.55L152,174.28a1.27,1.27,0,0,1-1.8,0l-14.35-14.93A1.09,1.09,0,0,1,135.81,157.82Z"/><path class="cls-1" d="M175,118l16,16,8-8c.92-3.39.63-6.09-1-8l-7-7c-2.55-2.64-5.1-3.16-8-2l-8,9"/><path class="cls-2" d="M156,127c4.15-3.9,10.5-9,7-10H115c-4.32.59-6.82,2.78-7,7v3Z"/><path class="cls-2" d="M108,126.56V187c.25,3.35,2.62,4.18,5,5h4l.78-65Z"/><path class="cls-2" d="M117.12,182l64.38-.08c.22,4.63-1,8.06-5,10.08H117Z"/><path class="cls-2" d="M171,162l7.7-7h0c1.79-.25,3,.22,3.3,2v25H171V162"/></g></svg>