<svg width="24" height="24" viewBox="0 0 24 24" fill="none" xmlns="http://www.w3.org/2000/svg">
<g clip-path="url(#clip0)">
<path d="M6.58229 19.4489L7.10678 14.5675C7.11258 14.5096 7.1333 14.4547 7.16651 14.4092C7.19972 14.3637 7.24407 14.3295 7.29437 14.3105C7.34467 14.2915 7.39886 14.2886 7.45061 14.3021C7.50237 14.3156 7.54956 14.3449 7.58668 14.3866L11.2974 18.5444C11.3397 18.5911 11.369 18.65 11.3821 18.7141C11.3953 18.7783 11.3916 18.8452 11.3717 18.9072C11.3517 18.9692 11.3162 19.0238 11.2692 19.0647C11.2222 19.1057 11.1657 19.1313 11.106 19.1388L6.80258 19.713C6.77078 19.7176 6.73845 19.7137 6.70833 19.7016C6.67821 19.6896 6.65119 19.6697 6.62957 19.6438C6.60795 19.6179 6.59236 19.5866 6.58413 19.5527C6.5759 19.5187 6.57527 19.4831 6.58229 19.4489V19.4489Z" fill="white"/>
<path d="M7.29312 14.1857L16.3012 4.13586C16.3638 4.06954 16.4475 4.03247 16.5346 4.03247C16.6217 4.03247 16.7054 4.06954 16.768 4.13586L20.783 8.37113C20.8099 8.40023 20.8312 8.43489 20.8458 8.47309C20.8603 8.51128 20.8678 8.55226 20.8678 8.59366C20.8678 8.63505 20.8603 8.67603 20.8458 8.71423C20.8312 8.75243 20.8099 8.78708 20.783 8.81619L11.5389 18.9119C11.5079 18.946 11.4711 18.973 11.4306 18.9914C11.3901 19.0098 11.3467 19.0193 11.3028 19.0193C11.259 19.0193 11.2156 19.0098 11.1751 18.9914C11.1346 18.973 11.0978 18.946 11.0668 18.9119L7.30361 14.625C7.2495 14.5679 7.21806 14.4899 7.2161 14.4077C7.21414 14.3255 7.24181 14.2457 7.29312 14.1857V14.1857Z" fill="white"/>
<path d="M17.5704 2.75185L21.7664 7.34604L23.8643 5.04894C24.1056 4.07555 24.0296 3.30028 23.6021 2.75185L21.7664 0.741886C21.0976 -0.0161555 20.4289 -0.165467 19.6684 0.167612L17.5704 2.75185Z" fill="white"/>
<path opacity="0.5" d="M12.5877 5.33608C13.676 4.21626 15.3413 2.75187 14.4234 2.46474H1.83571C0.702814 2.63415 0.0472039 3.26297 0 4.47468V5.33608H12.5877Z" fill="white"/>
<path opacity="0.5" d="M0 5.20976V22.5643C0.065561 23.5262 0.68708 23.7646 1.31122 24H2.3602L2.56475 5.3361L0 5.20976Z" fill="white"/>
<path opacity="0.5" d="M2.39164 21.1286L19.2749 21.1057C19.3326 22.4351 19.0127 23.42 17.9637 24H2.36017L2.39164 21.1286Z" fill="white"/>
<path opacity="0.5" d="M16.5213 15.3859L18.5406 13.3759C19.01 13.3041 19.3273 13.4391 19.406 13.9502V21.1287H16.5213V15.3859Z" fill="white"/>
</g>
<defs>
<clipPath id="clip0">
<rect width="24" height="24" fill="white"/>
</clipPath>
</defs>
</svg>
