<svg width="116" height="33" viewBox="0 0 116 33" fill="none" xmlns="http://www.w3.org/2000/svg">
<g opacity="0.99">
<path opacity="0.99" d="M7.24001 30.32L7.48 30.7C7.7121 31.0247 7.99989 31.3057 8.33 31.53V31.82C8.33 32.01 8.22 32.11 7.98 32.11C7.74 32.11 7.23 31.7 6.67 30.87C6.54054 30.8869 6.40945 30.8869 6.28 30.87H5.55C4.6497 30.8014 3.77561 30.5351 2.99001 30.09C2.65059 29.6689 2.27589 29.2775 1.87 28.92V28.58C1.87 28.3533 2.28001 28.2233 3.10001 28.19C4.06924 28.2419 5.00756 28.5489 5.82001 29.08H5.87C5.60484 28.427 5.3778 27.7593 5.19 27.08C5.00945 26.369 4.87253 25.6477 4.78 24.92H4.49001C4.07033 24.8687 3.66547 24.7326 3.3 24.52C2.64335 24.2748 2.05638 23.8732 1.59 23.35C1.25307 22.797 1.0098 22.1922 0.869995 21.56C0.969995 21.31 1.11 21.18 1.31 21.18C2.35328 21.3403 3.3062 21.8645 4 22.66C4.20657 22.8074 4.38877 22.9862 4.53999 23.19C4.40999 22.25 4.33 21.5 4.31 20.93C4.31 20.93 4.24 20.73 4.22 20.32C4.2 19.91 4.16999 19.43 4.14999 18.8C3.57999 18.6731 3.0447 18.4229 2.58171 18.067C2.11872 17.7111 1.73926 17.2582 1.47 16.74C1.19588 16.191 1.00383 15.6048 0.899994 15V14.78C0.899994 14.48 1.03 14.34 1.3 14.34C1.84054 14.5293 2.34453 14.81 2.78999 15.17C3.32331 15.5345 3.72072 16.0655 3.92 16.68C4 16.78 4.06 16.87 4.12 16.96V15.56C4.13642 14.2904 4.29067 13.0263 4.58 11.79C4.32881 11.603 4.10933 11.3767 3.92999 11.12C3.50835 10.7661 3.19905 10.297 3.03999 9.77C2.78112 9.13306 2.63235 8.45677 2.60001 7.77V7.77C2.60001 6.91 2.76001 6.48 3.10001 6.48H3.2L4.2 7.54C4.57315 8.074 4.87251 8.65592 5.09 9.27C5.09 9.27 5.08999 9.27 5.14999 9.37C5.31999 8.76 5.56999 7.99 5.89999 7.05L6.35001 6.22C6.41329 6.07175 6.4868 5.92807 6.57001 5.79C6.56512 5.76356 6.56512 5.73644 6.57001 5.71L6.63 5.43C6.4 5.43 6.28999 4.83 6.28999 3.64H6.23L6.28999 3.52V3.14C6.42308 2.31361 6.83617 1.55808 7.46001 1C7.5266 0.960566 7.6026 0.93984 7.67999 0.940003C8.07999 0.940003 8.37 1.4 8.53 2.33V3.84H8.63C8.63 3.68 9.38 3.5 10.86 3.28C11.12 3.28 11.26 3.46 11.26 3.68V4.34C11.26 5.13 10.26 5.67 8.25999 5.96C7.94999 5.96 7.65001 6.01 7.35001 6.01C7.17001 6.31 6.95001 6.65 6.71001 7.01C6.39477 7.74418 6.1308 8.49932 5.92 9.27C6.47105 8.59781 7.25798 8.16142 8.12 8.05C8.43966 7.92445 8.77715 7.8502 9.12 7.83C9.41 7.83 9.56 7.96 9.56 8.23V8.89C9.56 9.43 9.13 10.01 8.28 10.62C7.79475 10.7947 7.32893 11.0192 6.89 11.29C6.38315 11.4442 5.86485 11.5579 5.34 11.63C5.25 11.98 5.15 12.37 5.03 12.81C4.88875 13.683 4.81519 14.5656 4.81 15.45V16.58C5.59 15.5 6.31 14.97 6.98 14.97C7.30051 14.8292 7.65115 14.7708 8 14.8C8.37 14.8 8.56 14.93 8.56 15.19V15.47C8.29299 16.4453 7.75154 17.3235 7 18C6.34094 18.3823 5.62006 18.6463 4.87 18.78V18.78C4.87 19.31 4.94 20 5 20.85C5.10088 21.1496 5.15156 21.4639 5.14999 21.78C5.14999 22.02 5.21 22.38 5.27 22.87C5.53097 22.4974 5.84035 22.1611 6.19 21.87C6.75054 21.585 7.35611 21.3989 7.98 21.32C8.24 21.32 8.37 21.5 8.37 21.71C8.06103 22.724 7.50426 23.6451 6.75 24.39C6.38412 24.6221 5.98186 24.7911 5.56 24.89C5.64 25.4 5.72001 25.95 5.82001 26.56C5.95618 27.0914 6.11972 27.6155 6.31 28.13L6.53999 28.77L6.63 29.02C7.01925 27.8273 7.64506 26.7253 8.47 25.78C8.7569 25.576 9.05762 25.3923 9.37 25.23C9.63 25.23 9.75999 25.37 9.75999 25.67C9.75999 27.55 9.25 28.85 8.31 29.56C7.97494 29.8425 7.61706 30.0967 7.24001 30.32V30.32ZM1.62 15.24V15.29C1.81122 16.1419 2.30067 16.8973 3 17.42C3 17.55 3.27 17.75 3.77 18.03H3.89C3.67078 17.5048 3.40647 16.9996 3.10001 16.52C2.77456 15.9309 2.24983 15.4771 1.62 15.24V15.24ZM1.71001 22.05V22.11C1.82464 22.4842 2.01283 22.8317 2.26353 23.1322C2.51424 23.4327 2.82241 23.6802 3.17 23.86C3.4038 24.0013 3.64781 24.125 3.89999 24.23L4.42999 24.33V24.27C4.37999 24.27 4.21999 24.02 3.92999 23.5C3.46905 23.1693 3.02516 22.8156 2.60001 22.44C2.31596 22.2829 2.01803 22.1524 1.71001 22.05V22.05ZM2.92 28.9V29C3.22369 29.3927 3.61538 29.7086 4.06351 29.9223C4.51164 30.1359 5.00368 30.2413 5.5 30.23C5.5 30.23 5.61001 30.23 5.82001 30.23H5.94C5.61269 29.7397 5.11893 29.3845 4.55 29.23C4.02281 29.0515 3.4751 28.9406 2.92 28.9V28.9ZM3.25999 7.55V7.77C3.27957 8.3629 3.41193 8.94664 3.64999 9.49C3.84795 10.0261 4.19489 10.4944 4.64999 10.84V10.11C4.48108 9.16719 4.03956 8.29456 3.38 7.6L3.25999 7.55ZM5 18.09C5.76288 17.9409 6.46126 17.5603 7 17C7.41776 16.543 7.75579 16.019 8 15.45H7.94C7.23454 15.5249 6.57018 15.8186 6.03999 16.29C5.54658 16.7923 5.18875 17.4117 5 18.09V18.09ZM5.47 24.22C5.87 24.22 6.47 23.75 7.14 22.82C7.27287 22.6106 7.38666 22.3897 7.48 22.16H7.42C6.88 22.16 6.33 22.59 5.75 23.44L5.47 24.22ZM5.57001 10.94H5.69C6.58141 10.7651 7.43252 10.426 8.2 9.94C8.51165 9.70666 8.76212 9.40128 8.92999 9.05V8.66H8.87C8.23232 8.71341 7.61759 8.92289 7.08 9.27C6.46583 9.72443 5.94327 10.2911 5.53999 10.94H5.57001ZM7.35001 4.65C7.38695 4.58498 7.44273 4.53268 7.50999 4.5L7.67 4.37C7.80662 4.19157 7.8836 3.97464 7.89 3.75V2.36C7.84 1.99 7.77 1.8 7.67 1.8C7.34461 2.17025 7.11159 2.61232 6.99001 3.09V3.47C6.99001 3.47 6.99 3.53 6.94 3.53C6.96806 3.58624 6.98504 3.64735 6.99001 3.71C6.99001 4.52 7.05 4.92 7.16 4.92C7.27 4.92 7.19001 4.77 7.32001 4.65H7.35001ZM7.28999 29.46C8.28999 28.59 8.78 27.99 8.81 27.67C8.99011 27.2075 9.08498 26.7163 9.09 26.22C8.17914 27.1 7.5434 28.2256 7.25999 29.46H7.28999ZM7.77 5.3V5.38C8.70373 5.36268 9.61822 5.11171 10.43 4.65C10.5557 4.53593 10.6341 4.37898 10.65 4.21V4C9.64131 4.04005 8.67869 4.43288 7.92999 5.11L7.77 5.3Z" fill="#BACDB0"/>
<path opacity="0.99" d="M25.43 18.88C25.7144 18.8777 25.9976 18.9181 26.27 19C26.5125 19.0656 26.7498 19.1492 26.98 19.25C27.236 19.3676 27.4644 19.538 27.65 19.75C27.7132 19.8546 27.7834 19.9548 27.86 20.05C27.9266 20.1581 27.9835 20.2718 28.03 20.39C28.0808 20.5321 28.1144 20.6798 28.13 20.83C28.13 20.93 28.13 21.26 28.13 21.83C28.1466 22.4988 28.1065 23.1679 28.01 23.83C27.9194 24.7053 27.7178 25.5656 27.41 26.39C27.1629 27.0216 26.8261 27.6144 26.41 28.15C26.1051 28.5529 25.7247 28.8925 25.29 29.15C24.9553 29.3517 24.5792 29.4748 24.19 29.51C23.882 29.5238 23.5739 29.4832 23.28 29.39C22.8923 29.2697 22.5298 29.0799 22.21 28.83C21.808 28.5122 21.4689 28.1222 21.21 27.68C20.8606 27.0847 20.6011 26.4411 20.44 25.77C20.2228 24.8522 20.1088 23.913 20.1 22.97C20.0818 21.6743 20.1755 20.3795 20.38 19.1C20.5166 18.1114 20.717 17.1327 20.98 16.17C21.189 15.4098 21.4496 14.6647 21.76 13.94C21.9996 13.3744 22.2909 12.8321 22.63 12.32C22.895 11.9229 23.1963 11.5513 23.53 11.21C24.1359 10.5771 24.9274 10.1534 25.79 9.99997C26.0464 9.95622 26.31 9.99841 26.54 10.12C26.7553 10.2554 26.9312 10.4451 27.05 10.67C27.2331 11.0494 27.3158 11.4695 27.29 11.89C27.3104 12.2623 27.2801 12.6357 27.2 13C27.1445 13.272 27.0502 13.5347 26.92 13.78C26.8779 13.884 26.804 13.972 26.7087 14.0313C26.6135 14.0906 26.5019 14.1181 26.39 14.11C26.2528 14.1065 26.1187 14.0687 26 14C25.9498 13.9782 25.9045 13.9467 25.8668 13.9072C25.829 13.8677 25.7995 13.821 25.78 13.77C25.7574 13.6879 25.7519 13.602 25.764 13.5177C25.776 13.4334 25.8053 13.3525 25.85 13.28L26.08 12.6C26.1657 12.3425 26.2293 12.0782 26.27 11.81C26.3158 11.5856 26.3158 11.3543 26.27 11.13C26.2485 11.0415 26.2006 10.9617 26.1328 10.901C26.0649 10.8403 25.9803 10.8016 25.89 10.79C25.6265 10.8051 25.3699 10.8804 25.14 11.01C24.6303 11.3055 24.2037 11.7252 23.9 12.23C23.3372 13.1209 22.9124 14.0919 22.64 15.11C22.1815 16.8049 21.9132 18.5456 21.84 20.3C21.78 21.38 21.77 22.3 21.84 23.12C21.8595 23.8175 21.9297 24.5126 22.05 25.2C22.1344 25.6977 22.265 26.1865 22.44 26.66C22.5617 26.9902 22.7264 27.3029 22.93 27.59C23.0805 27.8393 23.2912 28.0469 23.5428 28.1936C23.7944 28.3404 24.0788 28.4217 24.37 28.43C24.6209 28.4048 24.8649 28.3337 25.09 28.22C25.182 28.1605 25.269 28.0936 25.35 28.02C25.5153 27.8687 25.6569 27.6934 25.77 27.5C25.9535 27.1827 26.1042 26.8477 26.22 26.5C26.387 26.0103 26.501 25.504 26.56 24.99C26.64 24.31 26.72 23.65 26.79 22.99C26.8538 22.4389 26.8872 21.8847 26.89 21.33C26.9015 20.9345 26.8509 20.5397 26.74 20.16C26.7103 20.0312 26.6432 19.914 26.5471 19.8233C26.451 19.7325 26.3303 19.6722 26.2 19.65C25.92 19.65 25.63 19.58 25.32 19.56H24.43H23.43C23.3471 19.5716 23.2629 19.5716 23.18 19.56C23.1517 19.5553 23.1248 19.5449 23.1007 19.5294C23.0766 19.514 23.056 19.4937 23.04 19.47C23.04 19.33 23.12 19.2 23.28 19.08L23.67 18.96C23.8574 18.9156 24.048 18.8855 24.24 18.87H25.47L25.43 18.88Z" fill="#475B63"/>
<path opacity="0.99" d="M35.3001 19.63C35.4801 19.63 35.5501 19.8 35.5101 20.14C35.4701 20.32 35.4301 20.52 35.3901 20.74C35.3901 20.92 35.3101 21.13 35.2601 21.37C35.2011 21.6349 35.1243 21.8955 35.0301 22.15C34.9501 22.43 34.8701 22.72 34.7901 23.02C34.7101 23.32 34.6101 23.62 34.4901 23.92C34.3701 24.26 34.2401 24.5933 34.1001 24.92C33.9795 25.2053 33.8286 25.4769 33.6501 25.73C33.4949 25.9267 33.3208 26.1076 33.1301 26.27C33.0425 26.3474 32.9384 26.4038 32.8258 26.435C32.7132 26.4661 32.595 26.4713 32.4801 26.45C32.2402 26.4011 32.0146 26.2986 31.8201 26.15C31.5709 25.9557 31.3663 25.7101 31.2201 25.43C31.0208 25.0523 30.876 24.6483 30.7901 24.23C30.6699 23.6681 30.6129 23.0946 30.6201 22.52C30.6262 22.1089 30.6529 21.6984 30.7001 21.29C30.7501 20.81 30.8101 20.29 30.8901 19.83C30.9701 19.37 31.0701 18.83 31.1801 18.39C31.2712 17.9775 31.395 17.5729 31.5501 17.18C31.5734 17.1017 31.5734 17.0183 31.5501 16.94C31.5501 16.86 31.5501 16.8 31.5501 16.76C31.5424 16.7103 31.5424 16.6597 31.5501 16.61L31.4301 16.47C31.3871 16.4191 31.3365 16.3753 31.2801 16.34C31.1991 16.2702 31.108 16.2129 31.0101 16.17L30.8301 16.1H30.6801C30.6401 16.5 30.5901 16.87 30.5301 17.21C30.4701 17.55 30.4101 17.86 30.3501 18.14C30.2701 18.46 30.2001 18.75 30.1401 19.01C30.0519 19.4876 29.9316 19.9586 29.7801 20.42C29.7105 20.6068 29.6504 20.7971 29.6001 20.99C29.4801 21.33 29.3301 21.45 29.1501 21.35C29.0901 21.35 29.0601 21.26 29.0601 21.15C29.0639 21.0147 29.084 20.8804 29.1201 20.75C29.1493 20.5678 29.1894 20.3875 29.2401 20.21C29.2801 20.03 29.3301 19.82 29.3901 19.58C29.4501 19.34 29.5101 19.06 29.5701 18.74L29.7501 17.66C29.7501 17.36 29.8401 17.03 29.8901 16.66C29.9373 16.3288 29.9607 15.9946 29.9601 15.66C29.9281 15.4915 29.9281 15.3185 29.9601 15.15C30.0013 15.0294 30.0697 14.9199 30.1601 14.83C30.2253 14.7819 30.3013 14.7504 30.3814 14.7382C30.4616 14.726 30.5435 14.7335 30.6201 14.76C30.9154 14.826 31.1988 14.9373 31.4601 15.09C31.7171 15.257 31.9552 15.4515 32.1701 15.67C32.44 15.9579 32.6476 16.2983 32.7801 16.67L32.9001 17.15C32.9649 17.3979 32.9919 17.6541 32.9801 17.91C32.958 18.2409 32.8696 18.564 32.7201 18.86C32.4505 19.5314 32.2495 20.2282 32.1201 20.94C31.9871 21.6392 31.9135 22.3484 31.9001 23.06C31.881 23.624 31.9313 24.1883 32.0501 24.74C32.1601 25.2 32.3301 25.46 32.5701 25.52C32.8101 25.58 32.9501 25.41 33.1601 25.07C33.3888 24.6881 33.5829 24.2865 33.7401 23.87C33.9839 23.2824 34.1942 22.6814 34.3701 22.07C34.4701 21.79 34.5601 21.52 34.6301 21.27C34.7001 21.02 34.7501 20.82 34.7901 20.66C34.8301 20.5 34.9001 20.28 34.9401 20.12C34.9725 19.9853 35.0195 19.8546 35.0801 19.73C35.1601 19.65 35.2201 19.61 35.3001 19.63Z" fill="#475B63"/>
<path opacity="0.99" d="M40.0001 17C40.0699 16.9275 40.1509 16.8668 40.24 16.82C40.2625 16.8058 40.2885 16.7982 40.3151 16.7982C40.3416 16.7982 40.3676 16.8058 40.3901 16.82C40.3901 16.82 40.4401 16.96 40.3901 17.12C40.3901 17.44 40.0501 17.72 39.4801 17.97C38.7751 18.2355 38.0112 18.3047 37.27 18.17C37.4653 18.7329 37.6256 19.3074 37.7501 19.89C37.9089 20.5847 37.9595 21.2998 37.9001 22.01C37.851 22.5462 37.7608 23.0777 37.6301 23.6C37.5381 23.9515 37.3967 24.2882 37.21 24.6C37.1546 24.7294 37.0541 24.8341 36.9272 24.8949C36.8002 24.9556 36.6555 24.9681 36.5201 24.93C36.2546 24.8754 36.007 24.7551 35.8001 24.58C35.6136 24.4254 35.4518 24.2433 35.3201 24.04C35.2065 23.8611 35.1222 23.6654 35.0701 23.46C35.0201 23.26 34.9801 23.1 34.9601 22.98C34.9401 22.86 34.9601 22.56 34.8901 22.09C34.8553 21.5506 34.8553 21.0095 34.8901 20.47C34.9344 19.831 35.0246 19.196 35.1601 18.57C35.2864 17.9447 35.5199 17.3459 35.8501 16.8C35.9344 16.7573 36.0147 16.7071 36.0901 16.65C36.302 16.5378 36.5407 16.4859 36.7801 16.5C36.8809 16.4981 36.9795 16.5294 37.0608 16.589C37.1421 16.6486 37.2016 16.7333 37.2301 16.83C37.256 16.9396 37.25 17.0544 37.2128 17.1607C37.1756 17.267 37.1087 17.3605 37.02 17.43L37.6501 17.5C37.8994 17.5253 38.1507 17.5253 38.4001 17.5C38.6726 17.476 38.9413 17.4189 39.2001 17.33C39.4851 17.2712 39.7564 17.1592 40.0001 17V17ZM37.1201 22.1C37.1362 21.8136 37.1362 21.5264 37.1201 21.24C37.1095 20.9052 37.0794 20.5713 37.0301 20.24C36.9801 19.9 36.9201 19.59 36.8601 19.31C36.823 19.1038 36.7626 18.9025 36.68 18.71C36.6 19.13 36.5201 19.56 36.4401 20C36.3801 20.38 36.3201 20.78 36.2501 21.21C36.1828 21.604 36.136 22.0012 36.1101 22.4C36.0436 22.9042 36.0915 23.4168 36.2501 23.9C36.3801 24.16 36.5001 24.27 36.6201 24.23C36.7401 24.19 36.8201 23.94 36.9101 23.49C37.0092 23.0379 37.0827 22.5805 37.1301 22.12L37.1201 22.1Z" fill="#475B63"/>
<path opacity="0.99" d="M45.2 17.35C45.3168 17.4221 45.4454 17.4729 45.58 17.5C45.7582 17.5555 45.9433 17.5858 46.13 17.59C46.4654 17.5925 46.8003 17.5623 47.13 17.5C47.5277 17.3912 47.892 17.185 48.19 16.9C48.2735 16.8308 48.364 16.7705 48.46 16.72C48.62 16.64 48.67 16.75 48.61 17.05C48.536 17.2849 48.4065 17.4984 48.2324 17.6725C48.0584 17.8466 47.8448 17.9761 47.61 18.05C46.9466 18.3318 46.21 18.3914 45.51 18.22C45.5544 18.4074 45.5845 18.598 45.6 18.79C45.6 19.01 45.63 19.27 45.69 19.57C45.69 19.97 45.69 20.46 45.74 21.04C45.79 21.62 45.74 22.23 45.74 22.88C45.74 23.53 45.68 24.19 45.62 24.88C45.5695 25.4841 45.486 26.085 45.37 26.68C45.2952 27.1322 45.1712 27.5748 45 28C44.899 28.2946 44.6874 28.5385 44.41 28.68C44.2478 28.7284 44.0755 28.7316 43.9116 28.6894C43.7477 28.6471 43.5985 28.5608 43.48 28.44C43.131 28.0821 42.8648 27.652 42.7 27.18C42.3719 26.2512 42.1701 25.2825 42.1 24.3C41.94 24.9667 41.77 25.5467 41.59 26.04C41.4461 26.4457 41.2723 26.8401 41.07 27.22C40.88 27.57 40.68 27.73 40.48 27.69C40.2428 27.6446 40.0171 27.5522 39.8161 27.4183C39.6152 27.2843 39.4431 27.1115 39.31 26.91C38.9364 26.3082 38.7294 25.618 38.71 24.91C38.6818 24.3504 38.6818 23.7897 38.71 23.23C38.71 22.5633 38.74 21.8233 38.8 21.01C38.85 20.21 38.93 19.39 39.04 18.56C39.1413 17.7696 39.2849 16.9851 39.47 16.21C39.4853 16.1018 39.5264 15.9989 39.59 15.91C39.69 15.73 39.82 15.68 39.98 15.76C40.0741 15.8085 40.1615 15.869 40.24 15.94C40.3402 16.0338 40.4217 16.1458 40.48 16.27C40.5576 16.4342 40.6082 16.6097 40.63 16.79C40.6641 17.0455 40.6641 17.3045 40.63 17.56C40.5736 17.8912 40.5335 18.2249 40.51 18.56C40.51 19.05 40.43 19.56 40.38 20.23C40.33 20.9 40.29 21.5 40.26 22.18C40.23 22.86 40.26 23.49 40.26 24.07C40.26 24.65 40.26 25.14 40.32 25.54C40.38 25.94 40.44 26.18 40.56 26.26C40.68 26.34 40.75 26 40.89 25.54C41.03 25.08 41.17 24.54 41.36 23.68C41.55 22.82 41.79 21.58 42.09 19.96C42.1084 19.8079 42.1385 19.6575 42.18 19.51L42.3 19.15C42.3309 19.0437 42.3937 18.9494 42.48 18.88C42.5647 18.8154 42.6551 18.7585 42.75 18.71C42.8407 18.6634 42.9388 18.633 43.04 18.62C43.111 18.594 43.1889 18.594 43.26 18.62C43.32 18.66 43.34 18.75 43.32 18.89C43.2844 19.1419 43.2644 19.3957 43.26 19.65C43.26 20.0767 43.24 20.5967 43.2 21.21C43.2 21.82 43.2 22.48 43.2 23.21C43.2 23.94 43.27 24.57 43.34 25.21C43.3954 25.7597 43.506 26.3024 43.67 26.83C43.7518 27.1965 43.9698 27.5183 44.28 27.73C44.5109 27.2474 44.6628 26.7308 44.73 26.2C44.8505 25.365 44.9207 24.5235 44.94 23.68C44.98 22.6 44.95 21.17 44.85 19.39C44.8179 18.9614 44.734 18.5383 44.6 18.13C44.4831 17.8557 44.4351 17.5571 44.46 17.26C44.4635 17.2197 44.4786 17.1813 44.5034 17.1493C44.5282 17.1174 44.5618 17.0933 44.6 17.08C44.6719 17.06 44.748 17.06 44.82 17.08C44.9241 17.0941 45.0253 17.1244 45.12 17.17L45.21 17.23L45.2 17.35Z" fill="#475B63"/>
<path opacity="0.99" d="M58.62 19.2C58.7173 19.2542 58.8216 19.2946 58.93 19.32C59.0824 19.3676 59.2405 19.3945 59.4 19.4C59.672 19.3991 59.9432 19.3723 60.21 19.32C60.5425 19.2272 60.8478 19.0557 61.1 18.82C61.1669 18.7611 61.2408 18.7107 61.32 18.67C61.46 18.6 61.5 18.67 61.45 18.95C61.3902 19.1409 61.2867 19.3153 61.1479 19.4593C61.009 19.6034 60.8386 19.7132 60.65 19.78C60.0971 20.0145 59.4832 20.0636 58.9 19.92C58.9375 20.0776 58.9609 20.2383 58.97 20.4C58.97 20.58 58.97 20.8 59.05 21.05C59.13 21.3 59.05 21.79 59.05 22.27C59.05 22.75 59.05 23.27 59.05 23.81C59.05 24.35 59 24.9 58.95 25.45C58.9066 25.9534 58.8365 26.4541 58.74 26.95C58.6665 27.3387 58.5492 27.7178 58.39 28.08C58.3071 28.3265 58.1313 28.531 57.9 28.65C57.7654 28.6867 57.6235 28.6876 57.4884 28.6525C57.3533 28.6174 57.2298 28.5476 57.13 28.45C56.8448 28.1666 56.6232 27.8257 56.48 27.45C56.2049 26.6602 56.0433 25.8353 56 25C55.86 25.53 55.72 26 55.57 26.45C55.4502 26.7945 55.303 27.1289 55.13 27.45C54.98 27.74 54.81 27.87 54.65 27.84C54.4479 27.8052 54.2551 27.7297 54.0831 27.6179C53.9112 27.5062 53.7638 27.3606 53.65 27.19C53.3468 26.691 53.1748 26.1234 53.15 25.54C53.15 25.17 53.15 24.71 53.15 24.14C53.15 23.57 53.15 22.96 53.23 22.29C53.31 21.62 53.34 20.94 53.43 20.29C53.5132 19.6172 53.6334 18.9496 53.79 18.29C53.805 18.2004 53.8391 18.1152 53.89 18.04C53.98 17.89 54.08 17.85 54.22 17.92C54.2959 17.9612 54.3665 18.0116 54.43 18.07C54.5138 18.146 54.5818 18.2377 54.63 18.34C54.6961 18.4783 54.7367 18.6273 54.75 18.78C54.7844 18.992 54.7844 19.2081 54.75 19.42C54.75 19.58 54.69 19.87 54.65 20.28C54.61 20.69 54.58 21.15 54.54 21.67C54.5 22.19 54.46 22.67 54.44 23.29C54.42 23.91 54.44 24.38 54.44 24.87C54.44 25.36 54.44 25.76 54.49 26.09C54.54 26.42 54.59 26.62 54.69 26.69C54.79 26.76 54.85 26.47 54.97 26.09C55.09 25.71 55.2 25.26 55.35 24.54C55.5 23.82 55.72 22.79 55.97 21.44C55.9817 21.3147 56.0051 21.1909 56.04 21.07C56.04 20.97 56.11 20.87 56.14 20.77C56.1706 20.6823 56.222 20.6033 56.29 20.54C56.3616 20.4854 56.4386 20.4385 56.52 20.4C56.5924 20.3645 56.6701 20.3408 56.75 20.33C56.78 20.3171 56.8124 20.3104 56.845 20.3104C56.8777 20.3104 56.91 20.3171 56.94 20.33C56.99 20.33 57.01 20.43 56.99 20.55C56.97 20.67 56.99 20.83 56.94 21.19C56.89 21.55 56.94 21.98 56.89 22.49C56.84 23 56.89 23.49 56.89 24.13C56.89 24.77 56.95 25.26 57 25.78C57.0475 26.2383 57.1413 26.6906 57.28 27.13C57.351 27.4346 57.5328 27.702 57.79 27.88C57.9829 27.4758 58.1111 27.0439 58.17 26.6C58.2684 25.904 58.3252 25.2028 58.34 24.5C58.34 23.6 58.34 22.41 58.27 20.93C58.2348 20.5894 58.161 20.2539 58.05 19.93C57.9597 19.6978 57.9221 19.4485 57.94 19.2C57.9306 19.1644 57.9313 19.1268 57.9419 19.0916C57.9525 19.0563 57.9726 19.0246 58 19C58.0618 18.9801 58.1283 18.9801 58.19 19C58.2782 19.0079 58.3636 19.0352 58.44 19.08L58.52 19.13L58.62 19.2Z" fill="#475B63"/>
<path opacity="0.99" d="M63.62 21.1C63.7667 21.1 63.8267 21.24 63.8 21.52C63.8 21.67 63.8 21.84 63.72 22.02C63.64 22.2 63.65 22.35 63.6 22.55C63.55 22.75 63.4901 22.96 63.4201 23.2C63.3501 23.44 63.26 23.67 63.2 23.92C63.1032 24.1653 63.0198 24.4157 62.95 24.67C62.8618 24.9613 62.7514 25.2455 62.62 25.52C62.5216 25.7594 62.3976 25.9874 62.25 26.2C62.1137 26.3597 61.9667 26.5101 61.81 26.65C61.7362 26.7125 61.6497 26.7583 61.5565 26.7842C61.4632 26.8101 61.3655 26.8155 61.27 26.8C60.94 26.73 60.6501 26.42 60.4201 25.87C60.1736 25.2327 60.0547 24.5532 60.07 23.87C60.07 23.6 60.07 23.28 60.07 22.87C60.07 22.46 60.0701 22.1 60.1401 21.69C60.2101 21.28 60.22 20.86 60.28 20.46C60.34 20.06 60.4 19.7 60.48 19.37C60.5328 19.1031 60.6202 18.8443 60.74 18.6C60.84 18.41 60.96 18.31 61.09 18.31L61.19 18.36C61.305 18.4374 61.4008 18.54 61.47 18.66C61.586 18.885 61.6379 19.1375 61.62 19.39C61.5894 19.7491 61.5393 20.1063 61.47 20.46C61.38 20.93 61.31 21.46 61.25 22.09C61.19 22.72 61.1601 23.29 61.1401 23.86C61.1082 24.3462 61.1082 24.8339 61.1401 25.32C61.1401 25.73 61.23 25.96 61.31 26.01C61.39 26.06 61.6 26.01 61.77 25.7C61.9624 25.3817 62.1264 25.0471 62.26 24.7C62.473 24.1943 62.6566 23.6768 62.81 23.15C62.8939 22.9313 62.9641 22.7075 63.02 22.48C63.08 22.27 63.13 22.1 63.16 21.97L63.29 21.52C63.3144 21.4095 63.3513 21.3021 63.4 21.2C63.5 21.11 63.56 21.08 63.62 21.1ZM61.4 17.92C61.13 17.92 61 17.8 61 17.65C61 17.5 61.19 17.44 61.47 17.47C61.75 17.5 61.87 17.64 61.87 17.77C61.87 17.9 61.68 18 61.4 17.92V17.92Z" fill="#475B63"/>
<path opacity="0.99" d="M71.55 15.22C71.55 15.22 71.5501 15.28 71.4501 15.3C71.3439 15.3371 71.2325 15.3573 71.1201 15.36H70.4001H65.2701C65.1901 15.79 65.1001 16.36 65.0201 16.91C64.9401 17.46 64.8501 18.16 64.7701 18.91C64.6901 19.44 64.6201 19.99 64.5701 20.55C64.5201 21.11 64.4801 21.65 64.4501 22.19C64.4378 22.3765 64.4378 22.5635 64.4501 22.75V23.31C64.43 23.6931 64.43 24.0769 64.4501 24.46C64.468 24.7582 64.5014 25.0552 64.55 25.35C64.5643 25.5753 64.6645 25.7865 64.83 25.94C65.0042 25.7569 65.1432 25.5434 65.2401 25.31C65.3801 25.01 65.5201 24.69 65.6501 24.36C65.7801 24.03 65.94 23.57 66.08 23.14C66.16 22.9 66.24 22.68 66.3 22.47C66.36 22.26 66.4201 22.09 66.4501 21.96L66.58 21.51C66.6044 21.3995 66.6413 21.2921 66.6901 21.19C66.6901 21.1 66.78 21.07 66.83 21.09C66.88 21.11 67.0501 21.23 67.0001 21.51C66.9501 21.79 67.0001 21.83 66.9301 22.01C66.8601 22.19 66.85 22.34 66.8 22.54C66.75 22.74 66.6901 22.95 66.6301 23.19C66.5701 23.43 66.4701 23.66 66.4001 23.91C66.3301 24.16 66.2401 24.38 66.1501 24.66C66.0655 24.9512 65.9585 25.2353 65.83 25.51C65.7511 25.6939 65.6575 25.8711 65.55 26.04C65.4673 26.1733 65.3663 26.2945 65.2501 26.4C65.2023 26.4488 65.1444 26.4866 65.0805 26.5108C65.0166 26.535 64.9482 26.545 64.8801 26.54C64.6191 26.5416 64.3679 26.4411 64.1801 26.26C63.9961 26.0847 63.8498 25.8737 63.7501 25.64C63.625 25.3516 63.5344 25.0496 63.4801 24.74C63.4089 24.4311 63.3654 24.1166 63.3501 23.8C63.3501 23.46 63.3501 23.14 63.3501 22.86V21.86C63.4501 20.43 63.5701 19.17 63.7201 18.09C63.8701 17.01 64.0101 16.09 64.1501 15.41H62.6801H61.5701C61.3536 15.4214 61.1366 15.4214 60.9201 15.41H60.4801C60.3601 15.41 60.3 15.41 60.3 15.34C60.3 15.27 60.4701 15.19 60.8101 15.15C61.362 15.1014 61.9161 15.0814 62.4701 15.09H63.2001H64.2001C64.2001 14.89 64.27 14.71 64.3 14.55C64.3259 14.4215 64.3593 14.2946 64.4001 14.17C64.4001 14.05 64.4601 13.94 64.4801 13.84C64.5387 13.6621 64.6229 13.4936 64.7301 13.34C64.7635 13.2958 64.8055 13.2588 64.8537 13.2313C64.9018 13.2038 64.955 13.1864 65.0101 13.18C65.1201 13.18 65.2401 13.27 65.3801 13.49C65.5201 13.71 65.4401 13.67 65.4801 13.77C65.5357 14 65.5357 14.24 65.4801 14.47C65.4801 14.52 65.4801 14.59 65.4301 14.7C65.3801 14.81 65.43 14.94 65.36 15.09H67.4601H69.4601C70.0601 15.09 70.5501 15.09 70.9401 15.17C71.3301 15.25 71.53 15.17 71.55 15.22Z" fill="#475B63"/>
<path opacity="0.99" d="M67.6201 23.37C67.6901 22.87 67.7801 22.37 67.8801 21.75C67.984 21.1999 68.1175 20.6557 68.2801 20.12C68.4143 19.6866 68.5988 19.2704 68.83 18.88C68.8985 18.7447 69.0008 18.6295 69.127 18.5454C69.2531 18.4613 69.3989 18.4112 69.55 18.4C69.5996 18.3903 69.6505 18.3903 69.7001 18.4H69.8201C69.8839 18.4259 69.9443 18.4595 70.0001 18.5C70.2392 18.7531 70.4022 19.0685 70.4701 19.41C70.5956 20.1447 70.5956 20.8953 70.4701 21.63C70.4701 21.84 70.4701 22.04 70.4701 22.23C70.4701 22.42 70.4701 22.55 70.4201 22.7C70.4123 22.8099 70.4123 22.9201 70.4201 23.03C70.4201 23.76 70.4201 24.41 70.4201 25.03C70.4201 25.65 70.51 25.92 70.61 26.03C70.71 26.14 70.9001 26.03 71.0701 25.72C71.2624 25.4017 71.4264 25.0671 71.5601 24.72C71.7401 24.28 71.93 23.72 72.11 23.17L72.3401 22.5L72.4901 21.99C72.5367 21.8233 72.5767 21.6733 72.61 21.54C72.6344 21.4295 72.6713 21.3221 72.7201 21.22C72.7701 21.13 72.8201 21.1 72.8901 21.12C72.9601 21.14 73.0901 21.26 73.0401 21.54C72.9901 21.82 72.9901 21.86 72.9601 22.04C72.9301 22.22 72.8901 22.37 72.8401 22.57C72.7901 22.77 72.7301 22.98 72.6601 23.22C72.5901 23.46 72.5001 23.69 72.4401 23.94C72.3433 24.1853 72.2598 24.4357 72.1901 24.69C72.0975 24.9798 71.9873 25.2637 71.86 25.54C71.7577 25.7775 71.6339 26.0051 71.4901 26.22C71.3537 26.3797 71.2067 26.5301 71.05 26.67C70.9762 26.7325 70.8897 26.7783 70.7965 26.8042C70.7033 26.8301 70.6056 26.8355 70.5101 26.82C70.1801 26.75 69.8901 26.44 69.6601 25.89C69.4136 25.2527 69.2947 24.5731 69.3101 23.89C69.3101 23.59 69.3101 23.22 69.3101 22.79C69.3101 22.36 69.3601 21.89 69.4001 21.41C69.3919 21.3402 69.3919 21.2698 69.4001 21.2C69.4001 21.11 69.4001 21.01 69.4501 20.91C69.5001 20.81 69.4501 20.67 69.4501 20.54C69.4501 20.41 69.4501 20.39 69.4501 20.29C69.4601 20.1903 69.4601 20.0897 69.4501 19.99C69.4468 19.8971 69.4264 19.8056 69.3901 19.72C69.3797 19.6883 69.3596 19.6607 69.3327 19.641C69.3058 19.6212 69.2734 19.6104 69.2401 19.61C69.1101 19.61 68.96 19.8 68.8 20.22C68.6215 20.7517 68.4713 21.2924 68.3501 21.84C68.2101 22.49 68.1001 23.19 68.0001 23.95C67.951 24.6324 67.951 25.3175 68.0001 26C68.0701 26.22 68.0001 26.37 67.9301 26.45C67.8933 26.4754 67.8497 26.489 67.8051 26.489C67.7604 26.489 67.7168 26.4754 67.6801 26.45C67.5859 26.4024 67.5012 26.338 67.4301 26.26C67.3273 26.162 67.2336 26.0549 67.1501 25.94C66.9342 25.578 66.7915 25.177 66.7301 24.76C66.6432 24.314 66.5831 23.8632 66.55 23.41C66.55 22.89 66.55 22.41 66.55 21.81C66.63 20.54 66.7401 19.41 66.8701 18.4C67.0001 17.39 67.1401 16.54 67.2701 15.84C67.4001 15.14 67.5701 14.29 67.7201 13.66C67.7685 13.4818 67.8463 13.3128 67.9501 13.16C67.9835 13.1158 68.0255 13.0788 68.0737 13.0513C68.1218 13.0238 68.175 13.0064 68.2301 13C68.3401 13 68.4601 13.09 68.6001 13.31C68.6486 13.4064 68.6887 13.5067 68.7201 13.61C68.7546 13.7062 68.7716 13.8078 68.7701 13.91C68.7669 14.0381 68.7501 14.1655 68.7201 14.29C68.7201 14.42 68.6301 14.74 68.5301 15.29C68.4301 15.84 68.3501 16.41 68.2501 17.14C68.1501 17.87 68.0501 18.64 67.9501 19.48C67.8501 20.32 67.7701 21.12 67.7201 21.9C67.7201 22.08 67.7201 22.27 67.7201 22.45C67.7201 22.63 67.7201 22.76 67.7201 22.93C67.6694 23.0722 67.6358 23.2199 67.6201 23.37V23.37Z" fill="#475B63"/>
<path opacity="0.99" d="M85.24 21.85L84.7601 23.38C84.6101 23.78 84.4701 24.18 84.3101 24.58C84.1837 24.9063 84.0228 25.218 83.83 25.51C83.7615 25.6279 83.6811 25.7385 83.5901 25.84C83.507 25.9185 83.4166 25.9889 83.3201 26.05C83.2736 26.0737 83.2222 26.0861 83.1701 26.0861C83.1179 26.0861 83.0665 26.0737 83.02 26.05C82.85 26.05 82.7301 25.94 82.6301 25.72C82.513 25.4806 82.4225 25.2291 82.36 24.97C82.2717 24.6408 82.2016 24.307 82.15 23.97C82.09 23.61 82.0301 23.19 81.9701 22.71C81.9101 22.07 81.86 21.41 81.83 20.71C81.8 20.01 81.7701 19.42 81.7301 18.84C81.6901 18.26 81.6501 17.53 81.6401 16.89C81.5801 17.47 81.5401 18.08 81.5001 18.73C81.4601 19.38 81.43 20.05 81.4 20.73C81.37 21.41 81.3201 21.96 81.3101 22.62C81.3001 23.28 81.3101 23.92 81.3101 24.54C81.3101 25.16 81.3101 25.74 81.3101 26.28C81.3113 26.7312 81.338 27.1819 81.3901 27.63C81.378 27.7129 81.378 27.7971 81.3901 27.88C81.3999 27.9913 81.4305 28.0999 81.4801 28.2C81.4801 28.32 81.5201 28.46 81.6001 28.62C81.6001 28.78 81.6001 28.88 81.6001 28.92C81.6001 28.96 81.3301 28.92 81.1701 28.8C81.0892 28.719 81.0187 28.6283 80.96 28.53C80.8691 28.3808 80.7921 28.2234 80.7301 28.06C80.5738 27.6838 80.4598 27.2914 80.3901 26.89C80.2498 26.2038 80.1563 25.5089 80.11 24.81C80.047 23.751 80.047 22.6891 80.11 21.63C80.18 19.75 80.3201 18 80.5001 16.39C80.6463 14.9384 80.9071 13.5005 81.2801 12.09C81.3142 11.964 81.3646 11.843 81.43 11.73C81.53 11.51 81.6501 11.44 81.8201 11.52C81.8781 11.5475 81.928 11.5896 81.9648 11.6422C82.0016 11.6948 82.0241 11.7561 82.0301 11.82C82.3233 12.6879 82.4257 13.6089 82.33 14.52C82.33 14.76 82.33 15.11 82.33 15.58C82.33 16.05 82.3301 16.58 82.3901 17.16C82.4501 17.74 82.39 18.37 82.46 19.05C82.53 19.73 82.5201 20.4 82.5701 21.05C82.6201 21.7 82.6401 22.22 82.6901 22.76C82.7401 23.3 82.7601 23.68 82.8101 24.15C82.8284 24.5187 82.8685 24.886 82.93 25.25C82.93 25.31 83.0301 25.14 83.1401 24.74C83.2501 24.34 83.3501 23.88 83.4701 23.36L83.9201 21.29L84.1301 20.43C84.1975 20.1106 84.2877 19.7965 84.4 19.49C84.4767 19.1239 84.577 18.7632 84.7001 18.41C84.9101 17.73 85.1301 17.06 85.3401 16.41C85.5501 15.76 85.76 15.12 85.99 14.52C86.22 13.92 86.4201 13.37 86.6301 12.87C86.8401 12.37 87.0201 11.94 87.1901 11.58C87.3601 11.22 87.43 11.12 87.55 10.92C87.6384 10.7644 87.7535 10.6256 87.8901 10.51C87.9435 10.4586 88.0112 10.4244 88.0843 10.412C88.1574 10.3995 88.2326 10.4093 88.3 10.44C88.4095 10.5299 88.495 10.6453 88.5491 10.7762C88.6032 10.907 88.6241 11.0492 88.61 11.19C88.61 11.57 88.61 12.02 88.61 12.54C88.61 12.8 88.5401 13.2 88.4701 13.75C88.4001 14.3 88.3301 14.94 88.2601 15.67C88.1901 16.4 88.1101 17.2 88.0401 18.07C87.9701 18.94 87.89 19.84 87.83 20.76C87.7767 21.4267 87.7467 22.1367 87.74 22.89C87.74 23.63 87.74 24.34 87.74 25.03C87.74 25.72 87.74 26.37 87.74 26.97C87.7412 27.4711 87.7679 27.9717 87.8201 28.47C87.8201 28.53 87.8201 28.62 87.8801 28.74C87.8911 28.864 87.9214 28.9855 87.9701 29.1C87.9701 29.24 88.0501 29.4 88.1001 29.58C88.1501 29.76 88.1001 29.87 88.1001 29.91C88.0644 29.9333 88.0227 29.9456 87.9801 29.9456C87.9375 29.9456 87.8957 29.9333 87.86 29.91C87.7733 29.8717 87.6925 29.8211 87.62 29.76C87.5247 29.6733 87.4437 29.5721 87.3801 29.46C87.2407 29.3176 87.1136 29.1637 87.0001 29C86.8268 28.5774 86.6962 28.1386 86.61 27.69C86.4523 26.9249 86.3488 26.1497 86.3 25.37C86.2224 24.1813 86.2224 22.9888 86.3 21.8C86.36 20.36 86.4501 19 86.5701 17.72C86.3634 18.3867 86.1934 18.9567 86.0601 19.43C85.9267 19.9034 85.7867 20.3634 85.6401 20.81C85.4467 21.2434 85.3134 21.59 85.24 21.85Z" fill="#475B63"/>
<path opacity="0.99" d="M94.78 20.62C94.6782 21.2966 94.5278 21.965 94.33 22.62C94.1452 23.2058 93.9179 23.7773 93.65 24.33C93.3901 24.89 93.031 25.3982 92.59 25.83C92.3183 26.1023 92.0042 26.3285 91.66 26.5C91.3274 26.6706 90.9489 26.7302 90.58 26.67C90.3552 26.636 90.1404 26.5541 89.95 26.43C89.7816 26.3217 89.6383 26.1785 89.53 26.01C89.4104 25.831 89.3099 25.6399 89.23 25.44C89.0941 25.1226 89.013 24.7845 88.99 24.44C88.95 24.06 88.92 23.69 88.9 23.33C88.8704 22.8905 88.8704 22.4495 88.9 22.01C88.9551 21.1946 89.0587 20.3832 89.21 19.58C89.32 18.959 89.4771 18.3472 89.68 17.75C89.7873 17.3939 89.9493 17.0566 90.16 16.75C90.3182 16.5102 90.514 16.2975 90.74 16.12C90.948 15.9696 91.1982 15.8885 91.455 15.8885C91.7117 15.8885 91.9619 15.9696 92.17 16.12C92.3476 16.2415 92.4865 16.4117 92.57 16.61C92.7036 16.9264 92.7716 17.2666 92.77 17.61C92.7983 17.7788 92.7983 17.9512 92.77 18.12L92.62 18.69C92.552 18.9339 92.472 19.1742 92.38 19.41C92.2795 19.671 92.1376 19.9141 91.96 20.13C91.7881 20.3404 91.5974 20.5346 91.39 20.71C91.1434 20.9132 90.8574 21.063 90.55 21.15C90.55 21.51 90.52 21.88 90.46 22.26C90.4081 22.6212 90.378 22.9852 90.37 23.35C90.35 23.7364 90.35 24.1236 90.37 24.51C90.3628 24.692 90.3831 24.874 90.43 25.05C90.4695 25.1871 90.5196 25.3208 90.58 25.45C90.6042 25.5099 90.6408 25.564 90.6873 25.6088C90.7338 25.6536 90.7892 25.6881 90.85 25.71C90.9901 25.7664 91.1412 25.7903 91.2918 25.7799C91.4425 25.7695 91.5889 25.7251 91.72 25.65C92.0104 25.4808 92.2652 25.2566 92.47 24.99C92.6949 24.6723 92.8955 24.338 93.07 23.99C93.3115 23.5076 93.5122 23.0059 93.67 22.49C93.77 22.21 93.85 21.95 93.92 21.71C93.99 21.47 94.05 21.27 94.09 21.11L94.24 20.6C94.2698 20.4659 94.3134 20.3352 94.37 20.21C94.42 20.11 94.49 20.07 94.57 20.09C94.65 20.11 94.82 20.28 94.78 20.62ZM91.63 16.51C91.43 16.51 91.27 16.7 91.15 17.08C91.0155 17.5217 90.9152 17.973 90.85 18.43C90.77 19.01 90.69 19.6767 90.61 20.43C91.0333 20.2008 91.3807 19.8534 91.61 19.43C91.8285 19.0342 91.9805 18.6051 92.06 18.16C92.1231 17.7735 92.1026 17.378 92 17C91.9333 16.6934 91.81 16.53 91.63 16.51Z" fill="#475B63"/>
<path opacity="0.99" d="M96.61 25.9C96.6113 25.9831 96.596 26.0656 96.5648 26.1427C96.5336 26.2197 96.4873 26.2897 96.4285 26.3485C96.3697 26.4072 96.2997 26.4536 96.2227 26.4848C96.1456 26.516 96.0631 26.5313 95.98 26.53C95.9015 26.53 95.8237 26.514 95.7515 26.4831C95.6793 26.4521 95.6142 26.4069 95.56 26.35C95.5008 26.2913 95.4544 26.221 95.4234 26.1436C95.3924 26.0662 95.3777 25.9833 95.38 25.9C95.385 25.7424 95.4498 25.5927 95.5613 25.4813C95.6727 25.3698 95.8225 25.305 95.98 25.3C96.0633 25.2976 96.1462 25.3124 96.2236 25.3434C96.301 25.3743 96.3713 25.4208 96.43 25.48C96.4869 25.5342 96.5322 25.5993 96.5631 25.6715C96.594 25.7437 96.61 25.8214 96.61 25.9V25.9Z" fill="#475B63"/>
<path opacity="0.99" d="M108.16 30C107.22 29.29 106.74 28 106.71 26.11C106.71 25.81 106.84 25.67 107.1 25.67C107.412 25.8323 107.713 26.0161 108 26.22C108.825 27.1653 109.451 28.2673 109.84 29.46L109.93 29.21L110.16 28.57C110.35 28.0555 110.514 27.5314 110.65 27C110.75 26.4 110.83 25.84 110.91 25.33C110.491 25.2329 110.091 25.0637 109.73 24.83C108.97 24.0881 108.409 23.1663 108.1 22.15C108.1 21.94 108.23 21.81 108.5 21.76C109.119 21.8455 109.72 22.0313 110.28 22.31C110.628 22.6062 110.94 22.9418 111.21 23.31C111.26 22.82 111.31 22.46 111.34 22.22C111.334 21.9051 111.378 21.5913 111.47 21.29C111.53 20.44 111.57 19.75 111.6 19.22C110.851 19.0867 110.131 18.8262 109.47 18.45C108.71 17.8023 108.148 16.953 107.85 16V15.72C107.85 15.46 108.04 15.33 108.41 15.33C108.756 15.3197 109.1 15.3953 109.41 15.55C110.08 15.55 110.8 16.08 111.58 17.16V16C111.575 15.1157 111.501 14.233 111.36 13.36C111.24 12.92 111.14 12.53 111.05 12.18C110.524 12.1125 110.006 11.9988 109.5 11.84C109.061 11.5692 108.595 11.3447 108.11 11.17C107.26 10.56 106.83 9.99002 106.83 9.44002V8.78001C106.83 8.52002 106.98 8.38001 107.27 8.38001C107.612 8.40505 107.949 8.47915 108.27 8.60001C109.132 8.71144 109.919 9.14783 110.47 9.82002C110.257 9.04988 109.994 8.29485 109.68 7.56001C109.44 7.18001 109.22 6.84001 109.04 6.56001C108.74 6.56001 108.44 6.56001 108.13 6.56001C106.13 6.27001 105.13 5.73002 105.13 4.94002V4.28001C105.13 4.06001 105.27 3.93001 105.53 3.88001C107.01 4.10001 107.76 4.28002 107.76 4.44002H107.86V2.84001C108.03 1.91001 108.31 1.45001 108.71 1.45001C108.787 1.44985 108.863 1.47058 108.93 1.51002C109.538 2.0475 109.95 2.77236 110.1 3.57002V4.00002L110.16 4.12002H110.1C110.1 5.31002 109.99 5.91002 109.76 5.91002L109.82 6.19002C109.825 6.21982 109.825 6.25021 109.82 6.28001C109.909 6.41126 109.983 6.55216 110.04 6.70001L110.49 7.53001C110.82 8.47001 111.07 9.24001 111.24 9.85001C111.24 9.78001 111.24 9.75002 111.3 9.75002C111.52 9.13683 111.819 8.55518 112.19 8.02001L113.19 6.96002H113.29C113.63 6.96002 113.79 7.39002 113.79 8.25002C113.759 8.93697 113.61 9.61349 113.35 10.25C113.191 10.777 112.882 11.2461 112.46 11.6C112.28 11.8595 112.061 12.0889 111.81 12.28C112.099 13.513 112.253 14.7737 112.27 16.04V17.4L112.47 17.12C112.669 16.5056 113.067 15.9745 113.6 15.61C114.047 15.2475 114.555 14.9666 115.1 14.78C115.36 14.78 115.49 14.93 115.49 15.22V15.44C115.392 16.061 115.204 16.6641 114.93 17.23C114.654 17.737 114.272 18.1783 113.809 18.5235C113.346 18.8687 112.815 19.1098 112.25 19.23C112.25 19.86 112.25 20.37 112.2 20.75C112.15 21.13 112.13 21.37 112.09 21.37C112.09 21.93 111.99 22.68 111.86 23.62C112.011 23.4162 112.193 23.2374 112.4 23.09C113.108 22.3339 114.054 21.8433 115.08 21.7C115.28 21.7 115.42 21.83 115.52 22.08C115.38 22.7123 115.137 23.3171 114.8 23.87C114.334 24.3933 113.747 24.7949 113.09 25.04C112.726 25.2558 112.32 25.3921 111.9 25.44H111.61C111.516 26.1708 111.379 26.8953 111.2 27.61C111.08 28.05 110.86 28.7 110.53 29.55C111.342 29.019 112.281 28.7119 113.25 28.66C114.07 28.66 114.48 28.82 114.48 29.06L114.43 29.39C114.024 29.7475 113.649 30.1389 113.31 30.56C112.526 31.0094 111.651 31.2761 110.75 31.34H110.02C109.894 31.3575 109.766 31.3575 109.64 31.34C109.07 32.17 108.64 32.58 108.32 32.58C108 32.58 107.97 32.48 107.97 32.29L108.02 32C108.348 31.777 108.635 31.4997 108.87 31.18L109.11 30.8C108.775 30.5555 108.458 30.2882 108.16 30V30ZM108.58 5.58002C107.831 4.9029 106.869 4.51007 105.86 4.47002V4.65002C105.876 4.819 105.954 4.97594 106.08 5.09001C106.89 5.55617 107.806 5.80746 108.74 5.82002V5.75002L108.58 5.58002ZM107.38 26.66C107.385 27.1563 107.48 27.6476 107.66 28.11C107.66 28.44 108.2 29.03 109.18 29.9C108.896 28.6842 108.271 27.5743 107.38 26.7V26.66ZM109.38 9.66002C108.842 9.31532 108.227 9.10918 107.59 9.06001H107.53V9.44002C107.699 9.79374 107.953 10.0997 108.27 10.33C109.03 10.8358 109.878 11.1952 110.77 11.39H110.89C110.501 10.7375 109.992 10.1641 109.39 9.70001L109.38 9.66002ZM110.46 16.75C109.927 16.2826 109.264 15.9894 108.56 15.91H108.5C108.727 16.4767 109.048 17.0009 109.45 17.46C109.991 18.013 110.69 18.3865 111.45 18.53H111.51C111.312 17.8731 110.955 17.2754 110.47 16.79L110.46 16.75ZM109.32 5.40002C109.42 5.40002 109.48 5.00002 109.48 4.19002C109.484 4.12591 109.505 4.06398 109.54 4.01002C109.532 4.01194 109.523 4.01171 109.515 4.00938C109.507 4.00704 109.499 4.00267 109.493 3.99667C109.487 3.99066 109.483 3.98323 109.481 3.97507C109.478 3.96691 109.478 3.95828 109.48 3.95001V3.57002C109.358 3.09234 109.125 2.65026 108.8 2.28001C108.71 2.28001 108.63 2.47001 108.58 2.84001V4.23002C108.586 4.45466 108.663 4.67158 108.8 4.85001L109 5.00002C109.067 5.0327 109.123 5.085 109.16 5.15002C109.25 5.25002 109.32 5.35002 109.32 5.40002ZM110.72 23.92C110.15 23.07 109.59 22.65 109.05 22.65H109C109.097 22.8778 109.211 23.0984 109.34 23.31C110.05 24.23 110.61 24.7 111.01 24.7L110.72 23.92ZM111.89 29.72C111.323 29.8785 110.831 30.2328 110.5 30.72V30.72H110.62C110.83 30.72 110.94 30.72 110.94 30.72C111.436 30.7321 111.929 30.6271 112.377 30.4134C112.825 30.1997 113.217 29.8833 113.52 29.49V29.43C112.967 29.4577 112.419 29.5551 111.89 29.72V29.72ZM113.07 8.09001C112.403 8.77673 111.957 9.6475 111.79 10.59V11.32C112.244 10.9771 112.59 10.5124 112.79 9.98002C113.027 9.43288 113.16 8.84602 113.18 8.25002V8.00002L113.07 8.09001ZM113.84 22.92C113.415 23.3024 112.971 23.6629 112.51 24C112.23 24.52 112.06 24.78 112.01 24.78L112.54 24.68C112.791 24.5761 113.035 24.4558 113.27 24.32C113.974 23.9512 114.502 23.3182 114.74 22.56V22.5C114.429 22.6145 114.128 22.755 113.84 22.92V22.92ZM113.37 16.92C113.064 17.3996 112.799 17.9048 112.58 18.43V18.49H112.7C113.2 18.2 113.46 18 113.48 17.87C114.16 17.3409 114.634 16.5911 114.82 15.75V15.69C114.196 15.9407 113.682 16.405 113.37 17V16.92Z" fill="#BACDB0"/>
</g>
</svg>
