<svg width="230" height="64" viewBox="0 0 230 64" fill="none" xmlns="http://www.w3.org/2000/svg">
<g opacity="0.99">
<path opacity="0.99" d="M13.2601 58.87L13.7301 59.63C14.202 60.267 14.7765 60.8212 15.4301 61.27L15.5501 61.86C15.5501 62.25 15.3201 62.44 14.8501 62.44C14.2234 62.44 13.3434 61.61 12.2101 59.95C11.9619 60.0136 11.7063 60.0439 11.4501 60.04H10.0001C8.1998 59.9081 6.45118 59.3787 4.88007 58.49C4.19669 57.6518 3.45125 56.8663 2.65005 56.14L2.53006 55.47C2.53006 55 3.35007 54.74 4.99007 54.68C7.9234 55.1466 9.74006 55.74 10.4401 56.46H10.5301C10.0136 55.1873 9.56297 53.889 9.18005 52.57C8.81991 51.1411 8.54609 49.6918 8.36006 48.23H7.78006C6.94032 48.1355 6.12963 47.8664 5.40005 47.44C4.09187 46.9508 2.9242 46.1472 2.00006 45.1C1.32785 43.9932 0.841408 42.7839 0.560059 41.52C0.760059 41.02 1.05006 40.76 1.44006 40.76C2.90006 40.76 4.68673 41.69 6.80006 43.55C7.20963 43.8254 7.57397 44.1628 7.88007 44.55C7.6446 43.0562 7.49103 41.5506 7.42006 40.04C7.34006 40.04 7.28007 39.63 7.24007 38.81C7.18007 38.05 7.13006 37.03 7.09006 35.81C5.19672 35.5966 3.41006 34.23 1.73006 31.71C1.19254 30.5752 0.818814 29.3698 0.620056 28.13V27.7C0.620056 27.11 0.880065 26.82 1.41006 26.82C2.50072 27.1954 3.51637 27.7607 4.41006 28.49C5.48198 29.2023 6.27639 30.2615 6.66006 31.49C6.80814 31.668 6.94507 31.855 7.07007 32.05V29.34C7.10925 26.8051 7.41424 24.2812 7.98006 21.81C7.48704 21.4247 7.05252 20.97 6.69006 20.46C5.85399 19.7458 5.23691 18.8098 4.91006 17.76C4.39231 16.4861 4.09474 15.1335 4.03006 13.76V13.67C4.03006 11.95 4.36339 11.09 5.03006 11.09H5.24007L7.24007 13.2C7.96876 14.2718 8.56004 15.4309 9.00006 16.65C9.00006 16.65 9.07006 16.72 9.11006 16.86C9.45006 15.64 9.94006 14.1 10.6101 12.23L11.5201 10.56C11.6322 10.26 11.7799 9.97467 11.9601 9.70997C11.9505 9.65035 11.9505 9.58959 11.9601 9.52997L12.0001 8.99997C11.5501 8.99997 11.3301 7.80997 11.3301 5.42997H11.2101L11.3301 5.19997V4.39997C11.9567 2.27997 12.7367 0.903307 13.6701 0.269974C13.8064 0.200092 13.9569 0.162457 14.1101 0.159973C14.9101 0.159973 15.4801 1.07997 15.8101 2.93997V5.93997H16.0201C16.0201 5.62997 17.5001 5.24997 20.4701 4.81997C21.0001 4.91997 21.2601 5.18997 21.2601 5.60997V6.99997C21.2601 8.58997 19.2601 9.66998 15.2601 10.26C14.6301 10.31 14.0301 10.34 13.4401 10.34C13.0701 10.95 12.6401 11.63 12.1501 12.34C11.5242 13.8101 10.9964 15.3201 10.5701 16.86C12.2101 15.2333 13.6734 14.42 14.9601 14.42C15.6016 14.1761 16.2754 14.0278 16.9601 13.98C17.5501 13.98 17.8401 14.25 17.8401 14.78V16.09C17.8401 17.19 16.9901 18.3433 15.2901 19.55C14.3214 19.9078 13.3903 20.36 12.5101 20.9C11.4977 21.2113 10.4606 21.4354 9.41006 21.57C9.23006 22.28 9.03005 23.07 8.79005 23.95C8.51216 25.6932 8.3651 27.4548 8.35007 29.22V31.47C9.91007 29.33 11.3501 28.25 12.6901 28.25C13.3455 27.929 14.071 27.7777 14.8001 27.81C15.5401 27.81 15.9101 28.08 15.9101 28.6V29.16C15.7701 30.4533 14.6967 32.1633 12.6901 34.29C11.3726 35.0463 9.93506 35.5706 8.44006 35.84V35.84C8.50006 36.84 8.59006 38.27 8.70006 39.97C8.90134 40.5762 9.00267 41.2112 9.00006 41.85C9.00006 42.31 9.11006 43.04 9.23006 44.01C9.77177 43.2684 10.3995 42.5937 11.1001 42C12.2226 41.4404 13.4281 41.0655 14.6701 40.89C15.2001 40.99 15.4601 41.25 15.4601 41.68C14.844 43.7112 13.7263 45.5545 12.2101 47.04C11.4816 47.5035 10.6804 47.8415 9.84006 48.04C9.99006 49.04 10.1701 50.17 10.3601 51.38C10.5501 52.59 10.9601 53.5 11.3601 54.51L11.8301 55.8C11.8901 55.98 11.9501 56.14 12.0101 56.3C12.7872 53.9148 14.0428 51.7132 15.7001 49.83C16.2607 49.407 16.8561 49.0323 17.4801 48.71C18.0101 48.71 18.2701 49 18.2701 49.59C18.2167 53.3566 17.2501 55.9533 15.3701 57.38C14.7051 57.9289 13.9998 58.427 13.2601 58.87V58.87ZM2.00006 28.69V28.81C2.37798 30.4977 3.33284 32.0007 4.70006 33.06C4.70006 33.31 5.26006 33.72 6.25006 34.29H6.49007V34.17C6.04393 33.1277 5.5121 32.1243 4.90005 31.17C4.25154 30.0309 3.22594 29.1539 2.00006 28.69V28.69ZM2.18005 42.31V42.43C2.65288 43.9446 3.70639 45.2102 5.11006 45.95C5.57691 46.2311 6.06508 46.4752 6.57007 46.68C6.95007 46.74 7.30007 46.81 7.63007 46.88V46.77C7.53007 46.77 7.20007 46.25 6.63007 45.21C5.70784 44.5562 4.81998 43.8553 3.97006 43.11C3.40333 42.7877 2.80733 42.5198 2.19006 42.31H2.18005ZM4.62006 56V56.11C5.22744 56.8954 6.01082 57.5272 6.90707 57.9545C7.80333 58.3818 8.78742 58.5926 9.78006 58.57C9.78006 58.63 9.99006 58.66 10.4201 58.66H10.6601V58.57C9.98569 57.6249 8.99646 56.9513 7.87006 56.67C6.82196 56.3009 5.72868 56.0755 4.62006 56V56ZM5.30006 13.28V13.72C5.33684 14.9136 5.60514 16.0887 6.09006 17.18C6.48763 18.2484 7.18137 19.1815 8.09006 19.87V18.44C7.74965 16.559 6.86274 14.82 5.54005 13.44L5.30006 13.28ZM8.72006 34.37H8.84006C10.3213 34.0592 11.678 33.3183 12.7401 32.24C13.5433 31.3172 14.1856 30.2658 14.6401 29.13H14.5201C13.1122 29.2841 11.7857 29.867 10.7201 30.8C9.76014 31.8119 9.07209 33.0504 8.72006 34.4V34.37ZM9.66006 46.62C10.4601 46.62 11.5801 45.69 13.0001 43.84C13.2588 43.4189 13.4829 42.9774 13.6701 42.52H13.5601C12.4801 42.52 11.3701 43.37 10.2201 45.07L9.66006 46.62ZM9.87006 20.08H10.1001C10.9001 20.08 12.5701 19.37 15.1001 17.97C15.7263 17.4996 16.2305 16.8858 16.5701 16.18V15.42H16.4501C15.1762 15.5195 13.9466 15.9317 12.8701 16.62C11.6516 17.5761 10.6324 18.7618 9.87006 20.11V20.08ZM13.4101 7.47998C13.4913 7.3585 13.6012 7.2589 13.7301 7.18998L14.0601 6.91997C14.3367 6.56947 14.4881 6.13648 14.4901 5.68997V2.93997C14.4001 2.19997 14.2501 1.82998 14.0601 1.82998C13.4095 2.5653 12.9463 3.44701 12.7101 4.39997V5.16997C12.7101 5.23997 12.7101 5.27997 12.5901 5.27997C12.6583 5.38497 12.6995 5.5052 12.7101 5.62997C12.7101 7.25997 12.8101 8.06997 13.0301 8.06997C13.0001 7.99997 13.1601 7.75998 13.4101 7.50998V7.47998ZM13.2901 57.11C15.2901 55.37 16.2901 54.18 16.3401 53.53C16.7001 52.605 16.8898 51.6225 16.9001 50.63C15.1034 52.4135 13.8513 54.6714 13.2901 57.14V57.11ZM14.2901 8.79998C14.265 8.84965 14.2348 8.89657 14.2001 8.93998C16.0726 8.91881 17.9081 8.41601 19.5301 7.47998C19.7846 7.25431 19.9423 6.93905 19.9701 6.59997V6.24997C17.9479 6.33051 16.0186 7.11994 14.5201 8.47998L14.2901 8.79998Z" fill="#BACDB0"/>
<path opacity="0.99" d="M49.65 36C50.2188 35.9955 50.7851 36.0764 51.33 36.24C51.8119 36.375 52.2832 36.5455 52.74 36.75C53.2557 36.984 53.7159 37.3248 54.09 37.75C54.2164 37.9591 54.3567 38.1596 54.51 38.35C54.6396 38.57 54.75 38.8009 54.84 39.04C54.9449 39.3204 55.0155 39.6125 55.05 39.91C55.05 40.11 55.07 40.7766 55.11 41.91C55.1398 43.2244 55.0596 44.5389 54.87 45.84C54.6887 47.5938 54.2855 49.3176 53.67 50.97C53.2013 52.2258 52.5547 53.4079 51.75 54.48C51.137 55.2864 50.3728 55.9657 49.5 56.48C48.8342 56.8833 48.0852 57.1296 47.31 57.2C46.6906 57.2278 46.0712 57.1466 45.48 56.96C44.7083 56.7229 43.9864 56.3467 43.35 55.85C42.5463 55.2102 41.8682 54.427 41.35 53.54C40.6537 52.353 40.138 51.0689 39.82 49.73C39.3819 47.8915 39.1505 46.0098 39.13 44.12C39.0976 41.5284 39.2882 38.9388 39.7 36.38C39.9732 34.4061 40.374 32.452 40.9 30.53C41.3181 29.0063 41.8393 27.5129 42.46 26.06C42.9393 24.9288 43.5217 23.8442 44.2 22.82C44.73 22.0258 45.3326 21.2826 46 20.6C47.1696 19.3456 48.7002 18.486 50.38 18.14C50.8928 18.0525 51.4201 18.1368 51.88 18.38C52.3037 18.6573 52.6482 19.0398 52.88 19.49C53.2468 20.245 53.4121 21.0821 53.36 21.92C53.4061 22.6846 53.3456 23.452 53.18 24.2C53.0657 24.7446 52.8737 25.2699 52.61 25.76C52.5277 25.9672 52.3816 26.1429 52.1929 26.2615C52.0041 26.3802 51.7824 26.4357 51.56 26.42C51.269 26.4357 50.979 26.3735 50.72 26.24C50.6191 26.1982 50.5274 26.137 50.4502 26.0598C50.3729 25.9826 50.3117 25.8909 50.27 25.79C50.2252 25.6219 50.2154 25.4464 50.2412 25.2744C50.267 25.1024 50.3278 24.9375 50.42 24.79L50.87 23.44C51.0446 22.9219 51.1751 22.39 51.26 21.85C51.3519 21.4046 51.3519 20.9453 51.26 20.5C51.2194 20.3226 51.126 20.1618 50.9921 20.0386C50.8582 19.9154 50.6901 19.8357 50.51 19.81C49.9827 19.8461 49.4701 19.9999 49.01 20.26C47.9871 20.8454 47.1302 21.6817 46.52 22.69C45.3924 24.478 44.5427 26.4269 44 28.47C43.087 31.8604 42.5538 35.3417 42.41 38.85C42.29 41.01 42.26 42.89 42.32 44.49C42.3593 45.8883 42.4996 47.2819 42.74 48.66C42.9088 49.6521 43.1699 50.6264 43.52 51.57C43.7697 52.2314 44.1059 52.8569 44.52 53.43C44.8211 53.9287 45.2425 54.3438 45.7457 54.6373C46.2489 54.9308 46.8177 55.0934 47.4 55.11C47.9017 55.0595 48.3898 54.9171 48.84 54.69C49.0209 54.5748 49.1915 54.4443 49.35 54.3C49.6766 54.0088 49.9595 53.6719 50.19 53.3C50.5578 52.6659 50.8594 51.9957 51.09 51.3C51.4257 50.3272 51.657 49.3216 51.78 48.3C51.94 46.9666 52.09 45.6566 52.23 44.37C52.3605 43.2646 52.4306 42.153 52.44 41.04C52.4631 40.2491 52.3618 39.4594 52.14 38.7C52.0772 38.4461 51.9415 38.2161 51.7496 38.0384C51.5577 37.8607 51.318 37.7431 51.06 37.7C50.5 37.62 49.91 37.56 49.29 37.52C48.67 37.48 48.08 37.46 47.52 37.46H45.6C45.4281 37.4634 45.2565 37.4432 45.09 37.4C45.0349 37.3905 44.9824 37.3696 44.9359 37.3386C44.8894 37.3076 44.8499 37.2672 44.82 37.22C44.78 36.94 44.94 36.68 45.3 36.44C45.5545 36.343 45.815 36.2628 46.08 36.2C46.4549 36.1111 46.836 36.051 47.22 36.02H49.68L49.65 36Z" fill="#475B63"/>
<path opacity="0.99" d="M69.3901 37.47C69.7501 37.47 69.8901 37.8033 69.8101 38.47C69.7301 38.83 69.6501 39.23 69.5701 39.67C69.4901 40.11 69.4001 40.5533 69.3001 41C69.1858 41.5296 69.0355 42.0509 68.8501 42.56C68.6901 43.12 68.5301 43.7 68.3701 44.3C68.2101 44.9 68.0101 45.5 67.7701 46.1C67.5301 46.7667 67.2701 47.4333 66.9901 48.1C66.7489 48.6706 66.4471 49.2137 66.0901 49.72C65.7763 50.1136 65.4246 50.4753 65.0401 50.8C64.8664 50.9539 64.66 51.0663 64.4365 51.1286C64.213 51.191 63.9783 51.2017 63.7501 51.16C63.2704 51.0623 62.8191 50.8571 62.4301 50.56C61.9317 50.1713 61.5225 49.6803 61.2301 49.12C60.8275 48.3654 60.5346 47.5573 60.3601 46.72C60.1235 45.5958 60.0128 44.4487 60.0301 43.3C60.0384 42.478 60.0885 41.6569 60.1801 40.84C60.2801 39.88 60.4101 38.91 60.5701 37.93C60.7301 36.95 60.9201 35.99 61.1401 35.05C61.3252 34.2214 61.576 33.4088 61.8901 32.62C61.9675 32.4726 61.9989 32.3054 61.9801 32.14C61.9733 32.0201 61.9733 31.8999 61.9801 31.78C61.9448 31.6837 61.9246 31.5825 61.9201 31.48C61.8351 31.3945 61.755 31.3043 61.6801 31.21C61.5946 31.105 61.4934 31.014 61.3801 30.94C61.2181 30.8028 61.036 30.6915 60.8401 30.61L60.4801 30.46C60.3837 30.4247 60.2825 30.4045 60.1801 30.4C60.1001 31.2 60.0001 31.94 59.8801 32.62C59.7601 33.3 59.6401 33.92 59.5201 34.48C59.3601 35.1467 59.2201 35.7267 59.1001 36.22C58.9237 37.1751 58.6832 38.1173 58.3801 39.04C58.2408 39.4137 58.1207 39.7941 58.0201 40.18C57.7801 40.8467 57.4801 41.0867 57.1201 40.9C57.0001 40.86 56.9401 40.73 56.9401 40.51C56.9477 40.2362 56.988 39.9643 57.0601 39.7C57.1185 39.3355 57.1987 38.9749 57.3001 38.62C57.3801 38.26 57.4801 37.84 57.6001 37.36C57.7201 36.88 57.8401 36.32 57.9601 35.68L58.3201 33.52C58.4001 32.92 58.4901 32.2533 58.5901 31.52C58.6837 30.8841 58.7338 30.2427 58.7401 29.6C58.6987 29.2658 58.719 28.9268 58.8001 28.6C58.8786 28.3622 59.0123 28.1464 59.1901 27.97C59.3208 27.8705 59.4741 27.8048 59.6363 27.7786C59.7985 27.7525 59.9646 27.7667 60.1201 27.82C60.7108 27.9519 61.2775 28.1746 61.8001 28.48C62.3108 28.8182 62.7835 29.2104 63.2101 29.65C63.754 30.2244 64.1728 30.9054 64.4401 31.65L64.6801 32.65C64.8062 33.1496 64.8567 33.6654 64.8301 34.18C64.7897 34.838 64.6162 35.481 64.3201 36.07C63.7809 37.4161 63.3789 38.8132 63.1201 40.24C62.8511 41.6348 62.7006 43.0498 62.6701 44.47C62.632 45.5981 62.7327 46.7265 62.9701 47.83C63.1901 48.75 63.5401 49.27 64.0201 49.39C64.3801 49.47 64.7701 49.17 65.1901 48.49C65.651 47.7266 66.0426 46.9234 66.3601 46.09C66.8476 44.9147 67.2683 43.7128 67.6201 42.49C67.8201 41.93 67.9901 41.4 68.1301 40.9C68.2701 40.4 68.3801 39.99 68.4601 39.67C68.5801 39.27 68.6801 38.91 68.7601 38.59C68.8221 38.3211 68.9126 38.0597 69.0301 37.81C69.1101 37.5433 69.2301 37.43 69.3901 37.47Z" fill="#475B63"/>
<path opacity="0.99" d="M78.8101 32.25C78.9498 32.1051 79.1119 31.9835 79.2901 31.89C79.3403 31.8685 79.3959 31.8627 79.4494 31.8734C79.503 31.8841 79.552 31.9108 79.5901 31.95C79.6701 32.03 79.6901 32.23 79.6501 32.55C79.5701 33.2166 78.9601 33.7866 77.8201 34.26C76.4128 34.7879 74.8883 34.9227 73.4101 34.65C73.8139 35.7784 74.1479 36.9306 74.4101 38.1C74.7278 39.4861 74.829 40.9129 74.7101 42.33C74.6119 43.4023 74.4314 44.4654 74.1701 45.51C73.9953 46.2476 73.7122 46.9553 73.3301 47.61C73.221 47.8701 73.0202 48.081 72.7658 48.2027C72.5113 48.3244 72.221 48.3483 71.9501 48.27C71.4199 48.1641 70.9248 47.9269 70.5101 47.58C70.123 47.2738 69.7857 46.9094 69.5101 46.5C69.2786 46.1398 69.1064 45.7448 69.0001 45.33C68.9001 44.93 68.8301 44.5966 68.7901 44.33C68.7501 44.0633 68.7001 43.4733 68.6401 42.56C68.5711 41.4811 68.5711 40.3989 68.6401 39.32C68.7288 38.0387 68.9092 36.7654 69.1801 35.51C69.4454 34.2678 69.9224 33.0805 70.5901 32C70.7588 31.9146 70.9194 31.8142 71.0701 31.7C71.494 31.4755 71.9713 31.3718 72.4501 31.4C72.6517 31.3962 72.849 31.4587 73.0116 31.5779C73.1742 31.6972 73.2932 31.8665 73.3501 32.06C73.402 32.2792 73.39 32.5087 73.3155 32.7214C73.2411 32.934 73.1074 33.1209 72.9301 33.26L74.1901 33.41C74.6888 33.4604 75.1914 33.4604 75.6901 33.41C76.2316 33.3655 76.7656 33.2547 77.2801 33.08C77.8373 32.9008 78.3561 32.6193 78.8101 32.25V32.25ZM73.0501 42.45C73.0819 41.8804 73.0819 41.3095 73.0501 40.74C73.0286 40.0704 72.9685 39.4026 72.8701 38.74C72.7701 38.0733 72.6601 37.4533 72.5401 36.88C72.466 36.4676 72.3453 36.065 72.1801 35.68C72.0201 36.52 71.8601 37.38 71.7001 38.26C71.5801 39.02 71.4501 39.83 71.3101 40.69C71.1786 41.4747 71.0885 42.2658 71.0401 43.06C70.9057 44.0676 70.998 45.0925 71.3101 46.06C71.5701 46.58 71.8201 46.8 72.0601 46.72C72.3001 46.64 72.4901 46.15 72.6301 45.25C72.8236 44.3255 72.9639 43.3906 73.0501 42.45V42.45Z" fill="#475B63"/>
<path opacity="0.99" d="M89.1801 32.91C89.4097 33.0548 89.6639 33.1565 89.9301 33.21C90.2901 33.3206 90.6636 33.3811 91.0401 33.39C91.711 33.3956 92.3809 33.3353 93.0401 33.21C93.8385 32.9924 94.5704 32.5801 95.1701 32.01C95.3372 31.8717 95.5182 31.7511 95.7101 31.65C96.0301 31.49 96.1301 31.71 96.0101 32.31C95.8694 32.7706 95.6223 33.1916 95.2887 33.5391C94.9552 33.8865 94.5446 34.1506 94.0901 34.31C92.7622 34.8694 91.2891 34.9852 89.8901 34.64C89.9789 35.0149 90.0391 35.396 90.0701 35.78C90.1101 36.22 90.1701 36.74 90.2501 37.34C90.2901 38.14 90.3201 39.12 90.3401 40.28C90.3601 41.44 90.3601 42.67 90.3401 43.97C90.3001 45.3033 90.2201 46.6133 90.1001 47.9C89.9961 49.1084 89.8258 50.3102 89.5901 51.5C89.4142 52.4388 89.1324 53.3547 88.7501 54.23C88.5511 54.8154 88.1313 55.2998 87.5801 55.58C87.2556 55.6757 86.9113 55.6816 86.5838 55.5971C86.2562 55.5125 85.9577 55.3407 85.7201 55.1C85.0219 54.3843 84.4894 53.524 84.1601 52.58C83.504 50.7224 83.1004 48.7851 82.9601 46.82C82.6401 48.1 82.3068 49.26 81.9601 50.3C81.6691 51.1148 81.3181 51.907 80.9101 52.67C80.5301 53.3366 80.1401 53.6466 79.7401 53.6C79.2659 53.5087 78.8147 53.3237 78.4129 53.0558C78.0111 52.7879 77.6668 52.4426 77.4001 52.04C76.653 50.8364 76.2389 49.456 76.2001 48.04C76.113 46.9222 76.083 45.8008 76.1101 44.68C76.1101 43.32 76.2001 41.84 76.2901 40.24C76.3801 38.64 76.5501 37.01 76.7701 35.35C76.9761 33.7656 77.2665 32.1934 77.6401 30.64C77.6703 30.4235 77.7527 30.2176 77.8801 30.04C78.0801 29.68 78.3401 29.58 78.6601 29.74C78.845 29.8374 79.0164 29.9584 79.1701 30.1C79.3704 30.2876 79.5333 30.5116 79.6501 30.76C79.8002 31.0762 79.9014 31.4134 79.9501 31.76C80.0189 32.2677 80.0189 32.7823 79.9501 33.29C79.8355 33.9755 79.7554 34.6664 79.7101 35.36L79.4401 38.69C79.3401 39.93 79.2601 41.23 79.2001 42.59C79.1401 43.95 79.1101 45.21 79.1101 46.37C79.1101 47.53 79.1501 48.51 79.2301 49.31C79.3101 50.11 79.4701 50.59 79.7101 50.75C79.8701 50.71 80.0901 50.23 80.3701 49.31C80.6101 48.55 80.9201 47.31 81.3001 45.59C81.6801 43.87 82.1701 41.39 82.7701 38.15C82.807 37.8458 82.8672 37.5449 82.9501 37.25L83.1901 36.53C83.2519 36.3173 83.3776 36.1288 83.5501 35.99C83.7198 35.864 83.9006 35.7536 84.0901 35.66C84.268 35.5668 84.461 35.5059 84.6601 35.48C84.816 35.4552 84.9757 35.4871 85.1101 35.57C85.2301 35.65 85.2701 35.83 85.2301 36.11C85.1593 36.6171 85.1192 37.128 85.1101 37.64C85.0701 38.5 85.0301 39.54 84.9901 40.76C84.9501 41.98 84.9501 43.29 84.9901 44.69C85.0301 46.09 85.1201 47.4233 85.2601 48.69C85.371 49.7894 85.5921 50.8748 85.9201 51.93C86.0899 52.663 86.5289 53.3055 87.1501 53.73C87.6106 52.7642 87.9144 51.7313 88.0501 50.67C88.2896 49.0132 88.4299 47.3435 88.4701 45.67C88.5501 43.51 88.4901 40.65 88.2901 37.09C88.2229 36.2324 88.0516 35.3862 87.7801 34.57C87.5487 34.0209 87.4559 33.4234 87.5101 32.83C87.5151 32.7502 87.5433 32.6736 87.5913 32.6096C87.6393 32.5457 87.7049 32.4971 87.7801 32.47C87.9274 32.43 88.0828 32.43 88.2301 32.47C88.438 32.4997 88.6402 32.5603 88.8301 32.65C88.8835 32.6991 88.9442 32.7396 89.0101 32.77C89.0617 32.8225 89.1187 32.8694 89.1801 32.91Z" fill="#475B63"/>
<path opacity="0.99" d="M116 36.61C116.193 36.7312 116.407 36.8159 116.63 36.86C116.929 36.9516 117.238 37.0021 117.55 37.01C118.097 37.012 118.643 36.9617 119.18 36.86C119.846 36.6846 120.456 36.3402 120.95 35.86C121.092 35.7485 121.243 35.6482 121.4 35.56C121.67 35.43 121.75 35.56 121.65 36.11C121.537 36.4973 121.332 36.8519 121.054 37.1442C120.776 37.4364 120.431 37.6579 120.05 37.79C118.943 38.2563 117.715 38.351 116.55 38.06C116.63 38.3881 116.68 38.7228 116.7 39.06C116.7 39.43 116.79 39.86 116.85 40.36C116.85 41.03 116.91 41.84 116.93 42.81C116.95 43.78 116.93 44.81 116.93 45.89C116.93 46.97 116.83 48.06 116.73 49.16C116.643 50.1667 116.503 51.1681 116.31 52.16C116.163 52.9438 115.928 53.7086 115.61 54.44C115.435 54.929 115.076 55.3307 114.61 55.56C114.34 55.6395 114.053 55.6444 113.78 55.5739C113.507 55.5035 113.258 55.3604 113.06 55.16C112.483 54.5597 112.04 53.844 111.76 53.06C111.218 51.5107 110.881 49.8969 110.76 48.26C110.5 49.33 110.21 50.26 109.91 51.16C109.673 51.8482 109.382 52.5169 109.04 53.16C108.72 53.74 108.4 54 108.04 53.93C107.646 53.852 107.27 53.6971 106.936 53.474C106.601 53.251 106.314 52.9641 106.09 52.63C105.476 51.6353 105.132 50.4981 105.09 49.33C105.03 48.6 105 47.66 105.02 46.53C105.04 45.4 105.09 44.16 105.17 42.83C105.25 41.5 105.39 40.14 105.57 38.76C105.738 37.4377 105.978 36.1257 106.29 34.83C106.318 34.6502 106.386 34.4792 106.49 34.33C106.66 34.03 106.88 33.95 107.14 34.08C107.295 34.1617 107.44 34.2625 107.57 34.38C107.736 34.5371 107.872 34.7236 107.97 34.93C108.101 35.2075 108.186 35.5049 108.22 35.81C108.279 36.2313 108.279 36.6587 108.22 37.08C108.16 37.41 108.09 37.99 108.02 38.81C107.95 39.63 107.88 40.55 107.8 41.58C107.72 42.61 107.65 43.7 107.6 44.83C107.55 45.96 107.52 47.01 107.52 47.98C107.52 48.95 107.52 49.76 107.62 50.43C107.72 51.1 107.82 51.5 108.02 51.63C108.16 51.63 108.34 51.2 108.57 50.43C108.8 49.66 109.03 48.76 109.35 47.33C109.67 45.9 110.07 43.83 110.57 41.13C110.607 40.8774 110.657 40.6271 110.72 40.38C110.79 40.18 110.86 39.98 110.92 39.78C110.974 39.6038 111.078 39.4473 111.22 39.33C111.363 39.2283 111.513 39.1381 111.67 39.06C111.818 38.9769 111.981 38.9258 112.15 38.91C112.278 38.8842 112.411 38.9093 112.52 38.98C112.62 39.05 112.66 39.2 112.62 39.43C112.58 39.66 112.56 39.99 112.52 40.71C112.48 41.43 112.46 42.29 112.42 43.31C112.38 44.33 112.42 45.41 112.42 46.58C112.42 47.75 112.53 48.85 112.65 49.88C112.74 50.7965 112.924 51.7013 113.2 52.58C113.332 53.1885 113.689 53.7245 114.2 54.08C114.585 53.2755 114.838 52.4146 114.95 51.53C115.156 50.1388 115.273 48.736 115.3 47.33C115.367 45.53 115.317 43.1466 115.15 40.18C115.101 39.4648 114.96 38.7589 114.73 38.08C114.538 37.6222 114.459 37.1248 114.5 36.63C114.5 36.46 114.61 36.36 114.73 36.33C114.852 36.2999 114.979 36.2999 115.1 36.33C115.273 36.3579 115.441 36.4083 115.6 36.48C115.647 36.5177 115.697 36.5512 115.75 36.58C115.832 36.6019 115.916 36.612 116 36.61V36.61Z" fill="#475B63"/>
<path opacity="0.99" d="M126 40.41C126.3 40.41 126.42 40.69 126.35 41.26C126.35 41.56 126.27 41.89 126.2 42.26C126.13 42.63 126.05 42.91 125.95 43.26C125.85 43.61 125.74 44.09 125.6 44.56C125.46 45.03 125.29 45.56 125.15 46.01C125.01 46.46 124.82 46.94 124.65 47.51C124.482 48.094 124.264 48.6627 124 49.21C123.8 49.6861 123.549 50.1388 123.25 50.56C122.989 50.8863 122.697 51.1876 122.38 51.46C122.235 51.5893 122.062 51.6836 121.875 51.7356C121.688 51.7876 121.491 51.7959 121.3 51.76C120.64 51.63 120.07 51.01 119.6 49.91C119.109 48.6349 118.871 47.2761 118.9 45.91C118.9 45.38 118.9 44.74 118.95 43.99C119 43.24 119.04 42.44 119.1 41.61C119.16 40.78 119.26 39.96 119.38 39.16C119.5 38.36 119.63 37.64 119.78 36.99C119.889 36.4538 120.063 35.9332 120.3 35.44C120.5 35.05 120.74 34.86 121 34.86C121.074 34.8755 121.143 34.91 121.2 34.96C121.424 35.1186 121.612 35.3231 121.75 35.56C121.999 36.0001 122.104 36.5072 122.05 37.01C121.999 37.7326 121.899 38.4509 121.75 39.16C121.59 40.09 121.44 41.16 121.33 42.41C121.22 43.66 121.14 44.83 121.1 45.96C121.06 47.09 121.1 48.07 121.15 48.89C121.2 49.71 121.34 50.16 121.5 50.26C121.66 50.36 122.08 50.26 122.43 49.64C122.817 49.0016 123.152 48.3327 123.43 47.64C123.853 46.6275 124.22 45.5926 124.53 44.54C124.7 44.07 124.84 43.63 124.96 43.22C125.08 42.81 125.17 42.46 125.23 42.22C125.29 41.98 125.42 41.59 125.48 41.32C125.532 41.0952 125.609 40.8771 125.71 40.67C125.78 40.44 125.89 40.38 126 40.41ZM121.55 34.06C121.02 33.99 120.75 33.81 120.75 33.51C120.75 33.21 121.14 33.09 121.75 33.16C122.36 33.23 122.55 33.49 122.55 33.76C122.55 34.03 122.14 34.16 121.57 34.06H121.55Z" fill="#475B63"/>
<path opacity="0.99" d="M141.87 28.66C141.87 28.73 141.81 28.78 141.67 28.81C141.464 28.8945 141.243 28.9387 141.02 28.94L139.57 29.01L138 29H135.52H129.37C129.21 29.87 129.04 30.9 128.87 32.1C128.7 33.3 128.54 34.6 128.37 36C128.21 37.07 128.07 38.16 127.97 39.28C127.87 40.4 127.79 41.48 127.72 42.55C127.72 42.85 127.67 43.23 127.67 43.68V44.8C127.67 45.63 127.67 46.4 127.67 47.1C127.707 47.6963 127.773 48.2904 127.87 48.88C127.905 49.3239 128.1 49.7399 128.42 50.05C128.774 49.6905 129.056 49.2661 129.25 48.8C129.53 48.2 129.81 47.57 130.07 46.9C130.33 46.23 130.66 45.32 130.92 44.45C131.087 43.9833 131.237 43.5433 131.37 43.13C131.51 42.71 131.61 42.37 131.67 42.13C131.73 41.89 131.86 41.5 131.92 41.23C131.972 41.0052 132.049 40.7871 132.15 40.58C132.23 40.41 132.32 40.35 132.42 40.38C132.76 40.38 132.87 40.66 132.77 41.23C132.77 41.53 132.69 41.86 132.62 42.23C132.55 42.6 132.47 42.88 132.37 43.23C132.27 43.58 132.16 44.06 132.02 44.53C131.88 45 131.71 45.53 131.57 45.98C131.43 46.43 131.24 46.91 131.07 47.48C130.902 48.064 130.684 48.6327 130.42 49.18C130.27 49.5308 130.086 49.8658 129.87 50.18C129.707 50.4516 129.505 50.6977 129.27 50.91C129.173 51.0077 129.055 51.0827 128.925 51.1294C128.796 51.1761 128.657 51.1934 128.52 51.18C128.262 51.1884 128.004 51.144 127.763 51.0494C127.523 50.9548 127.304 50.8121 127.12 50.63C126.761 50.2699 126.473 49.8459 126.27 49.38C126.026 48.8001 125.842 48.197 125.72 47.58C125.585 46.9646 125.502 46.3391 125.47 45.71C125.47 45.02 125.42 44.4 125.42 43.83V41.83C125.62 38.96 125.87 36.45 126.17 34.28C126.47 32.11 126.76 30.28 127.02 28.93C125.96 28.93 125.02 28.87 124.1 28.86C123.18 28.85 122.47 28.86 121.87 28.78C121.27 28.7 120.94 28.78 120.57 28.78L119.7 28.68C119.45 28.68 119.32 28.6 119.32 28.53C119.32 28.46 119.67 28.24 120.32 28.16C121.423 28.0528 122.532 28.0094 123.64 28.03C124.01 28.03 124.49 28.03 125.09 28.03H127.14C127.21 27.63 127.28 27.27 127.34 26.96C127.4 26.65 127.48 26.38 127.54 26.18C127.606 25.9672 127.656 25.75 127.69 25.53C127.82 25.1793 127.987 24.844 128.19 24.53C128.258 24.4383 128.345 24.3623 128.445 24.3071C128.545 24.2519 128.656 24.2188 128.77 24.21C128.98 24.21 129.23 24.4 129.49 24.83C129.566 25.0098 129.633 25.1934 129.69 25.38C129.828 25.8344 129.845 26.3168 129.74 26.78C129.74 26.88 129.68 27.04 129.64 27.26C129.6 27.48 129.56 27.73 129.49 28.03H133.69C135.16 28.03 136.49 28.03 137.69 28.1C138.89 28.17 139.88 28.18 140.69 28.25C141.5 28.32 141.84 28.56 141.87 28.66Z" fill="#475B63"/>
<path opacity="0.99" d="M134 45C134.14 44 134.31 42.92 134.53 41.75C134.725 40.6502 134.992 39.5645 135.33 38.5C135.583 37.6306 135.953 36.7997 136.43 36.03C136.558 35.7535 136.757 35.5156 137.006 35.3401C137.256 35.1646 137.547 35.0577 137.85 35.03C137.949 35.0149 138.051 35.0149 138.15 35.03C138.231 35.0685 138.315 35.1019 138.4 35.13C138.527 35.1759 138.646 35.2436 138.75 35.33C139.254 35.8298 139.602 36.4657 139.75 37.16C140.04 38.6163 140.074 40.112 139.85 41.58C139.85 42.01 139.79 42.41 139.75 42.78C139.71 43.15 139.69 43.43 139.65 43.78C139.61 44.13 139.6 44.3 139.6 44.43C139.54 45.9 139.53 47.2 139.6 48.33C139.67 49.46 139.77 50.11 139.97 50.33C140.17 50.55 140.55 50.33 140.9 49.71C141.287 49.0716 141.622 48.4027 141.9 47.71C142.323 46.6975 142.69 45.6627 143 44.61C143.167 44.1433 143.317 43.7033 143.45 43.29C143.59 42.87 143.69 42.53 143.75 42.29C143.81 42.05 143.94 41.66 144 41.39C144.051 41.1652 144.129 40.9471 144.23 40.74C144.31 40.57 144.42 40.51 144.55 40.54C144.85 40.54 144.95 40.82 144.85 41.39C144.85 41.69 144.77 42.02 144.7 42.39C144.63 42.76 144.55 43.04 144.45 43.39C144.35 43.74 144.24 44.22 144.1 44.69C143.96 45.16 143.79 45.69 143.65 46.14C143.51 46.59 143.32 47.07 143.15 47.64C142.982 48.224 142.764 48.7927 142.5 49.34C142.3 49.8161 142.049 50.2688 141.75 50.69C141.489 51.0163 141.197 51.3176 140.88 51.59C140.735 51.7193 140.562 51.8136 140.375 51.8656C140.188 51.9176 139.991 51.9259 139.8 51.89C139.14 51.76 138.57 51.14 138.1 50.04C137.609 48.7649 137.371 47.4062 137.4 46.04C137.4 45.44 137.4 44.71 137.48 43.84C137.56 42.97 137.59 42.06 137.65 41.09C137.656 40.9489 137.673 40.8086 137.7 40.67C137.7 40.48 137.77 40.29 137.8 40.09C137.83 39.89 137.87 39.61 137.9 39.34C137.93 39.07 137.9 39.04 137.9 38.84C137.9 38.64 137.9 38.44 137.9 38.24C137.886 38.0605 137.842 37.8847 137.77 37.72C137.752 37.6539 137.713 37.5956 137.659 37.554C137.605 37.5124 137.538 37.4899 137.47 37.49C137.21 37.49 136.91 37.87 136.6 38.72C136.223 39.7702 135.922 40.8464 135.7 41.94C135.401 43.2812 135.167 44.6361 135 46C134.819 47.3991 134.742 48.8096 134.77 50.22C134.91 50.6467 134.86 50.9467 134.62 51.12C134.554 51.182 134.472 51.2227 134.382 51.237C134.293 51.2513 134.202 51.2384 134.12 51.2C133.937 51.097 133.768 50.9691 133.62 50.82C133.424 50.6147 133.24 50.3976 133.07 50.17C132.639 49.4481 132.351 48.6504 132.22 47.82C132.06 46.89 131.94 45.99 131.87 45.12C131.81 44.12 131.79 43.02 131.82 41.92C131.99 39.39 132.21 37.11 132.47 35.1C132.73 33.09 133.01 31.37 133.27 29.97C133.57 28.3367 133.87 26.8867 134.17 25.62C134.273 25.2676 134.425 24.9311 134.62 24.62C134.688 24.5283 134.775 24.4523 134.875 24.3971C134.975 24.3419 135.086 24.3088 135.2 24.3C135.41 24.3 135.66 24.49 135.92 24.92C136.02 25.1125 136.104 25.3132 136.17 25.52C136.242 25.7115 136.276 25.9154 136.27 26.12C136.268 26.3732 136.235 26.6252 136.17 26.87C136.11 27.14 135.98 27.78 135.8 28.8C135.62 29.82 135.42 31.05 135.22 32.5C135.02 33.95 134.82 35.5 134.62 37.17C134.42 38.84 134.27 40.45 134.17 42.02C134.173 42.3873 134.157 42.7545 134.12 43.12C134.12 43.42 134.06 43.74 134.05 44.12C134.005 44.411 133.988 44.7057 134 45V45Z" fill="#475B63"/>
<path opacity="0.99" d="M169.25 41.91C168.93 42.99 168.597 44.01 168.25 44.97C167.97 45.77 167.67 46.57 167.35 47.37C167.093 48.028 166.757 48.6525 166.35 49.23C166.22 49.47 166.058 49.6918 165.87 49.89C165.708 50.0516 165.527 50.1926 165.33 50.3099C165.242 50.3677 165.142 50.4033 165.037 50.4137C164.933 50.4242 164.828 50.4092 164.73 50.37C164.41 50.37 164.15 50.15 163.95 49.71C163.733 49.2239 163.553 48.7226 163.41 48.21C163.25 47.5433 163.11 46.8433 162.99 46.11C162.87 45.3766 162.75 44.5366 162.63 43.5899C162.51 42.3099 162.42 41 162.36 39.66C162.3 38.32 162.23 37.07 162.15 35.91C162.07 34.5766 162.01 33.2766 161.97 32.01C161.857 33.17 161.767 34.3999 161.7 35.6999C161.633 36.9999 161.563 38.3333 161.49 39.6999C161.41 40.8999 161.35 42.16 161.31 43.48C161.27 44.8 161.25 46.08 161.25 47.32C161.25 48.56 161.25 49.72 161.25 50.8C161.25 51.88 161.3 52.78 161.4 53.5C161.406 53.6713 161.426 53.8419 161.46 54.01C161.499 54.2255 161.559 54.4365 161.64 54.6399C161.72 54.8799 161.8 55.16 161.88 55.48C161.96 55.8 161.94 56 161.82 56.08C161.58 56.24 161.3 56.1599 160.97 55.8399C160.805 55.6781 160.661 55.4968 160.54 55.3C160.366 55.0007 160.212 54.69 160.08 54.37C159.781 53.6127 159.554 52.8293 159.4 52.0299C159.139 50.6514 158.955 49.2592 158.85 47.86C158.703 45.7432 158.673 43.62 158.76 41.5C158.92 37.74 159.18 34.25 159.54 31.03C159.843 28.1248 160.364 25.2466 161.1 22.4199C161.168 22.1679 161.269 21.9259 161.4 21.6999C161.6 21.2599 161.86 21.12 162.18 21.28C162.296 21.3357 162.395 21.4202 162.468 21.5252C162.542 21.6302 162.587 21.7524 162.6 21.8799C163 22.3199 163.2 24.12 163.2 27.28C163.2 27.76 163.22 28.47 163.26 29.41C163.3 30.35 163.34 31.3999 163.38 32.5599C163.42 33.7199 163.47 34.9799 163.53 36.3399C163.59 37.6999 163.66 39.0333 163.74 40.3399C163.82 41.5399 163.9 42.68 163.98 43.76C164.06 44.68 164.14 45.61 164.22 46.55C164.3 47.49 164.38 48.22 164.46 48.74C164.54 48.86 164.68 48.5266 164.88 47.74C165.08 46.9533 165.3 46.0333 165.54 44.98C165.82 43.78 166.12 42.3999 166.44 40.8399L166.86 39.1299C167.02 38.4633 167.2 37.8333 167.4 37.24C167.563 36.5101 167.763 35.7892 168 35.08C168.44 33.7466 168.87 32.4133 169.29 31.08C169.71 29.7466 170.14 28.4866 170.58 27.3C171.02 26.1 171.45 25 171.87 24C172.29 23 172.66 22.1399 172.98 21.4199C173.22 20.9399 173.46 20.4999 173.7 20.0999C173.887 19.7957 174.119 19.5224 174.39 19.29C174.494 19.1863 174.627 19.1165 174.772 19.0898C174.916 19.063 175.066 19.0805 175.2 19.14C175.424 19.3155 175.6 19.5455 175.71 19.808C175.82 20.0706 175.862 20.357 175.83 20.64C175.846 21.5409 175.816 22.442 175.74 23.3399C175.7 23.8599 175.61 24.6699 175.47 25.7699C175.33 26.8699 175.19 28.15 175.05 29.61C174.91 31.07 174.76 32.67 174.6 34.41C174.44 36.15 174.3 37.94 174.18 39.78C174.1 41.1133 174.04 42.5333 174 44.04C173.96 45.5466 173.94 46.9766 173.94 48.33C173.94 49.71 173.94 50.9999 173.94 52.1999C173.94 53.3999 173.99 54.3999 174.09 55.1999C174.143 55.3768 174.183 55.5573 174.21 55.7399C174.251 55.9843 174.311 56.225 174.39 56.4599L174.66 57.4599C174.76 57.8199 174.73 58.04 174.57 58.12C174.505 58.1769 174.425 58.2132 174.339 58.2239C174.254 58.2346 174.167 58.2193 174.09 58.18C173.921 58.0946 173.761 57.9941 173.61 57.8799C173.431 57.6961 173.27 57.4951 173.13 57.2799C172.911 56.9363 172.72 56.5751 172.56 56.1999C172.213 55.3582 171.952 54.4839 171.78 53.5899C171.471 52.055 171.26 50.5019 171.15 48.94C170.985 46.5634 170.965 44.179 171.09 41.8C171.21 38.92 171.39 36.2 171.63 33.64C171.23 34.9733 170.897 36.1133 170.63 37.0599L169.79 39.82L169.25 41.91Z" fill="#475B63"/>
<path opacity="0.99" d="M188.33 39.45C188.136 40.805 187.835 42.1425 187.43 43.45C187.073 44.6245 186.621 45.7682 186.08 46.87C185.557 47.9904 184.835 49.0068 183.95 49.87C183.407 50.4176 182.779 50.8735 182.09 51.22C181.424 51.5577 180.667 51.6733 179.93 51.55C179.481 51.4816 179.051 51.3179 178.67 51.07C178.333 50.8533 178.047 50.5668 177.83 50.23C177.591 49.8718 177.39 49.4898 177.23 49.09C176.967 48.4802 176.805 47.8318 176.75 47.17C176.67 46.41 176.61 45.67 176.57 44.95C176.531 44.0696 176.551 43.1876 176.63 42.31C176.744 40.6789 176.954 39.0561 177.26 37.45C177.477 36.2083 177.788 34.9848 178.19 33.79C178.425 33.1032 178.762 32.4558 179.19 31.87C179.51 31.39 179.905 30.9645 180.36 30.61C180.85 30.2408 181.46 30.0695 182.07 30.13C182.479 30.1733 182.871 30.3176 183.21 30.55C183.57 30.7986 183.852 31.1458 184.02 31.55C184.272 32.1487 184.404 32.7906 184.41 33.44C184.445 33.7743 184.425 34.1121 184.35 34.44C184.27 34.76 184.17 35.14 184.05 35.58C183.914 36.0677 183.754 36.5483 183.57 37.02C183.369 37.5419 183.085 38.0281 182.73 38.46C182.387 38.884 182.005 39.2757 181.59 39.63C181.099 40.037 180.526 40.3337 179.91 40.5C179.87 41.22 179.81 41.96 179.73 42.72C179.65 43.48 179.59 44.21 179.55 44.91C179.51 45.6794 179.51 46.4505 179.55 47.22C179.546 47.5835 179.586 47.9462 179.67 48.3C179.749 48.5773 179.849 48.8481 179.97 49.11C180.019 49.2285 180.092 49.3353 180.185 49.4233C180.278 49.5112 180.389 49.5783 180.51 49.62C180.789 49.7395 181.092 49.791 181.395 49.7702C181.697 49.7493 181.99 49.6567 182.25 49.5C182.831 49.1617 183.341 48.7133 183.75 48.18C184.204 47.575 184.605 46.9327 184.95 46.26C185.433 45.2952 185.834 44.2917 186.15 43.26C186.35 42.7 186.52 42.18 186.66 41.7C186.8 41.22 186.91 40.82 186.99 40.5L187.29 39.5C187.352 39.2311 187.443 38.9696 187.56 38.72C187.66 38.52 187.79 38.44 187.95 38.48C188.283 38.4466 188.41 38.77 188.33 39.45ZM182 31.23C181.6 31.19 181.267 31.57 181 32.37C180.741 33.2558 180.541 34.1578 180.4 35.07C180.24 36.23 180.08 37.5633 179.92 39.07C180.747 38.6021 181.423 37.9083 181.87 37.07C182.307 36.2748 182.611 35.4134 182.77 34.52C182.922 33.7878 182.922 33.0322 182.77 32.3C182.637 31.6266 182.38 31.27 182 31.23Z" fill="#475B63"/>
<path opacity="0.99" d="M192 50C192.004 50.1666 191.974 50.3323 191.912 50.487C191.851 50.6417 191.758 50.7823 191.64 50.9001C191.522 51.0179 191.382 51.1106 191.227 51.1724C191.072 51.2343 190.907 51.2641 190.74 51.26C190.583 51.2606 190.427 51.2289 190.283 51.167C190.138 51.1051 190.008 51.0142 189.9 50.9C189.782 50.7825 189.689 50.6421 189.627 50.4873C189.565 50.3325 189.535 50.1666 189.54 50C189.548 49.6841 189.677 49.3833 189.9 49.1599C190.123 48.9365 190.424 48.8076 190.74 48.8C190.907 48.7953 191.073 48.8248 191.227 48.8868C191.382 48.9487 191.523 49.0417 191.64 49.16C191.754 49.268 191.845 49.3982 191.907 49.5427C191.969 49.6872 192.001 49.8428 192 50Z" fill="#475B63"/>
<path opacity="0.99" d="M215.1 58.31C213.22 56.8766 212.253 54.2766 212.2 50.51C212.2 49.93 212.46 49.63 212.99 49.63C213.614 49.9523 214.209 50.327 214.77 50.75C216.422 52.6387 217.68 54.8384 218.47 57.22L218.64 56.72L219.11 55.44C219.48 54.44 219.8 53.37 220.11 52.3C220.42 51.23 220.48 49.98 220.63 48.96C219.788 48.7658 218.986 48.4275 218.26 47.96C216.74 46.4756 215.619 44.6322 215 42.6C215 42.17 215.26 41.91 215.79 41.81C217.033 41.9854 218.239 42.3637 219.36 42.93C220.057 43.5174 220.679 44.1892 221.21 44.93C221.33 43.93 221.41 43.23 221.47 42.76C221.457 42.1228 221.548 41.4877 221.74 40.88C221.85 39.18 221.94 37.81 222 36.75C220.504 36.4856 219.065 35.961 217.75 35.2C215.75 33.0733 214.677 31.3633 214.53 30.07V29.52C214.53 28.99 214.9 28.73 215.64 28.73C216.368 28.6946 217.094 28.8425 217.75 29.16C219.083 29.16 220.53 30.2366 222.09 32.39V30.18C222.075 28.4148 221.928 26.6532 221.65 24.91C221.42 24.03 221.21 23.24 221.03 22.54C219.98 22.4005 218.943 22.173 217.93 21.86C217.05 21.32 216.119 20.8678 215.15 20.51C213.45 19.2966 212.6 18.1466 212.6 17.06V15.74C212.6 15.21 212.89 14.95 213.48 14.95C214.165 14.9928 214.84 15.1412 215.48 15.39C216.773 15.39 218.237 16.2 219.87 17.82C219.446 16.2826 218.918 14.7758 218.29 13.31C217.8 12.55 217.37 11.86 217 11.31C216.42 11.31 215.81 11.31 215.18 11.22C211.18 10.6266 209.18 9.54329 209.18 7.96996V6.59995C209.18 6.16995 209.44 5.89996 209.97 5.80996C212.97 6.23996 214.42 6.60995 214.42 6.91995H214.63V3.91995C214.96 2.06995 215.53 1.13995 216.33 1.13995C216.485 1.14059 216.636 1.18198 216.77 1.25995C217.697 1.87995 218.477 3.25662 219.11 5.38995V6.14996L219.23 6.37995H219.11C219.11 8.76995 218.89 9.95995 218.44 9.95995L218.55 10.51C218.56 10.5696 218.56 10.6303 218.55 10.69C218.728 10.956 218.876 11.2411 218.99 11.54L219.9 13.21C220.57 15.08 221.06 16.63 221.4 17.84C221.4 17.7 221.47 17.63 221.51 17.63C221.957 16.4081 222.558 15.2486 223.3 14.18L225.3 12.07H225.51C226.177 12.07 226.51 12.93 226.51 14.65V14.73C226.443 16.1032 226.145 17.4553 225.63 18.73C225.306 19.7783 224.688 20.7119 223.85 21.42C223.488 21.93 223.053 22.3847 222.56 22.77C223.126 25.2412 223.431 27.765 223.47 30.3V33C223.595 32.8084 223.732 32.6247 223.88 32.45C224.266 31.2226 225.06 30.164 226.13 29.45C227.026 28.7245 228.041 28.1595 229.13 27.78C229.66 27.78 229.92 28.07 229.92 28.66V29.1C229.721 30.3364 229.347 31.5384 228.81 32.67C227.13 35.19 225.343 36.5566 223.45 36.77C223.45 38.04 223.37 39.06 223.33 39.77C223.29 40.48 223.2 41 223.12 41C223.05 42.5106 222.896 44.0162 222.66 45.51C222.966 45.1228 223.33 44.7854 223.74 44.51C225.853 42.65 227.64 41.72 229.1 41.72C229.49 41.72 229.78 41.98 229.98 42.49C229.698 43.7505 229.212 44.9565 228.54 46.06C227.613 47.1133 226.438 47.9178 225.12 48.4C224.391 48.8282 223.58 49.1006 222.74 49.2H222.16C221.974 50.6585 221.701 52.1045 221.34 53.53C220.956 54.8518 220.505 56.1535 219.99 57.43H220C220.7 56.71 222.517 56.1133 225.45 55.64C227.09 55.7 227.91 55.96 227.91 56.43L227.79 57.11C226.989 57.8328 226.244 58.615 225.56 59.45C223.989 60.3387 222.24 60.8681 220.44 61H219C218.744 61.0039 218.488 60.9736 218.24 60.91C217.113 62.57 216.233 63.4 215.6 63.4C215.14 63.4 214.9 63.21 214.9 62.82L215.02 62.23C215.674 61.7812 216.248 61.227 216.72 60.59L217.19 59.83C216.458 59.3733 215.76 58.8654 215.1 58.31V58.31ZM216 9.46996C214.501 8.10992 212.572 7.32049 210.55 7.23995V7.58995C210.576 7.9296 210.734 8.24559 210.99 8.46996C212.611 9.40907 214.447 9.9153 216.32 9.93996L216.23 9.78996L216 9.46996ZM213.59 51.63C213.607 52.6218 213.796 53.6031 214.15 54.53C214.21 55.17 215.22 56.36 217.15 58.1C216.59 55.6427 215.337 53.3974 213.54 51.63H213.59ZM217.59 17.63C216.514 16.9417 215.284 16.5295 214.01 16.43H213.9V17.19C214.218 17.9032 214.71 18.5254 215.33 19C217.87 20.4133 219.537 21.1166 220.33 21.11H220.56C219.796 19.7604 218.777 18.5718 217.56 17.61L217.59 17.63ZM219.75 31.81C218.684 30.877 217.358 30.294 215.95 30.14H215.83C215.83 30.48 216.46 31.51 217.73 33.25C218.791 34.3315 220.148 35.0759 221.63 35.39H221.75C221.39 34.037 220.692 32.798 219.72 31.79L219.75 31.81ZM217.41 8.99995C217.63 8.99995 217.73 8.18995 217.73 6.56995C217.738 6.44464 217.779 6.32375 217.85 6.21996C217.834 6.2215 217.818 6.21946 217.802 6.21398C217.787 6.2085 217.773 6.19971 217.762 6.18824C217.75 6.17677 217.742 6.16291 217.736 6.14764C217.731 6.13238 217.729 6.1161 217.73 6.09995V5.33995C217.497 4.38467 217.038 3.49961 216.39 2.75995C216.19 2.75995 216.04 3.12995 215.95 3.86995V6.65996C215.955 7.10765 216.11 7.54076 216.39 7.88995L216.71 8.14996C216.839 8.21922 216.949 8.31875 217.03 8.43996C217.28 8.72996 217.41 8.90995 217.41 8.99995ZM220.22 46C219.07 44.3 217.96 43.45 216.88 43.45H216.77C216.957 43.9074 217.181 44.3488 217.44 44.77C218.87 46.63 219.98 47.55 220.78 47.55L220.22 46ZM222.57 57.6C221.443 57.8846 220.453 58.5618 219.78 59.51V59.59H220C220.43 59.59 220.64 59.59 220.64 59.51C221.633 59.5326 222.617 59.3218 223.513 58.8945C224.409 58.4672 225.193 57.8354 225.8 57.05V57C224.699 57.075 223.612 57.2969 222.57 57.66V57.6ZM224.91 14.33C223.591 15.7124 222.704 17.4503 222.36 19.33V20.8C223.273 20.1116 223.968 19.174 224.36 18.1C224.845 17.0087 225.113 15.8336 225.15 14.64V14.2L224.91 14.33ZM226.46 44.01C224.96 45.26 224.07 46.01 223.8 46.12C223.23 47.12 222.9 47.67 222.8 47.67V47.79C223.13 47.71 223.48 47.64 223.86 47.58C224.365 47.3751 224.853 47.1311 225.32 46.85C226.724 46.1102 227.777 44.8445 228.25 43.33V43.22C227.628 43.4453 227.028 43.7299 226.46 44.07V44.01ZM225.53 32.06C224.92 33.0154 224.388 34.0187 223.94 35.06V35.18H224.18C225.18 34.61 225.69 34.18 225.73 33.95C227.099 32.8924 228.055 31.3887 228.43 29.7V29.58C227.193 30.0567 226.166 30.9568 225.53 32.12V32.06Z" fill="#BACDB0"/>
</g>
</svg>
