<svg width="345" height="96" viewBox="0 0 345 96" fill="none" xmlns="http://www.w3.org/2000/svg">
<g opacity="0.99">
<path opacity="0.99" d="M19.29 88.41L19.99 89.55C20.6993 90.5043 21.5609 91.3354 22.54 92.01L22.71 92.89C22.71 93.48 22.36 93.77 21.71 93.77C20.77 93.77 19.4367 92.5266 17.71 90.04C17.3367 90.1296 16.9539 90.1733 16.57 90.17H14.37C10.92 89.73 8.37002 88.95 6.68002 87.84C5.66084 86.5808 4.54405 85.4038 3.34002 84.32L3.17002 83.32C3.17002 82.62 4.40002 82.22 6.86002 82.14C11.25 82.84 13.98 83.73 15.03 84.82H15.17C14.4016 82.9063 13.734 80.9536 13.17 78.97C12.6305 76.8298 12.2197 74.6593 11.94 72.47H11C9.74706 72.3234 8.5382 71.9181 7.45002 71.28C6.24002 71.05 4.53003 69.88 2.30003 67.77C0.870026 64.95 0.150024 63.17 0.150024 62.41C0.440024 61.64 0.880024 61.26 1.47002 61.26C3.67002 61.26 6.33669 62.6533 9.47002 65.44C10.091 65.8802 10.6407 66.413 11.1 67.02C10.7461 64.7771 10.5092 62.5174 10.39 60.25C10.28 60.25 10.19 59.64 10.13 58.41C10.07 57.18 9.97003 55.74 9.91003 53.84C7.07003 53.5133 4.40336 51.46 1.91003 47.68C1.09813 45.9831 0.535643 44.1777 0.240021 42.32V41.66C0.240021 40.78 0.630021 40.34 1.42002 40.34C3.04915 40.9139 4.56782 41.7628 5.91003 42.85C7.51709 43.9337 8.70875 45.5308 9.29002 47.38C9.53002 47.67 9.73003 47.95 9.91003 48.21V44.11C9.96249 40.3091 10.4184 36.5246 11.27 32.82C10.5248 32.2565 9.87056 31.582 9.33002 30.82C8.08021 29.7635 7.15172 28.3777 6.65002 26.82C5.88427 24.9063 5.44158 22.8787 5.34002 20.82V20.6C5.34002 18.03 5.83002 16.74 6.83002 16.74H7.14002L10.14 19.9C11.2531 21.5073 12.1539 23.2518 12.82 25.09C12.88 25.09 12.94 25.19 13 25.39C13.49 23.58 14.24 21.26 15.24 18.45L16.6 15.94C16.7841 15.4989 17.0048 15.0741 17.26 14.67C17.2462 14.5839 17.2462 14.4961 17.26 14.41L17.43 13.57C16.76 13.57 16.43 11.79 16.43 8.20997H16.25L16.43 7.85997V6.71997C17.37 3.51997 18.54 1.45997 19.95 0.519972C20.1461 0.401548 20.371 0.33928 20.6 0.339972C21.81 0.339972 22.65 1.73997 23.15 4.51997V9.04997H23.46C23.46 8.5833 25.6867 8.02664 30.14 7.37997C30.93 7.51997 31.33 7.91997 31.33 8.55997V10.56C31.33 12.9333 28.33 14.56 22.33 15.44C21.39 15.53 20.48 15.57 19.6 15.57C19.05 16.48 18.4 17.5 17.67 18.65C16.7279 20.847 15.9361 23.1056 15.3 25.41C17.76 22.9766 19.9567 21.7633 21.89 21.77C22.8483 21.3909 23.8612 21.168 24.89 21.11C25.77 21.11 26.21 21.5 26.21 22.29V24.29C26.21 25.93 24.9367 27.66 22.39 29.48C20.9322 30.0026 19.5317 30.6728 18.21 31.48C16.6874 31.9432 15.1286 32.2777 13.55 32.48C13.29 33.48 12.98 34.72 12.63 36.04C12.2109 38.6562 11.9903 41.3004 11.97 43.95V47.33C14.32 44.11 16.48 42.5 18.48 42.5C19.4608 42.0169 20.5479 41.7899 21.64 41.84C22.75 41.84 23.31 42.23 23.31 43.03V43.86C23.0967 45.7933 21.4867 48.3566 18.48 51.55C15.28 53.1 13.16 53.88 12.1 53.88C12.1934 55.46 12.3267 57.5266 12.5 60.08C12.7892 60.9884 12.9343 61.9366 12.93 62.89C12.99 63.59 13.11 64.68 13.29 66.14C14.078 65.0022 15.0052 63.9675 16.05 63.06C17.7389 62.2189 19.552 61.655 21.42 61.39C22.21 61.54 22.6 61.94 22.6 62.58C21.6668 65.6122 19.9891 68.3626 17.72 70.58C16.6265 71.2773 15.4228 71.7845 14.16 72.08C14.4 73.6 14.66 75.27 14.96 77.08C15.3619 78.6706 15.8458 80.2394 16.41 81.78L17.11 83.71C17.2 83.98 17.29 84.22 17.37 84.46C18.0367 81.7933 19.8834 78.5566 22.91 74.75C23.7576 74.123 24.6537 73.5645 25.59 73.08C26.38 73.08 26.78 73.52 26.78 74.4C26.6934 80.0533 25.2434 83.95 22.43 86.09C21.4391 86.936 20.3898 87.7113 19.29 88.41V88.41ZM2.41003 43.15V43.32C2.95342 45.8474 4.3696 48.1026 6.41003 49.69C6.47003 50.08 7.25002 50.69 8.74002 51.54H9.10002V51.36C8.42875 49.7921 7.63287 48.2806 6.72002 46.84C5.75094 45.1505 4.22862 43.8472 2.41003 43.15V43.15ZM2.68002 63.58V63.76C3.02631 64.8853 3.5927 65.9307 4.34631 66.8354C5.09993 67.7401 6.02575 68.486 7.07002 69.03C7.7731 69.4543 8.50874 69.8221 9.27002 70.13C9.82002 70.22 10.35 70.32 10.85 70.44V70.26C10.7 70.26 10.2 69.49 9.35002 67.93C8.94002 67.7 7.61002 66.64 5.35002 64.77C4.49923 64.2906 3.60531 63.8922 2.68002 63.58V63.58ZM6.32002 84.15V84.32C7.22952 85.5006 8.40401 86.4507 9.74859 87.0934C11.0932 87.7362 12.5701 88.0536 14.06 88.02C14.06 88.1 14.38 88.15 15.06 88.15H15.42V88C14.4133 86.5777 12.9304 85.5631 11.24 85.14C9.65277 84.5874 7.99746 84.2543 6.32002 84.15V84.15ZM7.32002 20.08V20.73C7.37928 22.5204 7.78333 24.2826 8.51003 25.92C9.10824 27.512 10.1491 28.8999 11.51 29.92V27.77C11.33 25.63 10.0567 23.1233 7.69003 20.25L7.32002 20.08ZM12.47 51.72H12.64C14.8634 51.2488 16.8983 50.1322 18.49 48.51C20.39 45.8966 21.34 44.3433 21.34 43.85H21.17C18.35 44.41 16.45 45.24 15.45 46.36C14.0212 47.8656 12.9991 49.7102 12.48 51.72H12.47ZM13.87 70.09C15.07 70.09 16.74 68.69 18.87 65.91C19.2592 65.2727 19.5937 64.6036 19.87 63.91H19.7C18.08 63.91 16.4134 65.1866 14.7 67.74L13.87 70.09ZM14.18 30.27H14.53C15.73 30.27 18.2367 29.2166 22.05 27.11C22.986 26.4068 23.7374 25.4872 24.24 24.43V23.28H24.07C22.1604 23.4271 20.3179 24.0493 18.71 25.09C16.17 27.37 14.6634 29.0966 14.19 30.27H14.18ZM19.5 11.37C19.6153 11.1835 19.782 11.0342 19.98 10.94L20.46 10.54C20.8814 10.0148 21.1139 9.36323 21.12 8.68997V4.51997C20.98 3.40997 20.76 2.84997 20.46 2.84997C19.12 4.71997 18.46 6.00997 18.46 6.71997V7.85997C18.4634 7.88308 18.4613 7.90664 18.4539 7.9288C18.4466 7.95095 18.4342 7.97108 18.4176 7.98759C18.4011 8.0041 18.381 8.01653 18.3588 8.02389C18.3367 8.03124 18.3131 8.03333 18.29 8.02997C18.3864 8.19133 18.4446 8.37264 18.46 8.55997C18.46 10.99 18.62 12.21 18.95 12.21C18.94 12 19.13 11.76 19.51 11.37H19.5ZM19.32 85.82C22.28 83.2133 23.8034 81.4266 23.89 80.46C24.4225 79.0703 24.7068 77.598 24.73 76.11C21.6567 79.47 19.8567 82.7066 19.33 85.82H19.32ZM20.77 13.35C20.7314 13.426 20.688 13.4995 20.64 13.57C23.4508 13.5318 26.205 12.7744 28.64 11.37C29.018 11.0327 29.2539 10.5645 29.3 10.06V9.52997C26.2658 9.64824 23.3699 10.8307 21.12 12.87L20.77 13.35Z" fill="#BACDB0"/>
<path opacity="0.99" d="M73.86 54.07C74.7133 54.0632 75.5628 54.1846 76.38 54.43C77.1012 54.6308 77.8064 54.8848 78.49 55.19C79.2537 55.5411 79.9351 56.0487 80.49 56.68C80.6797 56.9937 80.8901 57.2944 81.12 57.58C81.3113 57.8989 81.4752 58.2334 81.61 58.58C81.7692 59.0021 81.8766 59.442 81.93 59.89C81.93 60.19 81.93 61.19 82.02 62.89C82.0648 64.8632 81.9444 66.8368 81.66 68.79C81.3881 71.4192 80.7833 74.0032 79.86 76.48C79.1563 78.365 78.1865 80.1397 76.98 81.75C76.0656 82.9787 74.921 84.0179 73.61 84.81C72.609 85.4138 71.4842 85.783 70.32 85.89C69.3926 85.9321 68.4651 85.8102 67.58 85.53C66.4197 85.1749 65.3349 84.6088 64.38 83.86C63.1747 82.902 62.1575 81.7289 61.38 80.4C60.3374 78.6173 59.5656 76.6896 59.09 74.68C58.4444 71.9226 58.109 69.1018 58.09 66.27C58.0483 62.3826 58.336 58.4987 58.95 54.66C59.3598 51.6975 59.9611 48.7647 60.75 45.88C61.3771 43.5961 62.1589 41.3576 63.09 39.18C63.8089 37.4832 64.6826 35.8564 65.7 34.32C66.495 33.1288 67.3989 32.014 68.4 30.99C70.1542 29.1082 72.4503 27.8187 74.97 27.3C75.7392 27.1687 76.5302 27.2953 77.22 27.66C77.8663 28.0701 78.3938 28.6424 78.75 29.32C79.2999 30.4545 79.5479 31.7116 79.47 32.97C79.5393 34.117 79.4484 35.268 79.2 36.39C79.0268 37.2071 78.7372 37.9951 78.34 38.73C78.2192 39.0423 78.0017 39.3078 77.7192 39.4877C77.4368 39.6676 77.1042 39.7525 76.77 39.73C76.3335 39.7535 75.8986 39.6603 75.51 39.46C75.2024 39.3321 74.9579 39.0876 74.83 38.78C74.7661 38.5305 74.7535 38.2708 74.793 38.0163C74.8326 37.7619 74.9234 37.5182 75.06 37.3C75.24 36.76 75.46 36.08 75.74 35.3C76.0004 34.5245 76.1944 33.7283 76.32 32.92C76.4547 32.2601 76.4547 31.5798 76.32 30.92C76.2558 30.6599 76.1145 30.4252 75.9146 30.2468C75.7148 30.0684 75.4657 29.9544 75.2 29.92C74.4092 29.9713 73.6401 30.2003 72.95 30.59C71.4175 31.4709 70.134 32.7269 69.22 34.24C67.5231 36.9084 66.2481 39.8227 65.44 42.88C64.0511 47.9428 63.2327 53.1452 63 58.39C62.82 61.63 62.7734 64.45 62.86 66.85C62.9188 68.9458 63.1293 71.0346 63.49 73.1C63.7413 74.5913 64.1365 76.0548 64.67 77.47C65.0343 78.4629 65.5322 79.4015 66.15 80.26C66.6016 81.008 67.2338 81.6307 67.9886 82.071C68.7434 82.5113 69.5966 82.7551 70.47 82.78C71.2226 82.7043 71.9548 82.4908 72.63 82.15C72.899 81.9743 73.1532 81.7769 73.39 81.56C73.8859 81.1023 74.3106 80.5732 74.65 79.99C75.2007 79.0615 75.6564 78.0799 76.01 77.06C76.4999 75.5854 76.8351 74.0639 77.01 72.52C77.25 70.48 77.4734 68.5133 77.68 66.62C77.8776 64.9604 77.9844 63.2912 78 61.62C78.0346 60.4336 77.8828 59.2492 77.55 58.11C77.4622 57.723 77.2613 57.3709 76.9728 57.0984C76.6844 56.826 76.3214 56.6455 75.93 56.58C75.09 56.46 74.2 56.37 73.27 56.31C72.34 56.25 71.46 56.22 70.62 56.22H67.74C67.4837 56.2258 67.2279 56.1955 66.98 56.13C66.8965 56.1164 66.8168 56.0853 66.7462 56.0388C66.6755 55.9923 66.6155 55.9313 66.57 55.86C66.51 55.44 66.75 55.05 67.29 54.69C67.6717 54.5445 68.0626 54.4242 68.46 54.33C69.0224 54.1967 69.594 54.1064 70.17 54.06H73.86V54.07Z" fill="#475B63"/>
<path opacity="0.99" d="M103.47 56.3199C104.01 56.3199 104.22 56.8299 104.1 57.8499C103.98 58.3899 103.86 58.9899 103.74 59.6499C103.62 60.1899 103.48 60.8199 103.33 61.5399C103.161 62.3344 102.937 63.1162 102.66 63.8799C102.42 64.7199 102.18 65.5899 101.94 66.4899C101.7 67.2699 101.4 68.1699 101.04 69.1899C100.68 70.2099 100.29 71.2299 99.87 72.2499C99.5082 73.1059 99.0556 73.9205 98.5201 74.6799C98.0477 75.2704 97.5185 75.813 96.94 76.2999C96.6807 76.531 96.372 76.6998 96.0376 76.7934C95.7031 76.887 95.3516 76.9029 95.01 76.8399C94.2835 76.6962 93.5994 76.3884 93.01 75.9399C92.2625 75.3569 91.6487 74.6204 91.2101 73.7799C90.6048 72.6482 90.1637 71.436 89.9 70.1799C89.5471 68.4934 89.3828 66.7728 89.41 65.0499C89.4206 63.817 89.494 62.5854 89.6301 61.3599C89.7801 59.9199 89.98 58.4599 90.22 56.9899C90.46 55.5199 90.7401 54.0799 91.0701 52.6699C91.3546 51.4178 91.7392 50.1905 92.22 48.9999C92.3348 48.7785 92.3801 48.5276 92.3501 48.2799C92.3393 48.1001 92.3393 47.9198 92.3501 47.7399C92.2968 47.5955 92.2665 47.4437 92.26 47.2899C92.1327 47.1599 92.0125 47.0231 91.9 46.8799C91.7711 46.7247 91.6194 46.5898 91.45 46.4799C91.2071 46.273 90.934 46.1043 90.64 45.9799C90.4 45.8899 90.2201 45.8199 90.1001 45.7599C89.9556 45.7067 89.8038 45.6764 89.65 45.6699C89.53 46.8699 89.38 47.9799 89.2 48.9999C89.02 50.0199 88.84 50.9499 88.66 51.7899C88.42 52.7499 88.21 53.6199 88.03 54.3999C87.7655 55.8326 87.4047 57.2458 86.95 58.6299C86.7412 59.1904 86.561 59.7612 86.41 60.3399C86.05 61.3599 85.6 61.7199 85.06 61.4199C84.88 61.3599 84.79 61.1599 84.79 60.8299C84.8016 60.4209 84.862 60.0147 84.97 59.6199C85.0577 59.0733 85.1779 58.5323 85.33 57.9999C85.45 57.4599 85.6 56.8299 85.78 56.1099C85.96 55.3899 86.1401 54.5499 86.3201 53.5899L86.86 50.3499C86.98 49.4499 87.11 48.4599 87.26 47.3499C87.4019 46.3963 87.4787 45.4341 87.4901 44.4699C87.4241 43.9588 87.4546 43.4398 87.58 42.9399C87.6886 42.5642 87.8878 42.2208 88.16 41.9399C88.3591 41.7946 88.59 41.6988 88.8334 41.6606C89.0769 41.6223 89.326 41.6427 89.56 41.7199C90.4467 41.9211 91.2967 42.2584 92.08 42.7199C92.8444 43.2255 93.5519 43.8123 94.19 44.4699C94.9961 45.3441 95.6124 46.3758 96 47.4999L96.36 48.9399C96.5475 49.688 96.6217 50.4599 96.58 51.2299C96.5214 52.2183 96.2628 53.1844 95.8201 54.0699C95.0114 56.0874 94.4083 58.1814 94.0201 60.3199C93.615 62.4137 93.3876 64.5379 93.34 66.6699C93.2861 68.3487 93.4373 70.0278 93.79 71.6699C94.12 73.0499 94.65 73.8299 95.37 74.0099C95.91 74.1299 96.49 73.68 97.12 72.66C97.8132 71.515 98.4022 70.3102 98.8801 69.0599C99.6114 67.297 100.242 65.4942 100.77 63.66C101.07 62.82 101.32 62.0199 101.53 61.2699C101.74 60.5199 101.91 59.9099 102.03 59.4299C102.15 58.9499 102.36 58.2899 102.48 57.8099C102.572 57.4069 102.706 57.0147 102.88 56.6399C103 56.3799 103.23 56.2599 103.47 56.3199Z" fill="#475B63"/>
<path opacity="0.99" d="M117.6 48.49C117.81 48.2726 118.053 48.0903 118.32 47.95C118.395 47.9184 118.479 47.9101 118.559 47.9261C118.639 47.9422 118.713 47.9818 118.77 48.04C118.89 48.16 118.92 48.46 118.86 48.94C118.74 49.94 117.86 50.75 116.11 51.5C114.001 52.2936 111.716 52.4975 109.5 52.09C110.086 53.7822 110.566 55.5088 110.94 57.26C111.416 59.3408 111.568 61.4828 111.39 63.61C111.243 65.2184 110.972 66.8132 110.58 68.38C110.318 69.4864 109.893 70.5479 109.32 71.53C109.157 71.9213 108.857 72.2392 108.475 72.4235C108.094 72.6079 107.658 72.6457 107.25 72.53C106.458 72.3817 105.716 72.0379 105.09 71.53C104.531 71.0661 104.045 70.5198 103.65 69.91C103.301 69.3716 103.042 68.7807 102.88 68.16C102.73 67.56 102.63 67.08 102.57 66.72C102.51 66.36 102.43 65.47 102.34 64.06C102.237 62.4416 102.237 60.8183 102.34 59.2C102.473 57.2797 102.744 55.3715 103.15 53.49C103.529 51.6141 104.23 49.8177 105.22 48.18C105.473 48.0519 105.714 47.9013 105.94 47.73C106.576 47.3934 107.292 47.2377 108.01 47.28C108.314 47.2749 108.611 47.3701 108.855 47.5509C109.099 47.7317 109.276 47.988 109.36 48.28C109.438 48.6089 109.42 48.9531 109.308 49.2721C109.197 49.5911 108.996 49.8714 108.73 50.08L110.62 50.3C111.366 50.3923 112.12 50.409 112.87 50.35C113.681 50.2816 114.48 50.1136 115.25 49.85C116.114 49.5525 116.912 49.0907 117.6 48.49V48.49ZM109 63.79C109.047 62.934 109.047 62.076 109 61.22C108.968 60.2156 108.878 59.214 108.73 58.22C108.58 57.22 108.42 56.27 108.24 55.43C108.129 54.8114 107.948 54.2076 107.7 53.63C107.46 54.89 107.22 56.18 106.98 57.5C106.8 58.64 106.6 59.85 106.39 61.14C106.194 62.3188 106.061 63.5071 105.99 64.7C105.788 66.2111 105.924 67.7483 106.39 69.2C106.78 69.98 107.16 70.31 107.52 70.2C107.88 70.09 108.1 69.34 108.37 67.99C108.66 66.6032 108.871 65.2009 109 63.79V63.79Z" fill="#475B63"/>
<path opacity="0.99" d="M133.17 49.48C133.512 49.6976 133.892 49.8501 134.29 49.93C134.832 50.0959 135.394 50.1867 135.96 50.2C136.94 50.2036 137.918 50.1132 138.88 49.93C140.08 49.6052 141.179 48.9865 142.08 48.13C142.331 47.9225 142.602 47.7416 142.89 47.59C143.37 47.35 143.52 47.6833 143.34 48.59C143.1 49.79 142.14 50.79 140.46 51.59C138.469 52.4333 136.259 52.6087 134.16 52.09C134.293 52.6523 134.384 53.224 134.43 53.8C134.49 54.4667 134.58 55.2467 134.7 56.14C134.76 57.34 134.8 58.81 134.83 60.55C134.86 62.29 134.83 64.13 134.83 66.08C134.83 68.03 134.65 70 134.47 71.98C134.312 73.7927 134.055 75.5954 133.7 77.38C133.436 78.7866 133.014 80.1588 132.44 81.47C132.137 82.3376 131.51 83.0542 130.69 83.47C130.203 83.6141 129.687 83.6232 129.195 83.4964C128.704 83.3696 128.256 83.1116 127.9 82.75C126.853 81.6764 126.054 80.386 125.56 78.97C124.576 76.1836 123.97 73.2776 123.76 70.33C123.28 72.25 122.77 73.99 122.23 75.55C121.792 76.7708 121.264 77.9574 120.65 79.1C120.08 80.15 119.5 80.62 118.9 80.5C118.189 80.3633 117.512 80.0859 116.909 79.6841C116.306 79.2822 115.79 78.7641 115.39 78.16C114.279 76.3721 113.659 74.3236 113.59 72.22C113.459 70.5568 113.412 68.888 113.45 67.22C113.45 65.18 113.54 62.96 113.72 60.56C113.9 58.16 114.14 55.7133 114.44 53.22C114.751 50.845 115.188 48.4883 115.75 46.16C115.794 45.835 115.918 45.5259 116.11 45.26C116.41 44.72 116.8 44.57 117.28 44.81C117.556 44.9563 117.811 45.1378 118.04 45.35C118.342 45.6344 118.586 45.9738 118.76 46.35C118.993 46.846 119.145 47.376 119.21 47.92C119.313 48.6832 119.313 49.4568 119.21 50.22C119.038 51.2466 118.918 52.2813 118.85 53.32C118.73 54.79 118.59 56.46 118.44 58.32C118.29 60.18 118.17 62.13 118.08 64.17C117.99 66.21 117.95 68.1 117.95 69.84C117.95 71.58 118.01 73.05 118.13 74.25C118.25 75.45 118.49 76.17 118.85 76.41C119.09 76.35 119.423 75.63 119.85 74.25C120.21 73.11 120.673 71.25 121.24 68.67C121.807 66.09 122.543 62.37 123.45 57.51C123.505 57.0538 123.596 56.6024 123.72 56.16L124.08 55.08C124.172 54.7607 124.361 54.4778 124.62 54.27C124.874 54.0794 125.146 53.912 125.43 53.77C125.695 53.6304 125.983 53.5389 126.28 53.5C126.516 53.464 126.757 53.5136 126.96 53.64C127.14 53.76 127.2 54.03 127.14 54.45C127.034 55.209 126.974 55.9737 126.96 56.74C126.9 58.0333 126.84 59.5933 126.78 61.42C126.72 63.2467 126.72 65.2133 126.78 67.32C126.84 69.42 126.973 71.4 127.18 73.26C127.35 74.9094 127.685 76.5376 128.18 78.12C128.432 79.2219 129.093 80.187 130.03 80.82C130.721 79.3713 131.176 77.8219 131.38 76.23C131.742 73.7249 131.952 71.2004 132.01 68.67C132.13 65.43 132.04 61.14 131.74 55.8C131.638 54.5134 131.379 53.2441 130.97 52.02C130.624 51.1963 130.486 50.2997 130.57 49.41C130.63 49.11 130.76 48.93 130.97 48.87C131.193 48.8101 131.427 48.8101 131.65 48.87C131.962 48.9145 132.265 49.0055 132.55 49.14C132.63 49.2143 132.721 49.2751 132.82 49.32C132.93 49.3874 133.047 49.4411 133.17 49.48Z" fill="#475B63"/>
<path opacity="0.99" d="M173.43 55C173.715 55.178 174.03 55.3033 174.36 55.37C174.811 55.5092 175.278 55.5866 175.75 55.6C176.569 55.6011 177.386 55.5241 178.19 55.37C179.187 55.098 180.101 54.5826 180.85 53.87C181.061 53.6972 181.289 53.5464 181.53 53.42C181.93 53.22 182.05 53.5 181.9 54.25C181.725 54.8275 181.417 55.3557 181 55.7918C180.583 56.2279 180.069 56.5596 179.5 56.76C177.839 57.4565 175.999 57.6003 174.25 57.17C174.363 57.6401 174.44 58.1182 174.48 58.6C174.48 59.15 174.6 59.8 174.7 60.6C174.75 61.6 174.79 62.82 174.81 64.27C174.83 65.72 174.81 67.27 174.81 68.88C174.81 70.49 174.66 72.15 174.51 73.8C174.375 75.3101 174.162 76.8122 173.87 78.3C173.661 79.4694 173.326 80.6128 172.87 81.71C172.613 82.4366 172.092 83.0399 171.41 83.4C171.003 83.517 170.573 83.5231 170.163 83.4176C169.754 83.3121 169.379 83.0989 169.08 82.8C168.212 81.9018 167.547 80.8275 167.13 79.65C166.31 77.3244 165.806 74.8995 165.63 72.44C165.23 74.05 164.81 75.5 164.36 76.8C163.991 77.8296 163.55 78.832 163.04 79.8C162.57 80.67 162.04 81.06 161.58 80.96C160.983 80.8413 160.417 80.6029 159.915 80.2591C159.413 79.9153 158.986 79.4734 158.66 78.96C157.726 77.4555 157.209 75.73 157.16 73.96C157.06 72.86 157.02 71.46 157.04 69.76C157.04 68.06 157.14 66.21 157.27 64.21C157.4 62.21 157.59 60.21 157.87 58.1C158.125 56.1182 158.489 54.1519 158.96 52.21C158.993 51.9382 159.097 51.6798 159.26 51.46C159.51 51.01 159.83 50.89 160.26 51.09C160.491 51.2128 160.706 51.364 160.9 51.54C161.147 51.7753 161.351 52.053 161.5 52.36C161.691 52.7745 161.816 53.2166 161.87 53.67C161.959 54.3069 161.959 54.9531 161.87 55.59C161.722 56.4437 161.622 57.305 161.57 58.17C161.46 59.4 161.35 60.79 161.23 62.34C161.11 63.89 161 65.51 160.93 67.21C160.86 68.91 160.82 70.49 160.82 71.94C160.805 73.1651 160.855 74.3901 160.97 75.61C161.07 76.61 161.27 77.21 161.57 77.41C161.76 77.41 162.04 76.76 162.39 75.61C162.69 74.61 163.08 73.11 163.55 70.96C164.02 68.81 164.64 65.71 165.39 61.66C165.433 61.2805 165.51 60.9056 165.62 60.54C165.72 60.24 165.81 59.94 165.92 59.63C165.996 59.3648 166.153 59.1304 166.37 58.96C166.578 58.7994 166.802 58.6619 167.04 58.55C167.262 58.4329 167.502 58.3551 167.75 58.32C167.948 58.2933 168.149 58.3357 168.32 58.44C168.47 58.54 168.51 58.76 168.47 59.11C168.376 59.7424 168.326 60.3806 168.32 61.02C168.26 62.1 168.21 63.4 168.17 64.92C168.13 66.44 168.13 68.08 168.17 69.84C168.17 71.59 168.33 73.24 168.5 74.84C168.644 76.1974 168.922 77.5372 169.33 78.84C169.543 79.7566 170.093 80.5598 170.87 81.09C171.442 79.8799 171.82 78.5875 171.99 77.26C172.289 75.172 172.466 73.0685 172.52 70.96C172.61 68.26 172.52 64.69 172.29 60.24C172.208 59.1675 171.993 58.1094 171.65 57.09C171.359 56.4024 171.246 55.6528 171.32 54.91C171.324 54.8107 171.358 54.7148 171.416 54.6347C171.475 54.5545 171.557 54.4937 171.65 54.46C171.837 54.4099 172.033 54.4099 172.22 54.46C172.48 54.4973 172.733 54.5749 172.97 54.69C173.033 54.7538 173.108 54.8047 173.19 54.84C173.263 54.9026 173.344 54.9563 173.43 55Z" fill="#475B63"/>
<path opacity="0.99" d="M188.42 60.73C188.88 60.73 189.05 61.15 188.95 62C188.9 62.45 188.82 63 188.73 63.5C188.64 64 188.5 64.5 188.35 65.08C188.2 65.66 188.02 66.33 187.82 67.08C187.62 67.83 187.35 68.5 187.15 69.25C186.95 70 186.65 70.65 186.4 71.5C186.133 72.3744 185.798 73.2269 185.4 74.05C185.098 74.7542 184.723 75.4246 184.28 76.05C183.885 76.5384 183.446 76.9902 182.97 77.4C182.75 77.5867 182.492 77.7236 182.214 77.8012C181.936 77.8789 181.645 77.8955 181.36 77.85C180.36 77.65 179.5 76.72 178.8 75.07C178.048 73.137 177.691 71.0731 177.75 69C177.75 68.2 177.75 67.23 177.83 66.11C177.91 64.99 177.96 63.8 178.05 62.55C178.14 61.3 178.29 60.07 178.47 58.87C178.65 57.67 178.84 56.58 179.07 55.61C179.23 54.802 179.496 54.0186 179.86 53.28C180.15 52.71 180.5 52.42 180.86 52.42C180.972 52.4486 181.078 52.4996 181.17 52.57C181.501 52.8124 181.779 53.1184 181.99 53.47C182.354 54.1356 182.51 54.8947 182.44 55.65C182.358 56.7317 182.208 57.8072 181.99 58.87C181.74 60.27 181.53 61.87 181.35 63.75C181.17 65.63 181.06 67.37 181.01 69.07C180.957 70.5337 180.984 71.9992 181.09 73.46C181.19 74.68 181.36 75.37 181.61 75.52C181.86 75.67 182.48 75.46 183 74.58C183.572 73.6236 184.06 72.6199 184.46 71.58C185.087 70.0585 185.638 68.5065 186.11 66.93C186.36 66.23 186.58 65.56 186.75 64.93C186.92 64.3 187.06 63.79 187.17 63.39C187.28 62.99 187.44 62.44 187.54 62.04C187.614 61.6944 187.728 61.3588 187.88 61.04C188.04 60.7866 188.22 60.6833 188.42 60.73ZM181.75 51.2C180.95 51.1 180.55 50.83 180.55 50.38C180.55 49.93 181.12 49.75 181.98 49.85C182.84 49.95 183.17 50.35 183.17 50.75C183.17 51.15 182.6 51.35 181.75 51.2Z" fill="#475B63"/>
<path opacity="0.99" d="M212.2 43.0999C212.2 43.1999 212.1 43.2799 211.9 43.3299C211.582 43.4546 211.242 43.5158 210.9 43.5099L208.73 43.6299H206.29C205.22 43.6299 203.98 43.6299 202.58 43.6299H193.35C193.103 44.9633 192.853 46.5133 192.6 48.2799C192.347 50.0466 192.097 51.9966 191.85 54.1299C191.6 55.7299 191.4 57.3699 191.25 59.0399C191.1 60.7099 190.98 62.3599 190.88 63.9599C190.823 64.5181 190.796 65.0789 190.8 65.6399V67.3299C190.753 68.5833 190.753 69.7333 190.8 70.7799C190.849 71.6716 190.949 72.5598 191.1 73.4399C191.148 74.1124 191.444 74.7432 191.93 75.2099C192.458 74.6672 192.879 74.0293 193.17 73.3299C193.59 72.4299 194 71.4799 194.4 70.4799C194.85 69.3299 195.28 68.1099 195.68 66.8099C195.93 66.1099 196.15 65.4399 196.35 64.8099C196.55 64.1799 196.7 63.6699 196.8 63.2699C196.9 62.8699 197.08 62.3199 197.18 61.9199C197.254 61.5744 197.368 61.2387 197.52 60.9199C197.64 60.6699 197.78 60.5699 197.93 60.6199C198.43 60.6199 198.6 61.0399 198.45 61.8899C198.4 62.3399 198.33 62.8899 198.23 63.3899C198.13 63.8899 198 64.3899 197.85 64.9699C197.7 65.5499 197.53 66.2199 197.33 66.9699C197.13 67.7199 196.85 68.3899 196.65 69.1399C196.45 69.8899 196.15 70.5399 195.9 71.3899C195.633 72.2645 195.299 73.117 194.9 73.9399C194.675 74.492 194.397 75.0211 194.07 75.5199C193.821 75.9192 193.518 76.2826 193.17 76.5999C193.027 76.7495 192.852 76.8649 192.658 76.9376C192.464 77.0103 192.256 77.0384 192.05 77.0199C191.662 77.0319 191.275 76.9645 190.914 76.8218C190.553 76.6791 190.225 76.464 189.95 76.1899C189.407 75.6545 188.973 75.0196 188.67 74.3199C188.3 73.4489 188.025 72.5403 187.85 71.6099C187.637 70.687 187.51 69.7463 187.47 68.7999C187.47 67.7999 187.4 66.7999 187.4 65.9899V62.9899C187.7 58.6899 188.073 54.9166 188.52 51.6699C188.967 48.4233 189.393 45.7566 189.8 43.6699C188.2 43.6699 186.74 43.5799 185.41 43.5599C184.08 43.5399 182.97 43.4999 182.07 43.4499C181.17 43.3999 180.68 43.4499 180.12 43.3699L178.81 43.2199C178.44 43.2199 178.25 43.0999 178.25 42.9999C178.25 42.7499 178.76 42.5599 179.79 42.4299C181.452 42.2833 183.121 42.2232 184.79 42.2499C185.35 42.2499 186.07 42.3199 186.97 42.3199H190.04C190.14 41.7199 190.24 41.1799 190.34 40.7099C190.418 40.3179 190.518 39.9306 190.64 39.5499C190.736 39.2212 190.812 38.8874 190.87 38.5499C191.058 38.0213 191.31 37.5176 191.62 37.0499C191.723 36.9144 191.852 36.8012 192 36.717C192.148 36.6327 192.311 36.5793 192.48 36.5599C192.81 36.5599 193.17 36.8499 193.57 37.4999C193.67 37.7499 193.77 38.0299 193.87 38.3299C194.07 39.0129 194.094 39.7352 193.94 40.4299C193.871 40.6623 193.821 40.8997 193.79 41.1399C193.74 41.4599 193.67 41.8499 193.57 42.2999C195.57 42.2999 197.67 42.2999 199.87 42.2999C202.07 42.2999 204.07 42.3366 205.87 42.4099C207.67 42.4099 209.16 42.5399 210.33 42.6399C211.5 42.7399 212.15 42.9999 212.2 43.0999Z" fill="#475B63"/>
<path opacity="0.99" d="M200.42 67.55C200.62 66.05 200.89 64.43 201.21 62.67C201.516 61.0249 201.916 59.3988 202.41 57.8C202.8 56.4983 203.355 55.2516 204.06 54.09C204.259 53.6814 204.561 53.3318 204.936 53.0757C205.311 52.8197 205.747 52.666 206.2 52.63C206.353 52.6288 206.505 52.6524 206.65 52.7C206.77 52.7587 206.893 52.8088 207.02 52.85C207.211 52.9223 207.39 53.0235 207.55 53.15C208.282 53.908 208.785 54.858 209 55.89C209.432 58.0782 209.482 60.3245 209.15 62.53C209.097 63.1967 209.047 63.7967 209 64.33C208.95 64.83 208.9 65.33 208.85 65.75C208.809 66.0819 208.786 66.4157 208.78 66.75C208.68 68.95 208.68 70.9 208.78 72.6C208.86 74.3 209.04 75.27 209.34 75.52C209.64 75.77 210.21 75.46 210.73 74.58C211.302 73.6236 211.79 72.6199 212.19 71.58C212.817 70.0585 213.368 68.5066 213.84 66.93C214.09 66.23 214.32 65.56 214.52 64.93C214.72 64.3 214.87 63.79 214.97 63.39C215.07 62.99 215.24 62.44 215.34 62.04C215.418 61.6958 215.532 61.3607 215.68 61.04C215.81 60.79 215.97 60.69 216.17 60.74C216.62 60.74 216.77 61.16 216.62 62.01C216.57 62.46 216.49 63.01 216.39 63.51C216.29 64.01 216.17 64.51 216.02 65.09C215.87 65.67 215.69 66.34 215.49 67.09C215.29 67.84 215.02 68.51 214.82 69.26C214.62 70.01 214.32 70.66 214.07 71.51C213.803 72.3844 213.468 73.237 213.07 74.06C212.768 74.7642 212.393 75.4346 211.95 76.06C211.555 76.5484 211.116 77.0002 210.64 77.41C210.419 77.5981 210.159 77.7358 209.88 77.8135C209.6 77.8912 209.307 77.9071 209.02 77.86C208.02 77.66 207.17 76.73 206.47 75.08C205.718 73.147 205.361 71.0831 205.42 69.01C205.42 68.11 205.42 67.01 205.54 65.7C205.66 64.39 205.7 63.03 205.8 61.58C205.805 61.3651 205.829 61.151 205.87 60.94C205.92 60.67 205.97 60.38 206.02 60.08C206.07 59.78 206.12 59.36 206.17 58.95C206.17 58.76 206.17 58.51 206.17 58.2C206.2 57.9041 206.2 57.6059 206.17 57.31C206.154 57.0374 206.09 56.7699 205.98 56.52C205.951 56.4231 205.891 56.338 205.81 56.2769C205.729 56.2159 205.631 56.1819 205.53 56.18C205.13 56.13 204.7 56.74 204.22 58.02C203.663 59.6015 203.212 61.2185 202.87 62.86C202.45 64.8067 202.1 66.9167 201.82 69.19C201.556 71.2925 201.442 73.4113 201.48 75.53C201.68 76.18 201.61 76.63 201.26 76.88C201.162 76.9745 201.037 77.0359 200.903 77.0556C200.768 77.0754 200.631 77.0524 200.51 76.99C200.23 76.8466 199.977 76.6573 199.76 76.43C199.458 76.1187 199.18 75.7843 198.93 75.43C198.282 74.3505 197.85 73.1548 197.66 71.91C197.41 70.51 197.23 69.16 197.13 67.86C197.03 66.31 197.01 64.71 197.06 63.06C197.313 59.26 197.647 55.8467 198.06 52.82C198.473 49.7933 198.873 47.2333 199.26 45.14C199.707 42.6933 200.157 40.5167 200.61 38.61C200.757 38.0776 200.987 37.5715 201.29 37.11C201.393 36.9745 201.522 36.8612 201.67 36.777C201.818 36.6928 201.981 36.6394 202.15 36.62C202.48 36.62 202.84 36.91 203.24 37.56C203.385 37.8508 203.508 38.1516 203.61 38.46C203.717 38.7478 203.768 39.0532 203.76 39.36C203.756 39.7414 203.706 40.1208 203.61 40.49C203.51 40.89 203.33 41.85 203.05 43.37C202.77 44.89 202.49 46.75 202.19 48.92C201.89 51.09 201.59 53.44 201.29 55.92C200.99 58.4 200.76 60.85 200.61 63.2C200.61 63.75 200.61 64.3 200.54 64.85C200.47 65.4 200.45 65.78 200.43 66.28C200.385 66.7019 200.381 67.1274 200.42 67.55Z" fill="#475B63"/>
<path opacity="0.99" d="M253.26 63C252.78 64.62 252.3 66.15 251.82 67.59C251.4 68.79 250.95 69.99 250.47 71.19C250.095 72.1826 249.602 73.1261 249 74C248.805 74.3635 248.563 74.6997 248.28 75C248.037 75.2425 247.765 75.4541 247.47 75.63C247.338 75.7147 247.187 75.7669 247.031 75.7826C246.874 75.7982 246.717 75.7768 246.57 75.72C246.09 75.72 245.7 75.39 245.41 74.72C245.077 73.9931 244.803 73.2407 244.59 72.47C244.35 71.47 244.14 70.47 243.97 69.32C243.8 68.17 243.6 66.98 243.42 65.54C243.25 63.62 243.11 61.66 243.02 59.65C242.93 57.64 242.82 55.76 242.7 54.02C242.58 52.02 242.493 50.07 242.44 48.17C242.27 49.91 242.14 51.76 242.03 53.71C241.92 55.66 241.82 57.65 241.72 59.71C241.59 61.51 241.5 63.4 241.44 65.38C241.38 67.36 241.35 69.28 241.35 71.14C241.35 73 241.35 74.74 241.4 76.36C241.45 77.98 241.5 79.36 241.62 80.36C241.628 80.6193 241.661 80.8773 241.72 81.13C241.771 81.4521 241.859 81.7673 241.98 82.07C242.1 82.43 242.22 82.85 242.34 83.33C242.46 83.81 242.44 84.11 242.25 84.23C241.89 84.47 241.47 84.35 240.98 83.87C240.732 83.6298 240.516 83.3574 240.34 83.06C240.073 82.6142 239.839 82.1496 239.64 81.67C239.199 80.5334 238.864 79.3584 238.64 78.16C238.239 76.0918 237.961 74.0014 237.81 71.9C237.588 68.725 237.541 65.5402 237.67 62.36C237.91 56.72 238.3 51.4867 238.84 46.66C239.293 42.3005 240.076 37.9816 241.18 33.74C241.282 33.3619 241.434 32.9989 241.63 32.66C241.93 31.9933 242.32 31.7833 242.8 32.03C242.975 32.1116 243.125 32.2378 243.235 32.3957C243.346 32.5537 243.413 32.7379 243.43 32.93C244.03 33.5967 244.33 36.2967 244.33 41.03C244.33 41.75 244.33 42.82 244.42 44.23C244.51 45.64 244.54 47.23 244.6 48.95C244.66 50.67 244.74 52.58 244.83 54.62C244.92 56.66 245.02 58.62 245.14 60.62C245.26 62.42 245.38 64.13 245.51 65.75C245.62 67.13 245.74 68.53 245.86 69.94C245.98 71.35 246.1 72.44 246.23 73.22C246.34 73.4 246.55 72.89 246.85 71.69C247.15 70.49 247.48 69.11 247.85 67.55C248.27 65.75 248.723 63.68 249.21 61.34C249.38 60.62 249.59 59.77 249.83 58.78C250.07 57.79 250.34 56.84 250.64 55.94C250.883 54.8439 251.187 53.7622 251.55 52.7C252.2 50.7 252.85 48.7 253.48 46.7C254.11 44.7 254.75 42.83 255.41 41.03C256.07 39.23 256.72 37.58 257.35 36.03C257.98 34.48 258.53 33.24 259.02 32.16C259.37 31.44 259.74 30.78 260.09 30.16C260.359 29.7079 260.697 29.2998 261.09 28.95C261.245 28.7941 261.443 28.6888 261.659 28.6477C261.875 28.6067 262.099 28.6319 262.3 28.72C262.651 28.9802 262.927 29.3274 263.103 29.7273C263.278 30.1271 263.346 30.5658 263.3 31C263.32 32.3348 263.273 33.6698 263.16 35C263.1 35.78 262.97 37 262.76 38.65C262.55 40.3 262.34 42.22 262.13 44.41C261.92 46.6 261.69 49 261.45 51.61C261.21 54.22 261 56.9 260.82 59.61C260.7 61.65 260.613 63.78 260.56 66C260.49 68.22 260.47 70.37 260.47 72.44C260.47 74.51 260.47 76.44 260.47 78.24C260.47 80.04 260.57 81.54 260.69 82.74C260.77 83.0053 260.83 83.276 260.87 83.55C260.93 83.9178 261.024 84.2792 261.15 84.63C261.26 85.05 261.4 85.53 261.55 86.07C261.7 86.61 261.65 86.94 261.41 87.07C261.313 87.1561 261.193 87.2108 261.064 87.2269C260.935 87.243 260.805 87.2196 260.69 87.16C260.437 87.0319 260.196 86.8813 259.97 86.71C259.701 86.4342 259.46 86.1328 259.25 85.81C258.923 85.294 258.639 84.7522 258.4 84.19C257.881 82.9287 257.489 81.6189 257.23 80.28C256.763 77.9695 256.446 75.6313 256.28 73.28C256.037 69.715 256.007 66.1386 256.19 62.57C256.37 58.25 256.65 54.17 257 50.33C256.4 52.37 255.89 54.08 255.47 55.46L254.21 59.6L253.26 63Z" fill="#475B63"/>
<path opacity="0.99" d="M281.89 59.2899C281.587 61.3005 281.136 63.2858 280.54 65.2299C280.008 66.9894 279.339 68.7046 278.54 70.3599C277.757 72.0403 276.676 73.5649 275.35 74.8599C274.532 75.67 273.59 76.3451 272.56 76.8599C271.56 77.3641 270.425 77.5358 269.32 77.3499C268.646 77.2475 268.001 77.002 267.43 76.6299C266.925 76.3049 266.495 75.8752 266.17 75.3699C265.808 74.835 265.506 74.2615 265.27 73.6599C264.876 72.7453 264.632 71.7726 264.55 70.7799C264.43 69.6399 264.34 68.5299 264.28 67.4499C264.22 66.1161 264.25 64.7797 264.37 63.4499C264.539 61.0035 264.853 58.5692 265.31 56.1599C265.633 54.2962 266.101 52.4606 266.71 50.6699C267.043 49.6433 267.529 48.6725 268.15 47.7899C268.625 47.1058 269.205 46.5016 269.87 45.9999C270.606 45.4459 271.523 45.1889 272.44 45.2799C273.053 45.3465 273.64 45.5629 274.15 45.9099C274.684 46.2845 275.103 46.8005 275.36 47.3999C275.746 48.2851 275.964 49.2348 276 50.1999C276.045 50.7116 276.015 51.2271 275.91 51.7299C275.78 52.2099 275.64 52.7299 275.46 53.4399C275.256 54.1715 275.016 54.8924 274.74 55.5999C274.435 56.3809 274.009 57.1096 273.48 57.7599C272.96 58.3929 272.388 58.9816 271.77 59.5199C271.032 60.1268 270.173 60.5699 269.25 60.8199C269.18 61.8999 269.1 63.0099 268.98 64.1499C268.86 65.2899 268.76 66.2699 268.71 67.4399C268.64 68.5922 268.64 69.7477 268.71 70.8999C268.699 71.4455 268.759 71.9902 268.89 72.5199C269.009 72.9375 269.159 73.3454 269.34 73.7399C269.413 73.9172 269.523 74.0767 269.663 74.2078C269.802 74.3389 269.969 74.4385 270.15 74.4999C270.568 74.6789 271.023 74.7559 271.477 74.7246C271.931 74.6933 272.37 74.5546 272.76 74.3199C273.631 73.8039 274.395 73.1248 275.01 72.3199C275.683 71.4078 276.285 70.4449 276.81 69.4399C277.53 67.9908 278.132 66.4859 278.61 64.9399C278.9 64.0999 279.16 63.3199 279.37 62.5999C279.58 61.8799 279.74 61.2799 279.87 60.7999C280 60.3199 280.19 59.6899 280.32 59.2699C280.407 58.8656 280.541 58.4729 280.72 58.0999C280.87 57.7999 281.07 57.6799 281.31 57.7399C281.8 57.7599 282 58.2699 281.89 59.2899ZM272.44 46.9999C271.84 46.9399 271.36 47.5099 271 48.7099C270.609 50.0211 270.308 51.3576 270.1 52.7099C269.853 54.4499 269.613 56.4299 269.38 58.6499C270.621 57.9509 271.635 56.9095 272.3 55.6499C272.956 54.4555 273.412 53.1618 273.65 51.8199C273.873 50.7211 273.873 49.5888 273.65 48.4899C273.383 47.5299 272.98 47.0333 272.44 46.9999Z" fill="#475B63"/>
<path opacity="0.99" d="M287.38 75.1299C287.386 75.3796 287.34 75.6278 287.247 75.8596C287.154 76.0914 287.015 76.3019 286.839 76.4785C286.662 76.6551 286.452 76.7941 286.22 76.8872C285.988 76.9802 285.74 77.0254 285.49 77.0199C285.254 77.0217 285.02 76.9747 284.804 76.8817C284.587 76.7888 284.391 76.652 284.23 76.4799C284.053 76.3038 283.913 76.0931 283.82 75.8609C283.727 75.6287 283.683 75.3799 283.69 75.1299C283.703 74.6565 283.896 74.206 284.231 73.8711C284.566 73.5363 285.017 73.3426 285.49 73.3299C285.74 73.3229 285.989 73.3672 286.221 73.4601C286.453 73.553 286.664 73.6925 286.84 73.8699C287.011 74.0321 287.147 74.2275 287.24 74.4442C287.333 74.6608 287.381 74.8942 287.38 75.1299V75.1299Z" fill="#475B63"/>
<path opacity="0.99" d="M322 87.57C319.193 85.43 317.743 81.5333 317.65 75.88C317.65 75 318.05 74.56 318.84 74.56C319.776 75.0445 320.673 75.603 321.52 76.23C324.54 80.0433 326.387 83.28 327.06 85.94C327.15 85.71 327.23 85.46 327.32 85.2L328.02 83.26C328.584 81.7194 329.068 80.1506 329.47 78.56C329.77 76.74 330.03 75.07 330.27 73.56C329.008 73.2679 327.804 72.7641 326.71 72.07C324.443 69.8507 322.766 67.101 321.83 64.07C321.83 63.42 322.22 63.07 323.01 62.88C324.879 63.1402 326.693 63.7043 328.38 64.55C329.424 65.4542 330.352 66.4856 331.14 67.62C331.32 66.16 331.45 65.08 331.54 64.37C331.69 62.5 331.82 61.56 331.94 61.56C332.11 59.01 332.24 56.95 332.33 55.36C331.27 55.36 329.15 54.59 325.96 53.03C322.94 49.8433 321.327 47.28 321.12 45.34V44.51C321.12 43.72 321.68 43.32 322.79 43.32C323.885 43.2712 324.975 43.4981 325.96 43.98C327.96 43.98 330.11 45.59 332.46 48.82V45.38C332.44 42.7304 332.219 40.0862 331.8 37.47C331.45 36.15 331.14 34.97 330.88 33.91C329.301 33.7128 327.741 33.3782 326.22 32.91C324.896 32.1076 323.496 31.4377 322.04 30.91C319.5 29.09 318.22 27.37 318.22 25.72V23.72C318.22 22.93 318.66 22.53 319.54 22.53C320.568 22.5966 321.579 22.8192 322.54 23.19C324.473 23.19 326.67 24.4066 329.13 26.84C328.495 24.5319 327.703 22.27 326.76 20.07C326.03 18.93 325.38 17.9 324.83 16.99C323.95 16.99 323.04 16.99 322.1 16.86C316.1 15.98 313.1 14.3533 313.1 11.98V9.99995C313.1 9.34995 313.5 8.99996 314.29 8.80996C318.743 9.47662 320.97 10.0333 320.97 10.48H321.28V5.99995C321.767 3.21995 322.617 1.82996 323.83 1.82996C324.058 1.8305 324.281 1.88901 324.48 1.99995C325.887 2.93995 327.06 5.00662 328 8.19995V9.29995L328.18 9.64996H328C328 13.2166 327.667 15 327 15L327.18 15.83C327.179 15.9189 327.162 16.0069 327.13 16.09C327.389 16.4953 327.61 16.9238 327.79 17.37L329.15 19.87C330.15 22.69 330.9 25 331.39 26.87C331.45 26.66 331.51 26.56 331.57 26.56C332.241 24.7237 333.141 22.9798 334.25 21.37L337.25 18.21H337.56C338.56 18.21 339.05 19.5 339.05 22.08V22.21C338.95 24.2688 338.507 26.2966 337.74 28.21C337.241 29.7689 336.312 31.1553 335.06 32.21C334.522 32.9743 333.868 33.6493 333.12 34.21C333.972 37.9179 334.428 41.7058 334.48 45.51V49.6C334.672 49.3093 334.879 49.029 335.1 48.76C335.681 46.9108 336.873 45.3137 338.48 44.23C339.823 43.1465 341.342 42.301 342.97 41.73C343.76 41.73 344.15 42.17 344.15 43.05V43.71C343.853 45.5674 343.291 47.3725 342.48 49.07C339.96 52.85 337.293 54.9 334.48 55.22C334.42 57.13 334.36 58.65 334.3 59.79C334.24 60.93 334.11 61.64 334 61.64C333.881 63.9041 333.644 66.1605 333.29 68.4C333.749 67.793 334.299 67.2601 334.92 66.82C338.08 64.04 340.747 62.65 342.92 62.65C343.513 62.65 343.953 63.03 344.24 63.79C344.24 64.55 343.523 66.3366 342.09 69.15C339.857 71.2633 338.143 72.4366 336.95 72.67C335.858 73.3054 334.646 73.7072 333.39 73.85H332.51C332.231 76.0427 331.82 78.2166 331.28 80.36C330.714 82.3397 330.047 84.289 329.28 86.2H329.42C330.47 85.12 333.2 84.2 337.59 83.52C340.05 83.61 341.28 84 341.28 84.71L341.11 85.71C339.904 86.788 338.787 87.9618 337.77 89.22C336.1 90.34 333.53 91.11 330.08 91.55H327.88C327.496 91.5582 327.112 91.5145 326.74 91.42C325.04 93.9133 323.707 95.16 322.74 95.16C322.04 95.16 321.74 94.86 321.74 94.28L321.91 93.3999C322.889 92.7254 323.751 91.8943 324.46 90.94L325.16 89.8C324.059 89.1274 323.003 88.3825 322 87.57ZM323.28 14.31C321.031 12.2931 318.149 11.1227 315.13 11V11.53C315.174 12.038 315.41 12.5102 315.79 12.85C318.227 14.2499 320.98 15.0069 323.79 15.05C323.742 14.9795 323.699 14.906 323.66 14.83L323.28 14.31ZM319.67 77.55C319.693 79.038 319.978 80.5103 320.51 81.9C320.6 82.9 322.12 84.6499 325.08 87.2599C324.567 84.1599 322.773 80.9233 319.7 77.55H319.67ZM325.67 26.55C324.056 25.517 322.211 24.8987 320.3 24.75H320.13V25.89C320.631 26.9512 321.387 27.8719 322.33 28.57C326.13 30.68 328.64 31.74 329.84 31.74H330.19C329.78 30.54 328.27 28.82 325.73 26.53L325.67 26.55ZM329 47.8C328 46.69 326.1 45.8 323.28 45.29H323.11C323.11 45.79 324.11 47.35 325.97 49.95C327.551 51.5812 329.586 52.6996 331.81 53.16H332C331.463 51.1508 330.432 49.308 329 47.8V47.8ZM325.53 13.65C325.85 13.65 326.01 12.44 326.01 10.01C326.023 9.82211 326.081 9.64021 326.18 9.47995C326.07 9.47995 326.01 9.41995 326.01 9.29995V8.15995C326.01 7.45995 325.33 6.15996 324.01 4.28996C323.71 4.28996 323.49 4.84995 323.35 5.95995V10.14C323.351 10.8155 323.58 11.4708 324 12L324.48 12.4C324.678 12.4987 324.845 12.6512 324.96 12.84C325.31 13.2 325.51 13.48 325.51 13.65H325.53ZM329.74 69.2C328.02 66.6466 326.353 65.3733 324.74 65.38H324.57C324.851 66.0717 325.185 66.7405 325.57 67.38C327.71 70.16 329.377 71.55 330.57 71.55L329.74 69.2ZM333.26 86.6C331.573 87.0244 330.094 88.039 329.09 89.46V89.59H329.44C330.08 89.59 330.44 89.59 330.44 89.46C331.929 89.4939 333.405 89.1777 334.75 88.5368C336.094 87.8959 337.269 86.9481 338.18 85.77V85.59C336.496 85.7041 334.834 86.0438 333.24 86.6H333.26ZM336.78 21.7C334.4 24.57 333.13 27.07 332.95 29.21V31.41C334.31 30.3891 335.351 29.0015 335.95 27.41C336.676 25.7757 337.08 24.017 337.14 22.23V21.57L336.78 21.7ZM339.1 66.21C336.85 68.09 335.52 69.14 335.1 69.38C334.25 70.93 333.75 71.71 333.6 71.71V71.88C334.1 71.77 334.6 71.66 335.18 71.57C335.942 71.2673 336.678 70.9028 337.38 70.48C339.488 69.3713 341.07 67.4727 341.78 65.2V65C340.843 65.3156 339.939 65.7208 339.08 66.21H339.1ZM337.7 48.28C336.783 49.7198 335.99 51.2353 335.33 52.81V53H335.68C337.17 52.16 337.95 51.54 338.01 51.16C340.046 49.5686 341.461 47.3151 342.01 44.79V44.61C340.187 45.2982 338.658 46.5945 337.68 48.28H337.7Z" fill="#BACDB0"/>
</g>
</svg>
