<svg width="173" height="35" viewBox="0 0 173 35" fill="none" xmlns="http://www.w3.org/2000/svg">
<g opacity="0.99">
<path opacity="0.99" d="M10.558 32.7436L10.9266 33.1658C11.295 33.5208 11.7459 33.8289 12.26 34.0769L12.3541 34.4047C12.3541 34.6214 12.1659 34.7325 11.7972 34.7325C11.311 34.7325 10.6207 34.2714 9.73444 33.3492C9.53613 33.38 9.33353 33.3949 9.1305 33.3936H7.98537C6.57091 33.3203 5.19688 33.0262 3.96173 32.5325C3.44302 32.0685 2.87395 31.6338 2.25972 31.2325L2.1656 30.8547C2.1656 30.5936 2.80875 30.4492 4.09506 30.4158C6.39578 30.6751 7.82066 31.0066 8.36969 31.4103H8.44028C8.02895 30.703 7.67541 29.9796 7.38143 29.2436C7.09453 28.4523 6.8797 27.6488 6.73827 26.8381H6.27552C5.62002 26.7834 4.98735 26.634 4.41664 26.3992C3.38322 26.1256 2.45972 25.6774 1.72637 25.0936C1.18558 24.4831 0.793197 23.8127 0.565552 23.1103C0.714576 22.8269 0.942033 22.6881 1.24792 22.6881C2.4009 22.6881 3.80486 23.1992 5.45981 24.2325C5.77931 24.3871 6.06477 24.5743 6.30689 24.7881C6.12345 23.9579 6.0004 23.1216 5.93825 22.2825C5.8755 22.2825 5.82844 22.0547 5.80491 21.5992C5.78138 21.1436 5.71864 20.6103 5.68726 19.9325C4.19703 19.8158 2.80091 19.0547 1.48322 17.6547C1.06002 17.0262 0.764284 16.3585 0.604768 15.6714V15.4269C0.604768 15.0992 0.816539 14.9381 1.23224 14.9381C2.08533 15.1503 2.88107 15.4641 3.58524 15.8658C4.42498 16.2636 5.04979 16.8511 5.35784 17.5325C5.48334 17.6381 5.5853 17.7436 5.67942 17.8381V16.3381C5.70622 14.9296 5.94549 13.5272 6.39317 12.1547C6.00615 11.9445 5.66976 11.6912 5.39706 11.4047C4.73703 11.0119 4.2498 10.4932 3.9931 9.91028C3.59251 9.20137 3.35932 8.4506 3.30288 7.68806V7.64362C3.30288 6.68806 3.56171 6.21028 4.08722 6.21028H4.24409L5.81276 7.38251C6.39048 7.97709 6.85959 8.6211 7.20888 9.29917C7.20888 9.29917 7.27162 9.33806 7.303 9.41584C7.55921 8.74177 7.94876 7.88436 8.47166 6.84362L9.1854 5.91584C9.28158 5.75187 9.39702 5.59391 9.53051 5.44362C9.5236 5.41233 9.5236 5.38046 9.53051 5.34917L9.62463 5.03806C9.27168 5.03806 9.09912 4.37695 9.09912 3.04917H9.005L9.09912 2.9214V2.49917C9.58541 1.31769 10.1972 0.552878 10.9345 0.20473C11.0389 0.160913 11.1582 0.137881 11.2796 0.138063C11.907 0.138063 12.3541 0.65473 12.6129 1.68251V3.34917H12.7698C12.7698 3.17695 13.9385 2.9714 16.268 2.73251C16.6758 2.78806 16.8876 2.93251 16.8876 3.17139V3.88806C16.8876 4.76584 15.3189 5.36769 12.1816 5.69362C11.6953 5.72695 11.2168 5.74362 10.7619 5.74362L9.71091 6.89917C9.21582 7.71345 8.79916 8.55056 8.46381 9.40473C9.75012 8.50473 10.9005 8.05473 11.9149 8.05473C12.4166 7.91585 12.9459 7.83337 13.4836 7.81028C13.9463 7.81028 14.1738 7.95473 14.1738 8.24917V8.9825C14.1738 9.58621 13.5071 10.227 12.1737 10.9047C11.417 11.1048 10.6915 11.3599 10.009 11.6658C9.21221 11.8399 8.39625 11.9662 7.56967 12.0436C7.43633 12.4325 7.27162 12.8714 7.09122 13.3603C6.86936 14.3284 6.75398 15.3073 6.74612 16.2881V17.5436C7.96968 16.351 9.10174 15.7547 10.1423 15.7547C10.6554 15.5743 11.2252 15.4902 11.7972 15.5103C12.3776 15.5103 12.6757 15.6547 12.6757 15.9492V16.2547C12.5659 16.9732 11.7214 17.9232 10.1423 19.1047C9.11129 19.5284 7.98286 19.8199 6.80886 19.9658V19.9658C6.84808 20.5547 6.91867 21.3214 7.01279 22.2658C7.16572 22.6014 7.24249 22.9521 7.24025 23.3047C7.24025 23.5658 7.33437 23.9658 7.42849 24.5103C7.83074 24.0758 8.31054 23.6799 8.85598 23.3325C9.74155 23.0241 10.6929 22.8214 11.6717 22.7325C12.0796 22.7881 12.2914 22.9381 12.2914 23.1714C11.8035 24.3 10.9276 25.3251 9.74228 26.1547C9.16925 26.4139 8.53793 26.6018 7.87556 26.7103C8.00105 27.2658 8.13439 27.8936 8.29126 28.5658C8.50998 29.1565 8.77177 29.7388 9.07559 30.3103L9.44423 31.0269C9.48345 31.1214 9.53051 31.2158 9.57757 31.2992C10.1882 29.9751 11.1669 28.751 12.4561 27.6992C12.8979 27.4652 13.3677 27.2588 13.86 27.0825C14.2757 27.0825 14.4797 27.2436 14.4797 27.5714C14.4326 29.6603 13.6953 31.1047 12.2051 31.8992C11.6836 32.2067 11.1333 32.4888 10.558 32.7436V32.7436ZM1.73421 15.9825V16.0436C2.02263 16.9794 2.76332 17.8145 3.82839 18.4047C3.82839 18.5436 4.25977 18.7769 5.04411 19.0881H5.22451V19.0214C4.87974 18.4417 4.46513 17.8841 3.98526 17.3547C3.48365 16.7255 2.68743 16.2401 1.73421 15.9825ZM1.87539 23.5492V23.6158C2.05863 24.0305 2.35607 24.4154 2.75051 24.7482C3.14496 25.081 3.6286 25.3551 4.1735 25.5547C4.53707 25.7142 4.92036 25.8499 5.31863 25.9603C5.60622 25.9936 5.86766 26.0325 6.10296 26.0769V26.0103C5.78041 25.7536 5.51584 25.4631 5.31863 25.1492C5.10685 25.0603 4.4088 24.6714 3.22445 23.977C2.79503 23.8042 2.34329 23.661 1.87539 23.5492V23.5492ZM3.78133 31.1658V31.2325C4.25608 31.6688 4.86908 32.0198 5.57079 32.2572C6.27249 32.4946 7.04321 32.6118 7.82066 32.5992C7.82066 32.6325 7.99321 32.6492 8.33047 32.6492H8.5344V32.5992C8.00923 32.0728 7.23601 31.6965 6.35395 31.5381C5.52395 31.3326 4.6586 31.2074 3.78133 31.1658ZM4.30683 7.43251V7.67695C4.33568 8.34007 4.54612 8.9929 4.92646 9.59917C5.23699 10.1948 5.78122 10.7152 6.49513 11.0992V10.2825C6.40624 9.49362 5.74217 8.56769 4.50292 7.50473L4.30683 7.43251ZM6.96573 19.1547H7.05985C8.22194 18.9837 9.28481 18.5695 10.1109 17.9658C11.1384 16.9992 11.6717 16.4269 11.6717 16.2381H11.5776C10.4525 16.318 9.38973 16.642 8.5344 17.1658C7.78461 17.7253 7.24522 18.4092 6.96573 19.1547V19.1547ZM7.75007 25.9547C8.37753 25.9547 9.24815 25.4436 10.3697 24.4103C10.5669 24.175 10.7399 23.9299 10.8874 23.6769H10.7933C9.95405 23.6769 9.08344 24.1492 8.17361 25.0936L7.75007 25.9547ZM7.90693 11.2103H8.09517C8.72264 11.2103 10.0299 10.8195 12.0169 10.0381C12.5077 9.78026 12.9011 9.44057 13.162 9.04917V8.62139H13.0679C12.0712 8.67693 11.1094 8.90593 10.2678 9.28806C9.30899 9.81499 8.50217 10.4676 7.89125 11.2103H7.90693ZM10.6913 4.21028C10.7535 4.14183 10.84 4.08625 10.9423 4.04917L11.1933 3.90473C11.4131 3.71073 11.5346 3.47011 11.5384 3.22139V1.66584C11.46 1.25473 11.3502 1.04917 11.1933 1.04917C10.6684 1.45803 10.294 1.95224 10.1031 2.48806V2.91028C10.1031 2.95473 10.1031 2.97695 10.0168 2.97695C10.067 3.03599 10.0965 3.10264 10.1031 3.17139C10.1031 4.07139 10.1894 4.52139 10.3619 4.52139C10.3776 4.44362 10.4717 4.35473 10.6756 4.21028H10.6913ZM10.5972 31.7825C12.1659 30.8158 12.9633 30.1547 12.9894 29.7992C13.2668 29.2845 13.4129 28.739 13.4208 28.1881C12.008 29.1689 11.0225 30.4165 10.5815 31.7825H10.5972ZM11.3815 4.94362L11.311 5.02695C12.7799 5.01127 14.2188 4.73017 15.4915 4.21028C15.6881 4.08558 15.8113 3.91304 15.8366 3.72695V3.52695C14.251 3.5731 12.7384 4.01148 11.5619 4.76584L11.3815 4.94362Z" fill="#F2F7F5"/>
<path opacity="0.99" d="M28.5619 20.0616C29.0238 20.0591 29.4836 20.1047 29.926 20.1969C30.3172 20.273 30.6999 20.3691 31.0708 20.4843C31.4895 20.6162 31.8631 20.8083 32.1669 21.0479C32.2695 21.1657 32.3835 21.2787 32.5079 21.386C32.6132 21.51 32.7028 21.6401 32.7759 21.7749C32.8611 21.9329 32.9183 22.0975 32.9464 22.2652C32.9464 22.3779 32.9626 22.7536 32.9951 23.3923C33.0193 24.133 32.9541 24.8739 32.8002 25.6071C32.6465 26.5922 32.3136 27.5598 31.8097 28.4869C31.4252 29.1934 30.9005 29.8592 30.2507 30.465C29.753 30.9195 29.1325 31.3023 28.4239 31.5921C27.8817 31.817 27.2744 31.9556 26.6458 31.9979C26.1431 32.0107 25.6409 31.965 25.1599 31.8626C24.5347 31.7268 23.9491 31.515 23.4305 31.2371C22.778 30.8765 22.2274 30.4351 21.8066 29.9353C21.2428 29.2658 20.8242 28.5423 20.5644 27.7881C20.2087 26.752 20.0208 25.6915 20.0042 24.6265C19.9727 23.1759 20.1194 21.726 20.4426 20.2927C20.6652 19.1822 20.9906 18.0829 21.4169 17.0015C21.7564 16.1428 22.1795 15.3012 22.6835 14.4823C23.0727 13.8449 23.5456 13.2336 24.0963 12.6564C24.5266 12.2089 25.0159 11.79 25.5578 11.4053C26.5074 10.6984 27.7502 10.2139 29.114 10.0189C29.5295 9.97038 29.9565 10.0158 30.3319 10.1485C30.6741 10.3087 30.9532 10.5257 31.1439 10.7797C31.4466 11.2024 31.5864 11.6722 31.5498 12.1436C31.5876 12.5764 31.5384 13.0107 31.4037 13.4341C31.3109 13.741 31.155 14.0371 30.9409 14.3133C30.8802 14.4268 30.7684 14.5237 30.6222 14.5896C30.476 14.6556 30.303 14.6872 30.129 14.6796C29.8934 14.6899 29.6581 14.6569 29.4469 14.5838C29.365 14.5603 29.2905 14.5258 29.2278 14.4823C29.1651 14.4387 29.1154 14.3871 29.0816 14.3302C29.0452 14.2355 29.0372 14.1366 29.0582 14.0396C29.0791 13.9427 29.1285 13.8498 29.2034 13.7666L29.5687 13.0058C29.6941 12.724 29.7865 12.4357 29.8448 12.1436C29.9194 11.8926 29.9194 11.6337 29.8448 11.3827C29.8118 11.2828 29.7359 11.1921 29.6272 11.1227C29.5185 11.0533 29.3821 11.0084 29.2358 10.9939C28.8077 11.0143 28.3915 11.1009 28.0179 11.2475C27.1874 11.5774 26.4917 12.0487 25.9962 12.617C25.0822 13.6212 24.3923 14.7156 23.9501 15.8631C23.2036 17.764 22.7625 19.7164 22.6348 21.6847C22.5374 22.902 22.513 23.9615 22.5617 24.8632C22.5856 25.6508 22.6914 26.4362 22.8784 27.2132C23.0165 27.7722 23.2285 28.3212 23.5117 28.8532C23.7144 29.2243 23.9874 29.5749 24.3236 29.8958C24.5665 30.1783 24.9082 30.4136 25.3169 30.5801C25.7256 30.7466 26.1883 30.8388 26.662 30.8482C27.0678 30.8145 27.4628 30.7345 27.8312 30.6115C27.8961 30.5815 28.0342 30.5082 28.2453 30.3917C28.5105 30.2276 28.7402 30.0378 28.9273 29.8282C29.2244 29.4703 29.4692 29.0927 29.658 28.7011C29.9297 28.1527 30.1175 27.586 30.2183 27.0104C30.3482 26.2589 30.47 25.5207 30.5836 24.7956C30.6896 24.1726 30.7465 23.5461 30.7541 22.9189C30.7729 22.4732 30.6907 22.0282 30.5106 21.6002C30.4596 21.4571 30.3494 21.3275 30.1936 21.2273C30.0378 21.1272 29.8431 21.0609 29.6337 21.0366C29.179 20.9915 28.7 20.9577 28.1966 20.9351C27.6932 20.9126 27.2141 20.9013 26.7594 20.9013H25.2168C25.0772 20.9033 24.9378 20.8919 24.8027 20.8675C24.758 20.8622 24.7153 20.8504 24.6776 20.8329C24.6398 20.8155 24.6078 20.7927 24.5835 20.7661C24.5835 20.6083 24.6809 20.4618 24.9732 20.3209C25.1356 20.2814 25.3467 20.2363 25.6065 20.1912C25.9109 20.1412 26.2203 20.1073 26.5321 20.0898H28.5619V20.0616Z" fill="#F2F7F5"/>
<path opacity="0.99" d="M45.6227 20.4031C45.9301 20.4031 46.0497 20.5888 45.9814 20.9604C45.9131 21.1611 45.8447 21.384 45.7764 21.6292C45.7081 21.8745 45.6313 22.1067 45.5459 22.3259C45.4472 22.621 45.3188 22.9114 45.1616 23.1954C45.025 23.5075 44.8884 23.8308 44.7517 24.1652C44.6151 24.4996 44.4443 24.834 44.2394 25.1684C44.0344 25.54 43.8124 25.9116 43.5733 26.2831C43.3674 26.6012 43.1097 26.9039 42.8048 27.1861C42.5369 27.4054 42.2366 27.607 41.9082 27.788C41.7577 27.8714 41.5813 27.9325 41.3911 27.9672C41.201 28.0018 41.0016 28.0091 40.8066 27.9887C40.3983 27.9317 40.0137 27.8176 39.6795 27.6542C39.2539 27.4376 38.9045 27.1639 38.6548 26.8517C38.311 26.4311 38.0609 25.9807 37.9119 25.514C37.7098 24.8874 37.6153 24.2481 37.6301 23.6079C37.6372 23.1497 37.6799 22.6921 37.7581 22.2368C37.8435 21.7017 37.9546 21.1611 38.0912 20.6149C38.2278 20.0687 38.39 19.5336 38.5779 19.0097C38.736 18.5478 38.9501 18.095 39.2183 17.6553C39.2845 17.5732 39.3113 17.48 39.2952 17.3878C39.2894 17.3209 39.2894 17.254 39.2952 17.1871C39.2651 17.1334 39.2478 17.077 39.244 17.0199L39.0476 16.9085C38.9726 16.8496 38.8865 16.7972 38.7914 16.7524C38.651 16.6794 38.4958 16.6194 38.3303 16.574L38.0229 16.4904C37.9409 16.4693 37.8546 16.4561 37.7667 16.4514C37.6984 16.9029 37.613 17.3153 37.5105 17.6943C37.408 18.0733 37.3056 18.4189 37.2031 18.731C37.1006 19.0431 36.9469 19.411 36.8445 19.7008C36.6939 20.2331 36.4885 20.7582 36.2296 21.2725C36.1108 21.4808 36.0082 21.6929 35.9222 21.9079C35.7173 22.2869 35.4611 22.4207 35.1537 22.3036C35.0512 22.3036 35 22.2145 35 22.0918C35.0065 21.9392 35.0409 21.7877 35.1025 21.6404C35.1524 21.4373 35.2208 21.2363 35.3074 21.0384C35.3757 20.8378 35.4611 20.6037 35.5636 20.3362C35.6661 20.0687 35.7685 19.7565 35.871 19.3998L36.1784 18.1959C36.2467 17.8615 36.3236 17.49 36.409 17.0812C36.471 16.7298 36.4967 16.376 36.4858 16.0223C36.4505 15.836 36.4678 15.6471 36.5371 15.4649C36.602 15.3317 36.7164 15.2111 36.8701 15.1138C36.9817 15.0583 37.1126 15.0217 37.2511 15.0071C37.3896 14.9925 37.5315 15.0004 37.6642 15.0302C38.1698 15.1013 38.6543 15.2255 39.0988 15.398C39.5329 15.5861 39.9364 15.8028 40.3028 16.0446C40.7644 16.3662 41.1216 16.7453 41.3531 17.1593L41.5581 17.7166C41.6658 17.9951 41.7089 18.2825 41.6862 18.5694C41.6517 18.9361 41.5036 19.2945 41.2507 19.6228C40.7903 20.3711 40.447 21.1479 40.226 21.9414C40.021 22.7034 39.9125 23.4752 39.9015 24.2488C39.869 24.8775 39.955 25.5065 40.1577 26.1215C40.3455 26.6343 40.6302 26.9241 41.0116 26.991C41.319 27.0356 41.652 26.8684 42.0107 26.4838C42.406 26.0609 42.7405 25.6149 43.0097 25.1517C43.4273 24.4951 43.7866 23.8233 44.0857 23.1397C44.2565 22.8331 44.4016 22.5377 44.5212 22.2591C44.6407 21.9804 44.7346 21.7519 44.803 21.5735C44.8713 21.3952 44.9908 21.1499 45.0591 20.9716C45.1121 20.8217 45.1894 20.676 45.2897 20.5368C45.3751 20.4254 45.4861 20.3808 45.6227 20.4031Z" fill="#F2F7F5"/>
<path opacity="0.99" d="M53.2984 17.4983C53.4165 17.4211 53.5481 17.3557 53.69 17.3036C53.732 17.2931 53.7773 17.2915 53.8206 17.2988C53.8639 17.3061 53.9034 17.322 53.9347 17.3449C54 17.3921 54.0163 17.5101 53.9837 17.6988C53.9184 18.0922 53.4208 18.4285 52.4907 18.7077C51.3416 19.016 50.099 19.0954 48.8929 18.9378C49.2223 19.6035 49.4948 20.2833 49.7087 20.9732C49.9679 21.791 50.0505 22.6328 49.9535 23.4688C49.8734 24.1014 49.7261 24.7287 49.5129 25.345C49.3703 25.7801 49.1394 26.1976 48.8276 26.5839C48.7387 26.7374 48.5748 26.8618 48.3672 26.9336C48.1597 27.0054 47.9228 27.0195 47.7018 26.9733C47.2693 26.9108 46.8653 26.7709 46.527 26.5662C46.2112 26.3855 45.936 26.1706 45.7112 25.929C45.5223 25.7165 45.3818 25.4835 45.2951 25.2388C45.2135 25.0028 45.1564 24.8061 45.1238 24.6488C45.0912 24.4915 45.064 24.1434 45.0422 23.6045C44.9859 22.968 44.9859 22.3295 45.0422 21.693C45.1145 20.9371 45.2618 20.1859 45.4828 19.4452C45.6889 18.7073 46.0698 18.0008 46.6086 17.3567C46.7462 17.3063 46.8773 17.247 47.0002 17.1797C47.346 17.0473 47.7354 16.986 48.126 17.0027C48.2905 17.0004 48.4515 17.0373 48.5841 17.1077C48.7168 17.178 48.8138 17.2779 48.8603 17.3921C48.9026 17.5214 48.8928 17.6568 48.8321 17.7823C48.7714 17.9077 48.6622 18.018 48.5176 18.1L49.5456 18.1885C49.9525 18.2183 50.3624 18.2183 50.7693 18.1885C51.2111 18.1623 51.6468 18.0969 52.0665 17.9938C52.5159 17.885 52.9335 17.717 53.2984 17.4983ZM48.5992 23.516C48.6251 23.18 48.6251 22.8432 48.5992 22.5072C48.5816 22.1121 48.5326 21.7182 48.4524 21.3272C48.3708 20.9339 48.281 20.5681 48.1831 20.2298C48.1227 19.9866 48.0242 19.749 47.8894 19.5219C47.7752 20.0096 47.642 20.515 47.4897 21.0381C47.3918 21.4865 47.2857 21.9644 47.1715 22.4659C47.0646 22.9309 46.9911 23.3995 46.9512 23.87C46.8416 24.4645 46.9169 25.0692 47.1715 25.6399C47.3836 25.9467 47.5876 26.0765 47.7834 26.0293C47.9466 25.9821 48.1016 25.6871 48.2484 25.1621C48.4087 24.6187 48.5258 24.0691 48.5992 23.516Z" fill="#F2F7F5"/>
<path opacity="0.99" d="M61.4964 18.7289C61.6801 18.8071 61.8835 18.8619 62.0964 18.8908C62.3847 18.949 62.6836 18.9798 62.9845 18.9825C63.521 18.9873 64.0569 18.9566 64.5846 18.8908C65.2233 18.7734 65.8088 18.5509 66.2887 18.2432C66.4224 18.1686 66.5672 18.1035 66.7207 18.049C66.9767 17.9626 67.0567 18.0813 66.9607 18.4051C66.8481 18.6537 66.6504 18.8809 66.3836 19.0684C66.1167 19.2559 65.7882 19.3984 65.4246 19.4844C64.3622 19.7863 63.1837 19.8487 62.0644 19.6625C62.1355 19.8648 62.1836 20.0704 62.2084 20.2777C62.2404 20.5151 62.2884 20.7957 62.3524 21.1195C62.3844 21.5512 62.4084 22.08 62.4244 22.706C62.4404 23.332 62.4404 23.9957 62.4244 24.6972C62.3498 25.3952 62.2644 26.1039 62.1684 26.8234C62.0846 27.4755 61.9484 28.124 61.7604 28.7661C61.6205 29.2705 61.3978 29.7628 61.0964 30.2339C60.9321 30.5478 60.5976 30.8081 60.1603 30.9624C59.9041 31.0109 59.6335 31.0125 59.3761 30.967C59.1187 30.9215 58.884 30.8305 58.6962 30.7034C58.1395 30.3162 57.7137 29.8523 57.4481 29.3435C56.9243 28.3409 56.6014 27.2955 56.4881 26.2352C56.232 26.9259 55.9654 27.5519 55.688 28.1131C55.4537 28.5507 55.173 28.9763 54.848 29.3867C54.5439 29.7698 54.2319 29.9263 53.9119 29.8939C53.5331 29.8435 53.1728 29.7432 52.8515 29.5988C52.5303 29.4543 52.2544 29.2685 52.0398 29.0521C51.4421 28.4026 51.1108 27.6577 51.0797 26.8936C51.0101 26.2904 50.986 25.6852 51.0077 25.0804C51.0077 24.3609 51.0557 23.5622 51.1517 22.6844C51.2477 21.8066 51.3624 20.9342 51.4957 20.0672C51.6605 19.2122 51.8929 18.3638 52.1918 17.5255C52.216 17.4087 52.2819 17.2976 52.3838 17.2017C52.5438 17.0075 52.7518 16.9535 53.0078 17.0398C53.1558 17.0924 53.2929 17.1577 53.4159 17.2341C53.5761 17.3354 53.7064 17.4562 53.7999 17.5903C53.92 17.7609 54.0009 17.9429 54.0399 18.1299C54.095 18.4021 54.095 18.678 54.0399 18.9502C53.9759 19.1714 53.9119 19.5438 53.8479 20.0726L53.6319 21.8696C53.5519 22.5387 53.4879 23.2402 53.4399 23.9741C53.3919 24.708 53.3679 25.388 53.3679 26.014C53.3679 26.6399 53.3999 27.1688 53.4639 27.6005C53.5279 28.0322 53.6559 28.2858 53.8479 28.3776C53.9759 28.3506 54.1519 28.0969 54.3759 27.6005C54.5679 27.1904 54.816 26.5212 55.12 25.593C55.424 24.6649 55.816 23.3356 56.296 21.6052C56.3256 21.441 56.3737 21.2787 56.4401 21.1195L56.6321 20.7309C56.6774 20.6149 56.7787 20.5124 56.9201 20.4395C57.0559 20.3716 57.2005 20.312 57.3521 20.2615C57.4944 20.2112 57.6488 20.1783 57.8081 20.1643C57.9329 20.1509 58.0606 20.1682 58.1682 20.2129C58.2642 20.2561 58.2962 20.3532 58.2642 20.5043C58.2075 20.778 58.1754 21.0537 58.1682 21.3299C58.1362 21.794 58.1042 22.3552 58.0722 23.0136C58.0402 23.6719 58.0402 24.3789 58.0722 25.1344C58.1042 25.8898 58.1762 26.6094 58.2882 27.2929C58.3777 27.8861 58.5546 28.4718 58.8162 29.0413C58.952 29.4369 59.3033 29.7836 59.8003 30.0126C60.1676 29.4912 60.4106 28.9339 60.5203 28.3614C60.7119 27.4673 60.8241 26.5663 60.8563 25.6632C60.9203 24.4976 60.8723 22.9542 60.7123 21.0331C60.6612 20.5556 60.5214 20.0842 60.2963 19.6301C60.1111 19.3338 60.037 19.0113 60.0803 18.6911C60.0843 18.6481 60.1069 18.6067 60.1452 18.5722C60.1836 18.5377 60.2361 18.5115 60.2963 18.4969C60.4142 18.4753 60.5384 18.4753 60.6563 18.4969C60.8226 18.5129 60.9844 18.5456 61.1364 18.594C61.1791 18.6205 61.2277 18.6423 61.2804 18.6588C61.347 18.689 61.4198 18.7126 61.4964 18.7289V18.7289Z" fill="#F2F7F5"/>
<path opacity="0.99" d="M86.1628 18.7231C86.3591 18.8012 86.5763 18.856 86.8039 18.8849C87.1116 18.9446 87.4308 18.9772 87.7526 18.982C88.3119 18.9833 88.87 18.9508 89.4194 18.8849C90.1018 18.7675 90.7274 18.5451 91.24 18.2375C91.3829 18.1629 91.5376 18.0978 91.7016 18.0433C91.9751 17.957 92.0606 18.0757 91.958 18.3994C91.8378 18.6479 91.6265 18.875 91.3414 19.0624C91.0563 19.2499 90.7054 19.3924 90.3169 19.4784C89.1819 19.7802 87.9227 19.8426 86.7269 19.6564C86.8028 19.8586 86.8543 20.0642 86.8808 20.2714C86.915 20.5088 86.9663 20.7893 87.0346 21.113C87.0688 21.5446 87.0945 22.0733 87.1116 22.6991C87.1287 23.3249 87.1287 23.9885 87.1116 24.6899C87.0774 25.3912 87.009 26.0979 86.9064 26.8101C86.8175 27.462 86.672 28.1104 86.4705 28.7522C86.3202 29.2587 86.0793 29.7528 85.7525 30.2251C85.5884 30.541 85.2359 30.8042 84.7695 30.9588C84.4922 31.0104 84.1979 31.0136 83.9179 30.968C83.6379 30.9224 83.3828 30.8297 83.1797 30.6998C82.5829 30.3137 82.1277 29.8496 81.8463 29.3403C81.2855 28.3381 80.9405 27.293 80.8206 26.2328C80.5471 26.9234 80.2621 27.5492 79.9658 28.1102C79.7309 28.5491 79.4452 28.9764 79.1111 29.3889C78.7863 29.7485 78.4529 29.9158 78.111 29.8906C77.7057 29.8413 77.32 29.7415 76.9766 29.597C76.6331 29.4525 76.3388 29.2662 76.1109 29.049C75.4723 28.3997 75.1183 27.655 75.0852 26.891C75.0108 26.288 74.9851 25.683 75.0082 25.0783C75.0082 24.359 75.0595 23.5605 75.1621 22.6829C75.2647 21.8054 75.4014 20.926 75.5724 20.0448C75.7186 19.1984 75.9354 18.3574 76.222 17.5254C76.2478 17.4086 76.3182 17.2975 76.4271 17.2017C76.5981 17.0075 76.8203 16.9535 77.0938 17.0398C77.2519 17.0924 77.3984 17.1577 77.5298 17.2341C77.701 17.3353 77.8402 17.4561 77.9401 17.5901C78.0684 17.7607 78.1549 17.9426 78.1965 18.1296C78.2552 18.4035 78.2552 18.6812 78.1965 18.955C78.0985 19.3249 78.03 19.6976 77.9913 20.0718L77.7606 21.8683C77.6751 22.5373 77.6067 23.2386 77.5554 23.9723C77.5041 24.706 77.4785 25.3858 77.4785 26.0116C77.4785 26.6374 77.5127 27.1661 77.581 27.5977C77.6494 28.0293 77.7862 28.2883 77.9913 28.3746C78.1281 28.353 78.3161 28.0941 78.5555 27.5977C78.7606 27.1877 79.0256 26.5187 79.3504 25.5908C79.6752 24.6629 80.0826 23.3411 80.5727 21.6255C80.6043 21.4614 80.6557 21.2991 80.7265 21.14L80.9317 20.7516C80.9845 20.6368 81.0919 20.5351 81.2394 20.4602C81.3845 20.3923 81.539 20.3327 81.701 20.2822C81.853 20.2319 82.018 20.199 82.1882 20.1851C82.3215 20.1717 82.4579 20.1889 82.5728 20.2336C82.6754 20.2768 82.7096 20.3739 82.6754 20.525C82.6149 20.7986 82.5806 21.0742 82.5728 21.3504C82.5386 21.8144 82.5044 22.3754 82.4702 23.0336C82.4361 23.6918 82.4361 24.3985 82.4702 25.1538C82.5044 25.9091 82.5814 26.6284 82.701 27.3118C82.7958 27.9049 82.9848 28.4905 83.2652 29.0598C83.4103 29.4552 83.7855 29.8018 84.3165 30.0309C84.7101 29.5098 84.9698 28.9526 85.0858 28.38C85.2905 27.4862 85.4104 26.5854 85.4448 25.6825C85.5132 24.5172 85.4619 22.9743 85.2909 21.0537C85.2335 20.591 85.0871 20.1345 84.855 19.6941C84.6572 19.3979 84.5779 19.0755 84.6242 18.7554C84.6285 18.7124 84.6526 18.6711 84.6936 18.6366C84.7346 18.602 84.7907 18.5759 84.855 18.5612C84.981 18.5397 85.1137 18.5397 85.2397 18.5612C85.4173 18.5772 85.5902 18.6099 85.7525 18.6583C85.7982 18.6848 85.8501 18.7066 85.9064 18.7231C85.9914 18.7308 86.0778 18.7308 86.1628 18.7231V18.7231Z" fill="#F2F7F5"/>
<path opacity="0.99" d="M96.6041 21.0557C96.9267 21.0557 97.0521 21.2489 96.9804 21.6354C96.9446 21.8441 96.8908 22.0759 96.8191 22.331C96.7474 22.586 96.6578 22.8295 96.5503 23.0614C96.4427 23.3396 96.3173 23.641 96.1739 23.9656C96.0305 24.2903 95.8692 24.6381 95.6899 25.009C95.5107 25.3105 95.3315 25.6583 95.1522 26.0524C94.9648 26.4497 94.7311 26.8373 94.4532 27.2118C94.2371 27.5425 93.9667 27.8574 93.6467 28.1508C93.3655 28.379 93.0503 28.5887 92.7057 28.7769C92.5501 28.8661 92.3651 28.9312 92.1648 28.9674C91.9645 29.0035 91.7542 29.0097 91.5496 28.9855C90.8327 28.8928 90.2352 28.4638 89.7573 27.6987C89.2184 26.8015 88.9624 25.8436 89.0045 24.8815C89.0045 24.4951 89.0224 24.0487 89.0582 23.5425C89.0941 23.0362 89.1478 22.4856 89.2195 21.8904C89.2912 21.3108 89.3898 20.7427 89.5153 20.1862C89.6407 19.6298 89.7841 19.1254 89.9454 18.6733C90.0645 18.3003 90.2541 17.9382 90.51 17.5951C90.7251 17.3285 90.976 17.1952 91.2628 17.1952C91.3415 17.2079 91.4149 17.2317 91.4779 17.2647C91.7179 17.3756 91.9194 17.5178 92.0694 17.6821C92.3319 17.9895 92.4444 18.3411 92.392 18.6907C92.3334 19.1931 92.2257 19.6926 92.0694 20.1862C91.8902 20.8355 91.7378 21.589 91.6123 22.4469C91.4869 23.3048 91.4062 24.1279 91.3704 24.9163C91.3312 25.5946 91.3492 26.2738 91.4241 26.9509C91.4958 27.519 91.6213 27.8378 91.8005 27.9074C92.0873 28.0233 92.4189 27.8784 92.7953 27.4726C93.2047 27.0227 93.5554 26.5516 93.8438 26.064C94.2947 25.3587 94.6895 24.639 95.0268 23.9077C95.206 23.5831 95.3584 23.2758 95.4838 22.986C95.6093 22.6962 95.7079 22.4585 95.7796 22.273C95.8871 22.0412 95.9767 21.8325 96.0484 21.647C96.104 21.4911 96.1851 21.3396 96.2904 21.1948C96.3561 21.0789 96.4607 21.0325 96.6041 21.0557ZM91.8185 16.6387C91.221 16.5923 90.9223 16.4648 90.9223 16.2561C90.9223 16.0474 91.2628 15.9663 91.9439 16.0126C92.5414 16.1054 92.8401 16.2445 92.8401 16.43C92.8401 16.6155 92.4995 16.6851 91.8185 16.6387Z" fill="#F2F7F5"/>
<path opacity="0.99" d="M112 12.8855C112 12.93 111.935 12.9633 111.805 12.9856C111.604 13.0403 111.389 13.0686 111.172 13.069L109.759 13.119H108.176C107.478 13.119 106.666 13.119 105.741 13.119H99.7498C99.5875 13.6972 99.4251 14.3866 99.2627 15.1872C99.1004 15.9878 98.938 16.8551 98.7756 17.7891C98.6133 18.5008 98.4834 19.2291 98.386 19.9741C98.2886 20.7191 98.2074 21.4474 98.1424 22.1591C98.1066 22.4085 98.0903 22.659 98.0937 22.9096V23.6602C98.0613 24.2161 98.0613 24.7276 98.0937 25.1946C98.1256 25.5916 98.1907 25.987 98.2886 26.3789C98.3194 26.6766 98.5103 26.9559 98.8244 27.1628C99.171 26.9233 99.4467 26.6401 99.6362 26.3288C99.9122 25.9285 100.183 25.506 100.448 25.0612C100.74 24.5497 101.011 24.0049 101.26 23.4267C101.422 23.1153 101.568 22.8207 101.698 22.5427C101.828 22.2647 101.925 22.0367 101.99 21.8588C102.088 21.6364 102.169 21.4363 102.234 21.2584C102.284 21.1089 102.358 20.9635 102.453 20.8247C102.534 20.7135 102.624 20.6691 102.721 20.6913C103.046 20.6913 103.159 20.8766 103.062 21.2473C103.03 21.4474 102.981 21.6698 102.916 21.9144C102.851 22.1591 102.77 22.3926 102.672 22.615C102.575 22.8818 102.461 23.1709 102.331 23.4823C102.201 23.7936 102.063 24.1383 101.917 24.5164C101.755 24.8055 101.593 25.1391 101.43 25.5171C101.26 25.8982 101.049 26.2699 100.797 26.6291C100.652 26.8738 100.472 27.1084 100.261 27.3296C100.099 27.5078 99.902 27.6705 99.6768 27.8133C99.5834 27.88 99.4691 27.9312 99.3425 27.963C99.2158 27.9948 99.0803 28.0063 98.9461 27.9967C98.6943 28.0024 98.4434 27.9727 98.2089 27.9096C97.9744 27.8465 97.7612 27.7513 97.5823 27.6298C97.2364 27.3898 96.9609 27.1068 96.7705 26.7958C96.5296 26.4098 96.35 26.0072 96.2347 25.5949C96.0983 25.1839 96.0168 24.7652 95.9911 24.344C95.9587 23.8881 95.9424 23.4711 95.9424 23.0931V21.7365C96.1373 19.824 96.3808 18.145 96.6731 16.6994C96.9653 15.2539 97.2359 14.0641 97.4849 13.1301L94.6354 13.0801C93.7749 13.0801 93.0524 13.0634 92.4679 13.03C91.9808 13.03 91.5587 13.0189 91.2015 12.9967L90.3653 12.9522C90.1218 12.93 90 12.8966 90 12.8521C90 12.7409 90.3328 12.6575 90.9985 12.6019C92.0779 12.5341 93.1619 12.5063 94.2458 12.5185C94.603 12.5408 95.0738 12.5519 95.6583 12.5519H97.6716C97.7365 12.285 97.8015 12.046 97.8664 11.8347C97.9174 11.66 97.9825 11.4874 98.0613 11.3176C98.1218 11.1751 98.1706 11.0303 98.2074 10.884C98.3296 10.6489 98.4932 10.4249 98.6945 10.2168C98.7613 10.1565 98.8455 10.1061 98.9418 10.0688C99.0382 10.0315 99.1446 10.0081 99.2546 10C99.4657 10 99.7011 10.139 99.9609 10.417C100.026 10.5282 100.091 10.6505 100.156 10.7839C100.287 11.0875 100.303 11.4088 100.204 11.7179C100.16 11.8217 100.128 11.9277 100.107 12.0348C100.075 12.1794 100.026 12.3518 99.9609 12.5519H104.02C105.449 12.5519 106.748 12.5686 107.917 12.6019C109.086 12.6353 110.052 12.6687 110.815 12.702C111.572 12.7576 111.968 12.8188 112 12.8855Z" fill="#F2F7F5"/>
<path opacity="0.99" d="M104.191 24.2522C104.324 23.5612 104.498 22.8126 104.714 22.0064C104.924 21.2467 105.201 20.4966 105.544 19.7606C105.798 19.154 106.167 18.5732 106.639 18.033C106.771 17.8448 106.971 17.6837 107.22 17.5656C107.469 17.4474 107.758 17.3763 108.058 17.3593C108.16 17.3595 108.261 17.3712 108.357 17.3939L108.606 17.463C108.732 17.4962 108.849 17.5428 108.954 17.6012C109.434 17.9516 109.762 18.3886 109.9 18.8623C110.187 19.8699 110.221 20.9044 110 21.92C109.967 22.2194 109.934 22.4958 109.9 22.7492C109.867 23.0026 109.837 23.2272 109.809 23.423C109.776 23.6303 109.759 23.78 109.759 23.8721C109.693 24.8856 109.693 25.7839 109.759 26.5671C109.826 27.3502 109.95 27.7994 110.133 27.9146C110.398 28.0297 110.705 27.8858 111.054 27.4827C111.433 27.0358 111.758 26.5677 112.025 26.0834C112.442 25.3827 112.808 24.6677 113.12 23.9412C113.286 23.6187 113.436 23.3135 113.568 23.0256C113.701 22.7377 113.801 22.5016 113.867 22.3173C113.967 22.087 114.05 21.8797 114.116 21.6954C114.168 21.5406 114.243 21.39 114.34 21.2463C114.423 21.1311 114.531 21.085 114.664 21.1081C114.963 21.1081 115.062 21.3 114.963 21.6839C114.929 21.8912 114.88 22.1215 114.813 22.3749C114.747 22.6283 114.664 22.8701 114.564 23.1005C114.465 23.3769 114.349 23.6763 114.216 23.9988C114.083 24.3213 113.911 24.6668 113.701 25.0353C113.535 25.3348 113.369 25.6803 113.203 26.0718C113.03 26.4665 112.813 26.8515 112.556 27.2235C112.356 27.5521 112.105 27.8649 111.809 28.1564C111.562 28.3817 111.284 28.59 110.979 28.7783C110.835 28.8669 110.664 28.9317 110.478 28.9676C110.293 29.0035 110.098 29.0097 109.909 28.9856C109.245 28.8935 108.692 28.4674 108.249 27.7072C107.75 26.816 107.513 25.8644 107.552 24.9086C107.552 24.494 107.577 23.9873 107.627 23.3884C107.676 22.7895 107.734 22.1561 107.801 21.4881C107.806 21.3894 107.822 21.2912 107.851 21.1944C107.884 21.0678 107.917 20.9353 107.95 20.7971C107.983 20.6589 108.017 20.4861 108.05 20.2788C108.05 20.1867 108.05 20.0715 108.05 19.9333C108.066 19.7954 108.066 19.6567 108.05 19.5187C108.038 19.3938 107.996 19.2712 107.925 19.1559C107.905 19.1118 107.865 19.0731 107.812 19.0453C107.758 19.0174 107.693 19.0018 107.627 19.0005C107.361 18.9774 107.071 19.2596 106.755 19.847C106.383 20.5746 106.083 21.3192 105.859 22.0755C105.577 22.9738 105.344 23.947 105.162 24.995C104.985 25.9631 104.91 26.9389 104.938 27.9146C105.071 28.214 105.021 28.4213 104.788 28.5365C104.724 28.5802 104.641 28.6087 104.551 28.618C104.462 28.6273 104.371 28.6169 104.29 28.5883C104.106 28.521 103.937 28.4335 103.793 28.3292C103.595 28.1884 103.412 28.0383 103.245 27.88C102.82 27.3809 102.538 26.8295 102.415 26.2561C102.249 25.6112 102.133 24.9893 102.066 24.3904C102 23.6763 101.983 22.9392 102.017 22.1791C102.183 20.4286 102.398 18.8565 102.664 17.463C102.929 16.0694 103.206 14.8889 103.494 13.9215C103.793 12.7929 104.091 11.7909 104.39 10.9156C104.487 10.6705 104.638 10.4374 104.838 10.2246C104.907 10.162 104.993 10.1099 105.091 10.0712C105.19 10.0326 105.298 10.0084 105.411 10C105.627 10 105.867 10.144 106.133 10.4319C106.23 10.5658 106.313 10.7044 106.382 10.8465C106.452 10.9791 106.486 11.1198 106.481 11.2611C106.479 11.436 106.445 11.6101 106.382 11.7794C106.315 11.9636 106.191 12.407 106.008 13.1096C105.826 13.8121 105.635 14.6643 105.436 15.6663C105.237 16.6683 105.037 17.7451 104.838 18.8968C104.639 20.0485 104.49 21.1656 104.39 22.2482C104.39 22.5016 104.373 22.755 104.34 23.0083C104.307 23.2617 104.282 23.4805 104.266 23.6648C104.214 23.8585 104.189 24.0552 104.191 24.2522V24.2522Z" fill="#F2F7F5"/>
<path opacity="0.99" d="M135.227 22.8305C134.94 23.4375 134.648 24.0107 134.35 24.5502C134.105 24.9998 133.834 25.4493 133.553 25.8989C133.328 26.2687 133.034 26.6197 132.677 26.9442C132.563 27.0791 132.421 27.2038 132.257 27.3151C132.115 27.4059 131.956 27.4852 131.784 27.5511C131.707 27.584 131.619 27.6043 131.527 27.6102C131.436 27.6161 131.343 27.6074 131.258 27.5848C130.978 27.5848 130.75 27.4612 130.575 27.2139C130.385 26.9408 130.227 26.6591 130.102 26.371C129.961 25.9963 129.839 25.6029 129.734 25.1908C129.628 24.7862 129.532 24.3142 129.427 23.7747C129.322 23.0553 129.243 22.3191 129.182 21.5661C129.12 20.8131 129.068 20.1106 128.998 19.4587C128.928 18.7169 128.875 17.9863 128.849 17.267C128.75 17.9189 128.671 18.6101 128.612 19.3407C128.551 20.0713 128.49 20.8187 128.42 21.5886C128.349 22.263 128.297 22.971 128.262 23.7128C128.262 24.4546 128.262 25.174 128.262 25.8708C128.262 26.5677 128.262 27.2196 128.262 27.8265C128.268 28.3335 128.315 28.8399 128.402 29.3438C128.389 29.4392 128.389 29.5351 128.402 29.6304C128.435 29.7524 128.491 29.8713 128.568 29.9845C128.63 30.1193 128.7 30.2767 128.77 30.4565C128.84 30.6364 128.831 30.7488 128.717 30.7937C128.604 30.8387 128.262 30.8387 127.982 30.6588C127.835 30.5694 127.708 30.4673 127.605 30.3554C127.448 30.1878 127.31 30.0131 127.193 29.8327C126.931 29.4077 126.735 28.9673 126.606 28.5177C126.368 27.7439 126.207 26.9612 126.124 26.1743C125.991 24.9849 125.965 23.7915 126.045 22.6001C126.177 20.4871 126.413 18.5258 126.72 16.7163C126.987 15.0835 127.447 13.466 128.095 11.8777C128.147 11.7344 128.236 11.5976 128.358 11.4731C128.522 11.2258 128.75 11.1471 129.042 11.237C129.141 11.27 129.226 11.3179 129.29 11.3766C129.354 11.4353 129.395 11.5031 129.409 11.5742C129.751 11.8215 129.926 12.833 129.926 14.6089C129.926 14.8786 129.926 15.2776 129.988 15.8059C130.049 16.3341 130.049 16.9298 130.084 17.5761C130.119 18.2224 130.172 18.9361 130.215 19.7004C130.259 20.4646 130.329 21.2177 130.399 21.9482C130.47 22.6788 130.54 23.2633 130.618 23.8702C130.677 24.3872 130.747 24.9098 130.829 25.4381C130.89 25.9664 130.96 26.3766 131.03 26.6688C131.1 26.7363 131.223 26.5489 131.398 26.1069C131.573 25.6648 131.766 25.1477 131.976 24.5558C132.222 23.8814 132.484 23.1059 132.774 22.2292C132.879 21.9595 132.993 21.6673 133.141 21.2683C133.268 20.9088 133.426 20.5542 133.615 20.2061C133.754 19.7961 133.927 19.3909 134.131 18.9923C134.526 18.228 134.894 17.4749 135.262 16.7444C135.629 16.0138 136.006 15.2945 136.392 14.6201C136.777 13.9457 137.154 13.3276 137.522 12.7656C137.89 12.2036 138.214 11.7203 138.503 11.3157C138.713 11.046 138.915 10.7987 139.125 10.5739C139.291 10.4027 139.498 10.2492 139.738 10.1187C139.828 10.0609 139.943 10.022 140.068 10.0069C140.193 9.99189 140.323 10.0015 140.439 10.0344C140.635 10.1331 140.789 10.2623 140.886 10.4099C140.982 10.5574 141.019 10.7183 140.991 10.8774C141.005 11.3837 140.978 11.8901 140.912 12.3947C140.912 12.6869 140.807 13.1421 140.684 13.7603C140.562 14.3785 140.439 15.0978 140.308 15.9183C140.176 16.7388 140.054 17.6379 139.922 18.6157C139.791 19.5936 139.651 20.5995 139.554 21.6335C139.475 22.3978 139.423 23.1958 139.388 24.0275C139.353 24.8593 139.388 25.6629 139.388 26.4384C139.388 27.2139 139.388 27.9389 139.388 28.6133C139.388 29.2876 139.44 29.8496 139.51 30.2992C139.557 30.3986 139.592 30.5 139.616 30.6026C139.652 30.74 139.704 30.8752 139.773 31.0073C139.843 31.1646 139.922 31.3444 140.019 31.5692C140.115 31.794 140.071 31.8952 139.94 31.9401C139.881 31.972 139.809 31.9921 139.733 31.9981C139.657 32.0041 139.579 31.9957 139.51 31.9739C139.364 31.9271 139.226 31.8706 139.099 31.8053C138.936 31.7036 138.792 31.5905 138.669 31.4681C138.477 31.275 138.31 31.072 138.17 30.8611C137.866 30.3887 137.64 29.8971 137.496 29.3944C137.216 28.5328 137.031 27.6595 136.944 26.7812C136.791 25.4459 136.771 24.1057 136.882 22.7687C136.987 21.1502 137.145 19.6217 137.355 18.183L136.479 20.105C136.234 20.622 135.98 21.139 135.735 21.656C135.489 22.173 135.358 22.5496 135.227 22.8305Z" fill="#F2F7F5"/>
<path opacity="0.99" d="M150.98 21.2326C150.813 21.9876 150.556 22.7327 150.209 23.461C149.906 24.1143 149.527 24.7513 149.074 25.3662C148.631 25.9904 148.019 26.5566 147.269 27.0375C146.806 27.3401 146.274 27.5938 145.693 27.7896C145.126 27.9774 144.482 28.0418 143.855 27.9734C143.477 27.9344 143.116 27.8433 142.796 27.706C142.51 27.5853 142.268 27.4257 142.084 27.2381C141.878 27.0398 141.708 26.8267 141.576 26.603C141.353 26.2633 141.215 25.902 141.169 25.5334C141.129 25.0951 141.079 24.6717 141.016 24.2632C140.983 23.7727 141 23.2814 141.067 22.7924C141.164 21.8838 141.342 20.9797 141.601 20.085C141.781 19.3927 142.045 18.7109 142.389 18.046C142.584 17.6624 142.87 17.3014 143.236 16.9764C143.505 16.7077 143.84 16.4705 144.228 16.2744C144.642 16.0678 145.159 15.9722 145.676 16.007C146.023 16.0321 146.354 16.1124 146.642 16.241C146.948 16.3795 147.186 16.5729 147.329 16.7981C147.537 17.1326 147.649 17.4896 147.659 17.851C147.68 18.0374 147.663 18.2247 147.608 18.4081C147.532 18.5864 147.456 18.7981 147.354 19.0432C147.252 19.2883 147.108 19.5557 146.947 19.8454C146.774 20.1351 146.534 20.4056 146.236 20.6476C145.942 20.8825 145.619 21.1006 145.27 21.2994C144.852 21.5251 144.367 21.6902 143.846 21.7841C143.846 22.1852 143.753 22.5975 143.694 23.0209C143.635 23.4443 143.575 23.8064 143.541 24.2409C143.507 24.6696 143.507 25.0991 143.541 25.5278C143.538 25.7303 143.572 25.9324 143.643 26.1295C143.711 26.283 143.793 26.4337 143.889 26.5807C143.933 26.6466 143.997 26.7058 144.077 26.7546C144.157 26.8035 144.252 26.841 144.355 26.8648C144.591 26.9314 144.848 26.9601 145.104 26.9485C145.36 26.9369 145.609 26.8853 145.829 26.798C146.318 26.6064 146.749 26.3571 147.1 26.0626C147.481 25.7242 147.821 25.3666 148.117 24.993C148.522 24.4544 148.862 23.8956 149.133 23.3217C149.291 23.0097 149.435 22.72 149.565 22.4526C149.684 22.1852 149.769 21.9624 149.845 21.7841L150.099 21.227C150.152 21.0772 150.228 20.9316 150.328 20.7925C150.404 20.6811 150.523 20.6365 150.658 20.6588C150.941 20.6625 151.048 20.8538 150.98 21.2326ZM145.643 16.6533C145.304 16.631 145.021 16.8427 144.795 17.2883C144.576 17.7818 144.406 18.2843 144.287 18.7925C144.146 19.4387 144.01 20.1815 143.88 21.0209C144.581 20.7602 145.154 20.3738 145.532 19.9067C145.896 19.4616 146.153 18.9825 146.295 18.4861C146.42 18.0779 146.42 17.6575 146.295 17.2493C146.159 16.8742 145.942 16.6755 145.643 16.6533Z" fill="#F2F7F5"/>
<path opacity="0.99" d="M154 27.4878C154.003 27.5555 153.979 27.6229 153.929 27.6857C153.878 27.7486 153.803 27.8057 153.707 27.8536C153.611 27.9015 153.497 27.9391 153.371 27.9643C153.246 27.9894 153.111 28.0015 152.976 27.9998C152.848 28.0001 152.721 27.9872 152.604 27.9621C152.487 27.9369 152.381 27.9 152.293 27.8536C152.197 27.8058 152.121 27.7487 152.071 27.6858C152.021 27.6229 151.997 27.5556 152 27.4878C152.007 27.3595 152.111 27.2372 152.293 27.1464C152.474 27.0557 152.719 27.0033 152.976 27.0002C153.111 26.9983 153.246 27.0103 153.372 27.0355C153.498 27.0606 153.612 27.0984 153.707 27.1465C153.8 27.1904 153.874 27.2433 153.924 27.302C153.974 27.3607 154 27.424 154 27.4878V27.4878Z" fill="#F2F7F5"/>
<path opacity="0.99" d="M154.969 31.9C153.5 31.1037 152.741 29.6592 152.694 27.5666C152.694 27.2444 152.898 27.0777 153.314 27.0777C153.805 27.2574 154.275 27.4655 154.718 27.7C156.013 28.7484 156.998 29.9709 157.612 31.2944C157.659 31.2111 157.706 31.1166 157.753 31.0166L158.114 30.3055C158.42 29.7346 158.682 29.1523 158.898 28.5611C159.055 27.8889 159.189 27.2722 159.314 26.7055C158.654 26.5977 158.025 26.4097 157.455 26.15C156.264 25.3249 155.385 24.3009 154.898 23.1722C154.898 22.9333 155.11 22.7889 155.518 22.7333C156.486 22.8245 157.427 23.0272 158.302 23.3333C158.85 23.668 159.335 24.0507 159.745 24.4722C159.84 23.9166 159.91 23.5278 159.957 23.2666C159.94 22.914 160.001 22.5615 160.138 22.2222C160.232 21.2778 160.302 20.5166 160.349 19.9277C159.173 19.7871 158.04 19.5033 157 19.0889C155.432 17.9055 154.577 16.9555 154.475 16.2389V15.9333C154.475 15.6389 154.765 15.4889 155.345 15.4889C155.917 15.4714 156.486 15.5555 157 15.7333C158.046 15.7333 159.178 16.3315 160.396 17.5277V16.2722C160.389 15.2914 160.273 14.3125 160.051 13.3444C159.871 12.8555 159.714 12.4166 159.573 12.0222C158.746 11.9504 157.929 11.8259 157.134 11.65C156.444 11.3488 155.714 11.0976 154.953 10.9C153.62 10.2259 152.953 9.58701 152.953 8.9833V8.24997C152.953 7.95553 153.188 7.81108 153.643 7.81108C154.182 7.83142 154.711 7.91399 155.212 8.05553C156.226 8.05553 157.377 8.50553 158.663 9.40553C158.327 8.5523 157.913 7.71537 157.424 6.89997C157.04 6.47219 156.702 6.09442 156.412 5.76108C155.949 5.76108 155.471 5.76108 154.985 5.71108C151.847 5.38331 150.279 4.78331 150.279 3.90553V3.17219C150.279 2.9333 150.49 2.78331 150.898 2.73331C153.251 2.97219 154.396 3.17775 154.396 3.34997H154.553V1.66664C154.812 0.638861 155.259 0.122193 155.887 0.122193C156.008 0.122012 156.127 0.145044 156.232 0.188861C156.969 0.533305 157.583 1.29812 158.075 2.4833V2.90553L158.161 3.0333H158.075C158.075 4.36108 157.894 5.02219 157.542 5.02219L157.636 5.32775C157.643 5.36087 157.643 5.39463 157.636 5.42775C157.772 5.5768 157.888 5.73497 157.981 5.89997L158.694 6.82775C159.212 7.86664 159.604 8.72775 159.863 9.39997C159.895 9.32219 159.926 9.2833 159.957 9.2833C160.304 8.6035 160.776 7.95907 161.361 7.36664L162.93 6.19442H163.087C163.612 6.19442 163.871 6.67219 163.871 7.62219V7.67219C163.815 8.43474 163.581 9.1855 163.181 9.89442C162.922 10.4767 162.435 10.995 161.777 11.3889C161.497 11.6747 161.156 11.9278 160.765 12.1389C161.213 13.5113 161.452 14.9137 161.479 16.3222V17.8333C161.573 17.7389 161.683 17.6333 161.8 17.5277C162.108 16.8463 162.733 16.2588 163.573 15.8611C164.275 15.4568 165.071 15.1428 165.926 14.9333C166.334 14.9333 166.546 15.0944 166.546 15.4222V15.6666C166.389 16.3543 166.093 17.0223 165.667 17.65C164.35 19.05 162.953 19.8111 161.463 19.9277C161.463 20.6333 161.4 21.2 161.369 21.5944C161.338 21.9889 161.275 22.2777 161.212 22.2777C161.15 23.1168 161.027 23.9531 160.844 24.7833C161.084 24.5682 161.369 24.3808 161.691 24.2278C163.348 23.1944 164.752 22.6778 165.903 22.6778C166.208 22.6778 166.436 22.8222 166.593 23.1055C166.372 23.8059 165.99 24.4758 165.463 25.0889C164.734 25.6747 163.809 26.1216 162.773 26.3889C162.204 26.6259 161.57 26.7755 160.914 26.8278H160.451C160.31 27.6403 160.095 28.4457 159.808 29.2389C159.514 29.9749 159.161 30.6983 158.749 31.4055H158.82C159.377 31 160.796 30.6722 163.095 30.4111C164.381 30.4444 165.024 30.5889 165.024 30.85L164.938 31.2222C164.309 31.6256 163.725 32.0621 163.189 32.5278C161.954 33.0223 160.58 33.3164 159.165 33.3889H158.02C157.819 33.3917 157.618 33.3749 157.424 33.3389C156.53 34.2611 155.839 34.7222 155.353 34.7222C154.985 34.7222 154.804 34.6166 154.804 34.4L154.89 34.0722C155.401 33.8254 155.849 33.5192 156.216 33.1666L156.585 32.7444C156.021 32.4874 155.482 32.2054 154.969 31.9ZM155.636 4.76664C154.461 4.01025 152.947 3.57155 151.361 3.52775V3.72219C151.384 3.91026 151.508 4.08501 151.706 4.21108C152.979 4.73097 154.418 5.01207 155.887 5.02775L155.816 4.94442L155.636 4.76664ZM153.753 28.1889C153.761 28.7398 153.907 29.2853 154.185 29.8C154.232 30.1703 155.029 30.8315 156.577 31.7833C156.14 30.4186 155.16 29.1711 153.753 28.1889V28.1889ZM156.891 9.29997C156.049 8.91784 155.087 8.68884 154.09 8.63331H153.996V9.05553C154.257 9.45007 154.654 9.79198 155.149 10.05C157.131 10.8315 158.438 11.2222 159.071 11.2222H159.251C158.649 10.477 157.85 9.82065 156.898 9.28886L156.891 9.29997ZM158.569 17.1666C157.731 16.6473 156.688 16.3234 155.581 16.2389H155.487C155.853 16.8702 156.364 17.4541 157 17.9666C157.83 18.5673 158.891 18.981 160.051 19.1555H160.138C159.86 18.4094 159.32 17.7252 158.569 17.1666V17.1666ZM156.757 4.52219C156.922 4.52219 157.008 4.07219 157.008 3.17219C157.015 3.10344 157.044 3.03678 157.094 2.97775C157.04 2.97775 157.008 2.97775 157.008 2.91108V2.48886C156.825 1.95715 156.462 1.46512 155.949 1.05553C155.792 1.05553 155.683 1.26108 155.604 1.67219V3.22219C155.627 3.46709 155.758 3.70059 155.981 3.88886L156.232 4.03331C156.334 4.07038 156.421 4.12597 156.483 4.19442C156.687 4.35553 156.789 4.44442 156.789 4.52219H156.757ZM158.961 25.0778C158.059 24.1333 157.181 23.6611 156.341 23.6611H156.247C156.397 23.9142 156.573 24.1593 156.773 24.3944C157.894 25.4278 158.765 25.9389 159.393 25.9389L158.961 25.0778ZM160.796 31.5222C159.914 31.6806 159.141 32.0569 158.616 32.5833V32.6278H158.796C159.134 32.6278 159.306 32.6278 159.306 32.5833C160.085 32.5966 160.856 32.4792 161.558 32.2407C162.261 32.0022 162.873 31.6494 163.346 31.2111V31.1666C162.487 31.2116 161.64 31.3368 160.828 31.5389L160.796 31.5222ZM162.64 7.48331C161.39 8.54257 160.723 9.46849 160.64 10.2611V11.1111C161.352 10.7286 161.896 10.2102 162.208 9.61664C162.589 9.01037 162.799 8.35753 162.828 7.69442V7.44997L162.64 7.48331ZM163.855 23.9722C162.671 24.6666 161.981 25.0555 161.761 25.1444C161.568 25.4598 161.303 25.7507 160.977 26.0055V26.1111C161.233 26.0666 161.495 26.0278 161.761 25.9944C162.161 25.8817 162.546 25.7461 162.914 25.5889C164.015 25.1779 164.841 24.4747 165.212 23.6333V23.5722C164.752 23.6797 164.308 23.8192 163.887 23.9889L163.855 23.9722ZM163.118 17.3055C162.64 17.8355 162.225 18.393 161.879 18.9722V19.0389H162.059C162.844 18.7203 163.251 18.4926 163.283 18.3555C164.352 17.7662 165.098 16.9313 165.393 15.9944V15.9277C164.436 16.2013 163.642 16.7021 163.149 17.3444L163.118 17.3055Z" fill="#F2F7F5"/>
</g>
</svg>
