<svg width="843" height="239" viewBox="0 0 843 239" fill="none" xmlns="http://www.w3.org/2000/svg">
<g opacity="0.99">
<path opacity="0.99" d="M48.2159 220.328L49.9386 223.185C51.6677 225.558 53.7663 227.627 56.1511 229.309L56.591 231.494C56.591 232.95 55.7296 233.679 54.007 233.679C51.7223 233.679 48.503 230.567 44.3491 224.343C43.4396 224.582 42.5027 224.695 41.5636 224.679H36.194C27.7518 223.583 21.4843 221.648 17.3915 218.872C14.8718 215.726 12.1211 212.78 9.16305 210.059L8.72322 207.557C8.72322 205.801 11.747 204.812 17.758 204.606C28.4971 206.337 35.1555 208.559 37.7334 211.272H38.045C36.1388 206.521 34.493 201.665 33.1152 196.727C31.7781 191.394 30.7682 185.981 30.0914 180.52H28.0206C24.954 180.168 21.9943 179.163 19.334 177.57C16.3835 176.991 12.2052 174.078 6.76233 168.831C3.26205 161.829 1.50275 157.367 1.50275 155.481C2.21746 153.614 3.33536 152.624 4.72814 152.624C10.0916 152.624 16.6401 156.091 24.3737 163.024C25.8904 164.121 27.2318 165.45 28.3505 166.964C27.488 161.397 26.913 155.788 26.6278 150.159C26.3529 150.159 26.133 148.628 25.9864 145.547C25.8398 142.466 25.5832 138.919 25.4549 134.176C18.5032 133.367 11.9486 128.263 5.79105 118.865C3.07879 112.013 1.72266 107.55 1.72266 105.515V103.872C1.72266 101.687 2.67562 100.585 4.61818 100.585C8.60767 102.006 12.3273 104.115 15.6138 106.822C19.0347 108.876 21.7897 112.61 23.8789 118.025C24.447 118.753 24.9418 119.444 25.3816 120.098V109.959C25.5112 100.492 26.6231 91.0668 28.6987 81.8389C26.8886 80.4168 25.3006 78.7233 23.9889 76.8161C20.9062 74.1661 18.6302 70.6746 17.4281 66.752C15.5542 61.9874 14.4645 56.9405 14.2027 51.8145V51.4784C14.2027 45.0677 15.4245 41.8624 17.8679 41.8624H18.6193L25.9497 49.7419C28.6662 53.738 30.8652 58.0746 32.4922 62.6442C32.6388 62.6442 32.7854 62.9056 32.932 63.4097C34.1537 58.8911 35.9863 53.1277 38.4298 46.1196L41.7468 39.8832C42.1928 38.7793 42.7325 37.7172 43.3595 36.7089C43.2849 36.4995 43.2477 36.2782 43.2496 36.0554L43.6894 33.9828C42.04 33.9828 41.2154 29.5327 41.2154 20.6324H40.7939L41.2154 19.7549V16.8047C43.5122 8.85049 46.3772 3.7095 49.8103 1.38173C50.2974 1.08458 50.8553 0.929561 51.423 0.93361C54.3552 0.93361 56.426 4.40036 57.6355 11.3338V22.537H58.4053C58.4053 21.3793 63.9031 19.9976 74.7155 18.3918C76.658 18.7466 77.611 19.7362 77.611 21.342V26.2713C77.611 32.1717 70.2805 36.2172 55.6197 38.4081C53.335 38.6321 51.1176 38.7442 48.9673 38.7442C47.6112 41.0035 46.0351 43.5428 44.2392 46.3996C41.9418 51.8628 40.0071 57.477 38.4481 63.2043C44.4591 57.1546 49.8286 54.1298 54.5568 54.1298C56.9013 53.1963 59.3746 52.6419 61.8872 52.4867C64.0313 52.4867 65.1126 53.4763 65.1126 55.4368V60.3662C65.1126 64.4616 61.9972 68.7623 55.7663 73.2685C55.0455 73.2685 51.6429 74.9489 45.5587 78.3099C41.8445 79.4823 38.0363 80.3195 34.1782 80.8119C33.5368 83.4446 32.7854 86.4135 31.924 89.6811C30.9061 96.1973 30.367 102.782 30.3114 109.38V117.801C36.0413 109.772 41.3375 105.758 46.2001 105.758C48.6036 104.563 51.2618 103.998 53.9337 104.114C56.6643 104.114 58.0204 105.104 58.0204 107.083V109.156C57.5317 113.973 53.5916 120.353 46.2001 128.294C38.4848 132.328 33.2802 134.251 30.7145 134.251H30.6046C30.8245 138.191 31.136 143.325 31.5759 149.674C31.8508 149.674 32.2173 152.008 32.6388 156.676C32.7854 158.431 33.0786 161.12 33.5001 164.779C35.432 161.95 37.7038 159.378 40.2624 157.124C44.3795 155.021 48.8051 153.614 53.3656 152.96C55.3081 153.333 56.2611 154.304 56.2611 155.91C54.5507 162.557 50.58 169.229 44.3491 175.926C41.6746 177.662 38.7316 178.924 35.6442 179.661C36.2307 183.395 36.8721 187.596 37.5868 192.134C38.5719 196.094 39.7524 200.002 41.1238 203.841L42.8464 208.64C43.0663 209.293 43.2679 209.928 43.4878 210.507C45.1372 203.86 49.6454 195.768 57.0125 186.233C59.0862 184.668 61.2802 183.276 63.5732 182.07C65.4058 182.07 66.4687 183.171 66.4687 185.356C66.2488 199.434 62.7058 209.138 55.8396 214.465C53.4379 216.601 50.8902 218.56 48.2159 220.328V220.328ZM6.98225 107.55V107.998C8.35061 114.298 11.8465 119.909 16.86 123.851C17.0066 124.803 18.8942 126.334 22.5411 128.444H23.4024V128.014C21.7802 124.123 19.8431 120.376 17.6114 116.811C15.2237 112.567 11.4683 109.295 6.98225 107.55V107.55ZM7.62366 158.431V158.86C8.47568 161.655 9.86366 164.249 11.7071 166.492C13.5506 168.736 15.8128 170.585 18.3627 171.931C20.1053 173.014 21.9317 173.951 23.8239 174.731C25.1801 174.956 26.4629 175.198 27.6907 175.497V175.049C27.3242 175.049 26.1147 173.182 24.0255 169.261C23.0237 168.676 19.7616 166.049 14.2394 161.381C12.1355 160.177 9.91935 159.189 7.62366 158.431V158.431ZM16.4935 209.629V210.059C18.7158 212.997 21.5858 215.362 24.8713 216.961C28.1569 218.56 31.7658 219.349 35.406 219.264C35.406 219.469 36.194 219.581 37.7701 219.581H38.6131V219.264C36.1628 215.725 32.547 213.201 28.4238 212.15C24.5753 210.771 20.5629 209.923 16.4935 209.629V209.629ZM18.9675 50.1153V51.7585C19.152 56.2173 20.1787 60.598 21.9913 64.6607C23.4455 68.6576 25.9884 72.1489 29.3217 74.7249V69.254C28.8819 63.9263 25.7665 57.7023 19.9754 50.5821L18.9675 50.1153ZM31.5759 128.836H31.9974C37.4289 127.674 42.3984 124.893 46.2734 120.844C50.9282 114.347 53.2556 110.5 53.2556 109.249H52.8341C45.9618 110.631 41.307 112.722 38.8696 115.486C35.369 119.235 32.8594 123.829 31.5759 128.836V128.836ZM35.0028 174.563C37.935 174.563 42.0156 171.097 47.2447 164.163C48.2019 162.599 49.0295 160.957 49.7187 159.252H49.2789C45.3571 159.252 41.2765 162.427 37.037 168.775L35.0028 174.563ZM35.7542 75.4344H36.6522C39.5844 75.4344 45.6931 72.8141 54.9783 67.5735C57.27 65.8181 59.1121 63.525 60.3478 60.889V58.1069H59.9263C56.4077 58.1069 52.04 59.6007 46.8232 62.5882C40.5923 68.2893 36.9026 72.5901 35.7542 75.4904V75.4344ZM48.7474 28.456C49.0474 27.9927 49.457 27.6138 49.9386 27.3543L51.1115 26.3834C52.1323 25.0758 52.6994 23.4607 52.7242 21.7901V11.3899C52.3576 8.60775 51.8262 7.22604 51.1115 7.22604C47.8128 11.894 46.1817 15.1056 46.1817 16.8607V19.6988C46.1911 19.7599 46.1862 19.8223 46.1675 19.8811C46.1487 19.9398 46.1166 19.9932 46.0737 20.0369C46.0308 20.0805 45.9784 20.1133 45.9207 20.1324C45.8631 20.1516 45.8018 20.1565 45.7419 20.147C45.9993 20.5354 46.1511 20.9864 46.1817 21.454C46.1817 27.5037 46.5666 30.5285 47.3546 30.5285C47.3546 30.0991 47.8128 29.4082 48.7474 28.456ZM48.3259 213.793C55.5464 207.295 59.2666 202.845 59.4865 200.443C60.3478 199.061 61.0259 195.439 61.5207 189.613C54.007 198.003 49.6087 206.063 48.3259 213.793V213.793ZM51.8628 33.3853C51.8628 33.5347 51.6796 33.7028 51.5513 33.9268C58.414 33.8271 65.1382 31.9441 71.0869 28.456C72.017 27.6108 72.5941 26.4349 72.6996 25.1697V23.8627C66.0533 23.8627 59.3949 26.6323 52.7242 32.1717L51.8628 33.3853Z" fill="#A2BB94"/>
<path opacity="0.99" d="M181.557 134.736C183.642 134.719 185.717 135.022 187.714 135.632C189.479 136.125 191.207 136.749 192.882 137.5C194.772 138.374 196.459 139.646 197.83 141.234C198.293 142.015 198.808 142.764 199.37 143.475C199.845 144.297 200.249 145.159 200.579 146.051C200.964 147.099 201.222 148.19 201.349 149.3C201.349 150.047 201.422 152.537 201.569 156.769C201.678 161.678 201.384 166.587 200.689 171.445C200.024 177.995 198.547 184.432 196.291 190.603C194.568 195.279 192.199 199.68 189.254 203.673C187.021 206.738 184.219 209.326 181.007 211.291C178.567 212.797 175.821 213.717 172.98 213.98C170.71 214.083 168.44 213.78 166.273 213.083C163.444 212.199 160.798 210.794 158.466 208.938C155.52 206.549 153.035 203.624 151.135 200.312C148.583 195.879 146.693 191.084 145.527 186.084C143.909 179.245 143.042 172.243 142.943 165.209C142.83 155.53 143.536 145.86 145.051 136.305C146.052 128.933 147.521 121.636 149.449 114.459C150.982 108.769 152.892 103.192 155.167 97.7659C156.924 93.5421 159.059 89.4919 161.544 85.6666C163.487 82.701 165.696 79.9257 168.142 77.3763C172.428 72.6912 178.038 69.4806 184.196 68.1897C186.075 67.8615 188.008 68.1766 189.693 69.0859C191.246 70.1224 192.508 71.5504 193.359 73.2311C194.728 76.044 195.359 79.1703 195.191 82.3056C195.361 85.1612 195.138 88.0269 194.531 90.82C194.106 92.8547 193.397 94.8166 192.424 96.6456C192.12 97.4178 191.584 98.0722 190.893 98.515C190.201 98.9577 189.39 99.1661 188.575 99.1103C187.509 99.169 186.446 98.9369 185.497 98.4381C185.126 98.2832 184.79 98.0549 184.507 97.7665C184.223 97.478 183.999 97.1351 183.847 96.7577C183.683 96.13 183.647 95.4747 183.742 94.8323C183.836 94.1899 184.059 93.5742 184.397 93.0233L186.046 87.9819C186.687 86.0473 187.165 84.061 187.476 82.0442C187.777 80.3737 187.74 78.6581 187.366 77.0028C187.219 76.3394 186.878 75.7373 186.387 75.2769C185.895 74.8165 185.278 74.5197 184.617 74.4261C182.684 74.5604 180.805 75.1347 179.119 76.1066C176.334 77.3514 173.279 80.3762 169.956 85.1811C166.633 89.986 163.579 97.156 160.793 106.691C157.934 116.251 155.992 129.172 154.965 145.454C154.526 153.52 154.416 160.541 154.636 166.516C154.779 171.738 155.294 176.942 156.175 182.088C156.793 185.793 157.751 189.431 159.034 192.955C159.949 195.425 161.181 197.761 162.699 199.901C165.631 204.084 169.15 206.175 173.255 206.175C175.094 205.987 176.883 205.455 178.533 204.606C179.183 204.175 179.796 203.688 180.365 203.15C181.577 202.006 182.614 200.684 183.444 199.229C184.781 196.92 185.886 194.481 186.743 191.947C187.981 188.278 188.829 184.485 189.272 180.632C189.858 175.553 190.408 170.661 190.921 165.956C191.4 161.828 191.657 157.676 191.691 153.52C191.775 150.567 191.404 147.618 190.591 144.782C190.361 143.834 189.864 142.975 189.16 142.311C188.457 141.648 187.578 141.208 186.633 141.047C184.58 140.749 182.418 140.525 180.145 140.375C177.873 140.226 175.711 140.151 173.658 140.151H166.621C166.003 140.16 165.386 140.085 164.788 139.927C164.587 139.891 164.395 139.812 164.224 139.696C164.054 139.581 163.909 139.43 163.799 139.255C163.652 138.209 164.263 137.238 165.631 136.342C166.564 135.98 167.519 135.681 168.49 135.446C169.864 135.114 171.261 134.889 172.668 134.774H181.685L181.557 134.736Z" fill="#2C383D"/>
<path opacity="0.99" d="M253.908 140.338C255.227 140.338 255.741 141.583 255.447 144.072C255.154 145.417 254.861 146.91 254.568 148.553C254.274 149.898 253.945 151.466 253.578 153.259C253.159 155.237 252.608 157.183 251.929 159.084C251.342 161.176 250.731 163.342 250.096 165.582C249.51 167.524 248.777 169.765 247.897 172.304C247.017 174.843 246.064 177.383 245.038 179.922C244.154 182.053 243.048 184.081 241.739 185.972C240.59 187.442 239.3 188.792 237.891 190.005C237.254 190.58 236.498 190.999 235.679 191.232C234.86 191.465 233.999 191.505 233.163 191.349C231.405 190.984 229.751 190.218 228.325 189.109C226.498 187.657 224.998 185.824 223.926 183.731C222.451 180.913 221.377 177.895 220.738 174.769C219.871 170.57 219.466 166.287 219.528 161.997C219.559 158.928 219.742 155.861 220.078 152.811C220.445 149.226 220.921 145.603 221.507 141.944C222.094 138.284 222.79 134.699 223.597 131.189C224.276 128.094 225.195 125.06 226.346 122.114C226.645 121.543 226.761 120.889 226.675 120.247C226.614 119.801 226.577 119.352 226.565 118.902C226.436 118.543 226.362 118.165 226.346 117.782C226.034 117.463 225.741 117.126 225.466 116.774C225.153 116.382 224.782 116.042 224.366 115.766C223.773 115.253 223.105 114.838 222.387 114.533C221.801 114.309 221.361 114.122 221.068 113.973C220.715 113.841 220.344 113.766 219.968 113.749C219.675 116.737 219.308 119.5 218.868 122.039C218.429 124.579 217.989 126.894 217.549 128.985C216.963 131.375 216.449 133.541 216.01 135.483C215.363 139.05 214.482 142.568 213.371 146.014C212.86 147.409 212.42 148.83 212.051 150.271C211.172 152.761 210.072 153.657 208.752 152.96C208.313 152.811 208.093 152.325 208.093 151.504C208.121 150.481 208.268 149.466 208.533 148.479C208.747 147.118 209.041 145.771 209.412 144.446C209.705 143.101 210.072 141.533 210.512 139.74C210.952 137.948 211.391 135.857 211.831 133.467L213.151 125.4C213.444 123.16 213.774 120.67 214.14 117.932C214.483 115.557 214.667 113.162 214.69 110.762C214.538 109.514 214.613 108.248 214.91 107.027C215.198 106.139 215.688 105.333 216.339 104.675C216.819 104.303 217.38 104.058 217.975 103.96C218.57 103.862 219.179 103.915 219.748 104.114C221.913 104.607 223.99 105.439 225.906 106.579C227.778 107.841 229.511 109.306 231.074 110.948C233.046 113.038 234.58 115.516 235.582 118.23L236.462 121.815C236.924 123.681 237.109 125.607 237.011 127.529C236.874 129.984 236.251 132.384 235.179 134.587C233.203 139.614 231.729 144.831 230.78 150.159C229.795 155.368 229.243 160.652 229.131 165.956C228.991 170.168 229.361 174.382 230.231 178.503C231.037 181.939 232.32 183.881 234.079 184.329C235.399 184.628 236.828 183.507 238.367 180.968C240.057 178.117 241.492 175.117 242.656 172.005C244.481 167.668 246.066 163.23 247.402 158.711C248.135 156.62 248.746 154.64 249.235 152.773C249.724 150.906 250.127 149.375 250.444 148.18C250.884 146.686 251.251 145.342 251.544 144.147C251.771 143.143 252.103 142.166 252.534 141.234C252.863 140.437 253.322 140.139 253.908 140.338Z" fill="#2C383D"/>
<path opacity="0.99" d="M288.434 120.844C288.968 120.297 289.588 119.842 290.267 119.5C290.451 119.42 290.655 119.398 290.851 119.438C291.047 119.478 291.227 119.578 291.367 119.724C291.66 120.023 291.733 120.77 291.586 121.965C291.293 124.355 289.057 126.483 284.879 128.351C279.721 130.321 274.133 130.824 268.715 129.807C270.146 134.024 271.321 138.327 272.234 142.691C273.398 147.867 273.769 153.195 273.334 158.487C272.974 162.491 272.313 166.461 271.354 170.362C270.714 173.117 269.676 175.759 268.276 178.204C267.876 179.176 267.14 179.963 266.207 180.418C265.275 180.872 264.211 180.962 263.218 180.669C261.274 180.275 259.459 179.388 257.94 178.092C256.573 176.937 255.387 175.578 254.421 174.059C253.585 172.712 252.967 171.237 252.588 169.69C252.222 168.196 251.965 167.001 251.819 166.105C251.672 165.209 251.489 163.006 251.269 159.495C251.053 155.464 251.089 151.422 251.379 147.396C251.704 142.611 252.365 137.856 253.358 133.168C254.279 128.499 255.984 124.027 258.398 119.948C259.041 119.633 259.655 119.258 260.23 118.828C261.784 117.99 263.534 117.602 265.288 117.708C266.027 117.693 266.751 117.927 267.347 118.372C267.943 118.817 268.378 119.45 268.587 120.172C268.777 120.991 268.733 121.848 268.46 122.642C268.188 123.436 267.697 124.134 267.048 124.653L271.666 125.214C273.49 125.439 275.332 125.477 277.164 125.326C279.149 125.16 281.106 124.746 282.991 124.093C284.986 123.36 286.831 122.258 288.434 120.844V120.844ZM267.323 158.935C267.476 156.81 267.512 154.678 267.433 152.549C267.354 150.049 267.133 147.555 266.773 145.08C266.406 142.591 266.003 140.276 265.563 138.135C265.292 136.594 264.85 135.091 264.244 133.653C263.657 136.79 263.047 140.002 262.411 143.288C261.971 146.126 261.495 149.151 260.982 152.363C260.5 155.293 260.169 158.247 259.992 161.213C259.699 166.74 260.029 170.474 260.982 172.416C261.935 174.358 262.851 175.18 263.731 174.881C264.464 174.582 265.16 172.752 265.82 169.391C266.517 165.938 267.019 162.447 267.323 158.935V158.935Z" fill="#2C383D"/>
<path opacity="0.99" d="M326.479 123.234C327.321 123.775 328.253 124.155 329.228 124.355C330.548 124.768 331.917 124.994 333.297 125.027C335.695 125.036 338.088 124.811 340.444 124.355C343.37 123.542 346.052 122.002 348.251 119.873C348.863 119.357 349.526 118.906 350.23 118.529C351.452 117.932 351.818 118.753 351.329 120.994C350.743 123.981 348.397 126.471 344.292 128.463C339.425 130.553 334.026 130.985 328.898 129.695C329.224 131.095 329.444 132.518 329.558 133.952C329.705 135.595 329.925 137.537 330.218 139.778C330.364 142.765 330.474 146.425 330.548 150.757C330.621 155.089 330.584 159.682 330.438 164.537C330.291 169.391 329.998 174.283 329.558 179.213C329.189 183.725 328.577 188.213 327.725 192.656C327.081 196.162 326.048 199.582 324.647 202.851C323.917 205.037 322.378 206.846 320.358 207.893C319.163 208.243 317.896 208.254 316.695 207.925C315.493 207.596 314.403 206.939 313.541 206.025C310.991 203.374 309.04 200.188 307.823 196.69C305.917 192.059 304.451 184.889 303.425 175.18C302.203 179.96 300.982 184.316 299.76 188.25C298.693 191.293 297.407 194.251 295.911 197.1C294.519 199.714 293.089 200.872 291.623 200.573C289.885 200.232 288.231 199.541 286.759 198.541C285.286 197.541 284.024 196.251 283.046 194.748C280.701 191.461 279.235 186.532 278.648 179.96C278.329 175.785 278.219 171.598 278.318 167.412C278.392 162.333 278.612 156.806 278.978 150.831C279.345 144.856 279.955 138.769 280.811 132.57C281.566 126.654 282.63 120.782 283.999 114.981C284.111 114.173 284.413 113.404 284.879 112.741C285.612 111.396 286.565 111.023 287.738 111.62C288.403 111.987 289.019 112.439 289.571 112.965C290.331 113.659 290.954 114.496 291.403 115.43C291.972 116.669 292.343 117.992 292.503 119.351C292.718 121.252 292.681 123.173 292.393 125.064C291.973 127.624 291.679 130.204 291.513 132.794C291.22 136.454 290.89 140.599 290.523 145.23C290.157 149.86 289.864 154.715 289.644 159.794C289.424 164.873 289.314 169.578 289.314 173.91C289.314 178.242 289.393 181.889 289.552 184.852C289.845 187.839 290.456 189.632 291.385 190.229C291.971 190.08 292.778 188.287 293.804 184.852C294.684 182.013 295.82 177.383 297.212 170.96C298.605 164.537 300.401 155.275 302.6 143.176C302.735 142.04 302.956 140.916 303.26 139.815L304.14 137.126C304.365 136.332 304.826 135.627 305.459 135.11C306.081 134.639 306.744 134.226 307.438 133.877C308.091 133.53 308.798 133.302 309.528 133.205C310.099 133.111 310.685 133.23 311.177 133.541C311.617 133.84 311.763 134.512 311.617 135.558C311.357 137.452 311.21 139.36 311.177 141.271C311.03 144.483 310.884 148.367 310.737 152.923C310.591 157.479 310.591 162.371 310.737 167.599C310.884 172.827 311.214 177.756 311.727 182.387C312.133 186.492 312.944 190.546 314.146 194.486C314.758 197.228 316.369 199.631 318.654 201.208C320.342 197.602 321.455 193.744 321.953 189.781C322.836 183.544 323.351 177.259 323.492 170.96C323.785 162.893 323.565 152.213 322.832 138.919C322.592 135.743 321.977 132.608 321 129.583C320.151 127.533 319.811 125.301 320.01 123.085C320.028 122.787 320.132 122.501 320.308 122.262C320.484 122.023 320.724 121.842 321 121.741C321.54 121.591 322.109 121.591 322.649 121.741C323.411 121.851 324.152 122.078 324.848 122.413C325.044 122.596 325.267 122.747 325.508 122.861C325.814 123.03 326.14 123.155 326.479 123.234V123.234Z" fill="#2C383D"/>
<path opacity="0.99" d="M424.854 137.126C425.556 137.575 426.332 137.892 427.144 138.06C428.244 138.405 429.385 138.593 430.535 138.62C432.533 138.627 434.527 138.439 436.491 138.06C438.928 137.379 441.162 136.096 442.996 134.325C443.502 133.888 444.055 133.512 444.646 133.205C445.617 132.701 445.929 133.392 445.562 135.259C445.073 137.749 443.119 139.834 439.698 141.514C435.641 143.253 431.143 143.613 426.87 142.541C427.135 143.709 427.319 144.894 427.419 146.089C427.529 147.452 427.713 149.076 427.969 150.943C428.079 153.427 428.171 156.545 428.244 160.093C428.317 163.64 428.244 167.561 428.152 171.576C428.061 175.59 427.786 179.698 427.419 183.806C427.095 187.566 426.575 191.306 425.862 195.009C425.33 197.934 424.482 200.789 423.333 203.523C422.694 205.357 421.379 206.864 419.667 207.725C418.676 208.024 417.624 208.043 416.624 207.78C415.623 207.517 414.711 206.981 413.986 206.231C411.845 204.011 410.217 201.331 409.221 198.389C407.211 192.61 405.978 186.58 405.556 180.464C404.567 184.441 403.54 188.063 402.441 191.293C401.544 193.826 400.473 196.291 399.234 198.669C398.061 200.853 396.87 201.806 395.66 201.563C394.21 201.284 392.83 200.71 391.602 199.876C390.374 199.042 389.324 197.965 388.513 196.708C386.245 193.002 384.981 188.75 384.848 184.385C384.57 180.907 384.478 177.416 384.573 173.929C384.573 169.69 384.811 165.097 385.123 160.111C385.434 155.126 385.911 150.066 386.589 144.894C387.212 139.962 388.099 135.069 389.246 130.236C389.335 129.562 389.587 128.92 389.979 128.369C390.584 127.249 391.372 126.931 392.362 127.436C392.927 127.737 393.451 128.114 393.919 128.556C394.528 129.143 395.025 129.839 395.385 130.61C395.856 131.644 396.165 132.746 396.302 133.877C396.509 135.457 396.509 137.059 396.302 138.639C395.943 140.771 395.698 142.921 395.569 145.08C395.312 148.118 395.037 151.572 394.744 155.443C394.432 159.308 394.194 163.342 394.011 167.58C393.828 171.819 393.736 175.74 393.736 179.343C393.706 182.397 393.829 185.451 394.102 188.493C394.341 190.976 394.836 192.47 395.569 192.974C396.045 192.843 396.723 191.349 397.584 188.493C398.318 186.121 399.252 182.275 400.425 176.916C401.598 171.557 403.082 163.846 404.915 153.763C405.017 152.815 405.201 151.877 405.465 150.962C405.703 150.215 405.941 149.468 406.198 148.722C406.381 148.057 406.766 147.469 407.297 147.041C407.814 146.646 408.366 146.302 408.947 146.014C409.487 145.718 410.078 145.528 410.688 145.454C411.164 145.382 411.65 145.481 412.062 145.734C412.429 145.977 412.539 146.537 412.429 147.414C412.203 148.992 412.08 150.582 412.062 152.176C411.934 154.846 411.805 158.095 411.696 161.885C411.586 165.676 411.567 169.765 411.696 174.115C411.824 178.466 412.08 182.574 412.52 186.439C412.855 189.861 413.53 193.239 414.536 196.522C415.055 198.803 416.395 200.802 418.293 202.123C419.698 199.117 420.626 195.903 421.042 192.6C421.769 187.402 422.198 182.165 422.325 176.916C422.557 170.194 422.374 161.294 421.775 150.215C421.559 147.548 421.036 144.916 420.217 142.373C419.497 140.668 419.214 138.805 419.392 136.958C419.407 136.71 419.493 136.471 419.64 136.272C419.786 136.073 419.987 135.922 420.217 135.838C420.666 135.707 421.142 135.707 421.592 135.838C422.228 135.925 422.846 136.114 423.424 136.398C423.584 136.555 423.77 136.682 423.974 136.772C424.248 136.933 424.545 137.053 424.854 137.126V137.126Z" fill="#2C383D"/>
<path opacity="0.99" d="M461.506 151.242C462.605 151.242 463.027 152.306 462.789 154.416C462.66 155.537 462.477 156.788 462.239 158.151C462.001 159.514 461.689 160.578 461.323 162.072C460.956 163.566 460.516 165.19 460.04 166.927C459.563 168.663 458.867 170.474 458.39 172.341C457.914 174.209 457.163 175.833 456.558 177.943C455.917 180.115 455.12 182.237 454.175 184.291C453.437 186.066 452.515 187.756 451.426 189.333C450.466 190.556 449.392 191.681 448.219 192.694C447.688 193.17 447.057 193.519 446.375 193.713C445.693 193.906 444.976 193.941 444.279 193.814C441.836 193.304 439.759 191.001 438.048 186.905C436.206 182.09 435.334 176.947 435.483 171.781C435.483 169.783 435.483 167.393 435.666 164.593C435.849 161.792 435.959 158.842 436.216 155.723C436.472 152.605 436.784 149.562 437.224 146.574C437.664 143.587 438.14 140.879 438.69 138.452C439.096 136.45 439.743 134.506 440.614 132.664C441.347 131.226 442.19 130.516 443.18 130.516C443.446 130.59 443.695 130.717 443.913 130.89C444.728 131.488 445.415 132.251 445.929 133.13C446.806 134.788 447.188 136.67 447.028 138.545C446.822 141.242 446.455 143.923 445.929 146.574C445.306 150.066 444.792 154.043 444.371 158.711C443.949 163.379 443.656 167.729 443.546 171.968C443.404 175.61 443.465 179.257 443.73 182.891C443.968 185.935 444.389 187.652 445.012 188.026C445.984 188.642 447.12 187.876 448.403 185.692C449.791 183.305 450.986 180.807 451.976 178.223C453.32 174.999 454.664 171.14 456.008 166.646C456.613 164.91 457.126 163.248 457.566 161.698C458.006 160.149 458.317 158.86 458.574 157.964C458.83 157.068 459.233 155.593 459.49 154.603C459.674 153.765 459.95 152.95 460.315 152.176C460.608 151.448 461.011 151.242 461.506 151.242ZM445.196 127.529C443.235 127.286 442.263 126.595 442.263 125.475C442.263 124.355 443.656 123.925 445.745 124.168C447.835 124.411 448.678 125.419 448.678 126.409C448.678 127.398 447.266 127.977 445.196 127.604V127.529Z" fill="#2C383D"/>
<path opacity="0.99" d="M519.6 107.438C519.6 107.681 519.343 107.867 518.867 107.998C518.108 108.304 517.3 108.462 516.484 108.465L511.17 108.745C509.813 108.745 507.834 108.745 505.214 108.838C502.593 108.932 499.551 108.838 496.142 108.838H473.601C472.978 112.062 472.367 115.921 471.768 120.415C471.17 124.909 470.559 129.763 469.936 134.979C469.313 138.956 468.836 143.045 468.47 147.209C468.103 151.373 467.792 155.462 467.553 159.439C467.415 160.835 467.354 162.238 467.37 163.64V167.842C467.242 170.96 467.242 173.817 467.37 176.431C467.485 178.653 467.729 180.866 468.103 183.059C468.211 184.728 468.931 186.294 470.119 187.447C471.406 186.099 472.432 184.515 473.143 182.779C474.169 180.538 475.177 178.167 476.167 175.684C477.266 172.827 478.293 169.765 479.282 166.534C479.887 164.798 480.437 163.136 480.931 161.586C481.426 160.037 481.774 158.748 482.031 157.852C482.288 156.956 482.691 155.481 482.947 154.491C483.131 153.653 483.408 152.838 483.772 152.064C484.065 151.448 484.413 151.186 484.78 151.317C485.989 151.317 486.429 152.381 486.063 154.491C485.935 155.611 485.751 156.862 485.513 158.226C485.275 159.589 484.963 160.653 484.597 162.147C484.23 163.64 483.79 165.265 483.314 167.001C482.837 168.738 482.141 170.549 481.665 172.416C481.188 174.283 480.437 175.908 479.832 178.018C479.191 180.19 478.394 182.312 477.45 184.366C476.898 185.734 476.223 187.046 475.434 188.287C474.814 189.279 474.075 190.189 473.235 190.995C472.883 191.368 472.453 191.654 471.977 191.832C471.5 192.01 470.99 192.075 470.486 192.022C469.538 192.054 468.594 191.889 467.711 191.536C466.829 191.182 466.027 190.649 465.354 189.968C464.027 188.633 462.969 187.048 462.239 185.3C461.326 183.142 460.65 180.887 460.223 178.578C459.7 176.279 459.393 173.934 459.307 171.576C459.178 169.018 459.123 166.684 459.123 164.574V157.105C459.856 146.4 460.773 137.002 461.872 128.911C462.972 120.82 464.01 114.16 464.988 108.932C461.066 108.795 457.492 108.701 454.267 108.652C451.023 108.652 448.311 108.502 446.112 108.372C444.279 108.372 442.685 108.372 441.347 108.185C440.009 107.998 439.056 107.942 438.14 107.811C437.224 107.681 436.766 107.494 436.766 107.251C436.766 106.635 438.012 106.168 440.522 105.851C444.573 105.469 448.642 105.313 452.709 105.384C454.047 105.515 455.825 105.571 458.024 105.571H465.483C465.721 104.077 465.959 102.733 466.216 101.556C466.4 100.577 466.644 99.6101 466.949 98.6622C467.187 97.7846 467.37 96.9817 467.498 96.2349C467.951 94.9156 468.566 93.6606 469.331 92.5005C469.578 92.1578 469.894 91.8725 470.257 91.6633C470.62 91.4541 471.023 91.3258 471.439 91.2868C472.227 91.2868 473.106 91.9963 474.096 93.6208C474.334 94.237 474.572 94.9278 474.829 95.6747C475.314 97.375 475.377 99.1716 475.012 100.903C474.837 101.482 474.715 102.075 474.646 102.677C474.517 103.48 474.334 104.544 474.096 105.571C478.983 105.571 484.114 105.571 489.49 105.571C494.865 105.571 499.752 105.664 504.151 105.851C508.549 105.988 512.184 106.175 515.055 106.411C517.969 106.747 519.471 107.065 519.6 107.438Z" fill="#2C383D"/>
<path opacity="0.99" d="M490.828 168.308C491.304 164.574 491.945 160.528 492.752 156.172C493.479 152.069 494.452 148.016 495.666 144.035C496.611 140.76 497.966 137.622 499.697 134.699C500.172 133.666 500.904 132.778 501.821 132.123C502.737 131.468 503.806 131.069 504.92 130.965C505.3 130.964 505.678 131.027 506.038 131.151C506.333 131.302 506.639 131.427 506.954 131.525C507.416 131.708 507.848 131.96 508.237 132.272C509.995 134.169 511.195 136.53 511.701 139.087C512.691 142.51 512.813 148.018 512.067 155.611C511.958 157.236 511.829 158.73 511.701 160.093C511.573 161.456 511.463 162.52 511.334 163.64C511.206 164.761 511.151 165.508 511.151 166.068C510.913 171.539 510.876 176.393 511.151 180.632C511.426 184.87 511.774 187.298 512.526 187.914C513.277 188.53 514.615 187.764 515.898 185.58C517.293 183.197 518.489 180.699 519.471 178.111C521.015 174.326 522.367 170.462 523.521 166.534C524.126 164.798 524.676 163.136 525.152 161.586C525.629 160.037 526.014 158.748 526.27 157.852C526.527 156.956 526.93 155.481 527.186 154.491C527.37 153.653 527.647 152.838 528.011 152.064C528.304 151.448 528.708 151.186 529.184 151.317C530.302 151.317 530.65 152.381 530.302 154.491C530.174 155.611 529.99 156.862 529.734 158.225C529.477 159.589 529.184 160.653 528.817 162.147C528.451 163.64 528.029 165.265 527.553 167.001C527.076 168.738 526.38 170.549 525.885 172.416C525.39 174.283 524.676 175.908 524.053 178.018C523.426 180.193 522.636 182.315 521.689 184.366C520.95 186.141 520.028 187.831 518.94 189.408C517.98 190.631 516.906 191.756 515.733 192.768C515.197 193.244 514.563 193.592 513.878 193.786C513.193 193.979 512.474 194.015 511.774 193.889C509.331 193.378 507.26 191.076 505.562 186.98C503.713 182.167 502.834 177.023 502.978 171.856C502.978 169.615 503.069 166.871 503.271 163.64C503.473 160.41 503.656 156.974 503.894 153.371C503.918 152.838 503.979 152.308 504.077 151.784C504.206 151.093 504.334 150.383 504.444 149.636C504.554 148.89 504.7 147.769 504.81 146.836C504.81 146.332 504.81 145.715 504.902 144.968C504.975 144.223 504.975 143.473 504.902 142.728C504.856 142.083 504.701 141.451 504.444 140.861C504.374 140.622 504.232 140.412 504.037 140.261C503.843 140.11 503.607 140.026 503.363 140.02C502.373 139.89 501.31 141.421 500.156 144.595C498.773 148.523 497.671 152.548 496.857 156.638C495.818 161.493 494.957 166.752 494.273 172.416C493.635 177.649 493.359 182.921 493.448 188.194C493.937 189.825 493.754 190.945 492.898 191.555C492.661 191.793 492.356 191.948 492.027 191.998C491.698 192.049 491.361 191.991 491.066 191.835C490.391 191.462 489.773 190.99 489.233 190.434C488.51 189.676 487.842 188.865 487.236 188.007C485.64 185.319 484.582 182.337 484.12 179.231C483.497 175.74 483.076 172.379 482.819 169.149C482.587 165.277 482.532 161.294 482.654 157.199C483.265 147.726 484.059 139.23 485.037 131.711C486.014 124.193 486.985 117.813 487.95 112.573C489.068 106.467 490.149 101.052 491.249 96.3282C491.61 95.0056 492.166 93.7465 492.898 92.5938C493.151 92.2524 493.47 91.9681 493.836 91.7592C494.202 91.5502 494.607 91.4212 495.024 91.3802C495.812 91.3802 496.692 92.0897 497.663 93.7142C498.023 94.4368 498.329 95.1858 498.579 95.9548C498.847 96.6694 498.971 97.4311 498.946 98.1954C498.894 99.0896 498.734 99.9738 498.47 100.828C498.231 101.818 497.773 104.226 497.095 108.017C496.417 111.807 495.721 116.419 495.006 121.834C494.291 127.249 493.54 133.037 492.788 139.292C492.037 145.547 491.506 151.56 491.139 157.404C491.139 158.767 491.139 160.149 490.956 161.512C490.773 162.875 490.754 163.808 490.681 165.059C490.627 166.145 490.676 167.233 490.828 168.308Z" fill="#2C383D"/>
<path opacity="0.99" d="M619.935 156.937C618.713 160.97 617.54 164.779 616.416 168.364C615.39 171.352 614.29 174.339 613.118 177.327C612.221 179.777 611.04 182.109 609.599 184.273C609.098 185.173 608.482 186.002 607.766 186.738C607.172 187.341 606.508 187.868 605.787 188.306C605.466 188.523 605.098 188.657 604.715 188.696C604.332 188.735 603.945 188.678 603.588 188.53C602.366 188.53 601.413 187.708 600.729 186.065C599.935 184.25 599.274 182.378 598.75 180.464C598.163 178.074 597.65 175.46 597.211 172.622C596.771 169.783 596.331 166.671 595.891 163.286C595.451 158.506 595.121 153.614 594.901 148.61C594.682 143.605 594.425 138.937 594.132 134.606C593.839 129.626 593.619 124.772 593.472 120.042C593.093 124.373 592.763 128.967 592.482 133.821C592.201 138.676 591.945 143.655 591.713 148.759C591.42 153.24 591.2 157.945 591.053 162.875C590.906 167.804 590.833 172.584 590.833 177.215C590.833 181.845 590.87 186.202 590.943 190.285C591.016 194.368 591.2 197.729 591.493 200.368C591.516 200.995 591.589 201.62 591.713 202.235C591.855 203.04 592.076 203.828 592.372 204.588C592.666 205.484 592.959 206.53 593.252 207.725C593.545 208.92 593.472 209.667 593.032 209.965C592.153 210.563 591.108 210.264 589.917 209.069C589.313 208.465 588.783 207.788 588.341 207.053C587.71 205.931 587.147 204.771 586.655 203.58C585.551 200.756 584.722 197.829 584.181 194.841C583.195 189.697 582.522 184.497 582.165 179.269C581.611 171.365 581.495 163.435 581.817 155.518C582.403 141.477 583.356 128.444 584.676 116.419C585.784 105.57 587.695 94.8218 590.393 84.2662C590.643 83.325 591.013 82.4212 591.493 81.5775C592.226 79.9344 593.179 79.4115 594.352 80.009C594.776 80.2158 595.141 80.5308 595.41 80.9233C595.68 81.3159 595.846 81.7727 595.891 82.2497C597.357 83.8928 598.09 90.6147 598.09 102.415C598.09 104.208 598.164 106.859 598.31 110.37C598.457 113.88 598.603 117.801 598.75 122.133C598.897 126.465 599.08 131.17 599.3 136.249C599.52 141.327 599.776 146.307 600.069 151.186C600.363 155.667 600.656 159.925 600.949 163.958C601.242 167.393 601.535 170.866 601.829 174.377C602.122 177.887 602.415 180.613 602.708 182.555C603.002 183.003 603.515 181.758 604.248 178.821C604.981 175.883 605.787 172.447 606.667 168.514C607.693 164.032 608.793 158.879 609.965 153.053C610.405 151.261 610.918 149.132 611.505 146.668C612.091 144.203 612.751 141.85 613.484 139.61C614.081 136.884 614.815 134.192 615.683 131.543C617.296 126.465 618.872 121.485 620.411 116.606C621.951 111.726 623.527 107.021 625.139 102.49C626.752 98.0087 628.328 93.9009 629.868 90.1665C631.407 86.4322 632.812 83.1397 634.083 80.2891C634.962 78.4966 635.842 76.8535 636.722 75.3597C637.405 74.2237 638.259 73.2032 639.251 72.3349C639.633 71.9479 640.12 71.6873 640.65 71.5874C641.18 71.4874 641.727 71.5527 642.219 71.7747C643.685 72.671 644.455 74.5382 644.529 77.3763C644.586 80.7408 644.476 84.106 644.199 87.4591C644.052 89.401 643.722 92.4258 643.209 96.5336C642.696 100.641 642.183 105.421 641.67 110.874C641.157 116.326 640.607 122.301 640.02 128.799C639.434 135.296 638.921 141.981 638.481 148.852C638.188 153.931 637.968 159.234 637.821 164.761C637.675 170.288 637.601 175.628 637.601 180.781C637.601 185.935 637.638 190.752 637.711 195.233C637.785 199.714 637.968 203.449 638.261 206.436C638.455 207.097 638.602 207.771 638.701 208.453C638.851 209.365 639.072 210.264 639.361 211.142L640.35 214.727C640.717 216.071 640.607 216.893 640.02 217.191C639.777 217.42 639.469 217.565 639.14 217.605C638.811 217.646 638.477 217.579 638.188 217.415C637.544 217.1 636.931 216.725 636.355 216.295C635.673 215.612 635.059 214.861 634.522 214.054C633.718 212.771 633.019 211.422 632.433 210.021C631.162 206.878 630.205 203.613 629.574 200.275C628.44 194.543 627.669 188.742 627.265 182.91C626.66 174.035 626.586 165.13 627.045 156.246C627.485 145.491 628.145 135.334 629.025 125.774C627.559 130.853 626.337 135.11 625.359 138.545L622.281 148.852L619.935 156.937Z" fill="#2C383D"/>
<path opacity="0.99" d="M689.867 147.751C689.149 152.76 688.047 157.705 686.568 162.539C685.26 166.925 683.605 171.196 681.62 175.31C679.703 179.494 677.058 183.29 673.813 186.513C671.824 188.558 669.521 190.261 666.996 191.555C664.554 192.816 661.78 193.248 659.079 192.787C657.426 192.51 655.851 191.873 654.461 190.92C653.226 190.111 652.177 189.041 651.382 187.783C650.506 186.446 649.769 185.019 649.183 183.526C648.194 181.253 647.575 178.831 647.351 176.356C647.057 173.518 646.838 170.754 646.691 168.066C646.548 164.778 646.621 161.484 646.911 158.207C647.327 152.116 648.098 146.056 649.22 140.058C650.017 135.421 651.156 130.852 652.629 126.39C653.443 123.834 654.629 121.417 656.147 119.22C657.32 117.428 658.768 115.839 660.435 114.515C662.22 113.111 664.458 112.445 666.703 112.647C668.201 112.812 669.636 113.351 670.881 114.216C672.202 115.145 673.232 116.441 673.85 117.95C674.768 120.187 675.253 122.584 675.28 125.008C675.407 126.257 675.332 127.518 675.06 128.743C674.766 129.987 674.4 131.406 673.96 133C673.438 134.822 672.827 136.617 672.127 138.377C671.39 140.326 670.351 142.142 669.049 143.755C667.79 145.338 666.391 146.801 664.87 148.124C663.07 149.644 660.97 150.752 658.713 151.373C658.566 154.062 658.346 156.825 658.053 159.663C657.76 162.153 657.54 164.879 657.393 167.841C657.247 170.715 657.247 173.594 657.393 176.468C657.378 177.826 657.526 179.18 657.833 180.501C658.123 181.537 658.49 182.548 658.933 183.526C659.115 183.962 659.385 184.353 659.726 184.675C660.068 184.997 660.472 185.241 660.912 185.393C661.934 185.84 663.045 186.032 664.154 185.954C665.263 185.876 666.338 185.53 667.289 184.945C669.419 183.681 671.286 182.007 672.787 180.016C674.449 177.756 675.921 175.358 677.185 172.846C678.956 169.243 680.427 165.495 681.584 161.642C682.317 159.551 682.928 157.609 683.416 155.817C683.905 154.024 684.308 152.531 684.626 151.336C685.066 149.842 685.432 148.597 685.725 147.601C685.953 146.597 686.284 145.621 686.715 144.688C687.082 143.941 687.558 143.643 688.144 143.792C689.586 143.892 690.16 145.211 689.867 147.751ZM666.776 117.054C665.31 116.905 664.137 118.324 663.258 121.311C662.308 124.619 661.573 127.987 661.059 131.394C660.472 135.726 659.861 140.655 659.226 146.182C662.261 144.441 664.741 141.849 666.373 138.713C667.976 135.744 669.09 132.527 669.672 129.191C670.193 126.449 670.155 123.627 669.562 120.9C669.024 118.485 668.096 117.203 666.776 117.054Z" fill="#2C383D"/>
<path opacity="0.99" d="M703.282 187.186C703.297 187.808 703.188 188.426 702.961 189.004C702.734 189.582 702.395 190.107 701.963 190.547C701.531 190.987 701.016 191.333 700.449 191.564C699.882 191.795 699.274 191.906 698.664 191.891C698.088 191.893 697.517 191.775 696.988 191.544C696.458 191.312 695.981 190.973 695.585 190.546C695.151 190.108 694.811 189.583 694.584 189.005C694.357 188.427 694.248 187.808 694.266 187.186C694.293 186.006 694.766 184.883 695.585 184.048C696.404 183.214 697.506 182.733 698.664 182.704C699.275 182.687 699.882 182.797 700.45 183.028C701.017 183.26 701.532 183.607 701.963 184.049C702.381 184.452 702.714 184.938 702.941 185.478C703.168 186.017 703.284 186.599 703.282 187.186V187.186Z" fill="#2C383D"/>
<path opacity="0.99" d="M788.022 218.144C781.156 212.816 777.613 203.119 777.393 189.053C777.393 186.868 778.364 185.767 780.288 185.767C782.585 186.965 784.78 188.358 786.849 189.93C794.179 199.391 798.688 207.451 800.374 214.11C800.593 213.513 800.795 212.897 801.015 212.243L802.738 207.426C804.094 203.691 805.273 199.789 806.275 195.719C806.983 191.2 807.631 187.042 808.217 183.246C805.129 182.51 802.186 181.248 799.512 179.511C793.281 172.802 789.311 166.13 787.6 159.495C787.6 157.889 788.553 156.9 790.496 156.526C795.054 157.193 799.477 158.598 803.599 160.69C806.153 162.949 808.424 165.52 810.361 168.346C810.783 164.611 811.113 161.997 811.333 160.261C811.681 155.593 812.011 153.259 812.286 153.259C812.725 146.91 813.037 141.757 813.257 137.836H813.147C810.581 137.836 805.377 135.969 797.588 132.029C790.258 124.075 786.317 117.695 785.768 112.89V110.818C785.768 108.95 787.124 107.867 789.854 107.867C792.527 107.741 795.188 108.307 797.588 109.511C802.475 109.511 807.771 113.519 813.477 121.535V113.114C813.428 106.497 812.883 99.8924 811.846 93.3594C810.984 90.0731 810.233 87.123 809.592 84.4902C805.735 83.9791 801.928 83.1358 798.211 81.9695C792.102 78.6335 788.7 76.9592 788.003 76.9468C781.773 72.4282 778.657 68.1212 778.657 64.0259V59.1899C778.657 57.2106 779.738 56.221 781.883 56.221C784.394 56.3854 786.866 56.9395 789.213 57.8641C793.941 57.8641 799.311 60.8952 805.322 66.9574C803.758 61.2316 801.823 55.6178 799.531 50.1527C797.735 47.3145 796.159 44.7627 794.802 42.4972C792.658 42.4972 790.441 42.3852 788.15 42.1798C773.489 39.9765 766.159 35.9247 766.159 30.0244V25.0577C766.159 23.4519 767.112 22.4623 769.054 22.0888C779.94 23.6946 785.383 25.095 785.383 26.2527H786.189V14.9375C787.411 8.00401 789.482 4.54349 792.402 4.55594C792.967 4.55438 793.522 4.70236 794.014 4.98539C797.46 7.3256 800.325 12.4666 802.609 20.4084V23.2652L803.031 24.1427H802.609C802.609 33.0306 801.785 37.4745 800.135 37.4745L800.575 39.5657C800.575 39.7883 800.537 40.0091 800.465 40.2192C801.096 41.2253 801.636 42.2877 802.078 43.3934L805.395 49.6299C807.838 56.638 809.671 62.4014 810.893 66.92C811.039 66.3972 811.186 66.1545 811.333 66.1545C812.96 61.579 815.159 57.2363 817.875 53.2335L825.205 45.354H825.957C828.4 45.354 829.622 48.5656 829.622 54.9887V55.3248C829.365 60.4514 828.275 65.4991 826.397 70.2623C825.199 74.1872 822.922 77.6799 819.836 80.3264C818.528 82.2424 816.94 83.9426 815.126 85.3678C817.203 94.5956 818.315 104.021 818.443 113.488V123.664C818.883 123.01 819.378 122.301 819.946 121.573C822.035 116.096 824.79 112.361 828.211 110.369C831.497 107.663 835.217 105.553 839.207 104.133C841.149 104.133 842.102 105.216 842.102 107.419V109.062C842.102 111.104 840.746 115.548 838.034 122.394C831.925 131.805 825.37 136.915 818.37 137.724C818.223 142.466 818.095 146.257 817.948 149.095C817.802 151.933 817.472 153.688 817.197 153.688C816.913 159.317 816.338 164.926 815.474 170.493C816.593 168.984 817.934 167.661 819.451 166.572C827.185 159.626 833.733 156.159 839.097 156.172C840.526 156.172 841.607 157.124 842.322 159.01C842.322 160.914 840.569 165.364 837.062 172.36C831.565 177.607 827.441 180.538 824.491 181.117C821.826 182.7 818.868 183.704 815.804 184.067H813.678C812.988 189.519 811.984 194.924 810.673 200.256C809.282 205.198 807.63 210.06 805.725 214.82H806.055C808.62 212.106 815.273 209.878 826.012 208.135C832.047 208.359 835.059 209.343 835.047 211.086L834.607 213.606C831.676 216.312 828.95 219.24 826.452 222.363C822.371 225.127 816.103 227.056 807.649 228.152H802.28C801.341 228.173 800.404 228.066 799.494 227.834C795.352 234.058 792.133 237.17 789.836 237.17C788.113 237.17 787.252 236.442 787.252 234.986L787.692 232.782C790.085 231.11 792.185 229.04 793.904 226.658L795.627 223.82C792.965 222.111 790.424 220.214 788.022 218.144V218.144ZM791.137 35.7753C784.491 30.236 777.832 27.4601 771.162 27.4477V28.7734C771.278 30.0355 771.853 31.2076 772.775 32.0596C778.73 35.5442 785.461 37.421 792.328 37.5118C792.204 37.3406 792.094 37.1595 791.999 36.9703L791.137 35.7753ZM782.341 193.198C782.829 199.036 783.508 202.646 784.375 204.028C784.595 206.43 788.315 210.88 795.536 217.378C794.192 209.648 789.775 201.588 782.286 193.198H782.341ZM797.002 66.2291C791.773 63.1545 787.405 61.6172 783.898 61.6172H783.459V64.474C784.691 67.1072 786.534 69.3951 788.828 71.1398C798.138 76.3929 804.247 79.0194 807.154 79.0194H808.016C806.904 76.1315 803.226 71.8556 796.983 66.1918L797.002 66.2291ZM804.955 119.183C802.512 116.394 797.857 114.315 790.991 112.946H790.569C790.569 114.191 792.897 118.056 797.551 124.541C801.425 128.608 806.403 131.404 811.846 132.57H812.267C810.983 127.533 808.46 122.913 804.937 119.145L804.955 119.183ZM796.452 34.1322C797.24 34.1322 797.643 31.1073 797.643 25.0577C797.668 24.586 797.814 24.1292 798.065 23.732C798.007 23.7417 797.948 23.7373 797.893 23.7191C797.837 23.701 797.787 23.6696 797.745 23.6276C797.704 23.5856 797.673 23.5342 797.656 23.4777C797.638 23.4211 797.633 23.3611 797.643 23.3025V20.5391C797.643 18.8088 795.994 15.6035 792.695 10.9231C791.98 10.9231 791.449 12.3048 791.082 15.0682V25.4684C791.1 27.1403 791.668 28.7577 792.695 30.0617L793.868 31.0513C794.353 31.3052 794.764 31.6853 795.059 32.153C795.994 32.9932 796.452 33.6094 796.452 34.1322ZM806.769 172.416C802.53 166.068 798.449 162.893 794.528 162.893H794.088C794.78 164.602 795.608 166.25 796.562 167.823C801.779 174.756 805.859 178.223 808.804 178.223L806.769 172.416ZM815.346 215.735C811.226 216.792 807.612 219.315 805.157 222.849V223.185H806.018C807.576 223.185 808.364 223.073 808.364 222.849C812.002 222.933 815.609 222.146 818.894 220.551C822.179 218.955 825.05 216.595 827.276 213.662V213.233C823.207 213.518 819.195 214.359 815.346 215.735V215.735ZM823.941 54.1484C818.15 61.2935 815.034 67.5175 814.595 72.8203V78.4219C817.924 75.8422 820.466 72.3521 821.925 68.3577C823.691 64.2853 824.674 59.9053 824.821 55.4555V53.8123L823.941 54.1484ZM829.64 164.985C824.143 169.653 820.862 172.267 819.854 172.864C817.783 176.729 816.574 178.653 816.189 178.653V179.101C817.417 178.802 818.7 178.54 820.056 178.316C821.918 177.563 823.714 176.651 825.425 175.59C827.973 174.242 830.234 172.392 832.077 170.149C833.921 167.906 835.31 165.313 836.164 162.52V162.072C833.902 162.823 831.716 163.799 829.64 164.985V164.985ZM826.195 120.34C823.96 123.902 822.022 127.65 820.404 131.543V131.973H821.265C824.931 129.863 826.763 128.238 826.946 127.38C831.96 123.43 835.455 117.813 836.824 111.508V111.079C832.33 112.81 828.571 116.086 826.195 120.34V120.34Z" fill="#A2BB94"/>
</g>
</svg>
