<svg width="151" height="33" viewBox="0 0 151 33" fill="none" xmlns="http://www.w3.org/2000/svg">
<g opacity="0.99">
<path opacity="0.99" d="M9.21525 30.8735L9.53701 31.2716C9.85855 31.6063 10.2521 31.8968 10.7008 32.1306L10.783 32.4397C10.783 32.644 10.6187 32.7487 10.2969 32.7487C9.87246 32.7487 9.27002 32.314 8.49643 31.4444C8.32334 31.4735 8.14651 31.4876 7.96929 31.4863H6.96979C5.7352 31.4172 4.5359 31.1399 3.45782 30.6744C3.00507 30.2369 2.50838 29.8271 1.97225 29.4487L1.8901 29.0925C1.8901 28.8463 2.45147 28.7101 3.5742 28.6787C5.58234 28.9232 6.82602 29.2357 7.30524 29.6163H7.36685C7.00783 28.9495 6.69925 28.2674 6.44265 27.5735C6.19223 26.8274 6.00472 26.0698 5.88128 25.3054H5.47737C4.90524 25.2538 4.35302 25.113 3.85488 24.8916C2.95288 24.6336 2.14682 24.2111 1.50673 23.6606C1.03471 23.085 0.692227 22.4529 0.49353 21.7906C0.623603 21.5235 0.822135 21.3925 1.08913 21.3925C2.09548 21.3925 3.3209 21.8744 4.76539 22.8487C5.04427 22.9945 5.29342 23.171 5.50476 23.3725C5.34464 22.5898 5.23724 21.8013 5.183 21.0101C5.12823 21.0101 5.08715 20.7954 5.06662 20.3659C5.04608 19.9363 4.99131 19.4335 4.96393 18.7944C3.6632 18.6844 2.44462 17.9668 1.2945 16.6468C0.925122 16.0542 0.66699 15.4247 0.52776 14.7768V14.5463C0.52776 14.2373 0.7126 14.0854 1.07543 14.0854C1.82004 14.2855 2.51459 14.5814 3.12922 14.9602C3.86217 15.3352 4.40752 15.8891 4.6764 16.5316C4.78593 16.6311 4.87493 16.7306 4.95708 16.8197V15.4054C4.98047 14.0774 5.18932 12.7551 5.58006 11.4611C5.24226 11.2628 4.94865 11.024 4.71063 10.754C4.13453 10.3835 3.70926 9.89456 3.4852 9.34491C3.13556 8.67651 2.93203 7.96864 2.88276 7.24967V7.20777C2.88276 6.30682 3.10868 5.85634 3.56736 5.85634H3.70427L5.07346 6.96158C5.57772 7.52219 5.98717 8.1294 6.29204 8.76872C6.29204 8.76872 6.34681 8.80539 6.37419 8.87872C6.59782 8.24317 6.93784 7.43475 7.39423 6.45348L8.01721 5.57872C8.10116 5.42412 8.20192 5.27519 8.31844 5.13348C8.3124 5.10398 8.3124 5.07394 8.31844 5.04444L8.40059 4.7511C8.09252 4.7511 7.94191 4.12777 7.94191 2.87587H7.85976L7.94191 2.75539V2.35729C8.36636 1.24333 8.90034 0.522216 9.54386 0.193962C9.63504 0.15265 9.73911 0.130933 9.84508 0.131105C10.3928 0.131105 10.783 0.618248 11.0089 1.5873V3.15872H11.1458C11.1458 2.99634 12.1659 2.80253 14.1991 2.57729C14.5551 2.62968 14.7399 2.76587 14.7399 2.9911V3.66682C14.7399 4.49444 13.3707 5.0619 10.6324 5.3692C10.2079 5.40063 9.79031 5.41634 9.39325 5.41634L8.47589 6.50586C8.04376 7.27362 7.68009 8.06288 7.38739 8.86825C8.51012 8.01967 9.51419 7.59539 10.3996 7.59539C10.8375 7.46444 11.2995 7.38668 11.7688 7.36491C12.1727 7.36491 12.3712 7.5011 12.3712 7.77872V8.47015C12.3712 9.03936 11.7893 9.64348 10.6255 10.2825C9.96501 10.4712 9.33181 10.7117 8.73604 11.0002C8.04061 11.1642 7.32842 11.2834 6.60695 11.3563C6.49057 11.723 6.34681 12.1368 6.18935 12.5978C5.9957 13.5106 5.89499 14.4335 5.88813 15.3582V16.5421C6.95609 15.4176 7.94419 14.8554 8.85242 14.8554C9.30023 14.6853 9.79758 14.606 10.2969 14.6249C10.8035 14.6249 11.0637 14.7611 11.0637 15.0387V15.3268C10.9678 16.0043 10.2307 16.9 8.85242 18.014C7.95253 18.4134 6.96759 18.6883 5.9429 18.8259V18.8259C5.97713 19.3811 6.03874 20.104 6.12089 20.9944C6.25437 21.3109 6.32138 21.6415 6.31942 21.974C6.31942 22.2201 6.40157 22.5973 6.48372 23.1106C6.83482 22.701 7.2536 22.3277 7.72968 22.0001C8.50264 21.7094 9.33304 21.5182 10.1874 21.4344C10.5434 21.4868 10.7282 21.6282 10.7282 21.8482C10.3024 22.9124 9.53786 23.8789 8.50328 24.6611C8.00312 24.9054 7.45208 25.0826 6.87394 25.1849C6.98348 25.7087 7.09986 26.3006 7.23678 26.9344C7.42768 27.4914 7.65619 28.0404 7.92137 28.5792L8.24313 29.2549C8.27736 29.344 8.31844 29.433 8.35951 29.5116C8.89247 28.2632 9.74675 27.1091 10.872 26.1173C11.2576 25.8967 11.6677 25.7021 12.0974 25.5359C12.4602 25.5359 12.6382 25.6878 12.6382 25.9968C12.5971 27.9663 11.9536 29.3282 10.6529 30.0773C10.1977 30.3672 9.7174 30.6332 9.21525 30.8735V30.8735ZM1.51357 15.0701V15.1278C1.76531 16.0101 2.41181 16.7975 3.34144 17.354C3.34144 17.4849 3.71797 17.7049 4.40256 17.9982H4.56002V17.9354C4.2591 17.3888 3.89721 16.863 3.47836 16.364C3.04054 15.7707 2.34557 15.313 1.51357 15.0701ZM1.6368 22.2044V22.2673C1.79674 22.6583 2.05635 23.0211 2.40064 23.3349C2.74492 23.6487 3.16706 23.9072 3.64266 24.0954C3.96 24.2457 4.29455 24.3737 4.64217 24.4778C4.89318 24.5092 5.12138 24.5459 5.32676 24.5878V24.5249C5.04523 24.2829 4.81431 24.009 4.64217 23.713C4.45733 23.6292 3.84804 23.2625 2.8143 22.6078C2.43949 22.4449 2.0452 22.3099 1.6368 22.2044V22.2044ZM3.30036 29.3859V29.4487C3.71474 29.86 4.24979 30.191 4.86226 30.4149C5.47473 30.6387 6.14744 30.7492 6.82602 30.7373C6.82602 30.7687 6.97663 30.7844 7.27101 30.7844H7.449V30.7373C6.99062 30.241 6.31572 29.8862 5.54583 29.7368C4.82138 29.5431 4.06608 29.425 3.30036 29.3859ZM3.75904 7.00872V7.2392C3.78422 7.86442 3.9679 8.47995 4.29987 9.05158C4.57091 9.61316 5.04593 10.1038 5.66906 10.4659V9.69586C5.59147 8.95205 5.01185 8.07904 3.93019 7.07682L3.75904 7.00872ZM6.07981 18.0611H6.16197C7.17628 17.8998 8.10398 17.5093 8.82503 16.9402C9.72185 16.0287 10.1874 15.4892 10.1874 15.3111H10.1052C9.12321 15.3864 8.19556 15.692 7.449 16.1859C6.79456 16.7133 6.32376 17.3582 6.07981 18.0611V18.0611ZM6.76441 24.4725C7.31208 24.4725 8.07198 23.9906 9.05095 23.0163C9.22306 22.7945 9.37406 22.5634 9.50278 22.3249H9.42063C8.68812 22.3249 7.92822 22.7701 7.13409 23.6606L6.76441 24.4725ZM6.90133 10.5706H7.06563C7.6133 10.5706 8.75429 10.2022 10.4886 9.46539C10.917 9.22232 11.2604 8.90204 11.4881 8.53301V8.12967H11.406C10.5361 8.18203 9.69655 8.39795 8.96195 8.75825C8.12508 9.25506 7.42086 9.87036 6.88763 10.5706H6.90133ZM9.33163 3.97063C9.38586 3.90609 9.46144 3.85368 9.5507 3.81872L9.76977 3.68253C9.9616 3.49962 10.0677 3.27275 10.071 3.03825V1.57158C10.0025 1.18396 9.90669 0.990152 9.76977 0.990152C9.31164 1.37564 8.9848 1.84162 8.81819 2.34682V2.74491C8.81819 2.78682 8.81819 2.80777 8.74288 2.80777C8.78668 2.86343 8.81249 2.92628 8.81819 2.9911C8.81819 3.83967 8.89349 4.26396 9.0441 4.26396C9.0578 4.19063 9.13995 4.10682 9.31794 3.97063H9.33163ZM9.24948 29.9673C10.6187 29.0559 11.3147 28.4325 11.3375 28.0973C11.5796 27.612 11.7071 27.0977 11.714 26.5782C10.4808 27.503 9.62068 28.6793 9.23579 29.9673H9.24948ZM9.93408 4.66206L9.87246 4.74063C11.1546 4.72585 12.4106 4.46081 13.5213 3.97063C13.693 3.85305 13.8005 3.69037 13.8226 3.51491V3.32634C12.4386 3.36985 11.1184 3.78318 10.0915 4.49444L9.93408 4.66206Z" fill="#F2F7F5"/>
<path opacity="0.99" d="M27.4731 18.9153C27.8763 18.9129 28.2776 18.9559 28.6637 19.0428C29.0052 19.1146 29.3392 19.2051 29.6629 19.3138C30.0284 19.4381 30.3545 19.6192 30.6197 19.8451C30.7093 19.9563 30.8087 20.0628 30.9173 20.164C31.0092 20.2809 31.0874 20.4036 31.1512 20.5306C31.2255 20.6796 31.2755 20.8348 31.3 20.9929C31.3 21.0992 31.3142 21.4534 31.3425 22.0556C31.3637 22.754 31.3068 23.4525 31.1724 24.1438C31.0382 25.0727 30.7477 25.985 30.3078 26.8591C29.9722 27.5252 29.5143 28.153 28.9472 28.7242C28.5127 29.1527 27.9712 29.5136 27.3526 29.7869C26.8794 29.9989 26.3493 30.1296 25.8006 30.1695C25.3619 30.1815 24.9235 30.1384 24.5038 30.0419C23.958 29.9138 23.4469 29.7141 22.9943 29.4521C22.4247 29.1122 21.9441 28.696 21.5769 28.2247C21.0847 27.5935 20.7194 26.9113 20.4926 26.2002C20.1822 25.2233 20.0181 24.2235 20.0036 23.2193C19.9762 21.8515 20.1042 20.4846 20.3863 19.1331C20.5806 18.0861 20.8646 17.0496 21.2367 16.03C21.533 15.2204 21.9024 14.4268 22.3423 13.6548C22.6819 13.0538 23.0947 12.4774 23.5754 11.9332C23.951 11.5112 24.378 11.1163 24.851 10.7536C25.6799 10.0871 26.7646 9.63028 27.955 9.44643C28.3177 9.40066 28.6903 9.4435 29.018 9.56864C29.3167 9.71964 29.5603 9.92421 29.7267 10.1638C29.9909 10.5623 30.113 11.0053 30.0811 11.4497C30.1141 11.8577 30.0711 12.2673 29.9535 12.6665C29.8725 12.9559 29.7365 13.235 29.5496 13.4954C29.4966 13.6024 29.399 13.6938 29.2714 13.756C29.1438 13.8182 28.9928 13.8479 28.8409 13.8408C28.6353 13.8505 28.4299 13.8193 28.2456 13.7504C28.1741 13.7283 28.1091 13.6957 28.0544 13.6547C27.9996 13.6137 27.9562 13.565 27.9267 13.5113C27.8949 13.422 27.888 13.3288 27.9063 13.2374C27.9245 13.146 27.9677 13.0584 28.033 12.98L28.3519 12.2626C28.4614 11.997 28.5419 11.7251 28.5928 11.4497C28.658 11.213 28.658 10.9689 28.5928 10.7323C28.5641 10.6381 28.4978 10.5526 28.403 10.4872C28.3081 10.4217 28.189 10.3794 28.0613 10.3657C27.6876 10.3849 27.3244 10.4666 26.9983 10.6048C26.2734 10.9159 25.6661 11.3602 25.2337 11.896C24.4359 12.8428 23.8338 13.8747 23.4478 14.9566C22.7962 16.7489 22.4112 18.5898 22.2998 20.4456C22.2147 21.5933 22.1935 22.5923 22.236 23.4424C22.2568 24.1851 22.3491 24.9256 22.5124 25.6582C22.6329 26.1853 22.8179 26.7029 23.0651 27.2045C23.242 27.5543 23.4804 27.8849 23.7738 28.1875C23.9858 28.4538 24.284 28.6757 24.6408 28.8327C24.9975 28.9896 25.4013 29.0766 25.8148 29.0855C26.169 29.0537 26.5138 28.9783 26.8353 28.8623C26.892 28.834 27.0125 28.7649 27.1967 28.6551C27.4282 28.5004 27.6287 28.3214 27.792 28.1237C28.0513 27.7863 28.265 27.4303 28.4298 27.061C28.6669 26.544 28.8308 26.0097 28.9188 25.4669C29.0322 24.7584 29.1385 24.0624 29.2377 23.3787C29.3302 22.7913 29.3799 22.2007 29.3866 21.6093C29.4029 21.189 29.3312 20.7694 29.174 20.3659C29.1295 20.231 29.0333 20.1088 28.8973 20.0143C28.7613 19.9199 28.5914 19.8574 28.4086 19.8345C28.0117 19.792 27.5936 19.7601 27.1542 19.7389C26.7148 19.7176 26.2967 19.707 25.8999 19.707H24.5534C24.4315 19.7088 24.3099 19.6981 24.1919 19.6751C24.1529 19.6701 24.1157 19.659 24.0827 19.6425C24.0498 19.626 24.0218 19.6045 24.0006 19.5795C24.0006 19.4307 24.0856 19.2925 24.3408 19.1597C24.4825 19.1225 24.6667 19.08 24.8935 19.0375C25.1592 18.9903 25.4293 18.9583 25.7014 18.9418H27.4731V18.9153Z" fill="#F2F7F5"/>
<path opacity="0.99" d="M42.3644 19.2372C42.6327 19.2372 42.737 19.4124 42.6774 19.7627C42.6178 19.9519 42.5582 20.1621 42.4985 20.3933C42.4389 20.6245 42.3718 20.8435 42.2973 21.0502C42.2112 21.3284 42.0991 21.6022 41.9619 21.87C41.8427 22.1643 41.7234 22.4691 41.6042 22.7844C41.4849 23.0997 41.3358 23.415 41.157 23.7303C40.9781 24.0806 40.7843 24.4309 40.5756 24.7813C40.3958 25.0812 40.171 25.3666 39.9048 25.6326C39.671 25.8394 39.4089 26.0295 39.1222 26.2001C38.9909 26.2788 38.8369 26.3364 38.6709 26.3691C38.5049 26.4017 38.3309 26.4086 38.1607 26.3893C37.8043 26.3356 37.4686 26.2281 37.1769 26.074C36.8055 25.8698 36.5005 25.6117 36.2825 25.3173C35.9825 24.9208 35.7641 24.4961 35.6341 24.0561C35.4578 23.4653 35.3753 22.8625 35.3881 22.2589C35.3943 21.8269 35.4317 21.3954 35.4999 20.9661C35.5745 20.4616 35.6714 19.9519 35.7906 19.4369C35.9099 18.9219 36.0515 18.4174 36.2154 17.9234C36.3534 17.488 36.5403 17.061 36.7744 16.6465C36.8322 16.569 36.8555 16.4811 36.8415 16.3942C36.8365 16.3312 36.8365 16.268 36.8415 16.205C36.8152 16.1544 36.8002 16.1012 36.7968 16.0474L36.6254 15.9423C36.5599 15.8868 36.4848 15.8373 36.4018 15.7951C36.2792 15.7263 36.1438 15.6697 35.9993 15.627L35.731 15.5482C35.6594 15.5282 35.5841 15.5158 35.5074 15.5114C35.4478 15.937 35.3732 16.3259 35.2838 16.6832C35.1943 17.0406 35.1049 17.3664 35.0155 17.6607C34.926 17.955 34.7919 18.3018 34.7024 18.5751C34.571 19.077 34.3917 19.5721 34.1658 20.057C34.062 20.2533 33.9725 20.4533 33.8975 20.6561C33.7186 21.0134 33.495 21.1395 33.2267 21.0292C33.1372 21.0292 33.0925 20.9451 33.0925 20.8295C33.0982 20.6856 33.1282 20.5427 33.182 20.4038C33.2255 20.2123 33.2853 20.0228 33.3608 19.8363C33.4205 19.6471 33.495 19.4264 33.5844 19.1741C33.6739 18.9219 33.7633 18.6276 33.8528 18.2913L34.1211 17.1562C34.1807 16.8409 34.2478 16.4906 34.3223 16.1052C34.3765 15.7738 34.3989 15.4402 34.3894 15.1067C34.3585 14.9311 34.3737 14.753 34.4341 14.5812C34.4908 14.4556 34.5907 14.3419 34.7248 14.2502C34.8223 14.1979 34.9365 14.1633 35.0574 14.1496C35.1783 14.1358 35.3021 14.1433 35.4179 14.1713C35.8592 14.2383 36.2821 14.3555 36.6701 14.5182C37.049 14.6955 37.4012 14.8998 37.721 15.1277C38.1239 15.431 38.4357 15.7885 38.6378 16.1788L38.8166 16.7043C38.9106 16.9668 38.9483 17.2378 38.9284 17.5083C38.8984 17.8541 38.7691 18.192 38.5483 18.5015C38.1465 19.2071 37.8468 19.9395 37.6539 20.6876C37.4751 21.4061 37.3803 22.1337 37.3707 22.8632C37.3423 23.456 37.4174 24.049 37.5943 24.6289C37.7583 25.1123 38.0067 25.3856 38.3396 25.4487C38.6079 25.4907 38.8986 25.3331 39.2117 24.9705C39.5567 24.5717 39.8487 24.1512 40.0837 23.7145C40.4482 23.0954 40.7617 22.462 41.0228 21.8174C41.1719 21.5284 41.2986 21.2499 41.4029 20.9871C41.5073 20.7244 41.5892 20.5089 41.6489 20.3408C41.7085 20.1726 41.8128 19.9414 41.8725 19.7732C41.9187 19.6319 41.9861 19.4945 42.0737 19.3633C42.1482 19.2582 42.2451 19.2162 42.3644 19.2372Z" fill="#F2F7F5"/>
<path opacity="0.99" d="M49.0639 16.4984C49.167 16.4257 49.2819 16.364 49.4057 16.3148C49.4424 16.305 49.4819 16.3034 49.5197 16.3103C49.5575 16.3172 49.592 16.3323 49.6193 16.3538C49.6763 16.3983 49.6905 16.5095 49.662 16.6875C49.6051 17.0584 49.1707 17.3755 48.3589 17.6388C47.3559 17.9294 46.2714 18.0043 45.2187 17.8557C45.5062 18.4834 45.744 19.1243 45.9307 19.7748C46.1569 20.5458 46.229 21.3396 46.1444 22.1278C46.0744 22.7243 45.9459 23.3157 45.7598 23.8967C45.6354 24.307 45.4338 24.7007 45.1617 25.0649C45.084 25.2096 44.941 25.3269 44.7598 25.3946C44.5787 25.4623 44.372 25.4756 44.179 25.432C43.8015 25.3731 43.4489 25.2412 43.1536 25.0482C42.878 24.8779 42.6378 24.6752 42.4415 24.4474C42.2767 24.2471 42.1541 24.0273 42.0784 23.7966C42.0072 23.5741 41.9573 23.3887 41.9288 23.2403C41.9004 23.092 41.8766 22.7638 41.8576 22.2557C41.8085 21.6556 41.8085 21.0536 41.8576 20.4534C41.9208 19.7407 42.0493 19.0324 42.2422 18.3341C42.4221 17.6384 42.7546 16.9722 43.2248 16.3649C43.3449 16.3174 43.4593 16.2616 43.5666 16.198C43.8685 16.0732 44.2084 16.0155 44.5493 16.0311C44.6929 16.029 44.8334 16.0638 44.9491 16.1301C45.0649 16.1965 45.1496 16.2907 45.1902 16.3983C45.2271 16.5202 45.2186 16.6479 45.1656 16.7662C45.1126 16.8845 45.0173 16.9884 44.8911 17.0658L45.7883 17.1492C46.1435 17.1773 46.5013 17.1773 46.8564 17.1492C47.2421 17.1245 47.6223 17.0629 47.9887 16.9657C48.3809 16.863 48.7454 16.7046 49.0639 16.4984ZM44.9623 22.1723C44.9849 21.8555 44.9849 21.5379 44.9623 21.2211C44.947 20.8486 44.9042 20.4772 44.8341 20.1086C44.7629 19.7377 44.6846 19.3928 44.5992 19.0739C44.5464 18.8445 44.4604 18.6206 44.3428 18.4064C44.2431 18.8662 44.1268 19.3428 43.9939 19.836C43.9084 20.2588 43.8159 20.7093 43.7162 21.1822C43.6229 21.6206 43.5587 22.0625 43.5239 22.5061C43.4282 23.0666 43.4939 23.6367 43.7162 24.1749C43.9013 24.4641 44.0793 24.5865 44.2502 24.542C44.3926 24.4975 44.5279 24.2194 44.6561 23.7243C44.796 23.2119 44.8983 22.6938 44.9623 22.1723Z" fill="#F2F7F5"/>
<path opacity="0.99" d="M56.2194 17.6587C56.3798 17.7324 56.5573 17.7841 56.7432 17.8114C56.9948 17.8662 57.2557 17.8953 57.5183 17.8979C57.9866 17.9024 58.4544 17.8734 58.9149 17.8114C59.4724 17.7007 59.9835 17.4909 60.4023 17.2008C60.519 17.1305 60.6454 17.0691 60.7794 17.0177C61.0029 16.9362 61.0727 17.0482 60.9889 17.3535C60.8906 17.5878 60.7181 17.802 60.4852 17.9788C60.2522 18.1556 59.9655 18.29 59.6481 18.3711C58.7208 18.6557 57.6922 18.7146 56.7152 18.539C56.7773 18.7297 56.8193 18.9236 56.8409 19.119C56.8689 19.3429 56.9108 19.6074 56.9666 19.9127C56.9946 20.3197 57.0155 20.8184 57.0295 21.4086C57.0434 21.9988 57.0434 22.6246 57.0295 23.286C56.9643 23.9441 56.8898 24.6123 56.806 25.2907C56.7329 25.9055 56.614 26.5169 56.4499 27.1224C56.3278 27.5979 56.1334 28.0621 55.8703 28.5063C55.7269 28.8023 55.435 29.0477 55.0533 29.1932C54.8297 29.2389 54.5934 29.2404 54.3688 29.1975C54.1442 29.1546 53.9393 29.0688 53.7754 28.9489C53.2894 28.5839 52.9178 28.1465 52.686 27.6668C52.2288 26.7214 51.947 25.7358 51.848 24.7361C51.6246 25.3874 51.3918 25.9776 51.1497 26.5067C50.9452 26.9193 50.7002 27.3206 50.4165 27.7075C50.1511 28.0687 49.8788 28.2163 49.5995 28.1858C49.2688 28.1382 48.9543 28.0437 48.6739 27.9075C48.3936 27.7713 48.1528 27.5961 47.9654 27.392C47.4437 26.7797 47.1545 26.0773 47.1274 25.3568C47.0667 24.7881 47.0457 24.2175 47.0646 23.6473C47.0646 22.9689 47.1065 22.2159 47.1903 21.3882C47.2741 20.5606 47.3742 19.738 47.4906 18.9206C47.6344 18.1144 47.8372 17.3145 48.0981 16.5241C48.1192 16.414 48.1767 16.3092 48.2657 16.2188C48.4053 16.0357 48.5869 15.9848 48.8104 16.0662C48.9395 16.1157 49.0592 16.1773 49.1665 16.2494C49.3064 16.3448 49.4201 16.4588 49.5017 16.5852C49.6065 16.746 49.6772 16.9176 49.7112 17.094C49.7593 17.3506 49.7593 17.6107 49.7112 17.8673C49.6553 18.0759 49.5995 18.427 49.5436 18.9256L49.355 20.6199C49.2852 21.2508 49.2294 21.9123 49.1875 22.6042C49.1456 23.2962 49.1246 23.9373 49.1246 24.5275C49.1246 25.1177 49.1525 25.6163 49.2084 26.0234C49.2643 26.4304 49.376 26.6695 49.5436 26.756C49.6553 26.7306 49.8089 26.4915 50.0045 26.0234C50.1721 25.6367 50.3885 25.0058 50.6539 24.1306C50.9193 23.2555 51.2614 22.0022 51.6804 20.3706C51.7062 20.2159 51.7482 20.0628 51.8061 19.9127L51.9737 19.5464C52.0133 19.437 52.1017 19.3403 52.2251 19.2716C52.3436 19.2075 52.4698 19.1513 52.6022 19.1037C52.7264 19.0563 52.8612 19.0253 53.0002 19.0121C53.1091 18.9995 53.2206 19.0158 53.3145 19.0579C53.3983 19.0986 53.4262 19.1902 53.3983 19.3327C53.3488 19.5907 53.3208 19.8507 53.3145 20.1111C53.2865 20.5487 53.2586 21.0779 53.2307 21.6986C53.2027 22.3193 53.2027 22.9858 53.2307 23.6982C53.2586 24.4105 53.3214 25.0889 53.4192 25.7333C53.4974 26.2926 53.6518 26.8449 53.8801 27.3819C53.9986 27.7548 54.3052 28.0817 54.739 28.2977C55.0596 27.806 55.2717 27.2806 55.3675 26.7408C55.5348 25.8978 55.6327 25.0483 55.6608 24.1968C55.7167 23.0978 55.6748 21.6426 55.5351 19.8313C55.4904 19.381 55.3685 18.9366 55.172 18.5084C55.0104 18.2291 54.9456 17.925 54.9834 17.6231C54.9869 17.5825 55.0066 17.5435 55.0401 17.511C55.0736 17.4785 55.1195 17.4538 55.172 17.44C55.2749 17.4196 55.3833 17.4196 55.4862 17.44C55.6314 17.455 55.7726 17.4859 55.9052 17.5315C55.9425 17.5565 55.9849 17.5771 56.0309 17.5926C56.0891 17.6211 56.1526 17.6434 56.2194 17.6587V17.6587Z" fill="#F2F7F5"/>
<path opacity="0.99" d="M76.7433 18.2246C76.9146 18.2983 77.1042 18.35 77.3028 18.3772C77.5714 18.4335 77.85 18.4643 78.1309 18.4688C78.619 18.47 79.1062 18.4393 79.5857 18.3772C80.1814 18.2666 80.7274 18.0568 81.1748 17.7668C81.2995 17.6965 81.4345 17.6351 81.5777 17.5837C81.8165 17.5023 81.8911 17.6142 81.8015 17.9194C81.6965 18.1537 81.5122 18.3679 81.2633 18.5446C81.0145 18.7214 80.7082 18.8557 80.3691 18.9368C79.3784 19.2213 78.2794 19.2802 77.2356 19.1046C77.3019 19.2953 77.3468 19.4892 77.3699 19.6845C77.3998 19.9083 77.4445 20.1728 77.5042 20.478C77.5341 20.885 77.5565 21.3834 77.5714 21.9735C77.5863 22.5636 77.5863 23.1892 77.5714 23.8505C77.5415 24.5117 77.4819 25.1781 77.3923 25.8495C77.3147 26.4642 77.1877 27.0755 77.0118 27.6807C76.8806 28.1583 76.6704 28.6241 76.3851 29.0694C76.2419 29.3673 75.9342 29.6154 75.5272 29.7612C75.2851 29.8099 75.0282 29.8129 74.7839 29.7699C74.5395 29.7269 74.3168 29.6395 74.1395 29.517C73.6186 29.153 73.2213 28.7154 72.9757 28.2352C72.4862 27.2903 72.1851 26.3048 72.0804 25.3053C71.8416 25.9564 71.593 26.5464 71.3343 27.0754C71.1293 27.4892 70.8799 27.8921 70.5883 28.281C70.3048 28.6201 70.0138 28.7777 69.7154 28.754C69.3616 28.7076 69.025 28.6135 68.7252 28.4772C68.4254 28.3409 68.1686 28.1653 67.9696 27.9605C67.4122 27.3483 67.1033 26.6461 67.0743 25.9258C67.0094 25.3573 66.987 24.7868 67.0072 24.2167C67.0072 23.5385 67.052 22.7857 67.1415 21.9582C67.231 21.1308 67.3504 20.3017 67.4996 19.4709C67.6272 18.6728 67.8165 17.8799 68.0666 17.0954C68.0892 16.9853 68.1506 16.8805 68.2456 16.7902C68.3949 16.6071 68.5888 16.5562 68.8276 16.6376C68.9655 16.6871 69.0934 16.7487 69.2081 16.8207C69.3575 16.9162 69.479 17.0301 69.5662 17.1564C69.6782 17.3173 69.7537 17.4888 69.79 17.6651C69.8413 17.9233 69.8413 18.1851 69.79 18.4434C69.7045 18.7921 69.6447 19.1435 69.6109 19.4963L69.4095 21.1902C69.3349 21.8209 69.2752 22.4822 69.2304 23.174C69.1857 23.8657 69.1633 24.5067 69.1633 25.0967C69.1633 25.6868 69.1931 26.1853 69.2528 26.5922C69.3125 26.9991 69.4319 27.2433 69.6109 27.3247C69.7303 27.3043 69.8944 27.0602 70.1033 26.5922C70.2824 26.2056 70.5137 25.5749 70.7972 24.6999C71.0807 23.825 71.4363 22.5788 71.864 20.9613C71.8916 20.8065 71.9365 20.6535 71.9983 20.5035L72.1774 20.1372C72.2235 20.0291 72.3172 19.9332 72.446 19.8625C72.5726 19.7985 72.7074 19.7423 72.8488 19.6947C72.9815 19.6473 73.1255 19.6163 73.2741 19.6031C73.3904 19.5905 73.5095 19.6067 73.6098 19.6489C73.6993 19.6896 73.7292 19.7812 73.6993 19.9236C73.6465 20.1815 73.6166 20.4414 73.6098 20.7018C73.58 21.1393 73.5501 21.6683 73.5203 22.2889C73.4904 22.9094 73.4904 23.5758 73.5203 24.2879C73.5501 25.0001 73.6173 25.6783 73.7217 26.3226C73.8044 26.8818 73.9694 27.4339 74.2141 27.9707C74.3408 28.3435 74.6683 28.6703 75.1318 28.8863C75.4753 28.395 75.702 27.8696 75.8032 27.3297C75.9819 26.487 76.0865 25.6377 76.1166 24.7864C76.1762 23.6877 76.1315 22.2329 75.9823 20.4221C75.9321 19.9859 75.8044 19.5554 75.6018 19.1402C75.4291 18.8609 75.3599 18.557 75.4003 18.2552C75.4041 18.2146 75.4251 18.1756 75.4609 18.1431C75.4967 18.1105 75.5457 18.0858 75.6018 18.072C75.7117 18.0517 75.8276 18.0517 75.9375 18.072C76.0926 18.0871 76.2435 18.118 76.3851 18.1636C76.425 18.1886 76.4703 18.2092 76.5194 18.2246C76.5937 18.2319 76.669 18.2319 76.7433 18.2246V18.2246Z" fill="#F2F7F5"/>
<path opacity="0.99" d="M85.8568 20.424C86.1384 20.424 86.2479 20.6062 86.1853 20.9705C86.154 21.1673 86.1071 21.3859 86.0445 21.6264C85.9819 21.8669 85.9037 22.0964 85.8099 22.315C85.716 22.5774 85.6065 22.8616 85.4813 23.1676C85.3562 23.4737 85.2154 23.8016 85.0589 24.1514C84.9025 24.4356 84.746 24.7635 84.5896 25.1352C84.426 25.5098 84.222 25.8752 83.9795 26.2283C83.7908 26.5401 83.5548 26.837 83.2755 27.1136C83.0301 27.3288 82.755 27.5265 82.4542 27.7039C82.3183 27.788 82.1569 27.8494 81.9821 27.8835C81.8073 27.9176 81.6236 27.9235 81.4451 27.9007C80.8193 27.8132 80.2979 27.4088 79.8807 26.6873C79.4103 25.8414 79.1869 24.9383 79.2236 24.0312C79.2236 23.6668 79.2393 23.246 79.2706 22.7687C79.3018 22.2913 79.3488 21.7721 79.4113 21.211C79.4739 20.6645 79.56 20.1289 79.6695 19.6042C79.779 19.0795 79.9041 18.604 80.0449 18.1777C80.1488 17.826 80.3143 17.4846 80.5377 17.1611C80.7255 16.9097 80.9445 16.784 81.1948 16.784C81.2635 16.7961 81.3276 16.8184 81.3825 16.8496C81.592 16.9542 81.7679 17.0882 81.8988 17.2431C82.1279 17.533 82.2261 17.8645 82.1804 18.1941C82.1292 18.6678 82.0352 19.1388 81.8988 19.6042C81.7423 20.2163 81.6094 20.9268 81.4999 21.7357C81.3903 22.5446 81.3199 23.3207 81.2887 24.064C81.2545 24.7035 81.2702 25.3439 81.3356 25.9823C81.3982 26.5179 81.5077 26.8185 81.6641 26.8841C81.9144 26.9934 82.2039 26.8568 82.5324 26.4742C82.8897 26.05 83.1958 25.6058 83.4476 25.1461C83.8411 24.4811 84.1857 23.8025 84.4801 23.113C84.6365 22.8069 84.7695 22.5172 84.879 22.244C84.9885 21.9707 85.0746 21.7466 85.1372 21.5717C85.231 21.3531 85.3092 21.1564 85.3718 20.9815C85.4203 20.8345 85.4911 20.6916 85.583 20.5552C85.6404 20.4459 85.7316 20.4021 85.8568 20.424ZM81.6798 16.2594C81.1583 16.2156 80.8975 16.0954 80.8975 15.8986C80.8975 15.7019 81.1948 15.6254 81.7893 15.6691C82.3107 15.7565 82.5715 15.8877 82.5715 16.0626C82.5715 16.2375 82.2742 16.3031 81.6798 16.2594Z" fill="#F2F7F5"/>
<path opacity="0.99" d="M99.2948 12.7206C99.2948 12.7625 99.2382 12.794 99.1248 12.815C98.9488 12.8666 98.7614 12.8932 98.5721 12.8936L97.3392 12.9408H95.9575C95.3481 12.9408 94.6395 12.9408 93.8317 12.9408H88.6025C88.4608 13.4859 88.3191 14.1359 88.1773 14.8908C88.0356 15.6456 87.8939 16.4634 87.7522 17.344C87.6105 18.015 87.4971 18.7017 87.4121 19.4041C87.3271 20.1066 87.2562 20.7933 87.1995 21.4643C87.1682 21.6994 87.154 21.9356 87.157 22.1719V22.8796C87.1287 23.4038 87.1287 23.8861 87.157 24.3264C87.1849 24.7007 87.2416 25.0734 87.327 25.4429C87.354 25.7236 87.5206 25.9869 87.7947 26.1821C88.0973 25.9562 88.3379 25.6892 88.5033 25.3958C88.7442 25.0183 88.9804 24.6199 89.2119 24.2006C89.4669 23.7183 89.7031 23.2046 89.9204 22.6594C90.0621 22.3659 90.1897 22.088 90.3031 21.8259C90.4164 21.5638 90.5015 21.3489 90.5581 21.1812C90.6432 20.9715 90.714 20.7828 90.7707 20.615C90.8146 20.4741 90.8788 20.337 90.962 20.2062C91.0329 20.1013 91.1108 20.0594 91.1959 20.0804C91.4793 20.0804 91.5785 20.2551 91.4935 20.6046C91.4651 20.7933 91.4226 21.003 91.3659 21.2336C91.3092 21.4643 91.2384 21.6844 91.1533 21.8941C91.0683 22.1457 90.9691 22.4183 90.8557 22.7118C90.7424 23.0054 90.6219 23.3304 90.4944 23.6869C90.3526 23.9594 90.2109 24.274 90.0692 24.6304C89.921 24.9897 89.7363 25.3402 89.5165 25.6788C89.3897 25.9096 89.2331 26.1308 89.0489 26.3393C88.9069 26.5074 88.7353 26.6607 88.5387 26.7954C88.4573 26.8582 88.3575 26.9065 88.2469 26.9365C88.1364 26.9665 88.0181 26.9774 87.901 26.9684C87.6812 26.9737 87.4622 26.9457 87.2575 26.8862C87.0529 26.8267 86.8667 26.7369 86.7106 26.6224C86.4087 26.3961 86.1682 26.1292 86.002 25.8361C85.7918 25.4721 85.635 25.0925 85.5344 24.7038C85.4153 24.3162 85.3441 23.9215 85.3218 23.5244C85.2934 23.0945 85.2793 22.7014 85.2793 22.3449V21.0659C85.4493 19.2626 85.6619 17.6795 85.917 16.3166C86.1721 14.9537 86.4083 13.8319 86.6256 12.9512L84.1385 12.9041C83.3874 12.9041 82.7568 12.8883 82.2466 12.8569C81.8214 12.8569 81.453 12.8464 81.1412 12.8254L80.4114 12.7835C80.1988 12.7625 80.0925 12.7311 80.0925 12.6891C80.0925 12.5843 80.383 12.5057 80.9641 12.4533C81.9062 12.3893 82.8524 12.3631 83.7984 12.3746C84.1101 12.3956 84.5211 12.4061 85.0313 12.4061H86.7885C86.8452 12.1545 86.9019 11.9291 86.9586 11.7299C87.0031 11.5652 87.0599 11.4024 87.1286 11.2424C87.1815 11.1079 87.2241 10.9714 87.2562 10.8335C87.3629 10.6118 87.5056 10.4006 87.6813 10.2044C87.7397 10.1475 87.8132 10.1 87.8972 10.0649C87.9813 10.0297 88.0742 10.0076 88.1702 10C88.3545 10 88.56 10.131 88.7867 10.3931C88.8434 10.498 88.9001 10.6133 88.9568 10.7391C89.071 11.0253 89.0856 11.3283 88.9993 11.6198C88.9607 11.7176 88.9322 11.8175 88.9143 11.9186C88.8859 12.0549 88.8434 12.2174 88.7867 12.4061H92.3296C93.5767 12.4061 94.7104 12.4218 95.7307 12.4533C96.7511 12.4847 97.5943 12.5162 98.2603 12.5476C98.9217 12.6 99.2665 12.6577 99.2948 12.7206Z" fill="#F2F7F5"/>
<path opacity="0.99" d="M92.4788 23.4378C92.5947 22.7862 92.7468 22.0804 92.9351 21.3203C93.1184 20.604 93.3603 19.8968 93.6595 19.2028C93.8817 18.6309 94.2032 18.0833 94.6156 17.574C94.7306 17.3966 94.9053 17.2446 95.1225 17.1332C95.3397 17.0218 95.5919 16.9548 95.8542 16.9388C95.9429 16.939 96.031 16.95 96.115 16.9713L96.3323 17.0365C96.4421 17.0678 96.5448 17.1118 96.6365 17.1668C97.0552 17.4972 97.3414 17.9093 97.4623 18.3558C97.7125 19.3059 97.7419 20.2813 97.5492 21.2389C97.5202 21.5212 97.4912 21.7818 97.4623 22.0207C97.4333 22.2596 97.4067 22.4713 97.3826 22.6559C97.3536 22.8514 97.3391 22.9926 97.3391 23.0794C97.2812 24.035 97.2812 24.882 97.3391 25.6204C97.3971 26.3588 97.5057 26.7823 97.6651 26.8909C97.8969 26.9995 98.1649 26.8637 98.4691 26.4837C98.8 26.0623 99.0835 25.621 99.3166 25.1643C99.681 24.5037 100 23.8296 100.273 23.1446C100.418 22.8405 100.548 22.5528 100.664 22.2813C100.78 22.0098 100.867 21.7872 100.925 21.6135C101.012 21.3963 101.084 21.2009 101.142 21.0271C101.187 20.8811 101.252 20.7392 101.337 20.6036C101.41 20.495 101.504 20.4516 101.62 20.4733C101.881 20.4733 101.968 20.6543 101.881 21.0163C101.852 21.2117 101.808 21.4289 101.75 21.6678C101.692 21.9067 101.62 22.1347 101.533 22.3519C101.446 22.6125 101.345 22.8948 101.229 23.1989C101.113 23.5029 100.963 23.8287 100.78 24.1762C100.635 24.4585 100.49 24.7843 100.345 25.1535C100.194 25.5256 100.005 25.8886 99.7802 26.2393C99.6054 26.5492 99.3869 26.844 99.1282 27.1189C98.9124 27.3313 98.6699 27.5277 98.4039 27.7053C98.2781 27.7888 98.1286 27.8498 97.9668 27.8837C97.8049 27.9176 97.6348 27.9234 97.4695 27.9007C96.89 27.8139 96.4071 27.4121 96.0208 26.6954C95.5853 25.8551 95.3784 24.9579 95.4124 24.0567C95.4124 23.6658 95.4341 23.188 95.4776 22.6234C95.521 22.0587 95.5717 21.4615 95.6297 20.8317C95.6338 20.7386 95.6484 20.646 95.6731 20.5548C95.7021 20.4353 95.7311 20.3104 95.7601 20.1801C95.789 20.0498 95.818 19.8869 95.847 19.6915C95.847 19.6046 95.847 19.496 95.847 19.3657C95.8615 19.2356 95.8615 19.1049 95.847 18.9748C95.8366 18.857 95.7999 18.7414 95.7383 18.6327C95.7204 18.5911 95.6857 18.5547 95.639 18.5284C95.5923 18.5022 95.5359 18.4874 95.4776 18.4862C95.2458 18.4644 94.9923 18.7305 94.717 19.2843C94.3919 19.9703 94.1305 20.6724 93.9347 21.3855C93.6884 22.2324 93.4856 23.15 93.3263 24.1382C93.1723 25.051 93.1069 25.971 93.1307 26.8909C93.2466 27.1732 93.2031 27.3687 93.0003 27.4772C92.9438 27.5185 92.8715 27.5453 92.7935 27.5541C92.7155 27.5629 92.6359 27.5531 92.5657 27.5261C92.4043 27.4626 92.2576 27.3801 92.1311 27.2818C91.9589 27.1491 91.7991 27.0076 91.653 26.8583C91.2822 26.3877 91.0362 25.8678 90.9287 25.3272C90.7838 24.7191 90.6824 24.1327 90.6245 23.5681C90.5665 22.8948 90.552 22.1999 90.581 21.4832C90.7259 19.8326 90.9142 18.3504 91.146 17.0365C91.3778 15.7226 91.6192 14.6096 91.8703 13.6974C92.1311 12.6333 92.3919 11.6885 92.6526 10.8633C92.7371 10.6322 92.8691 10.4124 93.0438 10.2117C93.1034 10.1528 93.1785 10.1036 93.2645 10.0672C93.3504 10.0308 93.4454 10.0079 93.5436 10C93.7319 10 93.942 10.1357 94.1738 10.4072C94.2584 10.5335 94.331 10.6641 94.391 10.7981C94.4528 10.9231 94.4823 11.0558 94.478 11.189C94.4757 11.354 94.4465 11.5181 94.391 11.6777C94.3331 11.8514 94.2245 12.2695 94.0651 12.9319C93.9057 13.5943 93.7391 14.3978 93.5653 15.3425C93.3915 16.2872 93.2176 17.3025 93.0438 18.3884C92.8699 19.4743 92.7396 20.5276 92.6526 21.5483C92.6526 21.7872 92.6381 22.0261 92.6092 22.265C92.5802 22.5039 92.5585 22.7102 92.544 22.884C92.4991 23.0666 92.4772 23.252 92.4788 23.4378V23.4378Z" fill="#F2F7F5"/>
<path opacity="0.99" d="M117.053 21.0974C116.803 21.6696 116.549 22.2101 116.289 22.7187C116.074 23.1426 115.837 23.5665 115.593 23.9904C115.396 24.3391 115.139 24.67 114.828 24.976C114.728 25.1031 114.605 25.2207 114.461 25.3257C114.337 25.4113 114.198 25.486 114.048 25.5482C113.981 25.5792 113.904 25.5983 113.824 25.6039C113.744 25.6094 113.664 25.6012 113.589 25.58C113.345 25.58 113.146 25.4634 112.993 25.2303C112.827 24.9728 112.689 24.7071 112.58 24.4355C112.458 24.0823 112.351 23.7113 112.259 23.3228C112.167 22.9413 112.083 22.4962 111.991 21.9875C111.899 21.3093 111.831 20.6152 111.777 19.9052C111.724 19.1952 111.678 18.5328 111.617 17.9182C111.555 17.2188 111.509 16.53 111.487 15.8517C111.4 16.4664 111.331 17.1181 111.28 17.8069C111.227 18.4958 111.173 19.2005 111.112 19.9264C111.051 20.5622 111.005 21.2298 110.974 21.9293C110.974 22.6287 110.974 23.3069 110.974 23.9639C110.974 24.6209 110.974 25.2356 110.974 25.8078C110.98 26.2858 111.021 26.7633 111.097 27.2385C111.085 27.3283 111.085 27.4188 111.097 27.5087C111.125 27.6236 111.174 27.7357 111.242 27.8425C111.295 27.9697 111.357 28.118 111.418 28.2876C111.479 28.4571 111.471 28.5631 111.372 28.6055C111.272 28.6479 110.974 28.6479 110.73 28.4783C110.601 28.394 110.491 28.2977 110.401 28.1922C110.264 28.0342 110.144 27.8695 110.041 27.6994C109.813 27.2987 109.641 26.8834 109.529 26.4596C109.322 25.73 109.181 24.992 109.108 24.25C108.992 23.1286 108.969 22.0034 109.04 20.8801C109.154 18.8879 109.361 17.0386 109.628 15.3325C109.862 13.793 110.263 12.2679 110.829 10.7704C110.874 10.6353 110.952 10.5064 111.058 10.3889C111.201 10.1557 111.4 10.0816 111.655 10.1663C111.741 10.1974 111.816 10.2426 111.872 10.298C111.928 10.3533 111.963 10.4172 111.976 10.4843C112.274 10.7174 112.427 11.6711 112.427 13.3455C112.427 13.5998 112.427 13.976 112.481 14.4741C112.534 14.9722 112.534 15.5338 112.565 16.1432C112.595 16.7525 112.641 17.4254 112.679 18.146C112.718 18.8667 112.779 19.5767 112.84 20.2655C112.901 20.9543 112.962 21.5054 113.031 22.0776C113.082 22.5651 113.143 23.0579 113.215 23.5559C113.268 24.054 113.329 24.4408 113.391 24.7163C113.452 24.7799 113.559 24.6033 113.712 24.1865C113.865 23.7696 114.033 23.2822 114.216 22.724C114.43 22.0882 114.66 21.357 114.912 20.5304C115.004 20.2761 115.103 20.0006 115.233 19.6244C115.344 19.2854 115.481 18.9511 115.646 18.6229C115.768 18.2363 115.919 17.8543 116.097 17.4784C116.441 16.7578 116.763 16.0478 117.084 15.359C117.405 14.6702 117.734 13.9919 118.07 13.3561C118.407 12.7203 118.735 12.1374 119.057 11.6076C119.378 11.0777 119.661 10.622 119.913 10.2405C120.097 9.98619 120.272 9.75305 120.456 9.54111C120.601 9.37972 120.782 9.23494 120.991 9.11192C121.07 9.05746 121.17 9.02072 121.279 9.00653C121.388 8.99235 121.501 9.00138 121.603 9.03244C121.774 9.12547 121.909 9.24733 121.993 9.38644C122.077 9.52555 122.109 9.67728 122.085 9.82723C122.097 10.3046 122.074 10.7821 122.016 11.2579C122.016 11.5334 121.924 11.9626 121.817 12.5454C121.71 13.1283 121.603 13.8065 121.488 14.5801C121.373 15.3537 121.266 16.2015 121.152 17.1234C121.037 18.0454 120.915 18.9938 120.831 19.9688C120.762 20.6894 120.716 21.4418 120.685 22.226C120.655 23.0102 120.685 23.7679 120.685 24.4991C120.685 25.2303 120.685 25.9138 120.685 26.5496C120.685 27.1855 120.731 27.7153 120.792 28.1392C120.833 28.2329 120.864 28.3286 120.884 28.4253C120.916 28.5548 120.962 28.6824 121.022 28.8068C121.083 28.9552 121.152 29.1248 121.236 29.3367C121.32 29.5487 121.282 29.644 121.167 29.6864C121.116 29.7164 121.053 29.7354 120.987 29.7411C120.92 29.7467 120.852 29.7388 120.792 29.7182C120.665 29.6741 120.544 29.6208 120.433 29.5592C120.291 29.4634 120.165 29.3568 120.058 29.2413C119.89 29.0592 119.745 28.8678 119.622 28.6691C119.357 28.2236 119.16 27.7601 119.034 27.2861C118.789 26.4738 118.629 25.6504 118.552 24.8223C118.419 23.5633 118.401 22.2997 118.498 21.0391C118.59 19.5131 118.728 18.0719 118.911 16.7154L118.147 18.5275C117.933 19.015 117.711 19.5025 117.497 19.99C117.283 20.4774 117.168 20.8324 117.053 21.0974Z" fill="#F2F7F5"/>
<path opacity="0.99" d="M130.804 19.5907C130.658 20.3026 130.433 21.0052 130.131 21.6918C129.866 22.3078 129.535 22.9084 129.14 23.4882C128.753 24.0767 128.219 24.6106 127.565 25.064C127.16 25.3493 126.696 25.5884 126.189 25.7731C125.693 25.9502 125.132 26.0109 124.584 25.9464C124.255 25.9096 123.94 25.8237 123.66 25.6943C123.411 25.5805 123.199 25.43 123.039 25.2531C122.859 25.0661 122.71 24.8652 122.595 24.6543C122.4 24.334 122.281 23.9934 122.24 23.6458C122.205 23.2326 122.161 22.8334 122.107 22.4482C122.078 21.9857 122.093 21.5225 122.151 21.0615C122.235 20.2048 122.391 19.3523 122.617 18.5087C122.774 17.856 123.004 17.2131 123.305 16.5862C123.475 16.2246 123.725 15.8842 124.044 15.5777C124.279 15.3244 124.571 15.1007 124.91 14.9159C125.271 14.7211 125.723 14.631 126.174 14.6638C126.476 14.6874 126.766 14.7631 127.017 14.8844C127.284 15.015 127.492 15.1973 127.616 15.4097C127.798 15.7251 127.896 16.0617 127.905 16.4024C127.923 16.5781 127.908 16.7548 127.86 16.9277C127.794 17.0957 127.727 17.2953 127.639 17.5265C127.55 17.7576 127.424 18.0097 127.284 18.2828C127.132 18.556 126.922 18.811 126.662 19.0392C126.406 19.2607 126.124 19.4663 125.819 19.6538C125.455 19.8665 125.032 20.0222 124.577 20.1107C124.577 20.4889 124.496 20.8776 124.444 21.2768C124.392 21.676 124.34 22.0174 124.311 22.4272C124.281 22.8313 124.281 23.2363 124.311 23.6405C124.308 23.8315 124.337 24.022 124.399 24.2078C124.459 24.3526 124.53 24.4947 124.614 24.6333C124.652 24.6953 124.708 24.7512 124.778 24.7973C124.848 24.8433 124.931 24.8787 125.021 24.9011C125.227 24.9639 125.451 24.991 125.675 24.98C125.898 24.9691 126.115 24.9204 126.307 24.8381C126.734 24.6575 127.11 24.4225 127.417 24.1448C127.749 23.8257 128.046 23.4885 128.304 23.1363C128.658 22.6285 128.955 22.1016 129.192 21.5605C129.33 21.2663 129.455 20.9932 129.569 20.7411C129.672 20.4889 129.746 20.2788 129.813 20.1107L130.035 19.5855C130.08 19.4443 130.147 19.3069 130.234 19.1758C130.301 19.0707 130.404 19.0287 130.523 19.0497C130.769 19.0532 130.863 19.2336 130.804 19.5907ZM126.145 15.2731C125.849 15.2521 125.602 15.4517 125.405 15.8719C125.214 16.3372 125.065 16.8109 124.961 17.2901C124.838 17.8994 124.72 18.5997 124.606 19.3911C125.218 19.1454 125.718 18.781 126.049 18.3406C126.365 17.9209 126.59 17.4692 126.714 17.0012C126.823 16.6163 126.823 16.22 126.714 15.8351C126.596 15.4814 126.406 15.2941 126.145 15.2731Z" fill="#F2F7F5"/>
<path opacity="0.99" d="M134.416 25.9171C134.419 25.9809 134.398 26.0444 134.354 26.1037C134.31 26.163 134.244 26.2168 134.161 26.262C134.077 26.3071 133.977 26.3426 133.867 26.3663C133.758 26.39 133.64 26.4014 133.522 26.3999C133.411 26.4001 133.3 26.388 133.198 26.3642C133.095 26.3405 133.003 26.3057 132.926 26.2619C132.842 26.2169 132.776 26.1631 132.732 26.1038C132.688 26.0445 132.667 25.981 132.671 25.9171C132.676 25.7961 132.768 25.6808 132.926 25.5952C133.085 25.5096 133.298 25.4603 133.522 25.4573C133.64 25.4555 133.758 25.4669 133.868 25.4906C133.977 25.5143 134.077 25.5499 134.16 25.5953C134.241 25.6366 134.306 25.6865 134.35 25.7419C134.394 25.7973 134.416 25.8569 134.416 25.9171V25.9171Z" fill="#F2F7F5"/>
<path opacity="0.99" d="M135.262 30.0771C133.979 29.3263 133.317 27.9644 133.276 25.9914C133.276 25.6876 133.454 25.5305 133.817 25.5305C134.246 25.6998 134.656 25.8961 135.043 26.1171C136.173 27.1057 137.032 28.2583 137.569 29.5062C137.61 29.4276 137.651 29.3386 137.692 29.2443L138.007 28.5738C138.274 28.0355 138.503 27.4865 138.692 26.929C138.828 26.2952 138.945 25.7138 139.054 25.1795C138.478 25.0778 137.929 24.9006 137.432 24.6557C136.392 23.8778 135.625 22.9123 135.2 21.8481C135.2 21.6229 135.385 21.4867 135.741 21.4343C136.586 21.5203 137.407 21.7114 138.171 22C138.649 22.3156 139.072 22.6764 139.431 23.0738C139.513 22.55 139.575 22.1833 139.616 21.9371C139.601 21.6046 139.654 21.2723 139.773 20.9524C139.855 20.0619 139.917 19.3443 139.958 18.789C138.931 18.6564 137.942 18.3888 137.035 17.9981C135.666 16.8824 134.919 15.9867 134.83 15.3109V15.0229C134.83 14.7452 135.084 14.6038 135.59 14.6038C136.089 14.5874 136.586 14.6666 137.035 14.8343C137.948 14.8343 138.936 15.3983 139.999 16.5262V15.3424C139.992 14.4176 139.892 13.4947 139.698 12.5819C139.54 12.1209 139.403 11.7071 139.28 11.3352C138.558 11.2676 137.846 11.1501 137.151 10.9843C136.549 10.7003 135.912 10.4634 135.248 10.2771C134.084 9.64158 133.502 9.0392 133.502 8.47V7.77857C133.502 7.50095 133.708 7.36476 134.105 7.36476C134.575 7.38394 135.037 7.46179 135.474 7.59524C136.359 7.59524 137.363 8.01952 138.486 8.86809C138.192 8.06362 137.831 7.27451 137.404 6.50571C137.069 6.10238 136.775 5.74619 136.521 5.4319C136.117 5.4319 135.7 5.4319 135.275 5.38476C132.537 5.07571 131.168 4.51 131.168 3.68238V2.99095C131.168 2.76571 131.353 2.62428 131.709 2.57714C133.762 2.80238 134.762 2.99619 134.762 3.15857H134.899V1.57143C135.125 0.602379 135.515 0.115235 136.063 0.115235C136.169 0.115064 136.273 0.13678 136.364 0.178093C137.007 0.502855 137.544 1.22397 137.973 2.34143V2.73952L138.048 2.86H137.973C137.973 4.1119 137.815 4.73524 137.507 4.73524L137.589 5.02333C137.596 5.05456 137.596 5.08639 137.589 5.11762C137.708 5.25815 137.809 5.40728 137.891 5.56285L138.514 6.43762C138.965 7.41714 139.308 8.22904 139.534 8.86285C139.561 8.78952 139.588 8.75285 139.616 8.75285C139.919 8.1119 140.331 7.50429 140.841 6.94571L142.21 5.84047H142.347C142.806 5.84047 143.032 6.29095 143.032 7.18666V7.23381C142.983 7.95277 142.779 8.66064 142.429 9.32905C142.204 9.87806 141.779 10.3667 141.204 10.7381C140.96 11.0076 140.662 11.2462 140.321 11.4452C140.712 12.7393 140.92 14.0615 140.944 15.3895V16.8143C141.026 16.7252 141.122 16.6257 141.224 16.5262C141.493 15.8837 142.039 15.3298 142.772 14.9548C143.384 14.5736 144.079 14.2775 144.825 14.08C145.181 14.08 145.366 14.2319 145.366 14.5409V14.7714C145.23 15.4198 144.972 16.0496 144.6 16.6414C143.449 17.9614 142.231 18.679 140.93 18.789C140.93 19.4543 140.875 19.9886 140.848 20.3605C140.821 20.7324 140.766 21.0048 140.711 21.0048C140.656 21.7959 140.549 22.5844 140.389 23.3671C140.599 23.1643 140.848 22.9876 141.129 22.8433C142.575 21.869 143.801 21.3819 144.805 21.3819C145.072 21.3819 145.27 21.5181 145.407 21.7852C145.214 22.4455 144.881 23.0772 144.422 23.6552C143.785 24.2076 142.978 24.629 142.073 24.8809C141.576 25.1045 141.024 25.2455 140.451 25.2948H140.047C139.923 26.0609 139.736 26.8202 139.486 27.5681C139.229 28.262 138.92 28.9441 138.561 29.6109H138.623C139.109 29.2286 140.348 28.9195 142.354 28.6733C143.477 28.7048 144.038 28.8409 144.038 29.0871L143.963 29.4381C143.414 29.8185 142.904 30.23 142.436 30.669C141.359 31.1353 140.159 31.4126 138.924 31.4809H137.925C137.749 31.4837 137.574 31.4678 137.404 31.4338C136.624 32.3033 136.022 32.7381 135.597 32.7381C135.275 32.7381 135.118 32.6386 135.118 32.4343L135.193 32.1252C135.639 31.8925 136.03 31.6038 136.35 31.2714L136.672 30.8733C136.18 30.631 135.709 30.3651 135.262 30.0771ZM135.844 4.49428C134.818 3.78111 133.497 3.36749 132.113 3.32619V3.50952C132.133 3.68684 132.241 3.85161 132.414 3.97047C133.525 4.46065 134.781 4.72569 136.063 4.74047L136.001 4.6619L135.844 4.49428ZM134.201 26.5781C134.207 27.0975 134.335 27.6119 134.577 28.0971C134.618 28.4463 135.314 29.0697 136.665 29.9671C136.284 28.6804 135.429 27.5042 134.201 26.5781V26.5781ZM136.939 8.76857C136.204 8.40827 135.365 8.19236 134.495 8.14H134.413V8.53809C134.641 8.91009 134.987 9.23246 135.419 9.47571C137.149 10.2125 138.29 10.5809 138.842 10.5809H139C138.474 9.87832 137.777 9.25949 136.946 8.75809L136.939 8.76857ZM138.404 16.1857C137.673 15.6961 136.762 15.3906 135.796 15.3109H135.714C136.033 15.9062 136.479 16.4567 137.035 16.94C137.759 17.5064 138.685 17.8963 139.698 18.0609H139.773C139.531 17.3575 139.06 16.7124 138.404 16.1857V16.1857ZM136.823 4.26381C136.966 4.26381 137.042 3.83952 137.042 2.99095C137.047 2.92613 137.073 2.86328 137.117 2.80762C137.069 2.80762 137.042 2.80762 137.042 2.74476V2.34666C136.882 1.84534 136.565 1.38142 136.117 0.995235C135.981 0.995235 135.885 1.18905 135.816 1.57666V3.03809C135.836 3.269 135.951 3.48915 136.145 3.66666L136.364 3.80285C136.453 3.83781 136.529 3.89022 136.583 3.95476C136.761 4.10666 136.85 4.19047 136.85 4.26381H136.823ZM138.746 23.6448C137.959 22.7543 137.192 22.309 136.46 22.309H136.378C136.509 22.5477 136.662 22.7787 136.836 23.0005C137.815 23.9748 138.575 24.4567 139.123 24.4567L138.746 23.6448ZM140.348 29.7209C139.578 29.8703 138.903 30.2251 138.445 30.7214V30.7633H138.603C138.897 30.7633 139.047 30.7633 139.047 30.7214C139.727 30.7339 140.401 30.6232 141.013 30.3984C141.626 30.1735 142.161 29.8408 142.573 29.4276V29.3857C141.824 29.4281 141.085 29.5461 140.376 29.7367L140.348 29.7209ZM141.957 7.05571C140.866 8.05444 140.284 8.92746 140.211 9.67476V10.4762C140.833 10.1156 141.308 9.62681 141.58 9.06714C141.912 8.49551 142.096 7.87998 142.121 7.25476V7.02428L141.957 7.05571ZM143.018 22.6024C141.984 23.2571 141.382 23.6238 141.19 23.7076C141.021 24.005 140.79 24.2792 140.506 24.5195V24.619C140.729 24.5771 140.958 24.5405 141.19 24.509C141.539 24.4028 141.875 24.2749 142.197 24.1267C143.158 23.7392 143.879 23.0762 144.202 22.2829V22.2252C143.801 22.3266 143.413 22.4582 143.046 22.6181L143.018 22.6024ZM142.375 16.3167C141.957 16.8163 141.595 17.342 141.293 17.8881V17.9509H141.45C142.135 17.6506 142.491 17.4359 142.518 17.3067C143.452 16.751 144.103 15.9638 144.36 15.0805V15.0176C143.524 15.2755 142.832 15.7477 142.402 16.3533L142.375 16.3167Z" fill="#F2F7F5"/>
</g>
</svg>
