<svg width="159" height="35" viewBox="0 0 159 35" fill="none" xmlns="http://www.w3.org/2000/svg">
<g opacity="0.99">
<path opacity="0.99" d="M9.70357 32.7436L10.0424 33.1658C10.381 33.5208 10.7953 33.8289 11.2678 34.0769L11.3544 34.4047C11.3544 34.6214 11.1813 34.7325 10.8425 34.7325C10.3956 34.7325 9.76124 34.2714 8.94667 33.3492C8.76441 33.38 8.57821 33.3949 8.3916 33.3936H7.33914C6.03915 33.3203 4.77631 33.0262 3.64111 32.5325C3.16438 32.0685 2.64137 31.6338 2.07684 31.2325L1.99034 30.8547C1.99034 30.5936 2.58144 30.4492 3.76366 30.4158C5.87819 30.6751 7.18776 31.0066 7.69237 31.4103H7.75724C7.3792 30.703 7.05427 29.9796 6.78408 29.2436C6.5204 28.4523 6.32295 27.6488 6.19297 26.8381H5.76766C5.16522 26.7834 4.58374 26.634 4.05921 26.3992C3.10942 26.1256 2.26066 25.6774 1.58665 25.0936C1.08963 24.4831 0.728999 23.8127 0.519775 23.1103C0.656739 22.8269 0.86579 22.6881 1.14693 22.6881C2.2066 22.6881 3.49694 23.1992 5.01796 24.2325C5.31161 24.3871 5.57397 24.5743 5.7965 24.7881C5.6279 23.9579 5.51481 23.1216 5.45769 22.2825C5.40002 22.2825 5.35677 22.0547 5.33514 21.5992C5.31352 21.1436 5.25585 20.6103 5.22701 19.9325C3.85737 19.8158 2.57424 19.0547 1.36319 17.6547C0.974233 17.0262 0.702425 16.3585 0.555818 15.6714V15.4269C0.555818 15.0992 0.750452 14.9381 1.13251 14.9381C1.91656 15.1503 2.64791 15.4641 3.2951 15.8658C4.06688 16.2636 4.64112 16.8511 4.92425 17.5325C5.03959 17.6381 5.1333 17.7436 5.2198 17.8381V16.3381C5.24443 14.9296 5.46435 13.5272 5.87579 12.1547C5.52009 11.9445 5.21092 11.6912 4.96029 11.4047C4.35368 11.0119 3.90588 10.4932 3.66995 9.91028C3.30178 9.20137 3.08746 8.4506 3.03559 7.68806V7.64362C3.03559 6.68806 3.27347 6.21028 3.75645 6.21028H3.90062L5.34235 7.38251C5.87332 7.97709 6.30447 8.6211 6.62549 9.29917C6.62549 9.29917 6.68316 9.33806 6.71199 9.41584C6.94747 8.74177 7.3055 7.88436 7.78608 6.84362L8.44206 5.91584C8.53046 5.75187 8.63656 5.59391 8.75924 5.44362C8.75289 5.41233 8.75289 5.38046 8.75924 5.34917L8.84575 5.03806C8.52136 5.03806 8.36277 4.37695 8.36277 3.04917H8.27627L8.36277 2.9214V2.49917C8.8097 1.31769 9.37198 0.552878 10.0496 0.20473C10.1456 0.160913 10.2552 0.137881 10.3668 0.138063C10.9435 0.138063 11.3544 0.65473 11.5922 1.68251V3.34917H11.7364C11.7364 3.17695 12.8105 2.9714 14.9515 2.73251C15.3263 2.78806 15.5209 2.93251 15.5209 3.17139V3.88806C15.5209 4.76584 14.0792 5.36769 11.1958 5.69362C10.7488 5.72695 10.3091 5.74362 9.891 5.74362L8.92504 6.89917C8.47002 7.71345 8.08708 8.55056 7.77887 9.40473C8.96109 8.50473 10.0184 8.05473 10.9507 8.05473C11.4118 7.91585 11.8982 7.83337 12.3924 7.81028C12.8177 7.81028 13.0268 7.95473 13.0268 8.24917V8.9825C13.0268 9.58621 12.414 10.227 11.1886 10.9047C10.4931 11.1048 9.8263 11.3599 9.19897 11.6658C8.4667 11.8399 7.71678 11.9662 6.95709 12.0436C6.83454 12.4325 6.68316 12.8714 6.51736 13.3603C6.31345 14.3284 6.20741 15.3073 6.20018 16.2881V17.5436C7.32473 16.351 8.36517 15.7547 9.32152 15.7547C9.79306 15.5743 10.3168 15.4902 10.8425 15.5103C11.376 15.5103 11.6499 15.6547 11.6499 15.9492V16.2547C11.549 16.9732 10.7729 17.9232 9.32152 19.1047C8.37395 19.5284 7.33684 19.8199 6.25785 19.9658V19.9658C6.29389 20.5547 6.35877 21.3214 6.44527 22.2658C6.58582 22.6014 6.65638 22.9521 6.65432 23.3047C6.65432 23.5658 6.74083 23.9658 6.82733 24.5103C7.19703 24.0758 7.638 23.6799 8.1393 23.3325C8.95321 23.0241 9.8276 22.8214 10.7272 22.7325C11.1021 22.7881 11.2967 22.9381 11.2967 23.1714C10.8483 24.3 10.0433 25.3251 8.95388 26.1547C8.42722 26.4139 7.84699 26.6018 7.23822 26.7103C7.35356 27.2658 7.47611 27.8936 7.62028 28.5658C7.8213 29.1565 8.06191 29.7388 8.34114 30.3103L8.67995 31.0269C8.71599 31.1214 8.75924 31.2158 8.8025 31.2992C9.36369 29.9751 10.2632 28.751 11.4481 27.6992C11.8542 27.4652 12.2859 27.2588 12.7384 27.0825C13.1205 27.0825 13.3079 27.2436 13.3079 27.5714C13.2646 29.6603 12.587 31.1047 11.2174 31.8992C10.7381 32.2067 10.2323 32.4888 9.70357 32.7436V32.7436ZM1.59386 15.9825V16.0436C1.85894 16.9794 2.53969 17.8145 3.51857 18.4047C3.51857 18.5436 3.91504 18.7769 4.63591 19.0881H4.8017V19.0214C4.48484 18.4417 4.10378 17.8841 3.66274 17.3547C3.20172 16.7255 2.46994 16.2401 1.59386 15.9825ZM1.72362 23.5492V23.6158C1.89203 24.0305 2.16539 24.4154 2.52792 24.7482C2.89045 25.081 3.33495 25.3551 3.83575 25.5547C4.1699 25.7142 4.52217 25.8499 4.88821 25.9603C5.15252 25.9936 5.39281 26.0325 5.60907 26.0769V26.0103C5.31263 25.7536 5.06947 25.4631 4.88821 25.1492C4.69357 25.0603 4.05201 24.6714 2.9635 23.977C2.56884 23.8042 2.15365 23.661 1.72362 23.5492V23.5492ZM3.47531 31.1658V31.2325C3.91165 31.6688 4.47504 32.0198 5.11996 32.2572C5.76488 32.4946 6.47323 32.6118 7.18776 32.5992C7.18776 32.6325 7.34635 32.6492 7.65632 32.6492H7.84375V32.5992C7.36108 32.0728 6.65043 31.6965 5.83975 31.5381C5.07692 31.3326 4.2816 31.2074 3.47531 31.1658ZM3.95829 7.43251V7.67695C3.98481 8.34007 4.17822 8.9929 4.52778 9.59917C4.81317 10.1948 5.31337 10.7152 5.9695 11.0992V10.2825C5.8878 9.49362 5.27747 8.56769 4.13851 7.50473L3.95829 7.43251ZM6.40202 19.1547H6.48852C7.55657 18.9837 8.53343 18.5695 9.29268 17.9658C10.237 16.9992 10.7272 16.4269 10.7272 16.2381H10.6407C9.60666 16.318 8.62986 16.642 7.84375 17.1658C7.15463 17.7253 6.65889 18.4092 6.40202 19.1547V19.1547ZM7.12288 25.9547C7.69957 25.9547 8.49973 25.4436 9.53057 24.4103C9.71179 24.175 9.87079 23.9299 10.0063 23.6769H9.91983C9.14851 23.6769 8.34835 24.1492 7.51215 25.0936L7.12288 25.9547ZM7.26706 11.2103H7.44006C8.01675 11.2103 9.21819 10.8195 11.0444 10.0381C11.4955 9.78026 11.8571 9.44057 12.0968 9.04917V8.62139H12.0103C11.0944 8.67693 10.2104 8.90593 9.43685 9.28806C8.55565 9.81499 7.81412 10.4676 7.25264 11.2103H7.26706ZM9.82612 4.21028C9.88322 4.14183 9.96281 4.08625 10.0568 4.04917L10.2875 3.90473C10.4895 3.71073 10.6012 3.47011 10.6047 3.22139V1.66584C10.5326 1.25473 10.4316 1.04917 10.2875 1.04917C9.80507 1.45803 9.46091 1.95224 9.28547 2.48806V2.91028C9.28547 2.95473 9.28547 2.97695 9.20618 2.97695C9.25229 3.03599 9.27948 3.10264 9.28547 3.17139C9.28547 4.07139 9.36477 4.52139 9.52336 4.52139C9.53778 4.44362 9.62428 4.35473 9.8117 4.21028H9.82612ZM9.73962 31.7825C11.1813 30.8158 11.9142 30.1547 11.9383 29.7992C12.1932 29.2845 12.3275 28.739 12.3347 28.1881C11.0362 29.1689 10.1305 30.4165 9.7252 31.7825H9.73962ZM10.4605 4.94362L10.3956 5.02695C11.7457 5.01127 13.0682 4.73017 14.2378 4.21028C14.4185 4.08558 14.5318 3.91304 14.555 3.72695V3.52695C13.0977 3.5731 11.7075 4.01148 10.6263 4.76584L10.4605 4.94362Z" fill="#F3E8EE"/>
<path opacity="0.99" d="M27.5697 20.0277C27.9798 20.0253 28.388 20.0702 28.7808 20.1611C29.1282 20.2361 29.4679 20.3308 29.7972 20.4444C30.169 20.5744 30.5007 20.7638 30.7704 20.9999C30.8615 21.1161 30.9626 21.2275 31.0731 21.3333C31.1666 21.4555 31.2462 21.5838 31.311 21.7166C31.3867 21.8724 31.4375 22.0347 31.4624 22.1999C31.4624 22.3111 31.4768 22.6814 31.5056 23.3111C31.5272 24.0413 31.4693 24.7716 31.3326 25.4944C31.1961 26.4655 30.9006 27.4194 30.4532 28.3333C30.1118 29.0297 29.646 29.6861 29.0691 30.2833C28.6272 30.7313 28.0763 31.1087 27.4472 31.3944C26.9658 31.616 26.4266 31.7527 25.8685 31.7944C25.4222 31.807 24.9763 31.7619 24.5493 31.661C23.9942 31.5271 23.4743 31.3183 23.0139 31.0444C22.4345 30.689 21.9457 30.2538 21.5721 29.761C21.0715 29.1011 20.6999 28.3879 20.4692 27.6444C20.1534 26.623 19.9866 25.5776 19.9718 24.5277C19.9439 23.0977 20.0742 21.6685 20.3611 20.2555C20.5587 19.1608 20.8476 18.0771 21.2261 17.0111C21.5275 16.1646 21.9032 15.3349 22.3507 14.5277C22.6962 13.8993 23.116 13.2968 23.605 12.7277C23.987 12.2865 24.4214 11.8737 24.9025 11.4944C25.7457 10.7975 26.849 10.3199 28.0599 10.1277C28.4288 10.0799 28.8079 10.1247 29.1412 10.2555C29.445 10.4134 29.6928 10.6273 29.8621 10.8777C30.1308 11.2944 30.255 11.7576 30.2225 12.2222C30.2561 12.6488 30.2124 13.077 30.0928 13.4944C30.0104 13.797 29.872 14.0888 29.6819 14.3611C29.628 14.4729 29.5288 14.5685 29.3989 14.6335C29.2691 14.6985 29.1155 14.7296 28.961 14.7222C28.7519 14.7323 28.543 14.6998 28.3555 14.6277C28.2827 14.6045 28.2166 14.5705 28.161 14.5276C28.1053 14.4847 28.0612 14.4338 28.0311 14.3777C27.9988 14.2844 27.9917 14.1869 28.0103 14.0913C28.0289 13.9957 28.0728 13.9041 28.1392 13.8222L28.4636 13.0722C28.575 12.7944 28.6569 12.5101 28.7087 12.2222C28.7749 11.9748 28.7749 11.7196 28.7087 11.4722C28.6794 11.3736 28.6121 11.2843 28.5156 11.2158C28.419 11.1474 28.2979 11.1031 28.1681 11.0888C27.7879 11.1089 27.4185 11.1943 27.0868 11.3388C26.3494 11.6641 25.7317 12.1287 25.2918 12.6888C24.4803 13.6788 23.8678 14.7576 23.4752 15.8888C22.8124 17.7627 22.4208 19.6874 22.3074 21.6277C22.2209 22.8277 22.1993 23.8722 22.2426 24.7611C22.2637 25.5375 22.3576 26.3117 22.5237 27.0777C22.6463 27.6288 22.8345 28.1699 23.086 28.6944C23.2659 29.0601 23.5083 29.4058 23.8068 29.7222C24.0225 30.0006 24.3258 30.2326 24.6887 30.3967C25.0516 30.5608 25.4623 30.6518 25.8829 30.6611C26.2432 30.6278 26.5939 30.5489 26.921 30.4277C26.9786 30.3981 27.1012 30.3259 27.2886 30.211C27.5241 30.0493 27.728 29.8622 27.8941 29.6555C28.1579 29.3027 28.3752 28.9305 28.5429 28.5444C28.7841 28.0038 28.9508 27.4452 29.0403 26.8777C29.1556 26.137 29.2638 25.4092 29.3647 24.6944C29.4588 24.0803 29.5093 23.4627 29.5161 22.8444C29.5327 22.405 29.4597 21.9663 29.2998 21.5444C29.2545 21.4033 29.1567 21.2756 29.0184 21.1769C28.88 21.0781 28.7072 21.0128 28.5213 20.9888C28.1176 20.9444 27.6923 20.9111 27.2453 20.8888C26.7984 20.8666 26.3731 20.8555 25.9694 20.8555H24.5998C24.4758 20.8574 24.3521 20.8462 24.2321 20.8222C24.1924 20.8169 24.1546 20.8053 24.1211 20.7881C24.0875 20.7708 24.0591 20.7484 24.0375 20.7222C24.0375 20.5666 24.124 20.4222 24.3835 20.2833C24.5277 20.2444 24.7151 20.1999 24.9458 20.1555C25.216 20.1062 25.4908 20.0727 25.7676 20.0555H27.5697V20.0277Z" fill="#F3E8EE"/>
<path opacity="0.99" d="M41.7708 20.8611C42.0303 20.8611 42.1312 21.0463 42.0735 21.4166C42.0159 21.6166 41.9582 21.8389 41.9005 22.0833C41.8428 22.3278 41.778 22.5592 41.7059 22.7778C41.6226 23.0718 41.5142 23.3613 41.3815 23.6444C41.2662 23.9555 41.1508 24.2778 41.0355 24.6111C40.9201 24.9444 40.776 25.2778 40.603 25.6111C40.43 25.9815 40.2425 26.3518 40.0407 26.7222C39.8668 27.0392 39.6493 27.3409 39.3919 27.6222C39.1658 27.8409 38.9122 28.0418 38.635 28.2222C38.508 28.3053 38.359 28.3663 38.1985 28.4008C38.038 28.4353 37.8696 28.4426 37.7051 28.4222C37.3604 28.3654 37.0357 28.2517 36.7536 28.0889C36.3943 27.8729 36.0993 27.6001 35.8885 27.2889C35.5983 26.8696 35.3872 26.4207 35.2614 25.9555C35.0908 25.331 35.011 24.6937 35.0235 24.0555C35.0295 23.5989 35.0656 23.1427 35.1316 22.6889C35.2037 22.1555 35.2974 21.6166 35.4127 21.0722C35.5281 20.5278 35.665 19.9944 35.8236 19.4722C35.9571 19.0119 36.1379 18.5604 36.3643 18.1222C36.4201 18.0403 36.4427 17.9474 36.4292 17.8555C36.4243 17.7889 36.4243 17.7221 36.4292 17.6555C36.4037 17.602 36.3892 17.5458 36.3859 17.4889L36.2201 17.3778C36.1568 17.3191 36.0842 17.2668 36.0039 17.2222C35.8853 17.1495 35.7543 17.0896 35.6146 17.0444L35.3551 16.9611C35.2859 16.94 35.213 16.9269 35.1388 16.9222C35.0812 17.3722 35.0091 17.7833 34.9226 18.1611C34.8361 18.5389 34.7496 18.8833 34.6631 19.1944C34.5765 19.5055 34.4468 19.8722 34.3603 20.1611C34.2332 20.6917 34.0598 21.2151 33.8413 21.7278C33.7409 21.9353 33.6543 22.1467 33.5818 22.3611C33.4087 22.7389 33.1925 22.8722 32.933 22.7555C32.8465 22.7555 32.8032 22.6666 32.8032 22.5444C32.8087 22.3923 32.8377 22.2412 32.8897 22.0944C32.9319 21.8919 32.9896 21.6916 33.0627 21.4944C33.1204 21.2944 33.1925 21.0611 33.279 20.7944C33.3655 20.5278 33.452 20.2166 33.5385 19.8611L33.798 18.6611C33.8557 18.3278 33.9206 17.9574 33.9926 17.55C34.045 17.1996 34.0667 16.847 34.0575 16.4944C34.0277 16.3088 34.0423 16.1204 34.1008 15.9389C34.1556 15.8061 34.2522 15.6859 34.3819 15.5889C34.4762 15.5336 34.5867 15.4971 34.7036 15.4826C34.8205 15.468 34.9403 15.4759 35.0523 15.5055C35.4791 15.5764 35.8881 15.7002 36.2634 15.8722C36.6299 16.0597 36.9704 16.2756 37.2798 16.5166C37.6694 16.8372 37.971 17.2151 38.1664 17.6278L38.3395 18.1833C38.4304 18.4609 38.4668 18.7474 38.4476 19.0333C38.4185 19.3989 38.2934 19.7561 38.0799 20.0833C37.6913 20.8293 37.4015 21.6036 37.2149 22.3944C37.0419 23.154 36.9503 23.9233 36.941 24.6944C36.9135 25.3211 36.9862 25.948 37.1572 26.5611C37.3158 27.0722 37.5561 27.3611 37.8781 27.4278C38.1376 27.4722 38.4188 27.3055 38.7215 26.9222C39.0553 26.5006 39.3376 26.0561 39.5649 25.5944C39.9175 24.9399 40.2207 24.2703 40.4732 23.5889C40.6174 23.2833 40.7399 22.9889 40.8409 22.7111C40.9418 22.4333 41.0211 22.2055 41.0787 22.0278C41.1364 21.85 41.2373 21.6055 41.295 21.4278C41.3397 21.2784 41.4049 21.1331 41.4896 20.9944C41.5617 20.8833 41.6554 20.8389 41.7708 20.8611Z" fill="#F3E8EE"/>
<path opacity="0.99" d="M48.5612 17.9611C48.6655 17.8885 48.7819 17.8268 48.9072 17.7777C48.9444 17.7679 48.9843 17.7663 49.0226 17.7732C49.0608 17.7801 49.0958 17.7951 49.1235 17.8166C49.1811 17.8611 49.1956 17.9722 49.1667 18.15C49.1091 18.5203 48.6693 18.837 47.8475 19.1C46.8322 19.3902 45.7343 19.4651 44.6685 19.3166C44.9596 19.9435 45.2004 20.5836 45.3894 21.2333C45.6184 22.0033 45.6913 22.796 45.6057 23.5833C45.5349 24.179 45.4047 24.7696 45.2164 25.35C45.0904 25.7597 44.8863 26.1529 44.6109 26.5166C44.5322 26.6611 44.3875 26.7783 44.204 26.8459C44.0206 26.9135 43.8114 26.9268 43.6161 26.8833C43.2339 26.8245 42.877 26.6927 42.578 26.4999C42.299 26.3298 42.0558 26.1274 41.8572 25.9C41.6903 25.6998 41.5661 25.4804 41.4895 25.25C41.4174 25.0277 41.367 24.8425 41.3381 24.6944C41.3093 24.5462 41.2853 24.2185 41.2661 23.7111C41.2163 23.1117 41.2163 22.5105 41.2661 21.9111C41.33 21.1992 41.46 20.4919 41.6553 19.7944C41.8375 19.0996 42.1741 18.4343 42.6501 17.8277C42.7717 17.7803 42.8875 17.7245 42.9961 17.6611C43.3017 17.5364 43.6458 17.4787 43.9909 17.4944C44.1363 17.4923 44.2785 17.527 44.3957 17.5933C44.5129 17.6595 44.5986 17.7536 44.6397 17.8611C44.6771 17.9829 44.6684 18.1104 44.6148 18.2285C44.5611 18.3466 44.4647 18.4505 44.3369 18.5277L45.2452 18.6111C45.6047 18.6391 45.967 18.6391 46.3265 18.6111C46.7169 18.5864 47.1018 18.5248 47.4727 18.4277C47.8698 18.3252 48.2388 18.167 48.5612 17.9611ZM44.409 23.6277C44.4319 23.3113 44.4319 22.9942 44.409 22.6777C44.3935 22.3057 44.3502 21.9348 44.2793 21.5666C44.2072 21.1962 44.1279 20.8518 44.0414 20.5333C43.988 20.3042 43.9009 20.0805 43.7819 19.8666C43.6809 20.3259 43.5632 20.8018 43.4286 21.2944C43.3421 21.7166 43.2484 22.1666 43.1475 22.6388C43.0531 23.0767 42.9881 23.518 42.9529 23.9611C42.856 24.5209 42.9225 25.0903 43.1475 25.6277C43.3349 25.9166 43.5151 26.0388 43.6882 25.9944C43.8323 25.95 43.9693 25.6722 44.099 25.1777C44.2407 24.666 44.3442 24.1485 44.409 23.6277Z" fill="#F3E8EE"/>
<path opacity="0.99" d="M56.0438 18.3333C56.2093 18.4138 56.3925 18.4703 56.5844 18.5C56.8442 18.5599 57.1135 18.5917 57.3846 18.5944C57.868 18.5993 58.3509 18.5677 58.8263 18.5C59.4018 18.3791 59.9294 18.15 60.3618 17.8333C60.4822 17.7565 60.6127 17.6895 60.751 17.6333C60.9817 17.5444 61.0538 17.6667 60.9673 18C60.8658 18.2559 60.6877 18.4898 60.4473 18.6828C60.2068 18.8758 59.9108 19.0225 59.5832 19.1111C58.626 19.4219 57.5641 19.4862 56.5556 19.2944C56.6196 19.5027 56.663 19.7144 56.6853 19.9278C56.7142 20.1722 56.7574 20.4611 56.8151 20.7944C56.8439 21.2389 56.8656 21.7833 56.88 22.4278C56.8944 23.0722 56.8944 23.7555 56.88 24.4778C56.8127 25.1963 56.7358 25.9259 56.6493 26.6667C56.5738 27.338 56.4511 28.0056 56.2817 28.6667C56.1556 29.1859 55.9549 29.6927 55.6833 30.1778C55.5353 30.5009 55.234 30.7689 54.8399 30.9278C54.6091 30.9777 54.3652 30.9794 54.1334 30.9325C53.9015 30.8856 53.69 30.7919 53.5208 30.6611C53.0191 30.2625 52.6355 29.7849 52.3962 29.2611C51.9243 28.2289 51.6333 27.1527 51.5312 26.0611C51.3005 26.7722 51.0602 27.4167 50.8103 27.9944C50.5992 28.4449 50.3463 28.8831 50.0534 29.3055C49.7795 29.7 49.4983 29.8611 49.21 29.8278C48.8687 29.7759 48.544 29.6726 48.2546 29.5239C47.9651 29.3752 47.7166 29.1839 47.5232 28.9611C46.9846 28.2924 46.6861 27.5256 46.6581 26.7389C46.5954 26.1179 46.5737 25.4949 46.5933 24.8722C46.5933 24.1315 46.6365 23.3092 46.723 22.4055C46.8095 21.5018 46.9128 20.6037 47.033 19.7111C47.1815 18.8309 47.3908 17.9574 47.6601 17.0944C47.6819 16.9742 47.7413 16.8598 47.8331 16.7611C47.9773 16.5611 48.1647 16.5055 48.3954 16.5944C48.5287 16.6485 48.6523 16.7158 48.7631 16.7944C48.9074 16.8987 49.0249 17.0231 49.1091 17.1611C49.2173 17.3368 49.2902 17.5241 49.3253 17.7167C49.3749 17.9968 49.3749 18.2809 49.3253 18.5611C49.2677 18.7889 49.21 19.1722 49.1523 19.7167L48.9577 21.5667C48.8856 22.2555 48.8279 22.9778 48.7847 23.7333C48.7414 24.4889 48.7198 25.1889 48.7198 25.8333C48.7198 26.4778 48.7486 27.0222 48.8063 27.4667C48.864 27.9111 48.9793 28.1722 49.1523 28.2667C49.2677 28.2389 49.4262 27.9778 49.6281 27.4667C49.8011 27.0444 50.0246 26.3555 50.2985 25.4C50.5724 24.4444 50.9256 23.0759 51.3582 21.2944C51.3848 21.1255 51.4282 20.9583 51.4879 20.7944L51.6609 20.3944C51.7017 20.275 51.7931 20.1694 51.9204 20.0944C52.0428 20.0244 52.1731 19.9631 52.3097 19.9111C52.4379 19.8593 52.577 19.8255 52.7206 19.8111C52.833 19.7973 52.9481 19.8151 53.045 19.8611C53.1315 19.9055 53.1603 20.0055 53.1315 20.1611C53.0804 20.4428 53.0515 20.7267 53.045 21.0111C53.0161 21.4889 52.9873 22.0667 52.9585 22.7444C52.9296 23.4222 52.9296 24.15 52.9585 24.9278C52.9873 25.7055 53.0522 26.4463 53.1531 27.15C53.2338 27.7607 53.3932 28.3636 53.6289 28.95C53.7513 29.3572 54.0677 29.7141 54.5155 29.95C54.8465 29.4131 55.0654 28.8394 55.1643 28.25C55.337 27.3295 55.4381 26.402 55.4671 25.4722C55.5248 24.2722 55.4815 22.6833 55.3373 20.7055C55.2912 20.2139 55.1653 19.7286 54.9625 19.2611C54.7956 18.9561 54.7288 18.6241 54.7679 18.2944C54.7715 18.2501 54.7918 18.2075 54.8264 18.172C54.861 18.1365 54.9083 18.1095 54.9625 18.0944C55.0687 18.0722 55.1807 18.0722 55.2869 18.0944C55.4367 18.1109 55.5825 18.1446 55.7194 18.1944C55.7579 18.2217 55.8017 18.2442 55.8491 18.2611C55.9092 18.2922 55.9748 18.3165 56.0438 18.3333V18.3333Z" fill="#F3E8EE"/>
<path opacity="0.99" d="M77.3837 18.6088C77.5492 18.6893 77.7325 18.7458 77.9243 18.7755C78.1839 18.8369 78.4531 18.8706 78.7245 18.8755C79.1961 18.8768 79.6668 18.8433 80.1302 18.7755C80.7057 18.6546 81.2333 18.4255 81.6656 18.1088C81.7861 18.032 81.9165 17.965 82.0549 17.9088C82.2856 17.8199 82.3577 17.9422 82.2711 18.2755C82.1697 18.5314 81.9916 18.7653 81.7511 18.9583C81.5107 19.1513 81.2147 19.2981 80.8871 19.3866C79.9298 19.6974 78.8679 19.7617 77.8595 19.5699C77.9235 19.7782 77.9669 19.9899 77.9892 20.2033C78.0181 20.4477 78.0613 20.7366 78.119 21.0699C78.1478 21.5144 78.1694 22.0588 78.1839 22.7033C78.1983 23.3477 78.1983 24.0311 78.1839 24.7533C78.155 25.4755 78.0973 26.2033 78.0108 26.9366C77.9358 27.608 77.8131 28.2756 77.6432 28.9366C77.5164 29.4582 77.3133 29.967 77.0377 30.4533C76.8993 30.7786 76.602 31.0496 76.2087 31.2088C75.9748 31.262 75.7266 31.2653 75.4905 31.2183C75.2543 31.1714 75.0392 31.0759 74.8679 30.9422C74.3646 30.5446 73.9807 30.0666 73.7433 29.5422C73.2704 28.5102 72.9794 27.4339 72.8783 26.3422C72.6476 27.0533 72.4073 27.6977 72.1574 28.2755C71.9593 28.7274 71.7184 29.1675 71.4366 29.5922C71.1626 29.9625 70.8815 30.1348 70.5932 30.1088C70.2513 30.0581 69.9261 29.9553 69.6364 29.8065C69.3468 29.6577 69.0986 29.4658 68.9063 29.2422C68.3678 28.5735 68.0693 27.8066 68.0413 27.0199C67.9786 26.399 67.9569 25.7759 67.9764 25.1533C67.9764 24.4125 68.0197 23.5903 68.1062 22.6866C68.1927 21.7829 68.308 20.8774 68.4522 19.9699C68.5755 19.0983 68.7584 18.2323 69.0001 17.3755C69.0219 17.2552 69.0812 17.1408 69.1731 17.0422C69.3172 16.8422 69.5047 16.7866 69.7353 16.8755C69.8686 16.9296 69.9922 16.9968 70.103 17.0755C70.2474 17.1798 70.3648 17.3042 70.449 17.4422C70.5572 17.6178 70.6301 17.8052 70.6652 17.9977C70.7148 18.2798 70.7148 18.5657 70.6652 18.8477C70.5826 19.2286 70.5249 19.6124 70.4922 19.9977L70.2976 21.8477C70.2255 22.5366 70.1679 23.2588 70.1246 24.0144C70.0813 24.7699 70.0597 25.4699 70.0597 26.1144C70.0597 26.7588 70.0886 27.3033 70.1462 27.7477C70.2039 28.1922 70.3192 28.4588 70.4922 28.5477C70.6076 28.5255 70.7662 28.2588 70.968 27.7477C71.141 27.3255 71.3645 26.6366 71.6384 25.6811C71.9123 24.7255 72.256 23.3644 72.6692 21.5977C72.6959 21.4287 72.7392 21.2616 72.799 21.0977L72.972 20.6977C73.0166 20.5796 73.1072 20.4749 73.2315 20.3977C73.3539 20.3277 73.4842 20.2664 73.6208 20.2144C73.749 20.1626 73.8881 20.1288 74.0317 20.1144C74.1441 20.1006 74.2592 20.1184 74.3561 20.1644C74.4426 20.2088 74.4714 20.3088 74.4426 20.4644C74.3915 20.7461 74.3626 21.03 74.3561 21.3144C74.3272 21.7922 74.2984 22.3699 74.2696 23.0477C74.2407 23.7255 74.2407 24.4533 74.2696 25.2311C74.2984 26.0088 74.3633 26.7496 74.4642 27.4533C74.5441 28.0641 74.7035 28.6671 74.94 29.2533C75.0623 29.6605 75.3788 30.0174 75.8266 30.2533C76.1586 29.7167 76.3776 29.1429 76.4754 28.5533C76.6481 27.6328 76.7492 26.7052 76.7782 25.7755C76.8358 24.5755 76.7926 22.9866 76.6484 21.0088C76.6 20.5324 76.4765 20.0623 76.2808 19.6088C76.1139 19.3038 76.0471 18.9718 76.0861 18.6422C76.0897 18.5978 76.1101 18.5553 76.1447 18.5197C76.1792 18.4842 76.2266 18.4572 76.2808 18.4422C76.387 18.42 76.4989 18.42 76.6052 18.4422C76.755 18.4586 76.9008 18.4924 77.0377 18.5422C77.0762 18.5694 77.12 18.5919 77.1674 18.6088C77.2391 18.6168 77.312 18.6168 77.3837 18.6088V18.6088Z" fill="#F3E8EE"/>
<path opacity="0.99" d="M86.034 21.1422C86.2935 21.1422 86.3944 21.3274 86.3367 21.6978C86.3079 21.8978 86.2647 22.12 86.207 22.3644C86.1493 22.6089 86.0772 22.8422 85.9907 23.0644C85.9042 23.3311 85.8033 23.62 85.688 23.9311C85.5726 24.2422 85.4429 24.5755 85.2987 24.9311C85.1545 25.22 85.0104 25.5533 84.8662 25.9311C84.7154 26.3119 84.5274 26.6833 84.3039 27.0422C84.13 27.3592 83.9125 27.661 83.6551 27.9422C83.429 28.1609 83.1755 28.3618 82.8982 28.5422C82.7731 28.6277 82.6243 28.6902 82.4632 28.7248C82.3021 28.7595 82.1329 28.7654 81.9683 28.7422C81.3916 28.6533 80.9111 28.2422 80.5266 27.5089C80.0931 26.649 79.8873 25.731 79.9211 24.8089C79.9211 24.4385 79.9355 24.0107 79.9643 23.5255C79.9932 23.0404 80.0364 22.5126 80.0941 21.9422C80.1517 21.3867 80.231 20.8422 80.332 20.3089C80.4329 19.7755 80.5482 19.2922 80.678 18.8589C80.7737 18.5014 80.9262 18.1543 81.1321 17.8255C81.3051 17.57 81.507 17.4422 81.7376 17.4422C81.8009 17.4544 81.86 17.4772 81.9106 17.5089C82.1037 17.6152 82.2658 17.7514 82.3864 17.9089C82.5976 18.2035 82.6881 18.5405 82.6459 18.8755C82.5988 19.3571 82.5121 19.8358 82.3864 20.3089C82.2422 20.9311 82.1197 21.6533 82.0188 22.4755C81.9179 23.2978 81.853 24.0867 81.8241 24.8422C81.7927 25.4923 81.8071 26.1433 81.8674 26.7922C81.9251 27.3367 82.026 27.6422 82.1702 27.7089C82.4008 27.82 82.6676 27.6811 82.9703 27.2922C83.2996 26.8611 83.5817 26.4095 83.8137 25.9422C84.1764 25.2663 84.494 24.5765 84.7653 23.8755C84.9094 23.5644 85.032 23.27 85.1329 22.9922C85.2338 22.7144 85.3131 22.4867 85.3708 22.3089C85.4573 22.0867 85.5294 21.8867 85.587 21.7089C85.6317 21.5595 85.697 21.4142 85.7817 21.2755C85.8345 21.1644 85.9187 21.12 86.034 21.1422ZM82.1846 16.9089C81.704 16.8644 81.4637 16.7422 81.4637 16.5422C81.4637 16.3422 81.7376 16.2644 82.2855 16.3089C82.7661 16.3978 83.0064 16.5311 83.0064 16.7089C83.0064 16.8867 82.7324 16.9533 82.1846 16.9089Z" fill="#F3E8EE"/>
<path opacity="0.99" d="M99.7449 13.3088C99.7449 13.3533 99.6872 13.3866 99.5719 13.4088C99.3929 13.4635 99.2021 13.4918 99.0096 13.4921L97.7553 13.5421H96.3496C95.7297 13.5421 95.0088 13.5421 94.187 13.5421H88.867C88.7229 14.1199 88.5787 14.8088 88.4345 15.6088C88.2904 16.4088 88.1462 17.2755 88.002 18.2088C87.8578 18.9199 87.7425 19.6477 87.656 20.3921C87.5695 21.1366 87.4974 21.8644 87.4397 22.5755C87.4079 22.8247 87.3935 23.0751 87.3965 23.3255V24.0755C87.3676 24.631 87.3676 25.1421 87.3965 25.6088C87.4248 26.0055 87.4826 26.4006 87.5695 26.7921C87.5969 27.0896 87.7664 27.3687 88.0453 27.5755C88.3531 27.3362 88.5979 27.0532 88.7661 26.7421C89.0112 26.3421 89.2515 25.9199 89.487 25.4755C89.7465 24.9644 89.9868 24.4199 90.2078 23.8421C90.352 23.531 90.4818 23.2366 90.5971 22.9588C90.7125 22.681 90.799 22.4533 90.8566 22.2755C90.9431 22.0533 91.0152 21.8533 91.0729 21.6755C91.1176 21.5261 91.1828 21.3808 91.2675 21.2421C91.3396 21.131 91.4189 21.0866 91.5054 21.1088C91.7937 21.1088 91.8947 21.294 91.8082 21.6644C91.7793 21.8644 91.7361 22.0866 91.6784 22.331C91.6207 22.5755 91.5487 22.8088 91.4621 23.031C91.3756 23.2977 91.2747 23.5866 91.1594 23.8977C91.044 24.2088 90.9215 24.5533 90.7917 24.931C90.6476 25.2199 90.5034 25.5533 90.3592 25.931C90.2084 26.3118 90.0205 26.6832 89.797 27.0421C89.6679 27.2867 89.5086 27.5211 89.3212 27.7421C89.1767 27.9203 89.0022 28.0828 88.8022 28.2255C88.7193 28.2921 88.6178 28.3433 88.5053 28.3751C88.3929 28.4068 88.2725 28.4184 88.1534 28.4088C87.9298 28.4144 87.707 28.3848 87.4988 28.3218C87.2905 28.2587 87.1012 28.1636 86.9423 28.0421C86.6352 27.8024 86.3905 27.5195 86.2215 27.2088C86.0076 26.8231 85.8481 26.4208 85.7457 26.0088C85.6246 25.5981 85.5522 25.1797 85.5294 24.7588C85.5006 24.3033 85.4862 23.8866 85.4862 23.5088V22.1533C85.6592 20.2421 85.8755 18.5644 86.135 17.1199C86.3945 15.6755 86.6348 14.4866 86.8558 13.5533L84.3256 13.5033C83.5615 13.5033 82.9199 13.4866 82.4009 13.4533C81.9684 13.4533 81.5935 13.4421 81.2763 13.4199L80.5339 13.3755C80.3176 13.3533 80.2095 13.3199 80.2095 13.2755C80.2095 13.1644 80.505 13.081 81.0961 13.0255C82.0546 12.9577 83.0172 12.9299 83.9796 12.9421C84.2968 12.9644 84.7149 12.9755 85.2339 12.9755H87.0216C87.0793 12.7088 87.137 12.4699 87.1946 12.2588C87.2399 12.0843 87.2977 11.9118 87.3676 11.7421C87.4214 11.5997 87.4647 11.455 87.4974 11.3088C87.6059 11.0739 87.7512 10.85 87.9299 10.6421C87.9893 10.5818 88.064 10.5315 88.1496 10.4942C88.2351 10.457 88.3296 10.4336 88.4273 10.4255C88.6147 10.4255 88.8238 10.5644 89.0545 10.8421C89.1121 10.9533 89.1698 11.0755 89.2275 11.2088C89.3436 11.5121 89.3585 11.8332 89.2707 12.1421C89.2314 12.2458 89.2025 12.3517 89.1842 12.4588C89.1554 12.6033 89.1121 12.7755 89.0545 12.9755H92.6588C93.9275 12.9755 95.0809 12.9921 96.1189 13.0255C97.157 13.0588 98.0148 13.0921 98.6924 13.1255C99.3652 13.181 99.716 13.2421 99.7449 13.3088Z" fill="#F3E8EE"/>
<path opacity="0.99" d="M92.9543 24.1755C93.0697 23.5088 93.2211 22.7866 93.4085 22.0088C93.5908 21.2759 93.8316 20.5523 94.1294 19.8421C94.3506 19.2569 94.6705 18.6966 95.0809 18.1755C95.1953 17.9939 95.3692 17.8385 95.5854 17.7245C95.8015 17.6105 96.0525 17.5419 96.3136 17.5255C96.4019 17.5257 96.4895 17.5369 96.5731 17.5588L96.7894 17.6255C96.8987 17.6575 97.0008 17.7025 97.0921 17.7588C97.5088 18.0969 97.7936 18.5185 97.9139 18.9755C98.1629 19.9476 98.1922 20.9456 98.0004 21.9255C97.9716 22.2144 97.9427 22.481 97.9139 22.7255C97.8851 22.9699 97.8586 23.1866 97.8346 23.3755C97.8058 23.5755 97.7914 23.7199 97.7914 23.8088C97.7337 24.7866 97.7337 25.6533 97.7914 26.4088C97.849 27.1644 97.9571 27.5977 98.1157 27.7088C98.3464 27.8199 98.6131 27.681 98.9159 27.2921C99.2452 26.861 99.5273 26.4094 99.7593 25.9421C100.122 25.2662 100.44 24.5764 100.711 23.8755C100.855 23.5644 100.985 23.2699 101.1 22.9921C101.215 22.7144 101.302 22.4866 101.36 22.3088C101.446 22.0866 101.518 21.8866 101.576 21.7088C101.621 21.5594 101.686 21.4142 101.771 21.2755C101.843 21.1644 101.936 21.1199 102.052 21.1421C102.311 21.1421 102.398 21.3273 102.311 21.6977C102.282 21.8977 102.239 22.1199 102.181 22.3644C102.124 22.6088 102.052 22.8421 101.965 23.0644C101.879 23.331 101.778 23.6199 101.662 23.931C101.547 24.2421 101.398 24.5755 101.215 24.931C101.071 25.2199 100.927 25.5533 100.783 25.931C100.632 26.3118 100.444 26.6832 100.221 27.0421C100.047 27.3592 99.8293 27.6609 99.5719 27.9421C99.3571 28.1595 99.1157 28.3604 98.851 28.5421C98.7258 28.6276 98.5771 28.6901 98.416 28.7247C98.2549 28.7594 98.0856 28.7653 97.9211 28.7421C97.3444 28.6533 96.8638 28.2421 96.4794 27.5088C96.0459 26.6489 95.84 25.7309 95.8739 24.8088C95.8739 24.4088 95.8955 23.9199 95.9387 23.3421C95.982 22.7644 96.0324 22.1533 96.0901 21.5088C96.0942 21.4136 96.1087 21.3188 96.1334 21.2255C96.1622 21.1033 96.191 20.9755 96.2199 20.8421C96.2487 20.7088 96.2775 20.5421 96.3064 20.3421C96.3064 20.2533 96.3064 20.1421 96.3064 20.0088C96.3208 19.8757 96.3208 19.7419 96.3064 19.6088C96.296 19.4883 96.2595 19.37 96.1982 19.2588C96.1804 19.2162 96.1459 19.1789 96.0994 19.1521C96.0529 19.1252 95.9968 19.1101 95.9387 19.1088C95.708 19.0866 95.4558 19.3588 95.1818 19.9255C94.8583 20.6274 94.5982 21.3458 94.4033 22.0755C94.1582 22.9421 93.9563 23.881 93.7978 24.8921C93.6445 25.8262 93.5794 26.7675 93.6031 27.7088C93.7185 27.9977 93.6752 28.1977 93.4734 28.3088C93.4171 28.351 93.3452 28.3785 93.2676 28.3875C93.19 28.3964 93.1107 28.3864 93.0409 28.3588C92.8803 28.2939 92.7342 28.2095 92.6083 28.1088C92.4369 27.973 92.2779 27.8282 92.1326 27.6755C91.7635 27.1939 91.5187 26.662 91.4117 26.1088C91.2675 25.4866 91.1666 24.8866 91.1089 24.3088C91.0513 23.6199 91.0369 22.9088 91.0657 22.1755C91.2099 20.4866 91.3973 18.9699 91.628 17.6255C91.8586 16.281 92.0989 15.1421 92.3488 14.2088C92.6083 13.1199 92.8678 12.1533 93.1274 11.3088C93.2114 11.0724 93.3427 10.8474 93.5166 10.6421C93.576 10.5818 93.6507 10.5315 93.7363 10.4942C93.8218 10.457 93.9163 10.4336 94.014 10.4255C94.2014 10.4255 94.4105 10.5644 94.6412 10.8421C94.7255 10.9714 94.7977 11.105 94.8574 11.2421C94.9188 11.3701 94.9482 11.5058 94.9439 11.6421C94.9417 11.8109 94.9126 11.9788 94.8574 12.1421C94.7998 12.3199 94.6916 12.7477 94.533 13.4255C94.3745 14.1033 94.2087 14.9255 94.0356 15.8921C93.8626 16.8588 93.6896 17.8977 93.5166 19.0088C93.3436 20.1199 93.2139 21.1977 93.1274 22.2421C93.1274 22.4866 93.1129 22.731 93.0841 22.9755C93.0553 23.2199 93.0337 23.431 93.0192 23.6088C92.9745 23.7957 92.9528 23.9854 92.9543 24.1755V24.1755Z" fill="#F3E8EE"/>
<path opacity="0.99" d="M119.629 22.7778C119.393 23.3778 119.153 23.9444 118.908 24.4778C118.706 24.9222 118.482 25.3667 118.252 25.8111C118.066 26.1767 117.824 26.5237 117.531 26.8444C117.437 26.9778 117.321 27.101 117.185 27.2111C117.068 27.3009 116.937 27.3793 116.796 27.4444C116.733 27.477 116.66 27.497 116.585 27.5028C116.509 27.5086 116.433 27.5 116.363 27.4778C116.132 27.4778 115.945 27.3555 115.801 27.1111C115.645 26.8411 115.515 26.5626 115.412 26.2778C115.296 25.9074 115.195 25.5185 115.109 25.1111C115.022 24.7111 114.943 24.2444 114.857 23.7111C114.77 23 114.705 22.2722 114.655 21.5278C114.604 20.7833 114.561 20.0889 114.503 19.4444C114.446 18.7111 114.402 17.9889 114.381 17.2778C114.299 17.9222 114.234 18.6055 114.186 19.3278C114.136 20.05 114.085 20.7889 114.028 21.55C113.97 22.2167 113.927 22.9167 113.898 23.65C113.898 24.3833 113.898 25.0944 113.898 25.7833C113.898 26.4722 113.898 27.1167 113.898 27.7167C113.903 28.2178 113.942 28.7185 114.013 29.2167C114.002 29.3109 114.002 29.4057 114.013 29.5C114.04 29.6205 114.086 29.7381 114.15 29.85C114.201 29.9833 114.258 30.1389 114.316 30.3167C114.374 30.4944 114.366 30.6055 114.273 30.65C114.179 30.6944 113.898 30.6944 113.667 30.5167C113.546 30.4282 113.442 30.3273 113.357 30.2167C113.228 30.051 113.115 29.8783 113.018 29.7C112.803 29.2798 112.641 28.8444 112.535 28.4C112.34 27.635 112.207 26.8612 112.139 26.0833C112.03 24.9075 112.008 23.7278 112.074 22.55C112.182 20.4611 112.377 18.5222 112.629 16.7333C112.849 15.1192 113.227 13.5201 113.761 11.95C113.804 11.8083 113.877 11.6732 113.977 11.55C114.112 11.3055 114.299 11.2278 114.539 11.3167C114.621 11.3493 114.691 11.3966 114.744 11.4546C114.797 11.5127 114.83 11.5797 114.842 11.65C115.123 11.8944 115.267 12.8944 115.267 14.65C115.267 14.9167 115.267 15.3111 115.318 15.8333C115.368 16.3555 115.368 16.9444 115.397 17.5833C115.426 18.2222 115.469 18.9278 115.505 19.6833C115.541 20.4389 115.599 21.1833 115.657 21.9055C115.714 22.6278 115.772 23.2055 115.837 23.8055C115.885 24.3167 115.943 24.8333 116.01 25.3555C116.06 25.8778 116.118 26.2833 116.176 26.5722C116.233 26.6389 116.334 26.4537 116.478 26.0167C116.623 25.5796 116.781 25.0685 116.954 24.4833C117.156 23.8167 117.372 23.05 117.61 22.1833C117.697 21.9167 117.79 21.6278 117.913 21.2333C118.017 20.8779 118.147 20.5274 118.302 20.1833C118.417 19.7779 118.559 19.3774 118.728 18.9833C119.052 18.2278 119.355 17.4833 119.657 16.7611C119.96 16.0389 120.27 15.3278 120.587 14.6611C120.905 13.9944 121.215 13.3833 121.517 12.8278C121.82 12.2722 122.087 11.7944 122.325 11.3944C122.498 11.1278 122.663 10.8833 122.836 10.6611C122.973 10.4919 123.144 10.3401 123.341 10.2111C123.415 10.154 123.51 10.1155 123.613 10.1006C123.716 10.0857 123.822 10.0952 123.918 10.1278C124.079 10.2253 124.206 10.3531 124.285 10.4989C124.365 10.6448 124.395 10.8039 124.372 10.9611C124.383 11.4616 124.361 11.9623 124.307 12.4611C124.307 12.75 124.221 13.2 124.12 13.8111C124.019 14.4222 123.918 15.1333 123.81 15.9444C123.702 16.7555 123.601 17.6444 123.492 18.6111C123.384 19.5778 123.269 20.5722 123.19 21.5944C123.125 22.35 123.082 23.1389 123.053 23.9611C123.024 24.7833 123.053 25.5778 123.053 26.3444C123.053 27.1111 123.053 27.8278 123.053 28.4944C123.053 29.1611 123.096 29.7167 123.154 30.1611C123.192 30.2594 123.221 30.3596 123.24 30.4611C123.27 30.5968 123.313 30.7306 123.37 30.8611C123.428 31.0167 123.492 31.1944 123.572 31.4167C123.651 31.6389 123.615 31.7389 123.507 31.7833C123.459 31.8148 123.399 31.8347 123.337 31.8406C123.274 31.8466 123.21 31.8382 123.154 31.8167C123.033 31.7704 122.92 31.7145 122.815 31.65C122.681 31.5495 122.563 31.4377 122.462 31.3167C122.303 31.1257 122.166 30.925 122.051 30.7167C121.8 30.2496 121.614 29.7636 121.496 29.2667C121.265 28.4149 121.114 27.5516 121.042 26.6833C120.916 25.3632 120.899 24.0384 120.991 22.7167C121.078 21.1167 121.207 19.6055 121.38 18.1833L120.659 20.0833C120.458 20.5944 120.249 21.1055 120.047 21.6167C119.845 22.1278 119.737 22.5 119.629 22.7778Z" fill="#F3E8EE"/>
<path opacity="0.99" d="M133.383 21.4222C133.241 22.1752 133.021 22.9182 132.727 23.6444C132.469 24.296 132.146 24.9312 131.761 25.5444C131.384 26.1669 130.864 26.7316 130.225 27.2111C129.831 27.5128 129.379 27.7658 128.885 27.9611C128.401 28.1484 127.854 28.2126 127.32 28.1444C126.999 28.1055 126.692 28.0146 126.419 27.8778C126.176 27.7574 125.97 27.5982 125.814 27.4111C125.639 27.2134 125.493 27.0009 125.381 26.7778C125.191 26.439 125.075 26.0788 125.035 25.7111C125.001 25.2741 124.958 24.8518 124.905 24.4444C124.877 23.9554 124.892 23.4654 124.949 22.9778C125.031 22.0716 125.182 21.1701 125.403 20.2778C125.556 19.5874 125.78 18.9075 126.073 18.2444C126.239 17.8619 126.482 17.5019 126.794 17.1778C127.023 16.9099 127.308 16.6733 127.637 16.4778C127.99 16.2717 128.43 16.1764 128.87 16.2111C129.165 16.2361 129.447 16.3162 129.692 16.4444C129.952 16.5826 130.154 16.7754 130.276 17C130.453 17.3336 130.548 17.6896 130.557 18.05C130.575 18.2358 130.56 18.4227 130.514 18.6055C130.449 18.7833 130.384 18.9944 130.297 19.2389C130.211 19.4833 130.088 19.75 129.951 20.0389C129.804 20.3277 129.599 20.5975 129.346 20.8389C129.096 21.0731 128.821 21.2906 128.524 21.4889C128.169 21.7139 127.756 21.8786 127.313 21.9722C127.313 22.3722 127.234 22.7833 127.183 23.2055C127.133 23.6278 127.082 23.9889 127.054 24.4222C127.025 24.8497 127.025 25.2781 127.054 25.7055C127.051 25.9075 127.08 26.109 127.14 26.3055C127.198 26.4587 127.268 26.609 127.349 26.7556C127.386 26.8212 127.441 26.8803 127.509 26.929C127.577 26.9778 127.658 27.0152 127.746 27.0389C127.946 27.1053 128.165 27.1339 128.383 27.1223C128.601 27.1107 128.813 27.0593 129 26.9722C129.416 26.7812 129.782 26.5326 130.081 26.2389C130.406 25.9014 130.695 25.5448 130.946 25.1722C131.291 24.6352 131.581 24.0779 131.811 23.5055C131.946 23.1944 132.068 22.9055 132.179 22.6389C132.28 22.3722 132.352 22.15 132.417 21.9722L132.633 21.4167C132.678 21.2673 132.743 21.122 132.828 20.9833C132.893 20.8722 132.993 20.8278 133.109 20.85C133.349 20.8537 133.44 21.0444 133.383 21.4222ZM128.841 16.8555C128.553 16.8333 128.313 17.0444 128.12 17.4889C127.934 17.981 127.789 18.4821 127.688 18.9889C127.568 19.6333 127.452 20.3741 127.342 21.2111C127.938 20.9512 128.425 20.5658 128.748 20.1C129.056 19.6561 129.275 19.1783 129.396 18.6833C129.502 18.2763 129.502 17.857 129.396 17.45C129.281 17.0759 129.096 16.8778 128.841 16.8555Z" fill="#F3E8EE"/>
<path opacity="0.99" d="M136.021 27.2888C136.024 27.3814 136.002 27.4734 135.958 27.5594C135.913 27.6453 135.846 27.7234 135.762 27.7889C135.677 27.8543 135.575 27.9058 135.464 27.9402C135.352 27.9746 135.233 27.9911 135.113 27.9888C134.999 27.9891 134.887 27.9716 134.783 27.9372C134.679 27.9028 134.585 27.8523 134.507 27.7888C134.422 27.7236 134.355 27.6455 134.31 27.5595C134.266 27.4735 134.244 27.3814 134.248 27.2888C134.253 27.1133 134.346 26.9462 134.507 26.8221C134.668 26.698 134.885 26.6264 135.113 26.6222C135.233 26.6196 135.352 26.636 135.464 26.6704C135.576 26.7048 135.677 26.7564 135.761 26.8222C135.844 26.8821 135.909 26.9545 135.954 27.0348C135.999 27.115 136.021 27.2015 136.021 27.2888V27.2888Z" fill="#F3E8EE"/>
<path opacity="0.99" d="M142.428 31.9C141.078 31.1037 140.381 29.6592 140.337 27.5666C140.337 27.2444 140.525 27.0777 140.907 27.0777C141.359 27.2574 141.79 27.4655 142.197 27.7C143.388 28.7484 144.292 29.9709 144.857 31.2944C144.901 31.2111 144.944 31.1166 144.987 31.0166L145.319 30.3055C145.6 29.7346 145.841 29.1523 146.039 28.5611C146.184 27.8889 146.306 27.2722 146.422 26.7055C145.815 26.5977 145.237 26.4097 144.713 26.15C143.618 25.3249 142.81 24.3009 142.363 23.1722C142.363 22.9333 142.558 22.7889 142.933 22.7333C143.822 22.8245 144.687 23.0272 145.492 23.3333C145.995 23.668 146.44 24.0507 146.818 24.4722C146.905 23.9166 146.969 23.5278 147.013 23.2666C146.997 22.914 147.053 22.5615 147.178 22.2222C147.265 21.2778 147.33 20.5166 147.373 19.9277C146.292 19.7871 145.251 19.5033 144.295 19.0889C142.853 17.9055 142.068 16.9555 141.974 16.2389V15.9333C141.974 15.6389 142.241 15.4889 142.774 15.4889C143.299 15.4714 143.822 15.5555 144.295 15.7333C145.256 15.7333 146.297 16.3315 147.416 17.5277V16.2722C147.409 15.2914 147.303 14.3125 147.099 13.3444C146.933 12.8555 146.789 12.4166 146.659 12.0222C145.899 11.9504 145.149 11.8259 144.418 11.65C143.784 11.3488 143.112 11.0976 142.414 10.9C141.188 10.2259 140.575 9.58701 140.575 8.9833V8.24997C140.575 7.95553 140.792 7.81108 141.21 7.81108C141.704 7.83142 142.191 7.91399 142.651 8.05553C143.584 8.05553 144.641 8.50553 145.823 9.40553C145.514 8.5523 145.134 7.71537 144.684 6.89997C144.331 6.47219 144.021 6.09442 143.754 5.76108C143.329 5.76108 142.889 5.76108 142.442 5.71108C139.559 5.38331 138.117 4.78331 138.117 3.90553V3.17219C138.117 2.9333 138.312 2.78331 138.687 2.73331C140.849 2.97219 141.902 3.17775 141.902 3.34997H142.046V1.66664C142.284 0.638861 142.695 0.122193 143.271 0.122193C143.383 0.122012 143.493 0.145044 143.589 0.188861C144.266 0.533305 144.831 1.29812 145.283 2.4833V2.90553L145.362 3.0333H145.283C145.283 4.36108 145.117 5.02219 144.792 5.02219L144.879 5.32775C144.886 5.36087 144.886 5.39463 144.879 5.42775C145.004 5.5768 145.111 5.73497 145.196 5.89997L145.852 6.82775C146.328 7.86664 146.688 8.72775 146.926 9.39997C146.955 9.32219 146.984 9.2833 147.013 9.2833C147.332 8.6035 147.765 7.95907 148.303 7.36664L149.745 6.19442H149.889C150.372 6.19442 150.61 6.67219 150.61 7.62219V7.67219C150.558 8.43474 150.344 9.1855 149.975 9.89442C149.738 10.4767 149.29 10.995 148.685 11.3889C148.428 11.6747 148.114 11.9278 147.755 12.1389C148.167 13.5113 148.386 14.9137 148.411 16.3222V17.8333C148.498 17.7389 148.599 17.6333 148.707 17.5277C148.99 16.8463 149.564 16.2588 150.336 15.8611C150.981 15.4568 151.713 15.1428 152.498 14.9333C152.873 14.9333 153.068 15.0944 153.068 15.4222V15.6666C152.924 16.3543 152.652 17.0223 152.261 17.65C151.049 19.05 149.766 19.8111 148.397 19.9277C148.397 20.6333 148.339 21.2 148.31 21.5944C148.281 21.9889 148.224 22.2777 148.166 22.2777C148.109 23.1168 147.995 23.9531 147.827 24.7833C148.048 24.5682 148.31 24.3808 148.606 24.2278C150.129 23.1944 151.42 22.6778 152.477 22.6778C152.758 22.6778 152.967 22.8222 153.111 23.1055C152.908 23.8059 152.557 24.4758 152.073 25.0889C151.403 25.6747 150.553 26.1216 149.601 26.3889C149.077 26.6259 148.495 26.7755 147.892 26.8278H147.467C147.336 27.6403 147.139 28.4457 146.876 29.2389C146.605 29.9749 146.281 30.6983 145.903 31.4055H145.967C146.479 31 147.784 30.6722 149.896 30.4111C151.078 30.4444 151.669 30.5889 151.669 30.85L151.59 31.2222C151.012 31.6256 150.475 32.0621 149.983 32.5278C148.848 33.0223 147.585 33.3164 146.285 33.3889H145.232C145.047 33.3917 144.863 33.3749 144.684 33.3389C143.862 34.2611 143.228 34.7222 142.781 34.7222C142.442 34.7222 142.277 34.6166 142.277 34.4L142.356 34.0722C142.825 33.8254 143.237 33.5192 143.574 33.1666L143.913 32.7444C143.395 32.4874 142.899 32.2054 142.428 31.9ZM143.041 4.76664C141.961 4.01025 140.57 3.57155 139.112 3.52775V3.72219C139.133 3.91026 139.247 4.08501 139.429 4.21108C140.599 4.73097 141.921 5.01207 143.271 5.02775L143.206 4.94442L143.041 4.76664ZM141.311 28.1889C141.318 28.7398 141.452 29.2853 141.707 29.8C141.75 30.1703 142.483 30.8315 143.906 31.7833C143.504 30.4186 142.604 29.1711 141.311 28.1889V28.1889ZM144.194 9.29997C143.421 8.91784 142.537 8.68884 141.621 8.63331H141.534V9.05553C141.774 9.45007 142.138 9.79198 142.594 10.05C144.415 10.8315 145.617 11.2222 146.198 11.2222H146.364C145.81 10.477 145.076 9.82065 144.201 9.28886L144.194 9.29997ZM145.737 17.1666C144.967 16.6473 144.008 16.3234 142.99 16.2389H142.904C143.24 16.8702 143.71 17.4541 144.295 17.9666C145.057 18.5673 146.033 18.981 147.099 19.1555H147.178C146.923 18.4094 146.427 17.7252 145.737 17.1666V17.1666ZM144.072 4.52219C144.223 4.52219 144.302 4.07219 144.302 3.17219C144.308 3.10344 144.335 3.03678 144.381 2.97775C144.331 2.97775 144.302 2.97775 144.302 2.91108V2.48886C144.134 1.95715 143.8 1.46512 143.329 1.05553C143.185 1.05553 143.084 1.26108 143.012 1.67219V3.22219C143.032 3.46709 143.154 3.70059 143.358 3.88886L143.589 4.03331C143.683 4.07038 143.762 4.12597 143.819 4.19442C144.007 4.35553 144.1 4.44442 144.1 4.52219H144.072ZM146.097 25.0778C145.268 24.1333 144.461 23.6611 143.689 23.6611H143.603C143.741 23.9142 143.902 24.1593 144.086 24.3944C145.117 25.4278 145.917 25.9389 146.494 25.9389L146.097 25.0778ZM147.784 31.5222C146.973 31.6806 146.263 32.0569 145.78 32.5833V32.6278H145.946C146.256 32.6278 146.414 32.6278 146.414 32.5833C147.13 32.5966 147.839 32.4792 148.484 32.2407C149.13 32.0022 149.692 31.6494 150.127 31.2111V31.1666C149.338 31.2116 148.559 31.3368 147.813 31.5389L147.784 31.5222ZM149.478 7.48331C148.329 8.54257 147.717 9.46849 147.64 10.2611V11.1111C148.295 10.7286 148.795 10.2102 149.082 9.61664C149.431 9.01037 149.624 8.35753 149.651 7.69442V7.44997L149.478 7.48331ZM150.595 23.9722C149.507 24.6666 148.872 25.0555 148.671 25.1444C148.493 25.4598 148.249 25.7507 147.95 26.0055V26.1111C148.185 26.0666 148.426 26.0278 148.671 25.9944C149.038 25.8817 149.392 25.7461 149.73 25.5889C150.742 25.1779 151.502 24.4747 151.842 23.6333V23.5722C151.419 23.6797 151.011 23.8192 150.624 23.9889L150.595 23.9722ZM149.918 17.3055C149.478 17.8355 149.097 18.393 148.779 18.9722V19.0389H148.945C149.665 18.7203 150.04 18.4926 150.069 18.3555C151.052 17.7662 151.738 16.9313 152.008 15.9944V15.9277C151.129 16.2013 150.4 16.7021 149.947 17.3444L149.918 17.3055Z" fill="#F3E8EE"/>
</g>
</svg>
