<svg xmlns="http://www.w3.org/2000/svg" viewBox="0 0 320 308"><defs><style>.cls-1,.cls-2{fill:#f2f2f2;}.cls-1{opacity:0.5;}</style></defs><title>icons</title><g id="heart"><path class="cls-1" d="M160,119c-21.07-21.52-44.07-8.34-44,15-1.59,13.69,16.39,35,39.22,58.19a6.9,6.9,0,0,0,9.7.13C187.85,170.17,205,148.63,204,129,200.74,109.72,181.7,99,160,119Z"/><path class="cls-2" d="M160,132.54c-12.45-12.72-26-4.93-26,8.86-.94,8.09,9.68,20.68,23.18,34.38a4.06,4.06,0,0,0,5.72.08c13.55-13.08,23.69-25.81,23.09-37.41C184,127.06,172.78,120.71,160,132.54Z"/></g></svg>