<svg width="24" height="24" viewBox="0 0 24 24" fill="none" xmlns="http://www.w3.org/2000/svg">
<path opacity="0.5" d="M12.0077 3.03603C6.2704 -2.95941 0.00759622 0.712518 0.0266569 7.21501C-0.406293 11.029 4.48958 16.966 10.7061 23.4267C11.0531 23.7871 11.525 23.993 12.0195 23.9998C12.5139 24.0066 12.991 23.8137 13.3474 23.4629C19.5911 17.2919 24.261 11.2909 23.9887 5.82201C23.101 0.450635 17.9165 -2.53594 12.0077 3.03603Z" fill="#F2F2F2"/>
<path d="M12.0076 6.80823C8.61748 3.26446 4.92788 5.43474 4.92788 9.27661C4.67192 11.5305 7.56369 15.038 11.2397 18.8548C11.4439 19.0681 11.7222 19.1901 12.014 19.1943C12.3057 19.1985 12.5873 19.0845 12.7972 18.8771C16.4868 15.233 19.2479 11.6865 19.0845 8.45475C18.5426 5.28151 15.4875 3.51241 12.0076 6.80823Z" fill="#F2F2F2"/>
</svg>
