<svg xmlns="http://www.w3.org/2000/svg" viewBox="0 0 320 308"><defs><style>.cls-1,.cls-2{fill:#f2f2f2;}.cls-1{opacity:0.5;}</style></defs><title>icons</title><g id="house"><path class="cls-1" d="M105.16,148.71l3.77,4.71a3.17,3.17,0,0,0,4.56.4L159,114l47.29,41.37a1,1,0,0,0,1.34-.08L214.1,148a1.4,1.4,0,0,0-.08-1.94L197,131V101.85a1.85,1.85,0,0,0-1.85-1.85H184.56a1.56,1.56,0,0,0-1.56,1.56V117l-18-15c-4-4-7.71-3.94-12,0l-47.4,41.71A3.65,3.65,0,0,0,105.16,148.71Z"/><path class="cls-2" d="M123,155.92a3.14,3.14,0,0,1,1.06-2.35L156,125.5c1.93-1.63,3.91-2,6,0l31.9,28A3.26,3.26,0,0,1,195,156v32c.09,2.7-.92,4-3,4H172c-4,0-4-3-4-6V167.71a1.7,1.7,0,0,0-1.71-1.71H150.65a1.65,1.65,0,0,0-1.65,1.65v20.78c-.14,2.29-1.26,3.52-3.5,3.57H126a3.11,3.11,0,0,1-3-3.5Z"/></g></svg>