<svg width="24" height="24" viewBox="0 0 24 24" fill="none" xmlns="http://www.w3.org/2000/svg">
<path opacity="0.5" d="M0.172217 12.8257L0.994148 14.0415C1.05253 14.1275 1.12501 14.1987 1.20724 14.2508C1.28947 14.3028 1.37974 14.3346 1.47262 14.3442C1.5655 14.3539 1.65907 14.3412 1.7477 14.3069C1.83632 14.2726 1.91817 14.2174 1.98832 14.1447L11.9104 3.86611L22.2205 14.5448C22.2627 14.5849 22.3159 14.605 22.3699 14.6012C22.4239 14.5973 22.4748 14.5699 22.5126 14.5242L23.9232 12.6424C23.9756 12.5725 24.003 12.4812 23.9997 12.3879C23.9965 12.2945 23.9628 12.2063 23.9058 12.1417L20.1951 8.25426V0.729864C20.1951 0.603214 20.1526 0.481752 20.077 0.392197C20.0013 0.302642 19.8987 0.25233 19.7918 0.25233H17.4829C17.3927 0.25233 17.3062 0.294756 17.2424 0.370273C17.1787 0.445789 17.1428 0.548211 17.1428 0.655007V4.64049L13.2185 0.768584C12.3464 -0.263924 11.5376 -0.248436 10.6023 0.768584L0.268144 11.5351C0.115772 11.6948 0.0209084 11.9177 0.0030652 12.1578C-0.014778 12.3978 0.0457568 12.6369 0.172217 12.8257V12.8257Z" fill="#F2F2F2"/>
<path d="M4.06166 14.6868C4.06173 14.572 4.08237 14.4586 4.12221 14.3541C4.16204 14.2495 4.22018 14.1561 4.29276 14.0802L11.2563 6.83454C11.6771 6.41379 12.1087 6.31828 12.5644 6.83454L19.5192 14.0621C19.5962 14.1427 19.6575 14.2422 19.6989 14.3536C19.7403 14.465 19.7608 14.5857 19.759 14.7074V22.9675C19.7786 23.6644 19.5584 24 19.105 24H14.7446C13.8725 24 13.8725 23.2256 13.8725 22.4512V17.7301C13.8728 17.672 13.8634 17.6145 13.8447 17.5608C13.8261 17.507 13.7986 17.4582 13.764 17.4172C13.7293 17.3761 13.6881 17.3436 13.6427 17.3216C13.5973 17.2995 13.5487 17.2883 13.4997 17.2887H10.0899C9.99448 17.2887 9.90298 17.3335 9.83552 17.4134C9.76805 17.4933 9.73015 17.6016 9.73015 17.7146V23.0785C9.69963 23.6696 9.45545 23.9871 8.96709 24H4.71572C4.62108 23.9969 4.52803 23.9704 4.44257 23.9222C4.35711 23.8739 4.28112 23.805 4.21951 23.7199C4.15789 23.6348 4.11202 23.5354 4.08483 23.428C4.05764 23.3206 4.04975 23.2077 4.06166 23.0965V14.6868Z" fill="#F2F2F2"/>
</svg>
