<svg width="24" height="27" viewBox="0 0 24 27" fill="none" xmlns="http://www.w3.org/2000/svg">
<g clip-path="url(#clip0)">
<path d="M12.0053 7.43562C8.5982 7.43562 5.84999 10.1409 5.84999 13.4948C5.84999 16.8487 8.5982 19.554 12.0053 19.554C15.4125 19.554 18.1607 16.8487 18.1607 13.4948C18.1607 10.1409 15.4125 7.43562 12.0053 7.43562ZM12.0053 17.4341C9.80356 17.4341 8.00356 15.6675 8.00356 13.4948C8.00356 11.3221 9.7982 9.55554 12.0053 9.55554C14.2125 9.55554 16.0071 11.3221 16.0071 13.4948C16.0071 15.6675 14.2071 17.4341 12.0053 17.4341V17.4341ZM19.8482 7.18777C19.8482 7.97351 19.2053 8.60105 18.4125 8.60105C17.6143 8.60105 16.9768 7.96824 16.9768 7.18777C16.9768 6.4073 17.6196 5.77449 18.4125 5.77449C19.2053 5.77449 19.8482 6.4073 19.8482 7.18777ZM23.925 8.62214C23.8339 6.72898 23.3946 5.05203 21.9857 3.67039C20.5821 2.28874 18.8786 1.85632 16.9553 1.7614C14.9732 1.65066 9.03213 1.65066 7.04999 1.7614C5.13213 1.85105 3.42856 2.28347 2.01963 3.66511C0.610704 5.04675 0.176775 6.72371 0.0803467 8.61687C-0.0321533 10.568 -0.0321533 16.4163 0.0803467 18.3675C0.171418 20.2606 0.610704 21.9376 2.01963 23.3192C3.42856 24.7009 5.12678 25.1333 7.04999 25.2282C9.03213 25.3389 14.9732 25.3389 16.9553 25.2282C18.8786 25.1385 20.5821 24.7061 21.9857 23.3192C23.3893 21.9376 23.8286 20.2606 23.925 18.3675C24.0375 16.4163 24.0375 10.5733 23.925 8.62214V8.62214ZM21.3643 20.461C20.9464 21.4946 20.1375 22.2909 19.0821 22.7075C17.5018 23.3245 13.7518 23.1821 12.0053 23.1821C10.2589 23.1821 6.50356 23.3192 4.92856 22.7075C3.87856 22.2962 3.06963 21.4999 2.64642 20.461C2.01963 18.9053 2.16428 15.2139 2.16428 13.4948C2.16428 11.7757 2.02499 8.07898 2.64642 6.52859C3.06428 5.49499 3.8732 4.69871 4.92856 4.2821C6.50892 3.66511 10.2589 3.80749 12.0053 3.80749C13.7518 3.80749 17.5071 3.67039 19.0821 4.2821C20.1321 4.69343 20.9411 5.48972 21.3643 6.52859C21.9911 8.08425 21.8464 11.7757 21.8464 13.4948C21.8464 15.2139 21.9911 18.9106 21.3643 20.461Z" fill="#F2F2F2"/>
</g>
<defs>
<clipPath id="clip0">
<rect width="24" height="27" fill="white"/>
</clipPath>
</defs>
</svg>
