<svg xmlns="http://www.w3.org/2000/svg" viewBox="0 0 320 308"><defs><style>.cls-1,.cls-2{fill:#f2f2f2;}.cls-2{opacity:0.25;}</style></defs><title>icons</title><g id="pie"><path class="cls-1" d="M146,120c0-5.32,2.93-6.66,8-5,15.51,4,27.33,12.54,31,31,.66,5.28,1.56,7.79-3,9H146Z"/><path class="cls-1" d="M149,163l25,25c2.05,1.9,4.06,2.11,6,.79a6.45,6.45,0,0,0,1.53-1.51A74.94,74.94,0,0,0,191,170c2-4.56,1.29-7.46-5-7Z"/><path class="cls-2" d="M137,123c-.45-3.63-2.79-3.87-7-3-12.6,5.15-21.61,10.93-27.16,21.69a39.15,39.15,0,0,0,2.89,40.64c9.76,14.28,27.07,21.8,43.93,17.95A42.79,42.79,0,0,0,159,197c7-4,6-5-1-12l-21-22Z"/></g></svg>