<svg width="24" height="24" viewBox="0 0 24 24" fill="none" xmlns="http://www.w3.org/2000/svg">
<path d="M12.1955 1.56486C12.1955 0.0964507 12.9475 -0.273412 14.2487 0.184776C18.2295 1.28884 21.2631 3.64603 22.2051 8.7413C22.3745 10.1987 22.6055 10.8915 21.4351 11.2255H12.1955V1.56486Z" fill="#F2F2F2"/>
<path d="M12.9654 13.4336L19.3818 20.334C19.908 20.8585 20.4238 20.9164 20.9218 20.5521C21.0734 20.4378 21.2061 20.2969 21.3144 20.1353C22.3163 18.6674 23.1335 17.0637 23.745 15.3657C24.2583 14.1071 24.076 13.3067 22.4617 13.4336H12.9654Z" fill="#F2F2F2"/>
<path opacity="0.25" d="M9.88555 2.3929C9.77006 1.39096 9.16948 1.32471 8.08896 1.56485C4.85509 2.98634 2.54262 4.58172 1.11818 7.55167C0.272578 9.31453 -0.105519 11.2937 0.0253141 13.2723C0.156147 15.2509 0.790864 17.1526 1.85992 18.769C4.36488 22.7105 8.8076 24.7862 13.1348 23.7235C13.9638 23.5225 14.7682 23.2187 15.532 22.8182C17.3286 21.7141 17.0719 21.4381 15.2753 19.506L9.88555 13.4336V2.3929Z" fill="#F2F2F2"/>
</svg>
