<svg width="24" height="24" viewBox="0 0 24 24" fill="none" xmlns="http://www.w3.org/2000/svg">
<g clip-path="url(#clip0)">
<path d="M12.2345 11.7073C14.8177 11.7073 16.9119 9.08655 16.9119 5.85366C16.9119 2.62077 14.8177 0 12.2345 0C9.65119 0 7.55704 2.62077 7.55704 5.85366C7.55704 9.08655 9.65119 11.7073 12.2345 11.7073Z" fill="#F2F2F2"/>
<path opacity="0.5" d="M3.46433 9.95124C4.94971 9.95124 6.15385 8.4443 6.15385 6.58539C6.15385 4.72647 4.94971 3.21953 3.46433 3.21953C1.97895 3.21953 0.774811 4.72647 0.774811 6.58539C0.774811 8.4443 1.97895 9.95124 3.46433 9.95124Z" fill="#F2F2F2"/>
<path d="M9.42786 13.4634C10.2353 13.9503 11.1073 14.2479 12.0004 14.3415C12.9877 14.4442 13.9744 14.1355 14.8069 13.4634C17.6251 13.7385 19.1265 15.761 19.2505 19.6098C19.4516 22.642 18.6962 23.8566 17.3795 24H6.62141C5.27197 23.7454 4.59374 22.3698 4.75043 19.6098C5.12229 15.7083 6.57931 13.4985 9.42786 13.4634Z" fill="#F2F2F2"/>
<path opacity="0.5" d="M0.0729855 14.0488C-0.0715293 15.5694 -0.00107251 17.11 0.281132 18.6C0.288434 18.6374 0.305522 18.6707 0.329676 18.6946C0.353831 18.7184 0.383668 18.7315 0.414442 18.7317H3.65358C3.67286 18.7319 3.69195 18.7269 3.70957 18.7171C3.7272 18.7073 3.74295 18.693 3.75579 18.675C3.76862 18.657 3.77824 18.6358 3.78401 18.6127C3.78978 18.5897 3.79155 18.5654 3.78923 18.5415C3.66527 17.1424 4.49085 13.68 6.37352 12.9541C6.39607 12.944 6.41617 12.9268 6.4319 12.9042C6.44763 12.8816 6.45848 12.8543 6.4634 12.825C6.46833 12.7956 6.46716 12.7652 6.46003 12.7366C6.45289 12.7079 6.44002 12.6821 6.42264 12.6615C6.13731 12.278 5.62279 11.8273 4.51657 11.7102H1.96736C1.95185 11.7074 1.93609 11.7074 1.92058 11.7102C0.699764 12.2371 0.199277 13.0624 0.0729855 14.0488Z" fill="#F2F2F2"/>
<path opacity="0.5" d="M20.5369 9.95124C22.0222 9.95124 23.2264 8.4443 23.2264 6.58539C23.2264 4.72647 22.0222 3.21953 20.5369 3.21953C19.0515 3.21953 17.8474 4.72647 17.8474 6.58539C17.8474 8.4443 19.0515 9.95124 20.5369 9.95124Z" fill="#F2F2F2"/>
<path opacity="0.5" d="M23.928 14.0488C24.0713 15.5695 24.0008 17.1098 23.7198 18.6001C23.7125 18.6375 23.6954 18.6708 23.6713 18.6946C23.6471 18.7185 23.6173 18.7316 23.5865 18.7318H20.3474C20.3281 18.7319 20.309 18.727 20.2914 18.7172C20.2738 18.7074 20.258 18.693 20.2452 18.675C20.2323 18.657 20.2227 18.6358 20.2169 18.6128C20.2112 18.5898 20.2094 18.5655 20.2117 18.5415C20.3357 17.1425 19.5101 13.6801 17.6274 12.9542C17.6044 12.9448 17.5838 12.9279 17.5676 12.9053C17.5515 12.8828 17.5404 12.8553 17.5354 12.8256C17.5304 12.7959 17.5318 12.7652 17.5393 12.7364C17.5468 12.7076 17.5603 12.6817 17.5783 12.6615C17.8637 12.2781 18.3782 11.8274 19.4844 11.7103H22.0313C22.0475 11.7074 22.0641 11.7074 22.0804 11.7103C23.2988 12.2371 23.8017 13.0625 23.928 14.0488Z" fill="#F2F2F2"/>
</g>
<defs>
<clipPath id="clip0">
<rect width="24" height="24" fill="white"/>
</clipPath>
</defs>
</svg>
