<svg xmlns="http://www.w3.org/2000/svg" viewBox="0 0 320 300"><defs><style>.cls-1,.cls-2{fill:#f2f2f2;}.cls-2{opacity:0.5;}</style></defs><title>icons</title><g id="users"><circle class="cls-1" cx="186" cy="124" r="20"/><circle class="cls-2" cx="148.5" cy="126.5" r="11.5"/><path class="cls-1" d="M174,150a31.37,31.37,0,0,0,11,3,19.2,19.2,0,0,0,12-3c12.05.94,18.47,7.85,19,21,.86,10.36-2.37,14.51-8,15H162c-5.77-.87-8.67-5.57-8-15C155.59,157.67,161.82,150.12,174,150Z"/><path class="cls-2" d="M134,152a44.59,44.59,0,0,0,.89,15.55.59.59,0,0,0,.57.45h13.85a.58.58,0,0,0,.58-.65c-.53-4.78,3-16.61,11.05-19.09a.6.6,0,0,0,.21-1c-1.22-1.31-3.42-2.85-8.15-3.25H142.1a.69.69,0,0,0-.2,0C136.68,145.81,134.54,148.63,134,152Z"/><circle class="cls-2" cx="221.5" cy="126.5" r="11.5"/><path class="cls-2" d="M236,152a44.84,44.84,0,0,1-.89,15.55.59.59,0,0,1-.57.45H220.69a.58.58,0,0,1-.58-.65c.53-4.78-3-16.61-11.05-19.09a.59.59,0,0,1-.21-1c1.22-1.31,3.42-2.85,8.15-3.25h10.89a.76.76,0,0,1,.21,0C233.31,145.81,235.46,148.63,236,152Z"/></g></svg>